  0
SECTION
  2
HEADER
  9
$ANGBASE
  50
0.0
  9
$ANGDIR
  70
1
  9
$MEASUREMENT
  70
0
  0
ENDSEC
  0
SECTION
  2
TABLES
  0
TABLE
  2
LTYPE
  70
4
  0
LTYPE
  5
40F
  2
CONTINUOUS
  70
0
  3
Solid line
  72
65
  73
0
  40
0.0
  0
LTYPE
  5
410
  2
DASHDOT
 70
0
  3
Dash Dot ____ _ ____ _
 72
65
 73
4
 40
2.0
 49
1.25
 49
-0.25
 49
0.25
 49
-0.25
  0
LTYPE
  5
411
  2
DASHED
 70
0
  3
Dashed __ __ __ __ __
 72
65
 73
2
 40
0.75
 49
0.5
 49
-0.25
  0
LTYPE
  5
43B
  2
DOTTED
 70
0
  3
Dotted .  .  .  .
 72
65
 73
2
 40
0.2
 49
0.0
 49
-0.2
  0
ENDTAB
  0
TABLE
  2
STYLE
  70
4
  0
STYLE
  2
KICAD
  70
0
  40
0
  41
1
  42
1
  50
0
  71
0
  3
isocp.shx
  0
STYLE
  2
KICADB
  70
0
  40
0
  41
1
  42
1
  50
0
  71
0
  3
isocp.shx
  0
STYLE
  2
KICADI
  70
0
  40
0
  41
1
  42
1
  50
15
  71
0
  3
isocp.shx
  0
STYLE
  2
KICADBI
  70
0
  40
0
  41
1
  42
1
  50
15
  71
0
  3
isocp.shx
  0
ENDTAB
  0
TABLE
  2
LAYER
  70
1
  0
LAYER
  2
BLACK
  70
0
  62
7
  6
CONTINUOUS
  0
ENDTAB
  0
ENDSEC
  0
SECTION
  2
ENTITIES
0
LINE
8
BLACK
6
CONTINUOUS
10
0.00420559
20
-0.690499
11
0.00391732
21
-0.689803
0
LINE
8
BLACK
6
CONTINUOUS
10
0.00391732
20
-0.689803
11
0.00391732
21
0.00019685
0
LINE
8
BLACK
6
CONTINUOUS
10
0.00391732
20
0.00019685
11
0.00420559
21
0.000892835
0
LINE
8
BLACK
6
CONTINUOUS
10
0.00420559
20
0.000892835
11
0.00490157
21
0.0011811
0
LINE
8
BLACK
6
CONTINUOUS
10
0.00490157
20
0.0011811
11
0.964902
21
0.0011811
0
LINE
8
BLACK
6
CONTINUOUS
10
0.964902
20
0.0011811
11
0.965598
21
0.000892835
0
LINE
8
BLACK
6
CONTINUOUS
10
0.965598
20
0.000892835
11
0.965886
21
0.00019685
0
LINE
8
BLACK
6
CONTINUOUS
10
0.965886
20
0.00019685
11
0.965886
21
-0.689803
0
LINE
8
BLACK
6
CONTINUOUS
10
0.965886
20
-0.689803
11
0.965598
21
-0.690499
0
LINE
8
BLACK
6
CONTINUOUS
10
0.965598
20
-0.690499
11
0.964902
21
-0.690787
0
LINE
8
BLACK
6
CONTINUOUS
10
0.964902
20
-0.690787
11
0.00490157
21
-0.690787
0
LINE
8
BLACK
6
CONTINUOUS
10
0.00490157
20
-0.690787
11
0.00420559
21
-0.690499
0
LINE
8
BLACK
6
CONTINUOUS
10
0.00588583
20
-0.000787402
11
0.00588583
21
-0.688819
0
LINE
8
BLACK
6
CONTINUOUS
10
0.00588583
20
-0.688819
11
0.963917
21
-0.688819
0
LINE
8
BLACK
6
CONTINUOUS
10
0.963917
20
-0.688819
11
0.963917
21
-0.000787402
0
LINE
8
BLACK
6
CONTINUOUS
10
0.963917
20
-0.000787402
11
0.00588583
21
-0.000787402
0
LINE
8
BLACK
6
CONTINUOUS
10
0.793162
20
-0.00326736
11
0.80079
21
-0.00497894
0
LINE
8
BLACK
6
CONTINUOUS
10
0.80079
20
-0.00497894
11
0.807973
21
-0.00806295
0
LINE
8
BLACK
6
CONTINUOUS
10
0.807973
20
-0.00806295
11
0.814468
21
-0.0124144
0
LINE
8
BLACK
6
CONTINUOUS
10
0.814468
20
-0.0124144
11
0.820052
21
-0.0178851
0
LINE
8
BLACK
6
CONTINUOUS
10
0.820052
20
-0.0178851
11
0.824536
21
-0.0242887
0
LINE
8
BLACK
6
CONTINUOUS
10
0.824536
20
-0.0242887
11
0.827767
21
-0.0314072
0
LINE
8
BLACK
6
CONTINUOUS
10
0.827767
20
-0.0314072
11
0.829634
21
-0.0389981
0
LINE
8
BLACK
6
CONTINUOUS
10
0.829634
20
-0.0389981
11
0.830076
21
-0.0468031
0
LINE
8
BLACK
6
CONTINUOUS
10
0.830076
20
-0.0468031
11
0.829075
21
-0.0545562
0
LINE
8
BLACK
6
CONTINUOUS
10
0.829075
20
-0.0545562
11
0.826667
21
-0.0619934
0
LINE
8
BLACK
6
CONTINUOUS
10
0.826667
20
-0.0619934
11
0.822933
21
-0.0688615
0
LINE
8
BLACK
6
CONTINUOUS
10
0.822933
20
-0.0688615
11
0.818001
21
-0.0749267
0
LINE
8
BLACK
6
CONTINUOUS
10
0.818001
20
-0.0749267
11
0.812039
21
-0.0799821
0
LINE
8
BLACK
6
CONTINUOUS
10
0.812039
20
-0.0799821
11
0.812039
21
-0.0799823
0
LINE
8
BLACK
6
CONTINUOUS
10
0.812039
20
-0.0799823
11
0.812039
21
-0.0799823
0
LINE
8
BLACK
6
CONTINUOUS
10
0.812039
20
-0.0799823
11
0.394271
21
-0.372506
0
LINE
8
BLACK
6
CONTINUOUS
10
0.394271
20
-0.372506
11
0.394271
21
-0.372506
0
LINE
8
BLACK
6
CONTINUOUS
10
0.394271
20
-0.372506
11
0.387481
21
-0.37638
0
LINE
8
BLACK
6
CONTINUOUS
10
0.387481
20
-0.37638
11
0.380095
21
-0.37894
0
LINE
8
BLACK
6
CONTINUOUS
10
0.380095
20
-0.37894
11
0.372364
21
-0.3801
0
LINE
8
BLACK
6
CONTINUOUS
10
0.372364
20
-0.3801
11
0.364552
21
-0.379819
0
LINE
8
BLACK
6
CONTINUOUS
10
0.364552
20
-0.379819
11
0.356924
21
-0.378107
0
LINE
8
BLACK
6
CONTINUOUS
10
0.356924
20
-0.378107
11
0.349741
21
-0.375023
0
LINE
8
BLACK
6
CONTINUOUS
10
0.349741
20
-0.375023
11
0.343246
21
-0.370672
0
LINE
8
BLACK
6
CONTINUOUS
10
0.343246
20
-0.370672
11
0.337662
21
-0.365201
0
LINE
8
BLACK
6
CONTINUOUS
10
0.337662
20
-0.365201
11
0.333178
21
-0.358798
0
LINE
8
BLACK
6
CONTINUOUS
10
0.333178
20
-0.358798
11
0.329947
21
-0.351679
0
LINE
8
BLACK
6
CONTINUOUS
10
0.329947
20
-0.351679
11
0.328079
21
-0.344088
0
LINE
8
BLACK
6
CONTINUOUS
10
0.328079
20
-0.344088
11
0.327638
21
-0.336283
0
LINE
8
BLACK
6
CONTINUOUS
10
0.327638
20
-0.336283
11
0.328639
21
-0.32853
0
LINE
8
BLACK
6
CONTINUOUS
10
0.328639
20
-0.32853
11
0.331047
21
-0.321093
0
LINE
8
BLACK
6
CONTINUOUS
10
0.331047
20
-0.321093
11
0.33478
21
-0.314225
0
LINE
8
BLACK
6
CONTINUOUS
10
0.33478
20
-0.314225
11
0.339713
21
-0.30816
0
LINE
8
BLACK
6
CONTINUOUS
10
0.339713
20
-0.30816
11
0.345675
21
-0.303104
0
LINE
8
BLACK
6
CONTINUOUS
10
0.345675
20
-0.303104
11
0.763443
21
-0.0105801
0
LINE
8
BLACK
6
CONTINUOUS
10
0.763443
20
-0.0105801
11
0.763443
21
-0.0105801
0
LINE
8
BLACK
6
CONTINUOUS
10
0.763443
20
-0.0105801
11
0.770233
21
-0.00670626
0
LINE
8
BLACK
6
CONTINUOUS
10
0.770233
20
-0.00670626
11
0.777619
21
-0.00414598
0
LINE
8
BLACK
6
CONTINUOUS
10
0.777619
20
-0.00414598
11
0.78535
21
-0.00298654
0
LINE
8
BLACK
6
CONTINUOUS
10
0.78535
20
-0.00298654
11
0.793162
21
-0.00326736
0
LINE
8
BLACK
6
CONTINUOUS
10
0.779555
20
-0.0083578
11
0.772509
21
-0.0106642
0
LINE
8
BLACK
6
CONTINUOUS
10
0.772509
20
-0.0106642
11
0.766359
21
-0.0141259
0
LINE
8
BLACK
6
CONTINUOUS
10
0.766359
20
-0.0141259
11
0.766153
21
-0.0144501
0
LINE
8
BLACK
6
CONTINUOUS
10
0.766153
20
-0.0144501
11
0.766153
21
-0.0144501
0
LINE
8
BLACK
6
CONTINUOUS
10
0.766153
20
-0.0144501
11
0.348385
21
-0.306974
0
LINE
8
BLACK
6
CONTINUOUS
10
0.348385
20
-0.306974
11
0.34801
21
-0.307057
0
LINE
8
BLACK
6
CONTINUOUS
10
0.34801
20
-0.307057
11
0.342653
21
-0.311652
0
LINE
8
BLACK
6
CONTINUOUS
10
0.342653
20
-0.311652
11
0.338076
21
-0.317485
0
LINE
8
BLACK
6
CONTINUOUS
10
0.338076
20
-0.317485
11
0.334725
21
-0.324098
0
LINE
8
BLACK
6
CONTINUOUS
10
0.334725
20
-0.324098
11
0.332728
21
-0.331238
0
LINE
8
BLACK
6
CONTINUOUS
10
0.332728
20
-0.331238
11
0.332162
21
-0.33863
0
LINE
8
BLACK
6
CONTINUOUS
10
0.332162
20
-0.33863
11
0.33305
21
-0.345991
0
LINE
8
BLACK
6
CONTINUOUS
10
0.33305
20
-0.345991
11
0.335356
21
-0.353037
0
LINE
8
BLACK
6
CONTINUOUS
10
0.335356
20
-0.353037
11
0.338993
21
-0.359498
0
LINE
8
BLACK
6
CONTINUOUS
10
0.338993
20
-0.359498
11
0.34382
21
-0.365125
0
LINE
8
BLACK
6
CONTINUOUS
10
0.34382
20
-0.365125
11
0.349653
21
-0.369702
0
LINE
8
BLACK
6
CONTINUOUS
10
0.349653
20
-0.369702
11
0.356266
21
-0.373054
0
LINE
8
BLACK
6
CONTINUOUS
10
0.356266
20
-0.373054
11
0.363406
21
-0.375051
0
LINE
8
BLACK
6
CONTINUOUS
10
0.363406
20
-0.375051
11
0.370798
21
-0.375616
0
LINE
8
BLACK
6
CONTINUOUS
10
0.370798
20
-0.375616
11
0.378159
21
-0.374729
0
LINE
8
BLACK
6
CONTINUOUS
10
0.378159
20
-0.374729
11
0.385205
21
-0.372422
0
LINE
8
BLACK
6
CONTINUOUS
10
0.385205
20
-0.372422
11
0.391355
21
-0.368961
0
LINE
8
BLACK
6
CONTINUOUS
10
0.391355
20
-0.368961
11
0.391561
21
-0.368636
0
LINE
8
BLACK
6
CONTINUOUS
10
0.391561
20
-0.368636
11
0.809329
21
-0.0761123
0
LINE
8
BLACK
6
CONTINUOUS
10
0.809329
20
-0.0761123
11
0.809704
21
-0.0760291
0
LINE
8
BLACK
6
CONTINUOUS
10
0.809704
20
-0.0760291
11
0.81506
21
-0.0714341
0
LINE
8
BLACK
6
CONTINUOUS
10
0.81506
20
-0.0714341
11
0.819638
21
-0.0656018
0
LINE
8
BLACK
6
CONTINUOUS
10
0.819638
20
-0.0656018
11
0.822989
21
-0.0589886
0
LINE
8
BLACK
6
CONTINUOUS
10
0.822989
20
-0.0589886
11
0.824986
21
-0.0518485
0
LINE
8
BLACK
6
CONTINUOUS
10
0.824986
20
-0.0518485
11
0.825552
21
-0.0444561
0
LINE
8
BLACK
6
CONTINUOUS
10
0.825552
20
-0.0444561
11
0.824664
21
-0.0370955
0
LINE
8
BLACK
6
CONTINUOUS
10
0.824664
20
-0.0370955
11
0.822358
21
-0.0300494
0
LINE
8
BLACK
6
CONTINUOUS
10
0.822358
20
-0.0300494
11
0.818721
21
-0.0235886
0
LINE
8
BLACK
6
CONTINUOUS
10
0.818721
20
-0.0235886
11
0.813894
21
-0.0179615
0
LINE
8
BLACK
6
CONTINUOUS
10
0.813894
20
-0.0179615
11
0.808061
21
-0.0133842
0
LINE
8
BLACK
6
CONTINUOUS
10
0.808061
20
-0.0133842
11
0.801448
21
-0.0100328
0
LINE
8
BLACK
6
CONTINUOUS
10
0.801448
20
-0.0100328
11
0.794308
21
-0.00803587
0
LINE
8
BLACK
6
CONTINUOUS
10
0.794308
20
-0.00803587
11
0.786916
21
-0.00747031
0
LINE
8
BLACK
6
CONTINUOUS
10
0.786916
20
-0.00747031
11
0.779555
21
-0.0083578
  0
ENDSEC
  0
EOF
