<?xml version="1.0" standalone="no"?>
 <!DOCTYPE svg PUBLIC "-//W3C//DTD SVG 1.1//EN" 
 "http://www.w3.org/Graphics/SVG/1.1/DTD/svg11.dtd"> 
<svg
  xmlns:svg="http://www.w3.org/2000/svg"
  xmlns="http://www.w3.org/2000/svg"
  xmlns:xlink="http://www.w3.org/1999/xlink"
  version="1.1"
  width="29.700220cm" height="21.000720cm" viewBox="0 0 297002200 210007200">
<title>SVG Picture created as omniscope_single_sub-F_Cu.svg date 2023/02/14 09:15:32 </title>
  <desc>Picture generated by PCBNEW </desc>
<g style="fill:#000000; fill-opacity:1.000000;stroke:#000000; stroke-opacity:1.000000;
stroke-linecap:round; stroke-linejoin:round;"
 transform="translate(0 0) scale(1 1)">
</g>
<g style="fill:#000000; fill-opacity:0.0; 
stroke:#000000; stroke-width:0.000000; stroke-opacity:1; 
stroke-linecap:round; stroke-linejoin:round;">
</g>
<g style="fill:#000000; fill-opacity:0.0; 
stroke:#000000; stroke-width:50000.000000; stroke-opacity:1; 
stroke-linecap:round; stroke-linejoin:round;">
<path d="M124500 -5000
L24508500 -5000
" />
<path d="M24508500 -5000
L24508500 17521000
" />
<path d="M24508500 17521000
L124500 17521000
" />
<path d="M124500 17521000
L124500 -5000
" />
</g>
<g style="fill:#000000; fill-opacity:0.0; 
stroke:#000000; stroke-width:120000.000000; stroke-opacity:1; 
stroke-linecap:round; stroke-linejoin:round;">
<path d="M8814564 7747993
L19425860 317884
" />
<path d="M8814564.357807 7747993.511001 A1016000.000000 1016000.000000 0.0 1 0 9980072.112039 9412510.160009" />
<path d="M20591368.014605 1982402.449008 A1016001.000000 1016001.000000 0.0 1 0 19425859.784230 317883.691849" />
<path d="M9980072 9412510
L20591367 1982401
" />
<g >
</g>
<g style="fill:#000000; fill-opacity:0.0; 
stroke:#000000; stroke-width:1.000000; stroke-opacity:1; 
stroke-linecap:round; stroke-linejoin:round;">
</g>
<g style="fill:#000000; fill-opacity:1.0; 
stroke:#000000; stroke-width:1.000000; stroke-opacity:1; 
stroke-linecap:round; stroke-linejoin:round;">
<path style="fill:#000000; fill-opacity:1.0; 
stroke:#000000; stroke-width:1.000000; stroke-opacity:1; 
stroke-linecap:round; stroke-linejoin:round;fill-rule:evenodd;"
d="M 14249168.000000,9987917.000000
13798636.000000,10303383.000000
11905834.000000,7600183.000000
12356366.000000,7284717.000000
Z" /> 
<path style="fill:#000000; fill-opacity:1.0; 
stroke:#000000; stroke-width:1.000000; stroke-opacity:1; 
stroke-linecap:round; stroke-linejoin:round;fill-rule:evenodd;"
d="M 15035554.000000,9437284.000000
14585022.000000,9752750.000000
12692220.000000,7049550.000000
13142752.000000,6734084.000000
Z" /> 
<path style="fill:#000000; fill-opacity:1.0; 
stroke:#000000; stroke-width:1.000000; stroke-opacity:1; 
stroke-linecap:round; stroke-linejoin:round;fill-rule:evenodd;"
d="M 15887473.000000,8840765.000000
15436941.000000,9156231.000000
13544139.000000,6453031.000000
13994671.000000,6137565.000000
Z" /> 
<path style="fill:#000000; fill-opacity:1.0; 
stroke:#000000; stroke-width:1.000000; stroke-opacity:1; 
stroke-linecap:round; stroke-linejoin:round;fill-rule:evenodd;"
d="M 16706625.000000,8267188.000000
16256093.000000,8582654.000000
14363291.000000,5879454.000000
14813823.000000,5563988.000000
Z" /> 
<path style="fill:#000000; fill-opacity:1.0; 
stroke:#000000; stroke-width:1.000000; stroke-opacity:1; 
stroke-linecap:round; stroke-linejoin:round;fill-rule:evenodd;"
d="M 17525777.000000,7693612.000000
17075245.000000,8009078.000000
15182443.000000,5305878.000000
15632975.000000,4990412.000000
Z" /> 
<path style="fill:#000000; fill-opacity:1.0; 
stroke:#000000; stroke-width:1.000000; stroke-opacity:1; 
stroke-linecap:round; stroke-linejoin:round;fill-rule:evenodd;"
d="M 18693068.000000,6876265.000000
18242536.000000,7191731.000000
16349734.000000,4488531.000000
16800266.000000,4173065.000000
Z" /> 
<path style="fill:#000000; fill-opacity:1.0; 
stroke:#000000; stroke-width:1.000000; stroke-opacity:1; 
stroke-linecap:round; stroke-linejoin:round;fill-rule:evenodd;"
d="M 19819402.000000,6087598.000000
19368870.000000,6403064.000000
17476068.000000,3699864.000000
17926600.000000,3384398.000000
Z" /> 
<path style="fill:#000000; fill-opacity:1.0; 
stroke:#000000; stroke-width:1.000000; stroke-opacity:1; 
stroke-linecap:round; stroke-linejoin:round;fill-rule:evenodd;"
d="M 20720470.000000,5456664.000000
20269938.000000,5772130.000000
18377136.000000,3068930.000000
18827668.000000,2753464.000000
Z" /> 
</g>
<g >
</g>
<g style="fill:#000000; fill-opacity:1.0; 
stroke:#000000; stroke-width:1.000000; stroke-opacity:1; 
stroke-linecap:round; stroke-linejoin:round;">
<path style="fill:#000000; fill-opacity:1.0; 
stroke:#000000; stroke-width:1.000000; stroke-opacity:1; 
stroke-linecap:round; stroke-linejoin:round;fill-rule:evenodd;"
d="M 3135999.000000,9813001.000000
3135999.000000,11512999.000000
1436001.000000,11512999.000000
1436001.000000,9813001.000000
Z" /> 
<circle cx="2286000.000000" cy="8123000.000000" r="850000.000000" /> 
</g>
<g >
</g>
<g style="fill:#000000; fill-opacity:1.0; 
stroke:#000000; stroke-width:1.000000; stroke-opacity:1; 
stroke-linecap:round; stroke-linejoin:round;">
<path style="fill:#000000; fill-opacity:1.0; 
stroke:#000000; stroke-width:1.000000; stroke-opacity:1; 
stroke-linecap:round; stroke-linejoin:round;fill-rule:evenodd;"
d="M 3135999.000000,1431001.000000
3135999.000000,3130999.000000
1436001.000000,3130999.000000
1436001.000000,1431001.000000
Z" /> 
<circle cx="2286000.000000" cy="4821000.000000" r="850000.000000" /> 
</g>
<g >
</g>
<g >
</g>
<g style="fill:#000000; fill-opacity:1.0; 
stroke:#000000; stroke-width:1.000000; stroke-opacity:1; 
stroke-linecap:round; stroke-linejoin:round;">
</g>
<g style="fill:#000000; fill-opacity:1.0; 
stroke:#000000; stroke-width:500000.000000; stroke-opacity:1; 
stroke-linecap:round; stroke-linejoin:round;">
</g>
<g style="fill:#000000; fill-opacity:0.0; 
stroke:#000000; stroke-width:500000.000000; stroke-opacity:1; 
stroke-linecap:round; stroke-linejoin:round;">
<path d="M2286000 2281000
L4831000 2281000
" />
<path d="M18542000 12690000
L18542000 6963822
" />
<path d="M16764000 11928000
L16764000 8687105
" />
<path d="M5588000 7471811
L10298189 12182000
" />
<path d="M18647735 4893731
L18647735 5373179
" />
<path d="M18542000 6963822
L17448215 5870037
" />
<path d="M18647735 5373179
L20574000 7299444
" />
<path d="M17272000 13960000
L18542000 12690000
" />
<path d="M2535000 4821000
L2540000 4816000
" />
<path d="M9144000 13960000
L17272000 13960000
" />
<path d="M2286000 4821000
L2535000 4821000
" />
<path d="M18034000 15738000
L20320000 13452000
" />
<path d="M20574000 13198000
L20320000 13452000
" />
<path d="M2286000 10663000
L3561000 10663000
" />
<path d="M16764000 8687105
L16479448 8402553
" />
<path d="M16510000 12182000
L16764000 11928000
" />
<path d="M20574000 7299444
L20574000 13198000
" />
<path d="M3810000 4816000
L4318000 5324000
" />
<path d="M4318000 9134000
L9144000 13960000
" />
<path d="M2540000 4816000
L3810000 4816000
" />
<path d="M19050000 5295996
L18647735 4893731
" />
<path d="M17448215 5870037
L17448215 5682398
" />
<path d="M4318000 5324000
L4318000 9134000
" />
<path d="M4831000 2281000
L5588000 3038000
" />
<path d="M5588000 3038000
L5588000 7471811
" />
<path d="M10298189 12182000
L16510000 12182000
" />
<path d="M19050000 5324000
L19050000 5295996
" />
<path d="M8636000 15738000
L18034000 15738000
" />
<path d="M3561000 10663000
L8636000 15738000
" />
</g>
<g >
</g>
</g> 
</svg>
