  0
SECTION
  2
HEADER
  9
$ANGBASE
  50
0.0
  9
$ANGDIR
  70
1
  9
$MEASUREMENT
  70
0
  0
ENDSEC
  0
SECTION
  2
TABLES
  0
TABLE
  2
LTYPE
  70
4
  0
LTYPE
  5
40F
  2
CONTINUOUS
  70
0
  3
Solid line
  72
65
  73
0
  40
0.0
  0
LTYPE
  5
410
  2
DASHDOT
 70
0
  3
Dash Dot ____ _ ____ _
 72
65
 73
4
 40
2.0
 49
1.25
 49
-0.25
 49
0.25
 49
-0.25
  0
LTYPE
  5
411
  2
DASHED
 70
0
  3
Dashed __ __ __ __ __
 72
65
 73
2
 40
0.75
 49
0.5
 49
-0.25
  0
LTYPE
  5
43B
  2
DOTTED
 70
0
  3
Dotted .  .  .  .
 72
65
 73
2
 40
0.2
 49
0.0
 49
-0.2
  0
ENDTAB
  0
TABLE
  2
STYLE
  70
4
  0
STYLE
  2
KICAD
  70
0
  40
0
  41
1
  42
1
  50
0
  71
0
  3
isocp.shx
  0
STYLE
  2
KICADB
  70
0
  40
0
  41
1
  42
1
  50
0
  71
0
  3
isocp.shx
  0
STYLE
  2
KICADI
  70
0
  40
0
  41
1
  42
1
  50
15
  71
0
  3
isocp.shx
  0
STYLE
  2
KICADBI
  70
0
  40
0
  41
1
  42
1
  50
15
  71
0
  3
isocp.shx
  0
ENDTAB
  0
TABLE
  2
LAYER
  70
1
  0
LAYER
  2
BLACK
  70
0
  62
7
  6
CONTINUOUS
  0
ENDTAB
  0
ENDSEC
  0
SECTION
  2
ENTITIES
0
LINE
8
BLACK
6
CONTINUOUS
10
0.00420559
20
-0.690499
11
0.00391732
21
-0.689803
0
LINE
8
BLACK
6
CONTINUOUS
10
0.00391732
20
-0.689803
11
0.00391732
21
0.00019685
0
LINE
8
BLACK
6
CONTINUOUS
10
0.00391732
20
0.00019685
11
0.00420559
21
0.000892835
0
LINE
8
BLACK
6
CONTINUOUS
10
0.00420559
20
0.000892835
11
0.00490157
21
0.0011811
0
LINE
8
BLACK
6
CONTINUOUS
10
0.00490157
20
0.0011811
11
0.964902
21
0.0011811
0
LINE
8
BLACK
6
CONTINUOUS
10
0.964902
20
0.0011811
11
0.965598
21
0.000892835
0
LINE
8
BLACK
6
CONTINUOUS
10
0.965598
20
0.000892835
11
0.965886
21
0.00019685
0
LINE
8
BLACK
6
CONTINUOUS
10
0.965886
20
0.00019685
11
0.965886
21
-0.689803
0
LINE
8
BLACK
6
CONTINUOUS
10
0.965886
20
-0.689803
11
0.965598
21
-0.690499
0
LINE
8
BLACK
6
CONTINUOUS
10
0.965598
20
-0.690499
11
0.964902
21
-0.690787
0
LINE
8
BLACK
6
CONTINUOUS
10
0.964902
20
-0.690787
11
0.00490157
21
-0.690787
0
LINE
8
BLACK
6
CONTINUOUS
10
0.00490157
20
-0.690787
11
0.00420559
21
-0.690499
0
LINE
8
BLACK
6
CONTINUOUS
10
0.00588583
20
-0.000787402
11
0.00588583
21
-0.688819
0
LINE
8
BLACK
6
CONTINUOUS
10
0.00588583
20
-0.688819
11
0.963917
21
-0.688819
0
LINE
8
BLACK
6
CONTINUOUS
10
0.963917
20
-0.688819
11
0.963917
21
-0.000787402
0
LINE
8
BLACK
6
CONTINUOUS
10
0.963917
20
-0.000787402
11
0.00588583
21
-0.000787402
0
LINE
8
BLACK
6
CONTINUOUS
10
0.793162
20
-0.00326736
11
0.80079
21
-0.00497894
0
LINE
8
BLACK
6
CONTINUOUS
10
0.80079
20
-0.00497894
11
0.807973
21
-0.00806295
0
LINE
8
BLACK
6
CONTINUOUS
10
0.807973
20
-0.00806295
11
0.814468
21
-0.0124144
0
LINE
8
BLACK
6
CONTINUOUS
10
0.814468
20
-0.0124144
11
0.820052
21
-0.0178851
0
LINE
8
BLACK
6
CONTINUOUS
10
0.820052
20
-0.0178851
11
0.824536
21
-0.0242887
0
LINE
8
BLACK
6
CONTINUOUS
10
0.824536
20
-0.0242887
11
0.827767
21
-0.0314072
0
LINE
8
BLACK
6
CONTINUOUS
10
0.827767
20
-0.0314072
11
0.829634
21
-0.0389981
0
LINE
8
BLACK
6
CONTINUOUS
10
0.829634
20
-0.0389981
11
0.830076
21
-0.0468031
0
LINE
8
BLACK
6
CONTINUOUS
10
0.830076
20
-0.0468031
11
0.829075
21
-0.0545562
0
LINE
8
BLACK
6
CONTINUOUS
10
0.829075
20
-0.0545562
11
0.826667
21
-0.0619934
0
LINE
8
BLACK
6
CONTINUOUS
10
0.826667
20
-0.0619934
11
0.822933
21
-0.0688615
0
LINE
8
BLACK
6
CONTINUOUS
10
0.822933
20
-0.0688615
11
0.818001
21
-0.0749267
0
LINE
8
BLACK
6
CONTINUOUS
10
0.818001
20
-0.0749267
11
0.812039
21
-0.0799821
0
LINE
8
BLACK
6
CONTINUOUS
10
0.812039
20
-0.0799821
11
0.812039
21
-0.0799823
0
LINE
8
BLACK
6
CONTINUOUS
10
0.812039
20
-0.0799823
11
0.812039
21
-0.0799823
0
LINE
8
BLACK
6
CONTINUOUS
10
0.812039
20
-0.0799823
11
0.394271
21
-0.372506
0
LINE
8
BLACK
6
CONTINUOUS
10
0.394271
20
-0.372506
11
0.394271
21
-0.372506
0
LINE
8
BLACK
6
CONTINUOUS
10
0.394271
20
-0.372506
11
0.387481
21
-0.37638
0
LINE
8
BLACK
6
CONTINUOUS
10
0.387481
20
-0.37638
11
0.380095
21
-0.37894
0
LINE
8
BLACK
6
CONTINUOUS
10
0.380095
20
-0.37894
11
0.372364
21
-0.3801
0
LINE
8
BLACK
6
CONTINUOUS
10
0.372364
20
-0.3801
11
0.364552
21
-0.379819
0
LINE
8
BLACK
6
CONTINUOUS
10
0.364552
20
-0.379819
11
0.356924
21
-0.378107
0
LINE
8
BLACK
6
CONTINUOUS
10
0.356924
20
-0.378107
11
0.349741
21
-0.375023
0
LINE
8
BLACK
6
CONTINUOUS
10
0.349741
20
-0.375023
11
0.343246
21
-0.370672
0
LINE
8
BLACK
6
CONTINUOUS
10
0.343246
20
-0.370672
11
0.337662
21
-0.365201
0
LINE
8
BLACK
6
CONTINUOUS
10
0.337662
20
-0.365201
11
0.333178
21
-0.358798
0
LINE
8
BLACK
6
CONTINUOUS
10
0.333178
20
-0.358798
11
0.329947
21
-0.351679
0
LINE
8
BLACK
6
CONTINUOUS
10
0.329947
20
-0.351679
11
0.328079
21
-0.344088
0
LINE
8
BLACK
6
CONTINUOUS
10
0.328079
20
-0.344088
11
0.327638
21
-0.336283
0
LINE
8
BLACK
6
CONTINUOUS
10
0.327638
20
-0.336283
11
0.328639
21
-0.32853
0
LINE
8
BLACK
6
CONTINUOUS
10
0.328639
20
-0.32853
11
0.331047
21
-0.321093
0
LINE
8
BLACK
6
CONTINUOUS
10
0.331047
20
-0.321093
11
0.33478
21
-0.314225
0
LINE
8
BLACK
6
CONTINUOUS
10
0.33478
20
-0.314225
11
0.339713
21
-0.30816
0
LINE
8
BLACK
6
CONTINUOUS
10
0.339713
20
-0.30816
11
0.345675
21
-0.303104
0
LINE
8
BLACK
6
CONTINUOUS
10
0.345675
20
-0.303104
11
0.763443
21
-0.0105801
0
LINE
8
BLACK
6
CONTINUOUS
10
0.763443
20
-0.0105801
11
0.763443
21
-0.0105801
0
LINE
8
BLACK
6
CONTINUOUS
10
0.763443
20
-0.0105801
11
0.770233
21
-0.00670626
0
LINE
8
BLACK
6
CONTINUOUS
10
0.770233
20
-0.00670626
11
0.777619
21
-0.00414598
0
LINE
8
BLACK
6
CONTINUOUS
10
0.777619
20
-0.00414598
11
0.78535
21
-0.00298654
0
LINE
8
BLACK
6
CONTINUOUS
10
0.78535
20
-0.00298654
11
0.793162
21
-0.00326736
0
LINE
8
BLACK
6
CONTINUOUS
10
0.779555
20
-0.0083578
11
0.772509
21
-0.0106642
0
LINE
8
BLACK
6
CONTINUOUS
10
0.772509
20
-0.0106642
11
0.766359
21
-0.0141259
0
LINE
8
BLACK
6
CONTINUOUS
10
0.766359
20
-0.0141259
11
0.766153
21
-0.0144501
0
LINE
8
BLACK
6
CONTINUOUS
10
0.766153
20
-0.0144501
11
0.766153
21
-0.0144501
0
LINE
8
BLACK
6
CONTINUOUS
10
0.766153
20
-0.0144501
11
0.348385
21
-0.306974
0
LINE
8
BLACK
6
CONTINUOUS
10
0.348385
20
-0.306974
11
0.34801
21
-0.307057
0
LINE
8
BLACK
6
CONTINUOUS
10
0.34801
20
-0.307057
11
0.342653
21
-0.311652
0
LINE
8
BLACK
6
CONTINUOUS
10
0.342653
20
-0.311652
11
0.338076
21
-0.317485
0
LINE
8
BLACK
6
CONTINUOUS
10
0.338076
20
-0.317485
11
0.334725
21
-0.324098
0
LINE
8
BLACK
6
CONTINUOUS
10
0.334725
20
-0.324098
11
0.332728
21
-0.331238
0
LINE
8
BLACK
6
CONTINUOUS
10
0.332728
20
-0.331238
11
0.332162
21
-0.33863
0
LINE
8
BLACK
6
CONTINUOUS
10
0.332162
20
-0.33863
11
0.33305
21
-0.345991
0
LINE
8
BLACK
6
CONTINUOUS
10
0.33305
20
-0.345991
11
0.335356
21
-0.353037
0
LINE
8
BLACK
6
CONTINUOUS
10
0.335356
20
-0.353037
11
0.338993
21
-0.359498
0
LINE
8
BLACK
6
CONTINUOUS
10
0.338993
20
-0.359498
11
0.34382
21
-0.365125
0
LINE
8
BLACK
6
CONTINUOUS
10
0.34382
20
-0.365125
11
0.349653
21
-0.369702
0
LINE
8
BLACK
6
CONTINUOUS
10
0.349653
20
-0.369702
11
0.356266
21
-0.373054
0
LINE
8
BLACK
6
CONTINUOUS
10
0.356266
20
-0.373054
11
0.363406
21
-0.375051
0
LINE
8
BLACK
6
CONTINUOUS
10
0.363406
20
-0.375051
11
0.370798
21
-0.375616
0
LINE
8
BLACK
6
CONTINUOUS
10
0.370798
20
-0.375616
11
0.378159
21
-0.374729
0
LINE
8
BLACK
6
CONTINUOUS
10
0.378159
20
-0.374729
11
0.385205
21
-0.372422
0
LINE
8
BLACK
6
CONTINUOUS
10
0.385205
20
-0.372422
11
0.391355
21
-0.368961
0
LINE
8
BLACK
6
CONTINUOUS
10
0.391355
20
-0.368961
11
0.391561
21
-0.368636
0
LINE
8
BLACK
6
CONTINUOUS
10
0.391561
20
-0.368636
11
0.809329
21
-0.0761123
0
LINE
8
BLACK
6
CONTINUOUS
10
0.809329
20
-0.0761123
11
0.809704
21
-0.0760291
0
LINE
8
BLACK
6
CONTINUOUS
10
0.809704
20
-0.0760291
11
0.81506
21
-0.0714341
0
LINE
8
BLACK
6
CONTINUOUS
10
0.81506
20
-0.0714341
11
0.819638
21
-0.0656018
0
LINE
8
BLACK
6
CONTINUOUS
10
0.819638
20
-0.0656018
11
0.822989
21
-0.0589886
0
LINE
8
BLACK
6
CONTINUOUS
10
0.822989
20
-0.0589886
11
0.824986
21
-0.0518485
0
LINE
8
BLACK
6
CONTINUOUS
10
0.824986
20
-0.0518485
11
0.825552
21
-0.0444561
0
LINE
8
BLACK
6
CONTINUOUS
10
0.825552
20
-0.0444561
11
0.824664
21
-0.0370955
0
LINE
8
BLACK
6
CONTINUOUS
10
0.824664
20
-0.0370955
11
0.822358
21
-0.0300494
0
LINE
8
BLACK
6
CONTINUOUS
10
0.822358
20
-0.0300494
11
0.818721
21
-0.0235886
0
LINE
8
BLACK
6
CONTINUOUS
10
0.818721
20
-0.0235886
11
0.813894
21
-0.0179615
0
LINE
8
BLACK
6
CONTINUOUS
10
0.813894
20
-0.0179615
11
0.808061
21
-0.0133842
0
LINE
8
BLACK
6
CONTINUOUS
10
0.808061
20
-0.0133842
11
0.801448
21
-0.0100328
0
LINE
8
BLACK
6
CONTINUOUS
10
0.801448
20
-0.0100328
11
0.794308
21
-0.00803587
0
LINE
8
BLACK
6
CONTINUOUS
10
0.794308
20
-0.00803587
11
0.786916
21
-0.00747031
0
LINE
8
BLACK
6
CONTINUOUS
10
0.786916
20
-0.00747031
11
0.779555
21
-0.0083578
0
LINE
8
BLACK
6
CONTINUOUS
10
0.713767
20
-0.6287
11
0.71
21
-0.629449
0
LINE
8
BLACK
6
CONTINUOUS
10
0.71
20
-0.629449
11
0.34
21
-0.629449
0
LINE
8
BLACK
6
CONTINUOUS
10
0.34
20
-0.629449
11
0.34
21
-0.629449
0
LINE
8
BLACK
6
CONTINUOUS
10
0.34
20
-0.629449
11
0.336233
21
-0.6287
0
LINE
8
BLACK
6
CONTINUOUS
10
0.336233
20
-0.6287
11
0.33304
21
-0.626566
0
LINE
8
BLACK
6
CONTINUOUS
10
0.33304
20
-0.626566
11
0.13612
21
-0.429646
0
LINE
8
BLACK
6
CONTINUOUS
10
0.13612
20
-0.429646
11
0.123465
21
-0.429646
0
LINE
8
BLACK
6
CONTINUOUS
10
0.123465
20
-0.429646
11
0.123465
21
-0.453268
0
LINE
8
BLACK
6
CONTINUOUS
10
0.123465
20
-0.453268
11
0.0565354
21
-0.453268
0
LINE
8
BLACK
6
CONTINUOUS
10
0.0565354
20
-0.453268
11
0.0565354
21
-0.386339
0
LINE
8
BLACK
6
CONTINUOUS
10
0.0565354
20
-0.386339
11
0.123465
21
-0.386339
0
LINE
8
BLACK
6
CONTINUOUS
10
0.123465
20
-0.386339
11
0.123465
21
-0.409961
0
LINE
8
BLACK
6
CONTINUOUS
10
0.123465
20
-0.409961
11
0.140197
21
-0.409961
0
LINE
8
BLACK
6
CONTINUOUS
10
0.140197
20
-0.409961
11
0.143963
21
-0.41071
0
LINE
8
BLACK
6
CONTINUOUS
10
0.143963
20
-0.41071
11
0.147157
21
-0.412843
0
LINE
8
BLACK
6
CONTINUOUS
10
0.147157
20
-0.412843
11
0.344077
21
-0.609764
0
LINE
8
BLACK
6
CONTINUOUS
10
0.344077
20
-0.609764
11
0.705923
21
-0.609764
0
LINE
8
BLACK
6
CONTINUOUS
10
0.705923
20
-0.609764
11
0.800157
21
-0.515529
0
LINE
8
BLACK
6
CONTINUOUS
10
0.800157
20
-0.515529
11
0.800157
21
-0.291457
0
LINE
8
BLACK
6
CONTINUOUS
10
0.800157
20
-0.291457
11
0.727203
21
-0.218502
0
LINE
8
BLACK
6
CONTINUOUS
10
0.727203
20
-0.218502
11
0.725069
21
-0.215309
0
LINE
8
BLACK
6
CONTINUOUS
10
0.725069
20
-0.215309
11
0.72432
21
-0.211542
0
LINE
8
BLACK
6
CONTINUOUS
10
0.72432
20
-0.211542
11
0.72432
21
-0.197486
0
LINE
8
BLACK
6
CONTINUOUS
10
0.72432
20
-0.197486
11
0.688034
21
-0.145664
0
LINE
8
BLACK
6
CONTINUOUS
10
0.688034
20
-0.145664
11
0.705772
21
-0.133244
0
LINE
8
BLACK
6
CONTINUOUS
10
0.705772
20
-0.133244
11
0.745739
21
-0.190324
0
LINE
8
BLACK
6
CONTINUOUS
10
0.745739
20
-0.190324
11
0.75696
21
-0.201544
0
LINE
8
BLACK
6
CONTINUOUS
10
0.75696
20
-0.201544
11
0.75696
21
-0.201544
0
LINE
8
BLACK
6
CONTINUOUS
10
0.75696
20
-0.201544
11
0.758209
21
-0.203414
0
LINE
8
BLACK
6
CONTINUOUS
10
0.758209
20
-0.203414
11
0.759093
21
-0.204737
0
LINE
8
BLACK
6
CONTINUOUS
10
0.759093
20
-0.204737
11
0.759843
21
-0.208504
0
LINE
8
BLACK
6
CONTINUOUS
10
0.759843
20
-0.208504
11
0.759843
21
-0.208504
0
LINE
8
BLACK
6
CONTINUOUS
10
0.759843
20
-0.208504
11
0.759843
21
-0.209606
0
LINE
8
BLACK
6
CONTINUOUS
10
0.759843
20
-0.209606
11
0.759709
21
-0.210275
0
LINE
8
BLACK
6
CONTINUOUS
10
0.759709
20
-0.210275
11
0.780291
21
-0.239669
0
LINE
8
BLACK
6
CONTINUOUS
10
0.780291
20
-0.239669
11
0.77789
21
-0.241351
0
LINE
8
BLACK
6
CONTINUOUS
10
0.77789
20
-0.241351
11
0.81696
21
-0.28042
0
LINE
8
BLACK
6
CONTINUOUS
10
0.81696
20
-0.28042
11
0.819093
21
-0.283613
0
LINE
8
BLACK
6
CONTINUOUS
10
0.819093
20
-0.283613
11
0.819843
21
-0.28738
0
LINE
8
BLACK
6
CONTINUOUS
10
0.819843
20
-0.28738
11
0.819843
21
-0.519606
0
LINE
8
BLACK
6
CONTINUOUS
10
0.819843
20
-0.519606
11
0.819093
21
-0.523373
0
LINE
8
BLACK
6
CONTINUOUS
10
0.819093
20
-0.523373
11
0.81696
21
-0.526566
0
LINE
8
BLACK
6
CONTINUOUS
10
0.81696
20
-0.526566
11
0.71696
21
-0.626566
0
LINE
8
BLACK
6
CONTINUOUS
10
0.71696
20
-0.626566
11
0.713767
21
-0.6287
0
LINE
8
BLACK
6
CONTINUOUS
10
0.15696
20
-0.182647
11
0.17696
21
-0.202646
0
LINE
8
BLACK
6
CONTINUOUS
10
0.17696
20
-0.202646
11
0.17696
21
-0.202647
0
LINE
8
BLACK
6
CONTINUOUS
10
0.17696
20
-0.202647
11
0.179093
21
-0.20584
0
LINE
8
BLACK
6
CONTINUOUS
10
0.179093
20
-0.20584
11
0.179843
21
-0.209606
0
LINE
8
BLACK
6
CONTINUOUS
10
0.179843
20
-0.209606
11
0.179843
21
-0.355529
0
LINE
8
BLACK
6
CONTINUOUS
10
0.179843
20
-0.355529
11
0.364077
21
-0.539764
0
LINE
8
BLACK
6
CONTINUOUS
10
0.364077
20
-0.539764
11
0.675923
21
-0.539764
0
LINE
8
BLACK
6
CONTINUOUS
10
0.675923
20
-0.539764
11
0.720157
21
-0.495529
0
LINE
8
BLACK
6
CONTINUOUS
10
0.720157
20
-0.495529
11
0.720157
21
-0.281775
0
LINE
8
BLACK
6
CONTINUOUS
10
0.720157
20
-0.281775
11
0.71821
21
-0.283139
0
LINE
8
BLACK
6
CONTINUOUS
10
0.71821
20
-0.283139
11
0.702226
21
-0.260312
0
LINE
8
BLACK
6
CONTINUOUS
10
0.702226
20
-0.260312
11
0.679978
21
-0.238064
0
LINE
8
BLACK
6
CONTINUOUS
10
0.679978
20
-0.238064
11
0.677844
21
-0.23487
0
LINE
8
BLACK
6
CONTINUOUS
10
0.677844
20
-0.23487
11
0.677095
21
-0.231104
0
LINE
8
BLACK
6
CONTINUOUS
10
0.677095
20
-0.231104
11
0.677095
21
-0.224421
0
LINE
8
BLACK
6
CONTINUOUS
10
0.677095
20
-0.224421
11
0.64369
21
-0.176714
0
LINE
8
BLACK
6
CONTINUOUS
10
0.64369
20
-0.176714
11
0.661428
21
-0.164294
0
LINE
8
BLACK
6
CONTINUOUS
10
0.661428
20
-0.164294
11
0.72538
21
-0.255626
0
LINE
8
BLACK
6
CONTINUOUS
10
0.72538
20
-0.255626
11
0.73696
21
-0.267206
0
LINE
8
BLACK
6
CONTINUOUS
10
0.73696
20
-0.267206
11
0.73696
21
-0.267206
0
LINE
8
BLACK
6
CONTINUOUS
10
0.73696
20
-0.267206
11
0.739093
21
-0.2704
0
LINE
8
BLACK
6
CONTINUOUS
10
0.739093
20
-0.2704
11
0.739843
21
-0.274166
0
LINE
8
BLACK
6
CONTINUOUS
10
0.739843
20
-0.274166
11
0.739843
21
-0.274166
0
LINE
8
BLACK
6
CONTINUOUS
10
0.739843
20
-0.274166
11
0.739843
21
-0.499606
0
LINE
8
BLACK
6
CONTINUOUS
10
0.739843
20
-0.499606
11
0.739093
21
-0.503373
0
LINE
8
BLACK
6
CONTINUOUS
10
0.739093
20
-0.503373
11
0.73696
21
-0.506566
0
LINE
8
BLACK
6
CONTINUOUS
10
0.73696
20
-0.506566
11
0.68696
21
-0.556566
0
LINE
8
BLACK
6
CONTINUOUS
10
0.68696
20
-0.556566
11
0.683767
21
-0.5587
0
LINE
8
BLACK
6
CONTINUOUS
10
0.683767
20
-0.5587
11
0.68
21
-0.559449
0
LINE
8
BLACK
6
CONTINUOUS
10
0.68
20
-0.559449
11
0.36
21
-0.559449
0
LINE
8
BLACK
6
CONTINUOUS
10
0.36
20
-0.559449
11
0.36
21
-0.559449
0
LINE
8
BLACK
6
CONTINUOUS
10
0.36
20
-0.559449
11
0.356233
21
-0.5587
0
LINE
8
BLACK
6
CONTINUOUS
10
0.356233
20
-0.5587
11
0.35304
21
-0.556566
0
LINE
8
BLACK
6
CONTINUOUS
10
0.35304
20
-0.556566
11
0.35304
21
-0.556566
0
LINE
8
BLACK
6
CONTINUOUS
10
0.35304
20
-0.556566
11
0.16304
21
-0.366566
0
LINE
8
BLACK
6
CONTINUOUS
10
0.16304
20
-0.366566
11
0.160907
21
-0.363373
0
LINE
8
BLACK
6
CONTINUOUS
10
0.160907
20
-0.363373
11
0.160157
21
-0.359606
0
LINE
8
BLACK
6
CONTINUOUS
10
0.160157
20
-0.359606
11
0.160157
21
-0.213683
0
LINE
8
BLACK
6
CONTINUOUS
10
0.160157
20
-0.213683
11
0.145923
21
-0.199449
0
LINE
8
BLACK
6
CONTINUOUS
10
0.145923
20
-0.199449
11
0.12186
21
-0.199449
0
LINE
8
BLACK
6
CONTINUOUS
10
0.12186
20
-0.199449
11
0.120571
21
-0.203414
0
LINE
8
BLACK
6
CONTINUOUS
10
0.120571
20
-0.203414
11
0.117073
21
-0.209473
0
LINE
8
BLACK
6
CONTINUOUS
10
0.117073
20
-0.209473
11
0.112392
21
-0.214672
0
LINE
8
BLACK
6
CONTINUOUS
10
0.112392
20
-0.214672
11
0.106732
21
-0.218784
0
LINE
8
BLACK
6
CONTINUOUS
10
0.106732
20
-0.218784
11
0.100341
21
-0.22163
0
LINE
8
BLACK
6
CONTINUOUS
10
0.100341
20
-0.22163
11
0.093498
21
-0.223084
0
LINE
8
BLACK
6
CONTINUOUS
10
0.093498
20
-0.223084
11
0.086502
21
-0.223084
0
LINE
8
BLACK
6
CONTINUOUS
10
0.086502
20
-0.223084
11
0.0796589
21
-0.22163
0
LINE
8
BLACK
6
CONTINUOUS
10
0.0796589
20
-0.22163
11
0.0732677
21
-0.218784
0
LINE
8
BLACK
6
CONTINUOUS
10
0.0732677
20
-0.218784
11
0.0676078
21
-0.214672
0
LINE
8
BLACK
6
CONTINUOUS
10
0.0676078
20
-0.214672
11
0.0629266
21
-0.209473
0
LINE
8
BLACK
6
CONTINUOUS
10
0.0629266
20
-0.209473
11
0.0594286
21
-0.203414
0
LINE
8
BLACK
6
CONTINUOUS
10
0.0594286
20
-0.203414
11
0.0572667
21
-0.196761
0
LINE
8
BLACK
6
CONTINUOUS
10
0.0572667
20
-0.196761
11
0.0565354
21
-0.189803
0
LINE
8
BLACK
6
CONTINUOUS
10
0.0565354
20
-0.189803
11
0.0572667
21
-0.182845
0
LINE
8
BLACK
6
CONTINUOUS
10
0.0572667
20
-0.182845
11
0.0594286
21
-0.176192
0
LINE
8
BLACK
6
CONTINUOUS
10
0.0594286
20
-0.176192
11
0.0629266
21
-0.170133
0
LINE
8
BLACK
6
CONTINUOUS
10
0.0629266
20
-0.170133
11
0.0676078
21
-0.164934
0
LINE
8
BLACK
6
CONTINUOUS
10
0.0676078
20
-0.164934
11
0.0732677
21
-0.160822
0
LINE
8
BLACK
6
CONTINUOUS
10
0.0732677
20
-0.160822
11
0.0796589
21
-0.157976
0
LINE
8
BLACK
6
CONTINUOUS
10
0.0796589
20
-0.157976
11
0.086502
21
-0.156522
0
LINE
8
BLACK
6
CONTINUOUS
10
0.086502
20
-0.156522
11
0.093498
21
-0.156522
0
LINE
8
BLACK
6
CONTINUOUS
10
0.093498
20
-0.156522
11
0.100341
21
-0.157976
0
LINE
8
BLACK
6
CONTINUOUS
10
0.100341
20
-0.157976
11
0.106732
21
-0.160822
0
LINE
8
BLACK
6
CONTINUOUS
10
0.106732
20
-0.160822
11
0.112392
21
-0.164934
0
LINE
8
BLACK
6
CONTINUOUS
10
0.112392
20
-0.164934
11
0.117073
21
-0.170133
0
LINE
8
BLACK
6
CONTINUOUS
10
0.117073
20
-0.170133
11
0.120571
21
-0.176192
0
LINE
8
BLACK
6
CONTINUOUS
10
0.120571
20
-0.176192
11
0.121732
21
-0.179764
0
LINE
8
BLACK
6
CONTINUOUS
10
0.121732
20
-0.179764
11
0.15
21
-0.179764
0
LINE
8
BLACK
6
CONTINUOUS
10
0.15
20
-0.179764
11
0.153767
21
-0.180513
0
LINE
8
BLACK
6
CONTINUOUS
10
0.153767
20
-0.180513
11
0.15696
21
-0.182647
0
LINE
8
BLACK
6
CONTINUOUS
10
0.197157
20
-0.0828434
11
0.22696
21
-0.112646
0
LINE
8
BLACK
6
CONTINUOUS
10
0.22696
20
-0.112646
11
0.22696
21
-0.112647
0
LINE
8
BLACK
6
CONTINUOUS
10
0.22696
20
-0.112647
11
0.229093
21
-0.11584
0
LINE
8
BLACK
6
CONTINUOUS
10
0.229093
20
-0.11584
11
0.229843
21
-0.119606
0
LINE
8
BLACK
6
CONTINUOUS
10
0.229843
20
-0.119606
11
0.229843
21
-0.119606
0
LINE
8
BLACK
6
CONTINUOUS
10
0.229843
20
-0.119606
11
0.229843
21
-0.290089
0
LINE
8
BLACK
6
CONTINUOUS
10
0.229843
20
-0.290089
11
0.409517
21
-0.469764
0
LINE
8
BLACK
6
CONTINUOUS
10
0.409517
20
-0.469764
11
0.645923
21
-0.469764
0
LINE
8
BLACK
6
CONTINUOUS
10
0.645923
20
-0.469764
11
0.650157
21
-0.465529
0
LINE
8
BLACK
6
CONTINUOUS
10
0.650157
20
-0.465529
11
0.650157
21
-0.346089
0
LINE
8
BLACK
6
CONTINUOUS
10
0.650157
20
-0.346089
11
0.641837
21
-0.337769
0
LINE
8
BLACK
6
CONTINUOUS
10
0.641837
20
-0.337769
11
0.641313
21
-0.336983
0
LINE
8
BLACK
6
CONTINUOUS
10
0.641313
20
-0.336983
11
0.640004
21
-0.3379
0
LINE
8
BLACK
6
CONTINUOUS
10
0.640004
20
-0.3379
11
0.565484
21
-0.231475
0
LINE
8
BLACK
6
CONTINUOUS
10
0.565484
20
-0.231475
11
0.583221
21
-0.219055
0
LINE
8
BLACK
6
CONTINUOUS
10
0.583221
20
-0.219055
11
0.657741
21
-0.32548
0
LINE
8
BLACK
6
CONTINUOUS
10
0.657741
20
-0.32548
11
0.657533
21
-0.325626
0
LINE
8
BLACK
6
CONTINUOUS
10
0.657533
20
-0.325626
11
0.66696
21
-0.335052
0
LINE
8
BLACK
6
CONTINUOUS
10
0.66696
20
-0.335052
11
0.66696
21
-0.335052
0
LINE
8
BLACK
6
CONTINUOUS
10
0.66696
20
-0.335052
11
0.669093
21
-0.338245
0
LINE
8
BLACK
6
CONTINUOUS
10
0.669093
20
-0.338245
11
0.669843
21
-0.342012
0
LINE
8
BLACK
6
CONTINUOUS
10
0.669843
20
-0.342012
11
0.669843
21
-0.469606
0
LINE
8
BLACK
6
CONTINUOUS
10
0.669843
20
-0.469606
11
0.669093
21
-0.473373
0
LINE
8
BLACK
6
CONTINUOUS
10
0.669093
20
-0.473373
11
0.66696
21
-0.476566
0
LINE
8
BLACK
6
CONTINUOUS
10
0.66696
20
-0.476566
11
0.65696
21
-0.486566
0
LINE
8
BLACK
6
CONTINUOUS
10
0.65696
20
-0.486566
11
0.653767
21
-0.4887
0
LINE
8
BLACK
6
CONTINUOUS
10
0.653767
20
-0.4887
11
0.65
21
-0.489449
0
LINE
8
BLACK
6
CONTINUOUS
10
0.65
20
-0.489449
11
0.405441
21
-0.489449
0
LINE
8
BLACK
6
CONTINUOUS
10
0.405441
20
-0.489449
11
0.401674
21
-0.4887
0
LINE
8
BLACK
6
CONTINUOUS
10
0.401674
20
-0.4887
11
0.398481
21
-0.486566
0
LINE
8
BLACK
6
CONTINUOUS
10
0.398481
20
-0.486566
11
0.21304
21
-0.301126
0
LINE
8
BLACK
6
CONTINUOUS
10
0.21304
20
-0.301126
11
0.210907
21
-0.297932
0
LINE
8
BLACK
6
CONTINUOUS
10
0.210907
20
-0.297932
11
0.210157
21
-0.294166
0
LINE
8
BLACK
6
CONTINUOUS
10
0.210157
20
-0.294166
11
0.210157
21
-0.123683
0
LINE
8
BLACK
6
CONTINUOUS
10
0.210157
20
-0.123683
11
0.18612
21
-0.0996457
0
LINE
8
BLACK
6
CONTINUOUS
10
0.18612
20
-0.0996457
11
0.123465
21
-0.0996457
0
LINE
8
BLACK
6
CONTINUOUS
10
0.123465
20
-0.0996457
11
0.123465
21
-0.123268
0
LINE
8
BLACK
6
CONTINUOUS
10
0.123465
20
-0.123268
11
0.0565354
21
-0.123268
0
LINE
8
BLACK
6
CONTINUOUS
10
0.0565354
20
-0.123268
11
0.0565354
21
-0.0563386
0
LINE
8
BLACK
6
CONTINUOUS
10
0.0565354
20
-0.0563386
11
0.123465
21
-0.0563386
0
LINE
8
BLACK
6
CONTINUOUS
10
0.123465
20
-0.0563386
11
0.123465
21
-0.0799606
0
LINE
8
BLACK
6
CONTINUOUS
10
0.123465
20
-0.0799606
11
0.190197
21
-0.0799606
0
LINE
8
BLACK
6
CONTINUOUS
10
0.190197
20
-0.0799606
11
0.193963
21
-0.0807098
0
LINE
8
BLACK
6
CONTINUOUS
10
0.193963
20
-0.0807098
11
0.197157
21
-0.0828434
0
LINE
8
BLACK
6
CONTINUOUS
10
0.560991
20
-0.393225
11
0.543253
21
-0.405645
0
LINE
8
BLACK
6
CONTINUOUS
10
0.543253
20
-0.405645
11
0.468734
21
-0.29922
0
LINE
8
BLACK
6
CONTINUOUS
10
0.468734
20
-0.29922
11
0.486471
21
-0.2868
0
LINE
8
BLACK
6
CONTINUOUS
10
0.486471
20
-0.2868
11
0.560991
21
-0.393225
0
LINE
8
BLACK
6
CONTINUOUS
10
0.591951
20
-0.371547
11
0.574213
21
-0.383967
0
LINE
8
BLACK
6
CONTINUOUS
10
0.574213
20
-0.383967
11
0.499694
21
-0.277541
0
LINE
8
BLACK
6
CONTINUOUS
10
0.499694
20
-0.277541
11
0.517431
21
-0.265121
0
LINE
8
BLACK
6
CONTINUOUS
10
0.517431
20
-0.265121
11
0.591951
21
-0.371547
0
LINE
8
BLACK
6
CONTINUOUS
10
0.625491
20
-0.348062
11
0.607754
21
-0.360482
0
LINE
8
BLACK
6
CONTINUOUS
10
0.607754
20
-0.360482
11
0.533234
21
-0.254056
0
LINE
8
BLACK
6
CONTINUOUS
10
0.533234
20
-0.254056
11
0.550971
21
-0.241636
0
LINE
8
BLACK
6
CONTINUOUS
10
0.550971
20
-0.241636
11
0.625491
21
-0.348062
0
LINE
8
BLACK
6
CONTINUOUS
10
0.100341
20
-0.287976
11
0.106732
21
-0.290822
0
LINE
8
BLACK
6
CONTINUOUS
10
0.106732
20
-0.290822
11
0.112392
21
-0.294934
0
LINE
8
BLACK
6
CONTINUOUS
10
0.112392
20
-0.294934
11
0.117073
21
-0.300133
0
LINE
8
BLACK
6
CONTINUOUS
10
0.117073
20
-0.300133
11
0.120571
21
-0.306192
0
LINE
8
BLACK
6
CONTINUOUS
10
0.120571
20
-0.306192
11
0.122733
21
-0.312845
0
LINE
8
BLACK
6
CONTINUOUS
10
0.122733
20
-0.312845
11
0.123465
21
-0.319803
0
LINE
8
BLACK
6
CONTINUOUS
10
0.123465
20
-0.319803
11
0.122733
21
-0.326761
0
LINE
8
BLACK
6
CONTINUOUS
10
0.122733
20
-0.326761
11
0.120571
21
-0.333414
0
LINE
8
BLACK
6
CONTINUOUS
10
0.120571
20
-0.333414
11
0.117073
21
-0.339473
0
LINE
8
BLACK
6
CONTINUOUS
10
0.117073
20
-0.339473
11
0.112392
21
-0.344672
0
LINE
8
BLACK
6
CONTINUOUS
10
0.112392
20
-0.344672
11
0.106732
21
-0.348784
0
LINE
8
BLACK
6
CONTINUOUS
10
0.106732
20
-0.348784
11
0.100341
21
-0.35163
0
LINE
8
BLACK
6
CONTINUOUS
10
0.100341
20
-0.35163
11
0.093498
21
-0.353084
0
LINE
8
BLACK
6
CONTINUOUS
10
0.093498
20
-0.353084
11
0.086502
21
-0.353084
0
LINE
8
BLACK
6
CONTINUOUS
10
0.086502
20
-0.353084
11
0.0796589
21
-0.35163
0
LINE
8
BLACK
6
CONTINUOUS
10
0.0796589
20
-0.35163
11
0.0732677
21
-0.348784
0
LINE
8
BLACK
6
CONTINUOUS
10
0.0732677
20
-0.348784
11
0.0676078
21
-0.344672
0
LINE
8
BLACK
6
CONTINUOUS
10
0.0676078
20
-0.344672
11
0.0629266
21
-0.339473
0
LINE
8
BLACK
6
CONTINUOUS
10
0.0629266
20
-0.339473
11
0.0594286
21
-0.333414
0
LINE
8
BLACK
6
CONTINUOUS
10
0.0594286
20
-0.333414
11
0.0572667
21
-0.326761
0
LINE
8
BLACK
6
CONTINUOUS
10
0.0572667
20
-0.326761
11
0.0565354
21
-0.319803
0
LINE
8
BLACK
6
CONTINUOUS
10
0.0565354
20
-0.319803
11
0.0572667
21
-0.312845
0
LINE
8
BLACK
6
CONTINUOUS
10
0.0572667
20
-0.312845
11
0.0594286
21
-0.306192
0
LINE
8
BLACK
6
CONTINUOUS
10
0.0594286
20
-0.306192
11
0.0629266
21
-0.300133
0
LINE
8
BLACK
6
CONTINUOUS
10
0.0629266
20
-0.300133
11
0.0676078
21
-0.294934
0
LINE
8
BLACK
6
CONTINUOUS
10
0.0676078
20
-0.294934
11
0.0732677
21
-0.290822
0
LINE
8
BLACK
6
CONTINUOUS
10
0.0732677
20
-0.290822
11
0.0796589
21
-0.287976
0
LINE
8
BLACK
6
CONTINUOUS
10
0.0796589
20
-0.287976
11
0.086502
21
-0.286522
0
LINE
8
BLACK
6
CONTINUOUS
10
0.086502
20
-0.286522
11
0.093498
21
-0.286522
0
LINE
8
BLACK
6
CONTINUOUS
10
0.093498
20
-0.286522
11
0.100341
21
-0.287976
0
LINE
8
BLACK
6
CONTINUOUS
10
0.689991
20
-0.302898
11
0.672254
21
-0.315318
0
LINE
8
BLACK
6
CONTINUOUS
10
0.672254
20
-0.315318
11
0.597734
21
-0.208893
0
LINE
8
BLACK
6
CONTINUOUS
10
0.597734
20
-0.208893
11
0.615471
21
-0.196473
0
LINE
8
BLACK
6
CONTINUOUS
10
0.615471
20
-0.196473
11
0.689991
21
-0.302898
0
LINE
8
BLACK
6
CONTINUOUS
10
0.815767
20
-0.214829
11
0.798029
21
-0.227249
0
LINE
8
BLACK
6
CONTINUOUS
10
0.798029
20
-0.227249
11
0.723509
21
-0.120824
0
LINE
8
BLACK
6
CONTINUOUS
10
0.723509
20
-0.120824
11
0.741247
21
-0.108404
0
LINE
8
BLACK
6
CONTINUOUS
10
0.741247
20
-0.108404
11
0.815767
21
-0.214829
  0
ENDSEC
  0
EOF
