<?xml version="1.0" encoding="UTF-8" standalone="no"?>
<!-- Created with Inkscape (http://www.inkscape.org/) -->

<svg
   width="210mm"
   height="297mm"
   viewBox="0 0 210 297"
   version="1.1"
   id="svg8758"
   inkscape:version="1.1.1 (3bf5ae0d25, 2021-09-20)"
   sodipodi:docname="drawing.svg"
   xmlns:inkscape="http://www.inkscape.org/namespaces/inkscape"
   xmlns:sodipodi="http://sodipodi.sourceforge.net/DTD/sodipodi-0.dtd"
   xmlns="http://www.w3.org/2000/svg"
   xmlns:svg="http://www.w3.org/2000/svg">
  <sodipodi:namedview
     id="namedview8760"
     pagecolor="#ffffff"
     bordercolor="#666666"
     borderopacity="1.0"
     inkscape:pageshadow="2"
     inkscape:pageopacity="0.0"
     inkscape:pagecheckerboard="0"
     inkscape:document-units="mm"
     showgrid="false"
     inkscape:zoom="0.74118967"
     inkscape:cx="397.33419"
     inkscape:cy="561.93443"
     inkscape:window-width="1920"
     inkscape:window-height="1017"
     inkscape:window-x="-8"
     inkscape:window-y="-8"
     inkscape:window-maximized="1"
     inkscape:current-layer="layer1" />
  <defs
     id="defs8755" />
  <g
     inkscape:label="Layer 1"
     inkscape:groupmode="layer"
     id="layer1">
    <g
       style="fill:#d0d2cd;fill-opacity:0;stroke:#d0d2cd;stroke-width:0.05;stroke-linecap:round;stroke-linejoin:round;stroke-opacity:1"
       id="g8631"
       transform="translate(-0.76079519,56.209086)">
      <path
         d="m 128.778,103.9618 h 14.9276"
         id="path8417" />
      <path
         d="M 133.7056,93.0148 H 113.792"
         id="path8419" />
      <path
         d="m 134.4556,93.7648 h 1"
         id="path8421" />
      <path
         d="m 113.792,93.0148 v 21.0054"
         id="path8423" />
      <path
         d="m 135.4556,93.7648 v -0.75"
         id="path8425" />
      <path
         d="m 133.7056,93.0148 0.75,0.75"
         id="path8427" />
      <path
         d="M 118.7196,114.0202 128.778,103.9618"
         id="path8429" />
      <path
         d="m 113.792,114.0202 h 4.9276"
         id="path8431" />
      <path
         d="m 90.424,103.991 h 14.9276"
         id="path8433" />
      <path
         d="M 95.3516,93.044 H 75.438"
         id="path8435" />
      <path
         d="m 75.438,93.044 v 21.0054"
         id="path8437" />
      <path
         d="M 80.3656,114.0494 90.424,103.991"
         id="path8439" />
      <path
         d="m 75.438,114.0494 h 4.9276"
         id="path8441" />
      <path
         d="m 95.3516,93.044 0.75,0.75"
         id="path8443" />
      <path
         d="m 96.1016,93.794 h 1"
         id="path8445" />
      <path
         d="m 97.1016,93.794 v -0.75"
         id="path8447" />
      <path
         d="m 97.1016,93.044 h 1.75"
         id="path8449" />
      <path
         d="m 100.3516,94.544 h 5"
         id="path8451" />
      <path
         d="m 98.8516,93.044 1.5,1.5"
         id="path8453" />
      <path
         d="m 105.3516,94.544 v 9.4436"
         id="path8455" />
      <path
         d="M 78.1736,126.468 H 98.0872"
         id="path8457" />
      <path
         d="M 83.1012,115.521 H 68.1736"
         id="path8459" />
      <path
         d="m 135.4556,93.0148 h 1.75"
         id="path8461" />
      <path
         d="m 116.5276,126.4388 -0.75,-0.75"
         id="path8463" />
      <path
         d="M 121.4552,115.4918 H 106.5276"
         id="path8465" />
      <path
         d="m 113.0276,126.4388 -1.5,-1.5"
         id="path8467" />
      <path
         d="m 116.5276,126.4388 h 19.9136"
         id="path8469" />
      <path
         d="M 136.4412,126.4388 V 105.4334"
         id="path8471" />
      <path
         d="m 115.7776,125.6888 h -1"
         id="path8473" />
      <path
         d="m 114.7776,125.6888 v 0.75"
         id="path8475" />
      <path
         d="m 136.4412,105.4334 h -4.9276"
         id="path8477" />
      <path
         d="m 137.2056,93.0148 1.5,1.5"
         id="path8479" />
      <path
         d="m 111.5276,124.9388 h -5"
         id="path8481" />
      <path
         d="m 131.5136,105.4334 -10.0584,10.0584"
         id="path8483" />
      <path
         d="m 138.7056,94.5148 h 5"
         id="path8485" />
      <path
         d="m 106.5276,124.9388 v -9.4436"
         id="path8487" />
      <path
         d="m 114.7776,126.4388 h -1.75"
         id="path8489" />
      <path
         d="m 143.7056,94.5148 v 9.4436"
         id="path8491" />
      <path
         d="m 74.6736,126.468 -1.5,-1.5"
         id="path8493" />
      <path
         d="M 98.0872,126.468 V 105.4626"
         id="path8495" />
      <path
         d="m 76.4236,126.468 h -1.75"
         id="path8497" />
      <path
         d="M 93.1596,105.4626 83.1012,115.521"
         id="path8499" />
      <path
         d="M 98.0872,105.4626 H 93.1596"
         id="path8501" />
      <path
         d="m 77.4236,125.718 h -1"
         id="path8503" />
      <path
         d="m 76.4236,125.718 v 0.75"
         id="path8505" />
      <path
         d="m 73.1736,124.968 h -5"
         id="path8507" />
      <path
         d="m 68.1736,124.968 v -9.4436"
         id="path8509" />
      <path
         d="m 78.1736,126.468 -0.75,-0.75"
         id="path8511" />
      <path
         d="M 128.6764,69.4178 H 143.604"
         id="path8513" />
      <path
         d="M 133.604,58.4708 H 113.6904"
         id="path8515" />
      <path
         d="M 113.6904,58.4708 V 79.4762"
         id="path8517" />
      <path
         d="M 118.618,79.4762 128.6764,69.4178"
         id="path8519" />
      <path
         d="m 113.6904,79.4762 h 4.9276"
         id="path8521" />
      <path
         d="m 133.604,58.4708 0.75,0.75"
         id="path8523" />
      <path
         d="m 134.354,59.2208 h 1"
         id="path8525" />
      <path
         d="m 135.354,59.2208 v -0.75"
         id="path8527" />
      <path
         d="m 135.354,58.4708 h 1.75"
         id="path8529" />
      <path
         d="m 138.604,59.9708 h 5"
         id="path8531" />
      <path
         d="m 137.104,58.4708 1.5,1.5"
         id="path8533" />
      <path
         d="m 143.604,59.9708 v 9.4436"
         id="path8535" />
      <path
         d="m 116.426,91.8948 h 19.9136"
         id="path8537" />
      <path
         d="M 121.3536,80.9478 H 106.426"
         id="path8539" />
      <path
         d="m 112.926,91.8948 -1.5,-1.5"
         id="path8541" />
      <path
         d="M 136.3396,91.8948 V 70.8894"
         id="path8543" />
      <path
         d="m 114.676,91.8948 h -1.75"
         id="path8545" />
      <path
         d="M 131.412,70.8894 121.3536,80.9478"
         id="path8547" />
      <path
         d="M 136.3396,70.8894 H 131.412"
         id="path8549" />
      <path
         d="m 115.676,91.1448 h -1"
         id="path8551" />
      <path
         d="m 114.676,91.1448 v 0.75"
         id="path8553" />
      <path
         d="m 111.426,90.3948 h -5"
         id="path8555" />
      <path
         d="M 106.426,90.3948 V 80.9512"
         id="path8557" />
      <path
         d="m 116.426,91.8948 -0.75,-0.75"
         id="path8559" />
      <path
         d="M 82.9996,80.977 H 68.072"
         id="path8561" />
      <path
         d="M 78.072,91.924 H 97.9856"
         id="path8563" />
      <path
         d="M 97.9856,91.924 V 70.9186"
         id="path8565" />
      <path
         d="M 93.058,70.9186 82.9996,80.977"
         id="path8567" />
      <path
         d="M 97.9856,70.9186 H 93.058"
         id="path8569" />
      <path
         d="m 78.072,91.924 -0.75,-0.75"
         id="path8571" />
      <path
         d="m 77.322,91.174 h -1"
         id="path8573" />
      <path
         d="m 76.322,91.174 v 0.75"
         id="path8575" />
      <path
         d="m 76.322,91.924 h -1.75"
         id="path8577" />
      <path
         d="m 73.072,90.424 h -5"
         id="path8579" />
      <path
         d="m 74.572,91.924 -1.5,-1.5"
         id="path8581" />
      <path
         d="M 68.072,90.424 V 80.9804"
         id="path8583" />
      <path
         d="M 75.3364,79.5054 H 80.264"
         id="path8585" />
      <path
         d="M 75.3364,58.5 V 79.5054"
         id="path8587" />
      <path
         d="M 90.3224,69.447 H 105.25"
         id="path8589" />
      <path
         d="M 80.264,79.5054 90.3224,69.447"
         id="path8591" />
      <path
         d="M 95.25,58.5 H 75.3364"
         id="path8593" />
      <path
         d="m 96,59.25 h 1"
         id="path8595" />
      <path
         d="M 95.25,58.5 96,59.25"
         id="path8597" />
      <path
         d="M 97,59.25 V 58.5"
         id="path8599" />
      <path
         d="m 97,58.5 h 1.75"
         id="path8601" />
      <path
         d="m 98.75,58.5 1.5,1.5"
         id="path8603" />
      <path
         d="m 105.25,60 v 9.4436"
         id="path8605" />
      <path
         d="m 100.25,60 h 5"
         id="path8607" />
      <g
         id="g8609" />
      <g
         id="g8611" />
      <g
         id="g8613" />
      <g
         id="g8615" />
      <g
         id="g8617" />
      <g
         id="g8619" />
      <g
         id="g8621" />
      <g
         id="g8623" />
      <g
         id="g8625" />
      <g
         id="g8627" />
      <g
         id="g8629" />
    </g>
  </g>
</svg>
