%TF.GenerationSoftware,KiCad,Pcbnew,(6.0.1)*%
%TF.CreationDate,2023-02-20T14:11:09+01:00*%
%TF.ProjectId,omniscope,6f6d6e69-7363-46f7-9065-2e6b69636164,rev?*%
%TF.SameCoordinates,Original*%
%TF.FileFunction,Legend,Top*%
%TF.FilePolarity,Positive*%
%FSLAX46Y46*%
G04 Gerber Fmt 4.6, Leading zero omitted, Abs format (unit mm)*
G04 Created by KiCad (PCBNEW (6.0.1)) date 2023-02-20 14:11:09*
%MOMM*%
%LPD*%
G01*
G04 APERTURE LIST*
%ADD10C,0.150000*%
%ADD11C,0.120000*%
G04 APERTURE END LIST*
D10*
%TO.C,J8*%
X41706692Y-14314855D02*
X42008562Y-14962218D01*
X42025779Y-15111815D01*
X41979713Y-15238379D01*
X41870365Y-15341911D01*
X41784050Y-15382160D01*
X42448862Y-14441652D02*
X42342422Y-14438743D01*
X42279140Y-14415711D01*
X42195733Y-14349520D01*
X42175608Y-14306363D01*
X42178517Y-14199923D01*
X42201549Y-14136641D01*
X42267740Y-14053234D01*
X42440370Y-13972735D01*
X42546810Y-13975643D01*
X42610092Y-13998676D01*
X42693499Y-14064867D01*
X42713623Y-14108024D01*
X42710715Y-14214464D01*
X42687682Y-14277746D01*
X42621492Y-14361153D01*
X42448862Y-14441652D01*
X42382672Y-14525059D01*
X42359639Y-14588341D01*
X42356731Y-14694780D01*
X42437229Y-14867410D01*
X42520636Y-14933601D01*
X42583918Y-14956634D01*
X42690358Y-14959542D01*
X42862988Y-14879043D01*
X42929178Y-14795636D01*
X42952211Y-14732354D01*
X42955119Y-14625914D01*
X42874621Y-14453284D01*
X42791214Y-14387094D01*
X42727932Y-14364061D01*
X42621492Y-14361153D01*
%TO.C,J2*%
X17573963Y-32614280D02*
X17573963Y-33328566D01*
X17526344Y-33471423D01*
X17431106Y-33566661D01*
X17288249Y-33614280D01*
X17193011Y-33614280D01*
X18002535Y-32709519D02*
X18050154Y-32661900D01*
X18145392Y-32614280D01*
X18383487Y-32614280D01*
X18478725Y-32661900D01*
X18526344Y-32709519D01*
X18573963Y-32804757D01*
X18573963Y-32899995D01*
X18526344Y-33042852D01*
X17954916Y-33614280D01*
X18573963Y-33614280D01*
%TO.C,J6*%
X98297892Y-14264055D02*
X98599762Y-14911418D01*
X98616979Y-15061015D01*
X98570913Y-15187579D01*
X98461565Y-15291111D01*
X98375250Y-15331360D01*
X99117885Y-13881686D02*
X98945255Y-13962185D01*
X98879064Y-14045592D01*
X98856032Y-14108874D01*
X98830091Y-14278596D01*
X98867432Y-14471350D01*
X99028429Y-14816610D01*
X99111836Y-14882801D01*
X99175118Y-14905834D01*
X99281558Y-14908742D01*
X99454188Y-14828243D01*
X99520378Y-14744836D01*
X99543411Y-14681554D01*
X99546319Y-14575114D01*
X99445696Y-14359327D01*
X99362289Y-14293136D01*
X99299007Y-14270104D01*
X99192567Y-14267195D01*
X99019937Y-14347694D01*
X98953747Y-14431101D01*
X98930714Y-14494383D01*
X98927806Y-14600823D01*
%TO.C,J3*%
X17573963Y-27216480D02*
X17573963Y-27930766D01*
X17526344Y-28073623D01*
X17431106Y-28168861D01*
X17288249Y-28216480D01*
X17193011Y-28216480D01*
X17954916Y-27216480D02*
X18573963Y-27216480D01*
X18240630Y-27597433D01*
X18383487Y-27597433D01*
X18478725Y-27645052D01*
X18526344Y-27692671D01*
X18573963Y-27787909D01*
X18573963Y-28026004D01*
X18526344Y-28121242D01*
X18478725Y-28168861D01*
X18383487Y-28216480D01*
X18097773Y-28216480D01*
X18002535Y-28168861D01*
X17954916Y-28121242D01*
%TO.C,J4*%
X60502692Y-14213255D02*
X60804562Y-14860618D01*
X60821779Y-15010215D01*
X60775713Y-15136779D01*
X60666365Y-15240311D01*
X60580050Y-15280560D01*
X61463558Y-14132989D02*
X61745303Y-14737194D01*
X61086773Y-13888352D02*
X61172855Y-14636338D01*
X61733903Y-14374717D01*
%TO.C,J5*%
X79451092Y-14162455D02*
X79752962Y-14809818D01*
X79770179Y-14959415D01*
X79724113Y-15085979D01*
X79614765Y-15189511D01*
X79528450Y-15229760D01*
X80314242Y-13759961D02*
X79882667Y-13961208D01*
X80040757Y-14412908D01*
X80063789Y-14349626D01*
X80129980Y-14266219D01*
X80345767Y-14165595D01*
X80452207Y-14168504D01*
X80515489Y-14191536D01*
X80598896Y-14257727D01*
X80699519Y-14473514D01*
X80696611Y-14579954D01*
X80673578Y-14643236D01*
X80607388Y-14726643D01*
X80391601Y-14827266D01*
X80285161Y-14824358D01*
X80221879Y-14801325D01*
%TO.C,J7*%
X117144692Y-14213255D02*
X117446562Y-14860618D01*
X117463779Y-15010215D01*
X117417713Y-15136779D01*
X117308365Y-15240311D01*
X117222050Y-15280560D01*
X117489952Y-14052257D02*
X118094157Y-13770512D01*
X118128358Y-14857942D01*
%TO.C,J1*%
X22656692Y-14264055D02*
X22958562Y-14911418D01*
X22975779Y-15061015D01*
X22929713Y-15187579D01*
X22820365Y-15291111D01*
X22734050Y-15331360D01*
X23985618Y-14747744D02*
X23467728Y-14989241D01*
X23726673Y-14868492D02*
X23304055Y-13962185D01*
X23278114Y-14131907D01*
X23232048Y-14258471D01*
X23165858Y-14341878D01*
%TO.C,J8*%
X41757492Y-33212455D02*
X42059362Y-33859818D01*
X42076579Y-34009415D01*
X42030513Y-34135979D01*
X41921165Y-34239511D01*
X41834850Y-34279760D01*
X42499662Y-33339252D02*
X42393222Y-33336343D01*
X42329940Y-33313311D01*
X42246533Y-33247120D01*
X42226408Y-33203963D01*
X42229317Y-33097523D01*
X42252349Y-33034241D01*
X42318540Y-32950834D01*
X42491170Y-32870335D01*
X42597610Y-32873243D01*
X42660892Y-32896276D01*
X42744299Y-32962467D01*
X42764423Y-33005624D01*
X42761515Y-33112064D01*
X42738482Y-33175346D01*
X42672292Y-33258753D01*
X42499662Y-33339252D01*
X42433472Y-33422659D01*
X42410439Y-33485941D01*
X42407531Y-33592380D01*
X42488029Y-33765010D01*
X42571436Y-33831201D01*
X42634718Y-33854234D01*
X42741158Y-33857142D01*
X42913788Y-33776643D01*
X42979978Y-33693236D01*
X43003011Y-33629954D01*
X43005919Y-33523514D01*
X42925421Y-33350884D01*
X42842014Y-33284694D01*
X42778732Y-33261661D01*
X42672292Y-33258753D01*
%TO.C,J2*%
X17624763Y-51511880D02*
X17624763Y-52226166D01*
X17577144Y-52369023D01*
X17481906Y-52464261D01*
X17339049Y-52511880D01*
X17243811Y-52511880D01*
X18053335Y-51607119D02*
X18100954Y-51559500D01*
X18196192Y-51511880D01*
X18434287Y-51511880D01*
X18529525Y-51559500D01*
X18577144Y-51607119D01*
X18624763Y-51702357D01*
X18624763Y-51797595D01*
X18577144Y-51940452D01*
X18005716Y-52511880D01*
X18624763Y-52511880D01*
%TO.C,J6*%
X98348692Y-33161655D02*
X98650562Y-33809018D01*
X98667779Y-33958615D01*
X98621713Y-34085179D01*
X98512365Y-34188711D01*
X98426050Y-34228960D01*
X99168685Y-32779286D02*
X98996055Y-32859785D01*
X98929864Y-32943192D01*
X98906832Y-33006474D01*
X98880891Y-33176196D01*
X98918232Y-33368950D01*
X99079229Y-33714210D01*
X99162636Y-33780401D01*
X99225918Y-33803434D01*
X99332358Y-33806342D01*
X99504988Y-33725843D01*
X99571178Y-33642436D01*
X99594211Y-33579154D01*
X99597119Y-33472714D01*
X99496496Y-33256927D01*
X99413089Y-33190736D01*
X99349807Y-33167704D01*
X99243367Y-33164795D01*
X99070737Y-33245294D01*
X99004547Y-33328701D01*
X98981514Y-33391983D01*
X98978606Y-33498423D01*
%TO.C,J3*%
X17624763Y-46114080D02*
X17624763Y-46828366D01*
X17577144Y-46971223D01*
X17481906Y-47066461D01*
X17339049Y-47114080D01*
X17243811Y-47114080D01*
X18005716Y-46114080D02*
X18624763Y-46114080D01*
X18291430Y-46495033D01*
X18434287Y-46495033D01*
X18529525Y-46542652D01*
X18577144Y-46590271D01*
X18624763Y-46685509D01*
X18624763Y-46923604D01*
X18577144Y-47018842D01*
X18529525Y-47066461D01*
X18434287Y-47114080D01*
X18148573Y-47114080D01*
X18053335Y-47066461D01*
X18005716Y-47018842D01*
%TO.C,J4*%
X60553492Y-33110855D02*
X60855362Y-33758218D01*
X60872579Y-33907815D01*
X60826513Y-34034379D01*
X60717165Y-34137911D01*
X60630850Y-34178160D01*
X61514358Y-33030589D02*
X61796103Y-33634794D01*
X61137573Y-32785952D02*
X61223655Y-33533938D01*
X61784703Y-33272317D01*
%TO.C,J5*%
X79501892Y-33060055D02*
X79803762Y-33707418D01*
X79820979Y-33857015D01*
X79774913Y-33983579D01*
X79665565Y-34087111D01*
X79579250Y-34127360D01*
X80365042Y-32657561D02*
X79933467Y-32858808D01*
X80091557Y-33310508D01*
X80114589Y-33247226D01*
X80180780Y-33163819D01*
X80396567Y-33063195D01*
X80503007Y-33066104D01*
X80566289Y-33089136D01*
X80649696Y-33155327D01*
X80750319Y-33371114D01*
X80747411Y-33477554D01*
X80724378Y-33540836D01*
X80658188Y-33624243D01*
X80442401Y-33724866D01*
X80335961Y-33721958D01*
X80272679Y-33698925D01*
%TO.C,J7*%
X117195492Y-33110855D02*
X117497362Y-33758218D01*
X117514579Y-33907815D01*
X117468513Y-34034379D01*
X117359165Y-34137911D01*
X117272850Y-34178160D01*
X117540752Y-32949857D02*
X118144957Y-32668112D01*
X118179158Y-33755542D01*
%TO.C,J1*%
X22707492Y-33161655D02*
X23009362Y-33809018D01*
X23026579Y-33958615D01*
X22980513Y-34085179D01*
X22871165Y-34188711D01*
X22784850Y-34228960D01*
X24036418Y-33645344D02*
X23518528Y-33886841D01*
X23777473Y-33766092D02*
X23354855Y-32859785D01*
X23328914Y-33029507D01*
X23282848Y-33156071D01*
X23216658Y-33239478D01*
%TO.C,J8*%
X41757492Y-52211655D02*
X42059362Y-52859018D01*
X42076579Y-53008615D01*
X42030513Y-53135179D01*
X41921165Y-53238711D01*
X41834850Y-53278960D01*
X42499662Y-52338452D02*
X42393222Y-52335543D01*
X42329940Y-52312511D01*
X42246533Y-52246320D01*
X42226408Y-52203163D01*
X42229317Y-52096723D01*
X42252349Y-52033441D01*
X42318540Y-51950034D01*
X42491170Y-51869535D01*
X42597610Y-51872443D01*
X42660892Y-51895476D01*
X42744299Y-51961667D01*
X42764423Y-52004824D01*
X42761515Y-52111264D01*
X42738482Y-52174546D01*
X42672292Y-52257953D01*
X42499662Y-52338452D01*
X42433472Y-52421859D01*
X42410439Y-52485141D01*
X42407531Y-52591580D01*
X42488029Y-52764210D01*
X42571436Y-52830401D01*
X42634718Y-52853434D01*
X42741158Y-52856342D01*
X42913788Y-52775843D01*
X42979978Y-52692436D01*
X43003011Y-52629154D01*
X43005919Y-52522714D01*
X42925421Y-52350084D01*
X42842014Y-52283894D01*
X42778732Y-52260861D01*
X42672292Y-52257953D01*
%TO.C,J2*%
X17624763Y-70511080D02*
X17624763Y-71225366D01*
X17577144Y-71368223D01*
X17481906Y-71463461D01*
X17339049Y-71511080D01*
X17243811Y-71511080D01*
X18053335Y-70606319D02*
X18100954Y-70558700D01*
X18196192Y-70511080D01*
X18434287Y-70511080D01*
X18529525Y-70558700D01*
X18577144Y-70606319D01*
X18624763Y-70701557D01*
X18624763Y-70796795D01*
X18577144Y-70939652D01*
X18005716Y-71511080D01*
X18624763Y-71511080D01*
%TO.C,J6*%
X98348692Y-52160855D02*
X98650562Y-52808218D01*
X98667779Y-52957815D01*
X98621713Y-53084379D01*
X98512365Y-53187911D01*
X98426050Y-53228160D01*
X99168685Y-51778486D02*
X98996055Y-51858985D01*
X98929864Y-51942392D01*
X98906832Y-52005674D01*
X98880891Y-52175396D01*
X98918232Y-52368150D01*
X99079229Y-52713410D01*
X99162636Y-52779601D01*
X99225918Y-52802634D01*
X99332358Y-52805542D01*
X99504988Y-52725043D01*
X99571178Y-52641636D01*
X99594211Y-52578354D01*
X99597119Y-52471914D01*
X99496496Y-52256127D01*
X99413089Y-52189936D01*
X99349807Y-52166904D01*
X99243367Y-52163995D01*
X99070737Y-52244494D01*
X99004547Y-52327901D01*
X98981514Y-52391183D01*
X98978606Y-52497623D01*
%TO.C,J3*%
X17624763Y-65113280D02*
X17624763Y-65827566D01*
X17577144Y-65970423D01*
X17481906Y-66065661D01*
X17339049Y-66113280D01*
X17243811Y-66113280D01*
X18005716Y-65113280D02*
X18624763Y-65113280D01*
X18291430Y-65494233D01*
X18434287Y-65494233D01*
X18529525Y-65541852D01*
X18577144Y-65589471D01*
X18624763Y-65684709D01*
X18624763Y-65922804D01*
X18577144Y-66018042D01*
X18529525Y-66065661D01*
X18434287Y-66113280D01*
X18148573Y-66113280D01*
X18053335Y-66065661D01*
X18005716Y-66018042D01*
%TO.C,J4*%
X60553492Y-52110055D02*
X60855362Y-52757418D01*
X60872579Y-52907015D01*
X60826513Y-53033579D01*
X60717165Y-53137111D01*
X60630850Y-53177360D01*
X61514358Y-52029789D02*
X61796103Y-52633994D01*
X61137573Y-51785152D02*
X61223655Y-52533138D01*
X61784703Y-52271517D01*
%TO.C,J5*%
X79501892Y-52059255D02*
X79803762Y-52706618D01*
X79820979Y-52856215D01*
X79774913Y-52982779D01*
X79665565Y-53086311D01*
X79579250Y-53126560D01*
X80365042Y-51656761D02*
X79933467Y-51858008D01*
X80091557Y-52309708D01*
X80114589Y-52246426D01*
X80180780Y-52163019D01*
X80396567Y-52062395D01*
X80503007Y-52065304D01*
X80566289Y-52088336D01*
X80649696Y-52154527D01*
X80750319Y-52370314D01*
X80747411Y-52476754D01*
X80724378Y-52540036D01*
X80658188Y-52623443D01*
X80442401Y-52724066D01*
X80335961Y-52721158D01*
X80272679Y-52698125D01*
%TO.C,J7*%
X117195492Y-52110055D02*
X117497362Y-52757418D01*
X117514579Y-52907015D01*
X117468513Y-53033579D01*
X117359165Y-53137111D01*
X117272850Y-53177360D01*
X117540752Y-51949057D02*
X118144957Y-51667312D01*
X118179158Y-52754742D01*
%TO.C,J1*%
X22707492Y-52160855D02*
X23009362Y-52808218D01*
X23026579Y-52957815D01*
X22980513Y-53084379D01*
X22871165Y-53187911D01*
X22784850Y-53228160D01*
X24036418Y-52644544D02*
X23518528Y-52886041D01*
X23777473Y-52765292D02*
X23354855Y-51858985D01*
X23328914Y-52028707D01*
X23282848Y-52155271D01*
X23216658Y-52238678D01*
%TO.C,J6*%
X98424595Y-70914755D02*
X98726465Y-71562118D01*
X98743682Y-71711715D01*
X98697616Y-71838279D01*
X98588268Y-71941811D01*
X98501953Y-71982060D01*
X99244588Y-70532386D02*
X99071958Y-70612885D01*
X99005767Y-70696292D01*
X98982735Y-70759574D01*
X98956794Y-70929296D01*
X98994135Y-71122050D01*
X99155132Y-71467310D01*
X99238539Y-71533501D01*
X99301821Y-71556534D01*
X99408261Y-71559442D01*
X99580891Y-71478943D01*
X99647081Y-71395536D01*
X99670114Y-71332254D01*
X99673022Y-71225814D01*
X99572399Y-71010027D01*
X99488992Y-70943836D01*
X99425710Y-70920804D01*
X99319270Y-70917895D01*
X99146640Y-70998394D01*
X99080450Y-71081801D01*
X99057417Y-71145083D01*
X99054509Y-71251523D01*
%TO.C,J8*%
X41833395Y-70965555D02*
X42135265Y-71612918D01*
X42152482Y-71762515D01*
X42106416Y-71889079D01*
X41997068Y-71992611D01*
X41910753Y-72032860D01*
X42575565Y-71092352D02*
X42469125Y-71089443D01*
X42405843Y-71066411D01*
X42322436Y-71000220D01*
X42302311Y-70957063D01*
X42305220Y-70850623D01*
X42328252Y-70787341D01*
X42394443Y-70703934D01*
X42567073Y-70623435D01*
X42673513Y-70626343D01*
X42736795Y-70649376D01*
X42820202Y-70715567D01*
X42840326Y-70758724D01*
X42837418Y-70865164D01*
X42814385Y-70928446D01*
X42748195Y-71011853D01*
X42575565Y-71092352D01*
X42509375Y-71175759D01*
X42486342Y-71239041D01*
X42483434Y-71345480D01*
X42563932Y-71518110D01*
X42647339Y-71584301D01*
X42710621Y-71607334D01*
X42817061Y-71610242D01*
X42989691Y-71529743D01*
X43055881Y-71446336D01*
X43078914Y-71383054D01*
X43081822Y-71276614D01*
X43001324Y-71103984D01*
X42917917Y-71037794D01*
X42854635Y-71014761D01*
X42748195Y-71011853D01*
%TO.C,J7*%
X117271395Y-70863955D02*
X117573265Y-71511318D01*
X117590482Y-71660915D01*
X117544416Y-71787479D01*
X117435068Y-71891011D01*
X117348753Y-71931260D01*
X117616655Y-70702957D02*
X118220860Y-70421212D01*
X118255061Y-71508642D01*
%TO.C,J4*%
X60629395Y-70863955D02*
X60931265Y-71511318D01*
X60948482Y-71660915D01*
X60902416Y-71787479D01*
X60793068Y-71891011D01*
X60706753Y-71931260D01*
X61590261Y-70783689D02*
X61872006Y-71387894D01*
X61213476Y-70539052D02*
X61299558Y-71287038D01*
X61860606Y-71025417D01*
%TO.C,J3*%
X17700666Y-83867180D02*
X17700666Y-84581466D01*
X17653047Y-84724323D01*
X17557809Y-84819561D01*
X17414952Y-84867180D01*
X17319714Y-84867180D01*
X18081619Y-83867180D02*
X18700666Y-83867180D01*
X18367333Y-84248133D01*
X18510190Y-84248133D01*
X18605428Y-84295752D01*
X18653047Y-84343371D01*
X18700666Y-84438609D01*
X18700666Y-84676704D01*
X18653047Y-84771942D01*
X18605428Y-84819561D01*
X18510190Y-84867180D01*
X18224476Y-84867180D01*
X18129238Y-84819561D01*
X18081619Y-84771942D01*
%TO.C,J5*%
X79577795Y-70813155D02*
X79879665Y-71460518D01*
X79896882Y-71610115D01*
X79850816Y-71736679D01*
X79741468Y-71840211D01*
X79655153Y-71880460D01*
X80440945Y-70410661D02*
X80009370Y-70611908D01*
X80167460Y-71063608D01*
X80190492Y-71000326D01*
X80256683Y-70916919D01*
X80472470Y-70816295D01*
X80578910Y-70819204D01*
X80642192Y-70842236D01*
X80725599Y-70908427D01*
X80826222Y-71124214D01*
X80823314Y-71230654D01*
X80800281Y-71293936D01*
X80734091Y-71377343D01*
X80518304Y-71477966D01*
X80411864Y-71475058D01*
X80348582Y-71452025D01*
%TO.C,J2*%
X17700666Y-89264980D02*
X17700666Y-89979266D01*
X17653047Y-90122123D01*
X17557809Y-90217361D01*
X17414952Y-90264980D01*
X17319714Y-90264980D01*
X18129238Y-89360219D02*
X18176857Y-89312600D01*
X18272095Y-89264980D01*
X18510190Y-89264980D01*
X18605428Y-89312600D01*
X18653047Y-89360219D01*
X18700666Y-89455457D01*
X18700666Y-89550695D01*
X18653047Y-89693552D01*
X18081619Y-90264980D01*
X18700666Y-90264980D01*
%TO.C,J1*%
X22783395Y-70914755D02*
X23085265Y-71562118D01*
X23102482Y-71711715D01*
X23056416Y-71838279D01*
X22947068Y-71941811D01*
X22860753Y-71982060D01*
X24112321Y-71398444D02*
X23594431Y-71639941D01*
X23853376Y-71519192D02*
X23430758Y-70612885D01*
X23404817Y-70782607D01*
X23358751Y-70909171D01*
X23292561Y-70992578D01*
D11*
%TO.C,J8*%
X46758740Y-13255246D02*
X47015855Y-13561664D01*
X44781365Y-13870133D02*
X45100109Y-13472135D01*
X43978343Y-14935571D02*
X44781365Y-13870133D01*
X48635679Y-15492095D02*
X52350993Y-19919831D01*
X45678617Y-14161575D02*
X45035830Y-13395531D01*
X40647377Y-18122207D02*
X42026256Y-16965188D01*
X36673619Y-20542797D02*
X37415013Y-20181779D01*
X43384082Y-30733588D02*
X45119610Y-32801909D01*
X38910124Y-19318852D02*
X39587238Y-18881227D01*
X36670969Y-19761779D02*
X44331414Y-13333901D01*
X36172007Y-22138569D02*
X36429120Y-22444988D01*
X42026256Y-16965188D02*
X42957835Y-16052961D01*
X53970819Y-21850263D02*
X55706343Y-23918584D01*
X42957835Y-16052961D02*
X43978343Y-14935571D01*
X37252128Y-21232238D02*
X36609341Y-20466195D01*
X55706343Y-23918584D02*
X45119610Y-32801909D01*
X39587238Y-18881227D02*
X40647377Y-18122207D01*
X38048946Y-24375420D02*
X41764259Y-28803157D01*
X36172007Y-22138569D02*
X46758740Y-13255246D01*
X37415013Y-20181779D02*
X38910124Y-19318852D01*
X36670969Y-19761780D02*
G75*
G03*
X36609341Y-20466195I321392J-383021D01*
G01*
X45035830Y-13395531D02*
G75*
G03*
X44331414Y-13333901I-383023J-321394D01*
G01*
%TO.C,J2*%
X19237297Y-32161900D02*
X17907297Y-32161900D01*
X16577297Y-29561900D02*
X16577297Y-26961900D01*
X19237297Y-26961900D02*
X16577297Y-26961900D01*
X19237297Y-29561900D02*
X16577297Y-29561900D01*
X19237297Y-30831900D02*
X19237297Y-32161900D01*
X19237297Y-29561900D02*
X19237297Y-26961900D01*
%TO.C,J6*%
X99975282Y-30682788D02*
X101710810Y-32751109D01*
X110562019Y-21799463D02*
X112297543Y-23867784D01*
X101372565Y-13819333D02*
X101691309Y-13421335D01*
X92763207Y-22087769D02*
X103349940Y-13204446D01*
X105226879Y-15441295D02*
X108942193Y-19869031D01*
X102269817Y-14110775D02*
X101627030Y-13344731D01*
X99549035Y-16002161D02*
X100569543Y-14884771D01*
X103349940Y-13204446D02*
X103607055Y-13510864D01*
X92763207Y-22087769D02*
X93020320Y-22394188D01*
X96178438Y-18830427D02*
X97238577Y-18071407D01*
X94640146Y-24324620D02*
X98355459Y-28752357D01*
X93264819Y-20491997D02*
X94006213Y-20130979D01*
X98617456Y-16914388D02*
X99549035Y-16002161D01*
X112297543Y-23867784D02*
X101710810Y-32751109D01*
X100569543Y-14884771D02*
X101372565Y-13819333D01*
X93843328Y-21181438D02*
X93200541Y-20415395D01*
X95501324Y-19268052D02*
X96178438Y-18830427D01*
X94006213Y-20130979D02*
X95501324Y-19268052D01*
X93262169Y-19710979D02*
X100922614Y-13283101D01*
X97238577Y-18071407D02*
X98617456Y-16914388D01*
X101627030Y-13344731D02*
G75*
G03*
X100922614Y-13283101I-383023J-321394D01*
G01*
X93262169Y-19710980D02*
G75*
G03*
X93200541Y-20415395I321392J-383021D01*
G01*
%TO.C,J3*%
X19237297Y-21564100D02*
X16577297Y-21564100D01*
X19237297Y-24164100D02*
X16577297Y-24164100D01*
X19237297Y-25434100D02*
X19237297Y-26764100D01*
X19237297Y-24164100D02*
X19237297Y-21564100D01*
X19237297Y-26764100D02*
X17907297Y-26764100D01*
X16577297Y-24164100D02*
X16577297Y-21564100D01*
%TO.C,J4*%
X63577365Y-13768533D02*
X63896109Y-13370535D01*
X74502343Y-23816984D02*
X63915610Y-32700309D01*
X60822256Y-16863588D02*
X61753835Y-15951361D01*
X67431679Y-15390495D02*
X71146993Y-19818231D01*
X72766819Y-21748663D02*
X74502343Y-23816984D01*
X57706124Y-19217252D02*
X58383238Y-18779627D01*
X54968007Y-22036969D02*
X55225120Y-22343388D01*
X61753835Y-15951361D02*
X62774343Y-14833971D01*
X54968007Y-22036969D02*
X65554740Y-13153646D01*
X64474617Y-14059975D02*
X63831830Y-13293931D01*
X65554740Y-13153646D02*
X65811855Y-13460064D01*
X62774343Y-14833971D02*
X63577365Y-13768533D01*
X56844946Y-24273820D02*
X60560259Y-28701557D01*
X55469619Y-20441197D02*
X56211013Y-20080179D01*
X55466969Y-19660179D02*
X63127414Y-13232301D01*
X56211013Y-20080179D02*
X57706124Y-19217252D01*
X56048128Y-21130638D02*
X55405341Y-20364595D01*
X62180082Y-30631988D02*
X63915610Y-32700309D01*
X59443377Y-18020607D02*
X60822256Y-16863588D01*
X58383238Y-18779627D02*
X59443377Y-18020607D01*
X63831830Y-13293931D02*
G75*
G03*
X63127414Y-13232301I-383023J-321394D01*
G01*
X55466969Y-19660180D02*
G75*
G03*
X55405341Y-20364595I321392J-383021D01*
G01*
%TO.C,J5*%
X76654524Y-19166452D02*
X77331638Y-18728827D01*
X81722743Y-14783171D02*
X82525765Y-13717733D01*
X74415369Y-19609379D02*
X82075814Y-13181501D01*
X74418019Y-20390397D02*
X75159413Y-20029379D01*
X79770656Y-16812788D02*
X80702235Y-15900561D01*
X84503140Y-13102846D02*
X84760255Y-13409264D01*
X77331638Y-18728827D02*
X78391777Y-17969807D01*
X78391777Y-17969807D02*
X79770656Y-16812788D01*
X80702235Y-15900561D02*
X81722743Y-14783171D01*
X75159413Y-20029379D02*
X76654524Y-19166452D01*
X81128482Y-30581188D02*
X82864010Y-32649509D01*
X93450743Y-23766184D02*
X82864010Y-32649509D01*
X82525765Y-13717733D02*
X82844509Y-13319735D01*
X91715219Y-21697863D02*
X93450743Y-23766184D01*
X74996528Y-21079838D02*
X74353741Y-20313795D01*
X73916407Y-21986169D02*
X84503140Y-13102846D01*
X83423017Y-14009175D02*
X82780230Y-13243131D01*
X86380079Y-15339695D02*
X90095393Y-19767431D01*
X73916407Y-21986169D02*
X74173520Y-22292588D01*
X75793346Y-24223020D02*
X79508659Y-28650757D01*
X74415369Y-19609380D02*
G75*
G03*
X74353741Y-20313795I321392J-383021D01*
G01*
X82780230Y-13243131D02*
G75*
G03*
X82075814Y-13181501I-383023J-321394D01*
G01*
%TO.C,J7*%
X129408819Y-21748663D02*
X131144343Y-23816984D01*
X111610007Y-22036969D02*
X111867120Y-22343388D01*
X117464256Y-16863588D02*
X118395835Y-15951361D01*
X131144343Y-23816984D02*
X120557610Y-32700309D01*
X112690128Y-21130638D02*
X112047341Y-20364595D01*
X112853013Y-20080179D02*
X114348124Y-19217252D01*
X118822082Y-30631988D02*
X120557610Y-32700309D01*
X112111619Y-20441197D02*
X112853013Y-20080179D01*
X116085377Y-18020607D02*
X117464256Y-16863588D01*
X121116617Y-14059975D02*
X120473830Y-13293931D01*
X114348124Y-19217252D02*
X115025238Y-18779627D01*
X115025238Y-18779627D02*
X116085377Y-18020607D01*
X124073679Y-15390495D02*
X127788993Y-19818231D01*
X112108969Y-19660179D02*
X119769414Y-13232301D01*
X118395835Y-15951361D02*
X119416343Y-14833971D01*
X122196740Y-13153646D02*
X122453855Y-13460064D01*
X111610007Y-22036969D02*
X122196740Y-13153646D01*
X120219365Y-13768533D02*
X120538109Y-13370535D01*
X113486946Y-24273820D02*
X117202259Y-28701557D01*
X119416343Y-14833971D02*
X120219365Y-13768533D01*
X112108969Y-19660180D02*
G75*
G03*
X112047341Y-20364595I321392J-383021D01*
G01*
X120473830Y-13293931D02*
G75*
G03*
X119769414Y-13232301I-383023J-321394D01*
G01*
%TO.C,J1*%
X17623619Y-20491997D02*
X18365013Y-20130979D01*
X29585679Y-15441295D02*
X33300993Y-19869031D01*
X36656343Y-23867784D02*
X26069610Y-32751109D01*
X18365013Y-20130979D02*
X19860124Y-19268052D01*
X18998946Y-24324620D02*
X22714259Y-28752357D01*
X17122007Y-22087769D02*
X27708740Y-13204446D01*
X22976256Y-16914388D02*
X23907835Y-16002161D01*
X21597377Y-18071407D02*
X22976256Y-16914388D01*
X17122007Y-22087769D02*
X17379120Y-22394188D01*
X34920819Y-21799463D02*
X36656343Y-23867784D01*
X24928343Y-14884771D02*
X25731365Y-13819333D01*
X24334082Y-30682788D02*
X26069610Y-32751109D01*
X27708740Y-13204446D02*
X27965855Y-13510864D01*
X18202128Y-21181438D02*
X17559341Y-20415395D01*
X26628617Y-14110775D02*
X25985830Y-13344731D01*
X25731365Y-13819333D02*
X26050109Y-13421335D01*
X20537238Y-18830427D02*
X21597377Y-18071407D01*
X19860124Y-19268052D02*
X20537238Y-18830427D01*
X17620969Y-19710979D02*
X25281414Y-13283101D01*
X23907835Y-16002161D02*
X24928343Y-14884771D01*
X25985830Y-13344731D02*
G75*
G03*
X25281414Y-13283101I-383023J-321394D01*
G01*
X17620969Y-19710980D02*
G75*
G03*
X17559341Y-20415395I321392J-383021D01*
G01*
%TO.C,J8*%
X46809540Y-32152846D02*
X47066655Y-32459264D01*
X44832165Y-32767733D02*
X45150909Y-32369735D01*
X44029143Y-33833171D02*
X44832165Y-32767733D01*
X48686479Y-34389695D02*
X52401793Y-38817431D01*
X45729417Y-33059175D02*
X45086630Y-32293131D01*
X40698177Y-37019807D02*
X42077056Y-35862788D01*
X36724419Y-39440397D02*
X37465813Y-39079379D01*
X43434882Y-49631188D02*
X45170410Y-51699509D01*
X38960924Y-38216452D02*
X39638038Y-37778827D01*
X36721769Y-38659379D02*
X44382214Y-32231501D01*
X36222807Y-41036169D02*
X36479920Y-41342588D01*
X42077056Y-35862788D02*
X43008635Y-34950561D01*
X54021619Y-40747863D02*
X55757143Y-42816184D01*
X43008635Y-34950561D02*
X44029143Y-33833171D01*
X37302928Y-40129838D02*
X36660141Y-39363795D01*
X55757143Y-42816184D02*
X45170410Y-51699509D01*
X39638038Y-37778827D02*
X40698177Y-37019807D01*
X38099746Y-43273020D02*
X41815059Y-47700757D01*
X36222807Y-41036169D02*
X46809540Y-32152846D01*
X37465813Y-39079379D02*
X38960924Y-38216452D01*
X36721769Y-38659380D02*
G75*
G03*
X36660141Y-39363795I321392J-383021D01*
G01*
X45086630Y-32293131D02*
G75*
G03*
X44382214Y-32231501I-383023J-321394D01*
G01*
%TO.C,J2*%
X19288097Y-51059500D02*
X17958097Y-51059500D01*
X16628097Y-48459500D02*
X16628097Y-45859500D01*
X19288097Y-45859500D02*
X16628097Y-45859500D01*
X19288097Y-48459500D02*
X16628097Y-48459500D01*
X19288097Y-49729500D02*
X19288097Y-51059500D01*
X19288097Y-48459500D02*
X19288097Y-45859500D01*
%TO.C,J6*%
X100026082Y-49580388D02*
X101761610Y-51648709D01*
X110612819Y-40697063D02*
X112348343Y-42765384D01*
X101423365Y-32716933D02*
X101742109Y-32318935D01*
X92814007Y-40985369D02*
X103400740Y-32102046D01*
X105277679Y-34338895D02*
X108992993Y-38766631D01*
X102320617Y-33008375D02*
X101677830Y-32242331D01*
X99599835Y-34899761D02*
X100620343Y-33782371D01*
X103400740Y-32102046D02*
X103657855Y-32408464D01*
X92814007Y-40985369D02*
X93071120Y-41291788D01*
X96229238Y-37728027D02*
X97289377Y-36969007D01*
X94690946Y-43222220D02*
X98406259Y-47649957D01*
X93315619Y-39389597D02*
X94057013Y-39028579D01*
X98668256Y-35811988D02*
X99599835Y-34899761D01*
X112348343Y-42765384D02*
X101761610Y-51648709D01*
X100620343Y-33782371D02*
X101423365Y-32716933D01*
X93894128Y-40079038D02*
X93251341Y-39312995D01*
X95552124Y-38165652D02*
X96229238Y-37728027D01*
X94057013Y-39028579D02*
X95552124Y-38165652D01*
X93312969Y-38608579D02*
X100973414Y-32180701D01*
X97289377Y-36969007D02*
X98668256Y-35811988D01*
X101677830Y-32242331D02*
G75*
G03*
X100973414Y-32180701I-383023J-321394D01*
G01*
X93312969Y-38608580D02*
G75*
G03*
X93251341Y-39312995I321392J-383021D01*
G01*
%TO.C,J3*%
X19288097Y-40461700D02*
X16628097Y-40461700D01*
X19288097Y-43061700D02*
X16628097Y-43061700D01*
X19288097Y-44331700D02*
X19288097Y-45661700D01*
X19288097Y-43061700D02*
X19288097Y-40461700D01*
X19288097Y-45661700D02*
X17958097Y-45661700D01*
X16628097Y-43061700D02*
X16628097Y-40461700D01*
%TO.C,J4*%
X63628165Y-32666133D02*
X63946909Y-32268135D01*
X74553143Y-42714584D02*
X63966410Y-51597909D01*
X60873056Y-35761188D02*
X61804635Y-34848961D01*
X67482479Y-34288095D02*
X71197793Y-38715831D01*
X72817619Y-40646263D02*
X74553143Y-42714584D01*
X57756924Y-38114852D02*
X58434038Y-37677227D01*
X55018807Y-40934569D02*
X55275920Y-41240988D01*
X61804635Y-34848961D02*
X62825143Y-33731571D01*
X55018807Y-40934569D02*
X65605540Y-32051246D01*
X64525417Y-32957575D02*
X63882630Y-32191531D01*
X65605540Y-32051246D02*
X65862655Y-32357664D01*
X62825143Y-33731571D02*
X63628165Y-32666133D01*
X56895746Y-43171420D02*
X60611059Y-47599157D01*
X55520419Y-39338797D02*
X56261813Y-38977779D01*
X55517769Y-38557779D02*
X63178214Y-32129901D01*
X56261813Y-38977779D02*
X57756924Y-38114852D01*
X56098928Y-40028238D02*
X55456141Y-39262195D01*
X62230882Y-49529588D02*
X63966410Y-51597909D01*
X59494177Y-36918207D02*
X60873056Y-35761188D01*
X58434038Y-37677227D02*
X59494177Y-36918207D01*
X63882630Y-32191531D02*
G75*
G03*
X63178214Y-32129901I-383023J-321394D01*
G01*
X55517769Y-38557780D02*
G75*
G03*
X55456141Y-39262195I321392J-383021D01*
G01*
%TO.C,J5*%
X76705324Y-38064052D02*
X77382438Y-37626427D01*
X81773543Y-33680771D02*
X82576565Y-32615333D01*
X74466169Y-38506979D02*
X82126614Y-32079101D01*
X74468819Y-39287997D02*
X75210213Y-38926979D01*
X79821456Y-35710388D02*
X80753035Y-34798161D01*
X84553940Y-32000446D02*
X84811055Y-32306864D01*
X77382438Y-37626427D02*
X78442577Y-36867407D01*
X78442577Y-36867407D02*
X79821456Y-35710388D01*
X80753035Y-34798161D02*
X81773543Y-33680771D01*
X75210213Y-38926979D02*
X76705324Y-38064052D01*
X81179282Y-49478788D02*
X82914810Y-51547109D01*
X93501543Y-42663784D02*
X82914810Y-51547109D01*
X82576565Y-32615333D02*
X82895309Y-32217335D01*
X91766019Y-40595463D02*
X93501543Y-42663784D01*
X75047328Y-39977438D02*
X74404541Y-39211395D01*
X73967207Y-40883769D02*
X84553940Y-32000446D01*
X83473817Y-32906775D02*
X82831030Y-32140731D01*
X86430879Y-34237295D02*
X90146193Y-38665031D01*
X73967207Y-40883769D02*
X74224320Y-41190188D01*
X75844146Y-43120620D02*
X79559459Y-47548357D01*
X74466169Y-38506980D02*
G75*
G03*
X74404541Y-39211395I321392J-383021D01*
G01*
X82831030Y-32140731D02*
G75*
G03*
X82126614Y-32079101I-383023J-321394D01*
G01*
%TO.C,J7*%
X129459619Y-40646263D02*
X131195143Y-42714584D01*
X111660807Y-40934569D02*
X111917920Y-41240988D01*
X117515056Y-35761188D02*
X118446635Y-34848961D01*
X131195143Y-42714584D02*
X120608410Y-51597909D01*
X112740928Y-40028238D02*
X112098141Y-39262195D01*
X112903813Y-38977779D02*
X114398924Y-38114852D01*
X118872882Y-49529588D02*
X120608410Y-51597909D01*
X112162419Y-39338797D02*
X112903813Y-38977779D01*
X116136177Y-36918207D02*
X117515056Y-35761188D01*
X121167417Y-32957575D02*
X120524630Y-32191531D01*
X114398924Y-38114852D02*
X115076038Y-37677227D01*
X115076038Y-37677227D02*
X116136177Y-36918207D01*
X124124479Y-34288095D02*
X127839793Y-38715831D01*
X112159769Y-38557779D02*
X119820214Y-32129901D01*
X118446635Y-34848961D02*
X119467143Y-33731571D01*
X122247540Y-32051246D02*
X122504655Y-32357664D01*
X111660807Y-40934569D02*
X122247540Y-32051246D01*
X120270165Y-32666133D02*
X120588909Y-32268135D01*
X113537746Y-43171420D02*
X117253059Y-47599157D01*
X119467143Y-33731571D02*
X120270165Y-32666133D01*
X112159769Y-38557780D02*
G75*
G03*
X112098141Y-39262195I321392J-383021D01*
G01*
X120524630Y-32191531D02*
G75*
G03*
X119820214Y-32129901I-383023J-321394D01*
G01*
%TO.C,J1*%
X17674419Y-39389597D02*
X18415813Y-39028579D01*
X29636479Y-34338895D02*
X33351793Y-38766631D01*
X36707143Y-42765384D02*
X26120410Y-51648709D01*
X18415813Y-39028579D02*
X19910924Y-38165652D01*
X19049746Y-43222220D02*
X22765059Y-47649957D01*
X17172807Y-40985369D02*
X27759540Y-32102046D01*
X23027056Y-35811988D02*
X23958635Y-34899761D01*
X21648177Y-36969007D02*
X23027056Y-35811988D01*
X17172807Y-40985369D02*
X17429920Y-41291788D01*
X34971619Y-40697063D02*
X36707143Y-42765384D01*
X24979143Y-33782371D02*
X25782165Y-32716933D01*
X24384882Y-49580388D02*
X26120410Y-51648709D01*
X27759540Y-32102046D02*
X28016655Y-32408464D01*
X18252928Y-40079038D02*
X17610141Y-39312995D01*
X26679417Y-33008375D02*
X26036630Y-32242331D01*
X25782165Y-32716933D02*
X26100909Y-32318935D01*
X20588038Y-37728027D02*
X21648177Y-36969007D01*
X19910924Y-38165652D02*
X20588038Y-37728027D01*
X17671769Y-38608579D02*
X25332214Y-32180701D01*
X23958635Y-34899761D02*
X24979143Y-33782371D01*
X26036630Y-32242331D02*
G75*
G03*
X25332214Y-32180701I-383023J-321394D01*
G01*
X17671769Y-38608580D02*
G75*
G03*
X17610141Y-39312995I321392J-383021D01*
G01*
%TO.C,J8*%
X46809540Y-51152046D02*
X47066655Y-51458464D01*
X44832165Y-51766933D02*
X45150909Y-51368935D01*
X44029143Y-52832371D02*
X44832165Y-51766933D01*
X48686479Y-53388895D02*
X52401793Y-57816631D01*
X45729417Y-52058375D02*
X45086630Y-51292331D01*
X40698177Y-56019007D02*
X42077056Y-54861988D01*
X36724419Y-58439597D02*
X37465813Y-58078579D01*
X43434882Y-68630388D02*
X45170410Y-70698709D01*
X38960924Y-57215652D02*
X39638038Y-56778027D01*
X36721769Y-57658579D02*
X44382214Y-51230701D01*
X36222807Y-60035369D02*
X36479920Y-60341788D01*
X42077056Y-54861988D02*
X43008635Y-53949761D01*
X54021619Y-59747063D02*
X55757143Y-61815384D01*
X43008635Y-53949761D02*
X44029143Y-52832371D01*
X37302928Y-59129038D02*
X36660141Y-58362995D01*
X55757143Y-61815384D02*
X45170410Y-70698709D01*
X39638038Y-56778027D02*
X40698177Y-56019007D01*
X38099746Y-62272220D02*
X41815059Y-66699957D01*
X36222807Y-60035369D02*
X46809540Y-51152046D01*
X37465813Y-58078579D02*
X38960924Y-57215652D01*
X36721769Y-57658580D02*
G75*
G03*
X36660141Y-58362995I321392J-383021D01*
G01*
X45086630Y-51292331D02*
G75*
G03*
X44382214Y-51230701I-383023J-321394D01*
G01*
%TO.C,J2*%
X19288097Y-70058700D02*
X17958097Y-70058700D01*
X16628097Y-67458700D02*
X16628097Y-64858700D01*
X19288097Y-64858700D02*
X16628097Y-64858700D01*
X19288097Y-67458700D02*
X16628097Y-67458700D01*
X19288097Y-68728700D02*
X19288097Y-70058700D01*
X19288097Y-67458700D02*
X19288097Y-64858700D01*
%TO.C,J6*%
X100026082Y-68579588D02*
X101761610Y-70647909D01*
X110612819Y-59696263D02*
X112348343Y-61764584D01*
X101423365Y-51716133D02*
X101742109Y-51318135D01*
X92814007Y-59984569D02*
X103400740Y-51101246D01*
X105277679Y-53338095D02*
X108992993Y-57765831D01*
X102320617Y-52007575D02*
X101677830Y-51241531D01*
X99599835Y-53898961D02*
X100620343Y-52781571D01*
X103400740Y-51101246D02*
X103657855Y-51407664D01*
X92814007Y-59984569D02*
X93071120Y-60290988D01*
X96229238Y-56727227D02*
X97289377Y-55968207D01*
X94690946Y-62221420D02*
X98406259Y-66649157D01*
X93315619Y-58388797D02*
X94057013Y-58027779D01*
X98668256Y-54811188D02*
X99599835Y-53898961D01*
X112348343Y-61764584D02*
X101761610Y-70647909D01*
X100620343Y-52781571D02*
X101423365Y-51716133D01*
X93894128Y-59078238D02*
X93251341Y-58312195D01*
X95552124Y-57164852D02*
X96229238Y-56727227D01*
X94057013Y-58027779D02*
X95552124Y-57164852D01*
X93312969Y-57607779D02*
X100973414Y-51179901D01*
X97289377Y-55968207D02*
X98668256Y-54811188D01*
X101677830Y-51241531D02*
G75*
G03*
X100973414Y-51179901I-383023J-321394D01*
G01*
X93312969Y-57607780D02*
G75*
G03*
X93251341Y-58312195I321392J-383021D01*
G01*
%TO.C,J3*%
X19288097Y-59460900D02*
X16628097Y-59460900D01*
X19288097Y-62060900D02*
X16628097Y-62060900D01*
X19288097Y-63330900D02*
X19288097Y-64660900D01*
X19288097Y-62060900D02*
X19288097Y-59460900D01*
X19288097Y-64660900D02*
X17958097Y-64660900D01*
X16628097Y-62060900D02*
X16628097Y-59460900D01*
%TO.C,J4*%
X63628165Y-51665333D02*
X63946909Y-51267335D01*
X74553143Y-61713784D02*
X63966410Y-70597109D01*
X60873056Y-54760388D02*
X61804635Y-53848161D01*
X67482479Y-53287295D02*
X71197793Y-57715031D01*
X72817619Y-59645463D02*
X74553143Y-61713784D01*
X57756924Y-57114052D02*
X58434038Y-56676427D01*
X55018807Y-59933769D02*
X55275920Y-60240188D01*
X61804635Y-53848161D02*
X62825143Y-52730771D01*
X55018807Y-59933769D02*
X65605540Y-51050446D01*
X64525417Y-51956775D02*
X63882630Y-51190731D01*
X65605540Y-51050446D02*
X65862655Y-51356864D01*
X62825143Y-52730771D02*
X63628165Y-51665333D01*
X56895746Y-62170620D02*
X60611059Y-66598357D01*
X55520419Y-58337997D02*
X56261813Y-57976979D01*
X55517769Y-57556979D02*
X63178214Y-51129101D01*
X56261813Y-57976979D02*
X57756924Y-57114052D01*
X56098928Y-59027438D02*
X55456141Y-58261395D01*
X62230882Y-68528788D02*
X63966410Y-70597109D01*
X59494177Y-55917407D02*
X60873056Y-54760388D01*
X58434038Y-56676427D02*
X59494177Y-55917407D01*
X63882630Y-51190731D02*
G75*
G03*
X63178214Y-51129101I-383023J-321394D01*
G01*
X55517769Y-57556980D02*
G75*
G03*
X55456141Y-58261395I321392J-383021D01*
G01*
%TO.C,J5*%
X76705324Y-57063252D02*
X77382438Y-56625627D01*
X81773543Y-52679971D02*
X82576565Y-51614533D01*
X74466169Y-57506179D02*
X82126614Y-51078301D01*
X74468819Y-58287197D02*
X75210213Y-57926179D01*
X79821456Y-54709588D02*
X80753035Y-53797361D01*
X84553940Y-50999646D02*
X84811055Y-51306064D01*
X77382438Y-56625627D02*
X78442577Y-55866607D01*
X78442577Y-55866607D02*
X79821456Y-54709588D01*
X80753035Y-53797361D02*
X81773543Y-52679971D01*
X75210213Y-57926179D02*
X76705324Y-57063252D01*
X81179282Y-68477988D02*
X82914810Y-70546309D01*
X93501543Y-61662984D02*
X82914810Y-70546309D01*
X82576565Y-51614533D02*
X82895309Y-51216535D01*
X91766019Y-59594663D02*
X93501543Y-61662984D01*
X75047328Y-58976638D02*
X74404541Y-58210595D01*
X73967207Y-59882969D02*
X84553940Y-50999646D01*
X83473817Y-51905975D02*
X82831030Y-51139931D01*
X86430879Y-53236495D02*
X90146193Y-57664231D01*
X73967207Y-59882969D02*
X74224320Y-60189388D01*
X75844146Y-62119820D02*
X79559459Y-66547557D01*
X74466169Y-57506180D02*
G75*
G03*
X74404541Y-58210595I321392J-383021D01*
G01*
X82831030Y-51139931D02*
G75*
G03*
X82126614Y-51078301I-383023J-321394D01*
G01*
%TO.C,J7*%
X129459619Y-59645463D02*
X131195143Y-61713784D01*
X111660807Y-59933769D02*
X111917920Y-60240188D01*
X117515056Y-54760388D02*
X118446635Y-53848161D01*
X131195143Y-61713784D02*
X120608410Y-70597109D01*
X112740928Y-59027438D02*
X112098141Y-58261395D01*
X112903813Y-57976979D02*
X114398924Y-57114052D01*
X118872882Y-68528788D02*
X120608410Y-70597109D01*
X112162419Y-58337997D02*
X112903813Y-57976979D01*
X116136177Y-55917407D02*
X117515056Y-54760388D01*
X121167417Y-51956775D02*
X120524630Y-51190731D01*
X114398924Y-57114052D02*
X115076038Y-56676427D01*
X115076038Y-56676427D02*
X116136177Y-55917407D01*
X124124479Y-53287295D02*
X127839793Y-57715031D01*
X112159769Y-57556979D02*
X119820214Y-51129101D01*
X118446635Y-53848161D02*
X119467143Y-52730771D01*
X122247540Y-51050446D02*
X122504655Y-51356864D01*
X111660807Y-59933769D02*
X122247540Y-51050446D01*
X120270165Y-51665333D02*
X120588909Y-51267335D01*
X113537746Y-62170620D02*
X117253059Y-66598357D01*
X119467143Y-52730771D02*
X120270165Y-51665333D01*
X112159769Y-57556980D02*
G75*
G03*
X112098141Y-58261395I321392J-383021D01*
G01*
X120524630Y-51190731D02*
G75*
G03*
X119820214Y-51129101I-383023J-321394D01*
G01*
%TO.C,J1*%
X17674419Y-58388797D02*
X18415813Y-58027779D01*
X29636479Y-53338095D02*
X33351793Y-57765831D01*
X36707143Y-61764584D02*
X26120410Y-70647909D01*
X18415813Y-58027779D02*
X19910924Y-57164852D01*
X19049746Y-62221420D02*
X22765059Y-66649157D01*
X17172807Y-59984569D02*
X27759540Y-51101246D01*
X23027056Y-54811188D02*
X23958635Y-53898961D01*
X21648177Y-55968207D02*
X23027056Y-54811188D01*
X17172807Y-59984569D02*
X17429920Y-60290988D01*
X34971619Y-59696263D02*
X36707143Y-61764584D01*
X24979143Y-52781571D02*
X25782165Y-51716133D01*
X24384882Y-68579588D02*
X26120410Y-70647909D01*
X27759540Y-51101246D02*
X28016655Y-51407664D01*
X18252928Y-59078238D02*
X17610141Y-58312195D01*
X26679417Y-52007575D02*
X26036630Y-51241531D01*
X25782165Y-51716133D02*
X26100909Y-51318135D01*
X20588038Y-56727227D02*
X21648177Y-55968207D01*
X19910924Y-57164852D02*
X20588038Y-56727227D01*
X17671769Y-57607779D02*
X25332214Y-51179901D01*
X23958635Y-53898961D02*
X24979143Y-52781571D01*
X26036630Y-51241531D02*
G75*
G03*
X25332214Y-51179901I-383023J-321394D01*
G01*
X17671769Y-57607780D02*
G75*
G03*
X17610141Y-58312195I321392J-383021D01*
G01*
%TO.C,J6*%
X100101985Y-87333488D02*
X101837513Y-89401809D01*
X110688722Y-78450163D02*
X112424246Y-80518484D01*
X101499268Y-70470033D02*
X101818012Y-70072035D01*
X92889910Y-78738469D02*
X103476643Y-69855146D01*
X105353582Y-72091995D02*
X109068896Y-76519731D01*
X102396520Y-70761475D02*
X101753733Y-69995431D01*
X99675738Y-72652861D02*
X100696246Y-71535471D01*
X103476643Y-69855146D02*
X103733758Y-70161564D01*
X92889910Y-78738469D02*
X93147023Y-79044888D01*
X96305141Y-75481127D02*
X97365280Y-74722107D01*
X94766849Y-80975320D02*
X98482162Y-85403057D01*
X93391522Y-77142697D02*
X94132916Y-76781679D01*
X98744159Y-73565088D02*
X99675738Y-72652861D01*
X112424246Y-80518484D02*
X101837513Y-89401809D01*
X100696246Y-71535471D02*
X101499268Y-70470033D01*
X93970031Y-77832138D02*
X93327244Y-77066095D01*
X95628027Y-75918752D02*
X96305141Y-75481127D01*
X94132916Y-76781679D02*
X95628027Y-75918752D01*
X93388872Y-76361679D02*
X101049317Y-69933801D01*
X97365280Y-74722107D02*
X98744159Y-73565088D01*
X101753733Y-69995431D02*
G75*
G03*
X101049317Y-69933801I-383023J-321394D01*
G01*
X93388872Y-76361680D02*
G75*
G03*
X93327244Y-77066095I321392J-383021D01*
G01*
%TO.C,J8*%
X46885443Y-69905946D02*
X47142558Y-70212364D01*
X44908068Y-70520833D02*
X45226812Y-70122835D01*
X44105046Y-71586271D02*
X44908068Y-70520833D01*
X48762382Y-72142795D02*
X52477696Y-76570531D01*
X45805320Y-70812275D02*
X45162533Y-70046231D01*
X40774080Y-74772907D02*
X42152959Y-73615888D01*
X36800322Y-77193497D02*
X37541716Y-76832479D01*
X43510785Y-87384288D02*
X45246313Y-89452609D01*
X39036827Y-75969552D02*
X39713941Y-75531927D01*
X36797672Y-76412479D02*
X44458117Y-69984601D01*
X36298710Y-78789269D02*
X36555823Y-79095688D01*
X42152959Y-73615888D02*
X43084538Y-72703661D01*
X54097522Y-78500963D02*
X55833046Y-80569284D01*
X43084538Y-72703661D02*
X44105046Y-71586271D01*
X37378831Y-77882938D02*
X36736044Y-77116895D01*
X55833046Y-80569284D02*
X45246313Y-89452609D01*
X39713941Y-75531927D02*
X40774080Y-74772907D01*
X38175649Y-81026120D02*
X41890962Y-85453857D01*
X36298710Y-78789269D02*
X46885443Y-69905946D01*
X37541716Y-76832479D02*
X39036827Y-75969552D01*
X36797672Y-76412480D02*
G75*
G03*
X36736044Y-77116895I321392J-383021D01*
G01*
X45162533Y-70046231D02*
G75*
G03*
X44458117Y-69984601I-383023J-321394D01*
G01*
%TO.C,J7*%
X129535522Y-78399363D02*
X131271046Y-80467684D01*
X111736710Y-78687669D02*
X111993823Y-78994088D01*
X117590959Y-73514288D02*
X118522538Y-72602061D01*
X131271046Y-80467684D02*
X120684313Y-89351009D01*
X112816831Y-77781338D02*
X112174044Y-77015295D01*
X112979716Y-76730879D02*
X114474827Y-75867952D01*
X118948785Y-87282688D02*
X120684313Y-89351009D01*
X112238322Y-77091897D02*
X112979716Y-76730879D01*
X116212080Y-74671307D02*
X117590959Y-73514288D01*
X121243320Y-70710675D02*
X120600533Y-69944631D01*
X114474827Y-75867952D02*
X115151941Y-75430327D01*
X115151941Y-75430327D02*
X116212080Y-74671307D01*
X124200382Y-72041195D02*
X127915696Y-76468931D01*
X112235672Y-76310879D02*
X119896117Y-69883001D01*
X118522538Y-72602061D02*
X119543046Y-71484671D01*
X122323443Y-69804346D02*
X122580558Y-70110764D01*
X111736710Y-78687669D02*
X122323443Y-69804346D01*
X120346068Y-70419233D02*
X120664812Y-70021235D01*
X113613649Y-80924520D02*
X117328962Y-85352257D01*
X119543046Y-71484671D02*
X120346068Y-70419233D01*
X112235672Y-76310880D02*
G75*
G03*
X112174044Y-77015295I321392J-383021D01*
G01*
X120600533Y-69944631D02*
G75*
G03*
X119896117Y-69883001I-383023J-321394D01*
G01*
%TO.C,J4*%
X63704068Y-70419233D02*
X64022812Y-70021235D01*
X74629046Y-80467684D02*
X64042313Y-89351009D01*
X60948959Y-73514288D02*
X61880538Y-72602061D01*
X67558382Y-72041195D02*
X71273696Y-76468931D01*
X72893522Y-78399363D02*
X74629046Y-80467684D01*
X57832827Y-75867952D02*
X58509941Y-75430327D01*
X55094710Y-78687669D02*
X55351823Y-78994088D01*
X61880538Y-72602061D02*
X62901046Y-71484671D01*
X55094710Y-78687669D02*
X65681443Y-69804346D01*
X64601320Y-70710675D02*
X63958533Y-69944631D01*
X65681443Y-69804346D02*
X65938558Y-70110764D01*
X62901046Y-71484671D02*
X63704068Y-70419233D01*
X56971649Y-80924520D02*
X60686962Y-85352257D01*
X55596322Y-77091897D02*
X56337716Y-76730879D01*
X55593672Y-76310879D02*
X63254117Y-69883001D01*
X56337716Y-76730879D02*
X57832827Y-75867952D01*
X56174831Y-77781338D02*
X55532044Y-77015295D01*
X62306785Y-87282688D02*
X64042313Y-89351009D01*
X59570080Y-74671307D02*
X60948959Y-73514288D01*
X58509941Y-75430327D02*
X59570080Y-74671307D01*
X63958533Y-69944631D02*
G75*
G03*
X63254117Y-69883001I-383023J-321394D01*
G01*
X55593672Y-76310880D02*
G75*
G03*
X55532044Y-77015295I321392J-383021D01*
G01*
%TO.C,J3*%
X19364000Y-78214800D02*
X16704000Y-78214800D01*
X19364000Y-80814800D02*
X16704000Y-80814800D01*
X19364000Y-82084800D02*
X19364000Y-83414800D01*
X19364000Y-80814800D02*
X19364000Y-78214800D01*
X19364000Y-83414800D02*
X18034000Y-83414800D01*
X16704000Y-80814800D02*
X16704000Y-78214800D01*
%TO.C,J5*%
X76781227Y-75817152D02*
X77458341Y-75379527D01*
X81849446Y-71433871D02*
X82652468Y-70368433D01*
X74542072Y-76260079D02*
X82202517Y-69832201D01*
X74544722Y-77041097D02*
X75286116Y-76680079D01*
X79897359Y-73463488D02*
X80828938Y-72551261D01*
X84629843Y-69753546D02*
X84886958Y-70059964D01*
X77458341Y-75379527D02*
X78518480Y-74620507D01*
X78518480Y-74620507D02*
X79897359Y-73463488D01*
X80828938Y-72551261D02*
X81849446Y-71433871D01*
X75286116Y-76680079D02*
X76781227Y-75817152D01*
X81255185Y-87231888D02*
X82990713Y-89300209D01*
X93577446Y-80416884D02*
X82990713Y-89300209D01*
X82652468Y-70368433D02*
X82971212Y-69970435D01*
X91841922Y-78348563D02*
X93577446Y-80416884D01*
X75123231Y-77730538D02*
X74480444Y-76964495D01*
X74043110Y-78636869D02*
X84629843Y-69753546D01*
X83549720Y-70659875D02*
X82906933Y-69893831D01*
X86506782Y-71990395D02*
X90222096Y-76418131D01*
X74043110Y-78636869D02*
X74300223Y-78943288D01*
X75920049Y-80873720D02*
X79635362Y-85301457D01*
X74542072Y-76260080D02*
G75*
G03*
X74480444Y-76964495I321392J-383021D01*
G01*
X82906933Y-69893831D02*
G75*
G03*
X82202517Y-69832201I-383023J-321394D01*
G01*
%TO.C,J2*%
X19364000Y-88812600D02*
X18034000Y-88812600D01*
X16704000Y-86212600D02*
X16704000Y-83612600D01*
X19364000Y-83612600D02*
X16704000Y-83612600D01*
X19364000Y-86212600D02*
X16704000Y-86212600D01*
X19364000Y-87482600D02*
X19364000Y-88812600D01*
X19364000Y-86212600D02*
X19364000Y-83612600D01*
%TO.C,J1*%
X17750322Y-77142697D02*
X18491716Y-76781679D01*
X29712382Y-72091995D02*
X33427696Y-76519731D01*
X36783046Y-80518484D02*
X26196313Y-89401809D01*
X18491716Y-76781679D02*
X19986827Y-75918752D01*
X19125649Y-80975320D02*
X22840962Y-85403057D01*
X17248710Y-78738469D02*
X27835443Y-69855146D01*
X23102959Y-73565088D02*
X24034538Y-72652861D01*
X21724080Y-74722107D02*
X23102959Y-73565088D01*
X17248710Y-78738469D02*
X17505823Y-79044888D01*
X35047522Y-78450163D02*
X36783046Y-80518484D01*
X25055046Y-71535471D02*
X25858068Y-70470033D01*
X24460785Y-87333488D02*
X26196313Y-89401809D01*
X27835443Y-69855146D02*
X28092558Y-70161564D01*
X18328831Y-77832138D02*
X17686044Y-77066095D01*
X26755320Y-70761475D02*
X26112533Y-69995431D01*
X25858068Y-70470033D02*
X26176812Y-70072035D01*
X20663941Y-75481127D02*
X21724080Y-74722107D01*
X19986827Y-75918752D02*
X20663941Y-75481127D01*
X17747672Y-76361679D02*
X25408117Y-69933801D01*
X24034538Y-72652861D02*
X25055046Y-71535471D01*
X26112533Y-69995431D02*
G75*
G03*
X25408117Y-69933801I-383023J-321394D01*
G01*
X17747672Y-76361680D02*
G75*
G03*
X17686044Y-77066095I321392J-383021D01*
G01*
%TD*%
M02*
