%TF.GenerationSoftware,KiCad,Pcbnew,(7.0.0-0)*%
%TF.CreationDate,2023-04-28T06:51:24+02:00*%
%TF.ProjectId,omniscope,6f6d6e69-7363-46f7-9065-2e6b69636164,rev?*%
%TF.SameCoordinates,Original*%
%TF.FileFunction,Paste,Top*%
%TF.FilePolarity,Positive*%
%FSLAX46Y46*%
G04 Gerber Fmt 4.6, Leading zero omitted, Abs format (unit mm)*
G04 Created by KiCad (PCBNEW (7.0.0-0)) date 2023-04-28 06:51:24*
%MOMM*%
%LPD*%
G01*
G04 APERTURE LIST*
%ADD10R,0.790000X0.400000*%
%ADD11R,1.600000X0.650000*%
G04 APERTURE END LIST*
D10*
%TO.C,J4*%
X89414999Y-25874999D03*
X86874999Y-25874999D03*
X89414999Y-26674999D03*
X86874999Y-26674999D03*
X89414999Y-27474999D03*
X86874999Y-27474999D03*
X89414999Y-28274999D03*
X86874999Y-28274999D03*
X89414999Y-29074999D03*
X86874999Y-29074999D03*
X89414999Y-29874999D03*
X86874999Y-29874999D03*
X89414999Y-30674999D03*
X86874999Y-30674999D03*
X89414999Y-31474999D03*
X86874999Y-31474999D03*
D11*
X88144999Y-24724999D03*
X88144999Y-32624999D03*
%TD*%
D10*
%TO.C,J8*%
X108222499Y-25799999D03*
X105682499Y-25799999D03*
X108222499Y-26599999D03*
X105682499Y-26599999D03*
X108222499Y-27399999D03*
X105682499Y-27399999D03*
X108222499Y-28199999D03*
X105682499Y-28199999D03*
X108222499Y-28999999D03*
X105682499Y-28999999D03*
X108222499Y-29799999D03*
X105682499Y-29799999D03*
X108222499Y-30599999D03*
X105682499Y-30599999D03*
X108222499Y-31399999D03*
X105682499Y-31399999D03*
D11*
X106952499Y-24649999D03*
X106952499Y-32549999D03*
%TD*%
D10*
%TO.C,J5*%
X70539999Y-25874999D03*
X67999999Y-25874999D03*
X70539999Y-26674999D03*
X67999999Y-26674999D03*
X70539999Y-27474999D03*
X67999999Y-27474999D03*
X70539999Y-28274999D03*
X67999999Y-28274999D03*
X70539999Y-29074999D03*
X67999999Y-29074999D03*
X70539999Y-29874999D03*
X67999999Y-29874999D03*
X70539999Y-30674999D03*
X67999999Y-30674999D03*
X70539999Y-31474999D03*
X67999999Y-31474999D03*
D11*
X69269999Y-24724999D03*
X69269999Y-32624999D03*
%TD*%
D10*
%TO.C,J6*%
X51714999Y-25774999D03*
X49174999Y-25774999D03*
X51714999Y-26574999D03*
X49174999Y-26574999D03*
X51714999Y-27374999D03*
X49174999Y-27374999D03*
X51714999Y-28174999D03*
X49174999Y-28174999D03*
X51714999Y-28974999D03*
X49174999Y-28974999D03*
X51714999Y-29774999D03*
X49174999Y-29774999D03*
X51714999Y-30574999D03*
X49174999Y-30574999D03*
X51714999Y-31374999D03*
X49174999Y-31374999D03*
D11*
X50444999Y-24624999D03*
X50444999Y-32524999D03*
%TD*%
D10*
%TO.C,J7*%
X32664999Y-25749999D03*
X30124999Y-25749999D03*
X32664999Y-26549999D03*
X30124999Y-26549999D03*
X32664999Y-27349999D03*
X30124999Y-27349999D03*
X32664999Y-28149999D03*
X30124999Y-28149999D03*
X32664999Y-28949999D03*
X30124999Y-28949999D03*
X32664999Y-29749999D03*
X30124999Y-29749999D03*
X32664999Y-30549999D03*
X30124999Y-30549999D03*
X32664999Y-31349999D03*
X30124999Y-31349999D03*
D11*
X31394999Y-24599999D03*
X31394999Y-32499999D03*
%TD*%
D10*
%TO.C,J1*%
X126977499Y-25824999D03*
X124437499Y-25824999D03*
X126977499Y-26624999D03*
X124437499Y-26624999D03*
X126977499Y-27424999D03*
X124437499Y-27424999D03*
X126977499Y-28224999D03*
X124437499Y-28224999D03*
X126977499Y-29024999D03*
X124437499Y-29024999D03*
X126977499Y-29824999D03*
X124437499Y-29824999D03*
X126977499Y-30624999D03*
X124437499Y-30624999D03*
X126977499Y-31424999D03*
X124437499Y-31424999D03*
D11*
X125707499Y-24674999D03*
X125707499Y-32574999D03*
%TD*%
D10*
%TO.C,J4*%
X67784999Y-50024999D03*
X70324999Y-50024999D03*
X67784999Y-49224999D03*
X70324999Y-49224999D03*
X67784999Y-48424999D03*
X70324999Y-48424999D03*
X67784999Y-47624999D03*
X70324999Y-47624999D03*
X67784999Y-46824999D03*
X70324999Y-46824999D03*
X67784999Y-46024999D03*
X70324999Y-46024999D03*
X67784999Y-45224999D03*
X70324999Y-45224999D03*
X67784999Y-44424999D03*
X70324999Y-44424999D03*
D11*
X69054999Y-51174999D03*
X69054999Y-43274999D03*
%TD*%
D10*
%TO.C,J8*%
X48977499Y-50099999D03*
X51517499Y-50099999D03*
X48977499Y-49299999D03*
X51517499Y-49299999D03*
X48977499Y-48499999D03*
X51517499Y-48499999D03*
X48977499Y-47699999D03*
X51517499Y-47699999D03*
X48977499Y-46899999D03*
X51517499Y-46899999D03*
X48977499Y-46099999D03*
X51517499Y-46099999D03*
X48977499Y-45299999D03*
X51517499Y-45299999D03*
X48977499Y-44499999D03*
X51517499Y-44499999D03*
D11*
X50247499Y-51249999D03*
X50247499Y-43349999D03*
%TD*%
D10*
%TO.C,J5*%
X86659999Y-50024999D03*
X89199999Y-50024999D03*
X86659999Y-49224999D03*
X89199999Y-49224999D03*
X86659999Y-48424999D03*
X89199999Y-48424999D03*
X86659999Y-47624999D03*
X89199999Y-47624999D03*
X86659999Y-46824999D03*
X89199999Y-46824999D03*
X86659999Y-46024999D03*
X89199999Y-46024999D03*
X86659999Y-45224999D03*
X89199999Y-45224999D03*
X86659999Y-44424999D03*
X89199999Y-44424999D03*
D11*
X87929999Y-51174999D03*
X87929999Y-43274999D03*
%TD*%
D10*
%TO.C,J6*%
X105484999Y-50124999D03*
X108024999Y-50124999D03*
X105484999Y-49324999D03*
X108024999Y-49324999D03*
X105484999Y-48524999D03*
X108024999Y-48524999D03*
X105484999Y-47724999D03*
X108024999Y-47724999D03*
X105484999Y-46924999D03*
X108024999Y-46924999D03*
X105484999Y-46124999D03*
X108024999Y-46124999D03*
X105484999Y-45324999D03*
X108024999Y-45324999D03*
X105484999Y-44524999D03*
X108024999Y-44524999D03*
D11*
X106754999Y-51274999D03*
X106754999Y-43374999D03*
%TD*%
D10*
%TO.C,J7*%
X124534999Y-50149999D03*
X127074999Y-50149999D03*
X124534999Y-49349999D03*
X127074999Y-49349999D03*
X124534999Y-48549999D03*
X127074999Y-48549999D03*
X124534999Y-47749999D03*
X127074999Y-47749999D03*
X124534999Y-46949999D03*
X127074999Y-46949999D03*
X124534999Y-46149999D03*
X127074999Y-46149999D03*
X124534999Y-45349999D03*
X127074999Y-45349999D03*
X124534999Y-44549999D03*
X127074999Y-44549999D03*
D11*
X125804999Y-51299999D03*
X125804999Y-43399999D03*
%TD*%
D10*
%TO.C,J1*%
X30222499Y-50074999D03*
X32762499Y-50074999D03*
X30222499Y-49274999D03*
X32762499Y-49274999D03*
X30222499Y-48474999D03*
X32762499Y-48474999D03*
X30222499Y-47674999D03*
X32762499Y-47674999D03*
X30222499Y-46874999D03*
X32762499Y-46874999D03*
X30222499Y-46074999D03*
X32762499Y-46074999D03*
X30222499Y-45274999D03*
X32762499Y-45274999D03*
X30222499Y-44474999D03*
X32762499Y-44474999D03*
D11*
X31492499Y-51224999D03*
X31492499Y-43324999D03*
%TD*%
D10*
%TO.C,J4*%
X89489999Y-63649999D03*
X86949999Y-63649999D03*
X89489999Y-64449999D03*
X86949999Y-64449999D03*
X89489999Y-65249999D03*
X86949999Y-65249999D03*
X89489999Y-66049999D03*
X86949999Y-66049999D03*
X89489999Y-66849999D03*
X86949999Y-66849999D03*
X89489999Y-67649999D03*
X86949999Y-67649999D03*
X89489999Y-68449999D03*
X86949999Y-68449999D03*
X89489999Y-69249999D03*
X86949999Y-69249999D03*
D11*
X88219999Y-62499999D03*
X88219999Y-70399999D03*
%TD*%
D10*
%TO.C,J8*%
X108297499Y-63574999D03*
X105757499Y-63574999D03*
X108297499Y-64374999D03*
X105757499Y-64374999D03*
X108297499Y-65174999D03*
X105757499Y-65174999D03*
X108297499Y-65974999D03*
X105757499Y-65974999D03*
X108297499Y-66774999D03*
X105757499Y-66774999D03*
X108297499Y-67574999D03*
X105757499Y-67574999D03*
X108297499Y-68374999D03*
X105757499Y-68374999D03*
X108297499Y-69174999D03*
X105757499Y-69174999D03*
D11*
X107027499Y-62424999D03*
X107027499Y-70324999D03*
%TD*%
D10*
%TO.C,J5*%
X70614999Y-63649999D03*
X68074999Y-63649999D03*
X70614999Y-64449999D03*
X68074999Y-64449999D03*
X70614999Y-65249999D03*
X68074999Y-65249999D03*
X70614999Y-66049999D03*
X68074999Y-66049999D03*
X70614999Y-66849999D03*
X68074999Y-66849999D03*
X70614999Y-67649999D03*
X68074999Y-67649999D03*
X70614999Y-68449999D03*
X68074999Y-68449999D03*
X70614999Y-69249999D03*
X68074999Y-69249999D03*
D11*
X69344999Y-62499999D03*
X69344999Y-70399999D03*
%TD*%
D10*
%TO.C,J6*%
X51789999Y-63549999D03*
X49249999Y-63549999D03*
X51789999Y-64349999D03*
X49249999Y-64349999D03*
X51789999Y-65149999D03*
X49249999Y-65149999D03*
X51789999Y-65949999D03*
X49249999Y-65949999D03*
X51789999Y-66749999D03*
X49249999Y-66749999D03*
X51789999Y-67549999D03*
X49249999Y-67549999D03*
X51789999Y-68349999D03*
X49249999Y-68349999D03*
X51789999Y-69149999D03*
X49249999Y-69149999D03*
D11*
X50519999Y-62399999D03*
X50519999Y-70299999D03*
%TD*%
D10*
%TO.C,J7*%
X32739999Y-63524999D03*
X30199999Y-63524999D03*
X32739999Y-64324999D03*
X30199999Y-64324999D03*
X32739999Y-65124999D03*
X30199999Y-65124999D03*
X32739999Y-65924999D03*
X30199999Y-65924999D03*
X32739999Y-66724999D03*
X30199999Y-66724999D03*
X32739999Y-67524999D03*
X30199999Y-67524999D03*
X32739999Y-68324999D03*
X30199999Y-68324999D03*
X32739999Y-69124999D03*
X30199999Y-69124999D03*
D11*
X31469999Y-62374999D03*
X31469999Y-70274999D03*
%TD*%
D10*
%TO.C,J1*%
X127052499Y-63599999D03*
X124512499Y-63599999D03*
X127052499Y-64399999D03*
X124512499Y-64399999D03*
X127052499Y-65199999D03*
X124512499Y-65199999D03*
X127052499Y-65999999D03*
X124512499Y-65999999D03*
X127052499Y-66799999D03*
X124512499Y-66799999D03*
X127052499Y-67599999D03*
X124512499Y-67599999D03*
X127052499Y-68399999D03*
X124512499Y-68399999D03*
X127052499Y-69199999D03*
X124512499Y-69199999D03*
D11*
X125782499Y-62449999D03*
X125782499Y-70349999D03*
%TD*%
D10*
%TO.C,J8*%
X49134999Y-87774999D03*
X51674999Y-87774999D03*
X49134999Y-86974999D03*
X51674999Y-86974999D03*
X49134999Y-86174999D03*
X51674999Y-86174999D03*
X49134999Y-85374999D03*
X51674999Y-85374999D03*
X49134999Y-84574999D03*
X51674999Y-84574999D03*
X49134999Y-83774999D03*
X51674999Y-83774999D03*
X49134999Y-82974999D03*
X51674999Y-82974999D03*
X49134999Y-82174999D03*
X51674999Y-82174999D03*
D11*
X50404999Y-88924999D03*
X50404999Y-81024999D03*
%TD*%
D10*
%TO.C,J7*%
X124692499Y-87824999D03*
X127232499Y-87824999D03*
X124692499Y-87024999D03*
X127232499Y-87024999D03*
X124692499Y-86224999D03*
X127232499Y-86224999D03*
X124692499Y-85424999D03*
X127232499Y-85424999D03*
X124692499Y-84624999D03*
X127232499Y-84624999D03*
X124692499Y-83824999D03*
X127232499Y-83824999D03*
X124692499Y-83024999D03*
X127232499Y-83024999D03*
X124692499Y-82224999D03*
X127232499Y-82224999D03*
D11*
X125962499Y-88974999D03*
X125962499Y-81074999D03*
%TD*%
D10*
%TO.C,J6*%
X105642499Y-87799999D03*
X108182499Y-87799999D03*
X105642499Y-86999999D03*
X108182499Y-86999999D03*
X105642499Y-86199999D03*
X108182499Y-86199999D03*
X105642499Y-85399999D03*
X108182499Y-85399999D03*
X105642499Y-84599999D03*
X108182499Y-84599999D03*
X105642499Y-83799999D03*
X108182499Y-83799999D03*
X105642499Y-82999999D03*
X108182499Y-82999999D03*
X105642499Y-82199999D03*
X108182499Y-82199999D03*
D11*
X106912499Y-88949999D03*
X106912499Y-81049999D03*
%TD*%
D10*
%TO.C,J5*%
X86817499Y-87699999D03*
X89357499Y-87699999D03*
X86817499Y-86899999D03*
X89357499Y-86899999D03*
X86817499Y-86099999D03*
X89357499Y-86099999D03*
X86817499Y-85299999D03*
X89357499Y-85299999D03*
X86817499Y-84499999D03*
X89357499Y-84499999D03*
X86817499Y-83699999D03*
X89357499Y-83699999D03*
X86817499Y-82899999D03*
X89357499Y-82899999D03*
X86817499Y-82099999D03*
X89357499Y-82099999D03*
D11*
X88087499Y-88849999D03*
X88087499Y-80949999D03*
%TD*%
D10*
%TO.C,J4*%
X67942499Y-87699999D03*
X70482499Y-87699999D03*
X67942499Y-86899999D03*
X70482499Y-86899999D03*
X67942499Y-86099999D03*
X70482499Y-86099999D03*
X67942499Y-85299999D03*
X70482499Y-85299999D03*
X67942499Y-84499999D03*
X70482499Y-84499999D03*
X67942499Y-83699999D03*
X70482499Y-83699999D03*
X67942499Y-82899999D03*
X70482499Y-82899999D03*
X67942499Y-82099999D03*
X70482499Y-82099999D03*
D11*
X69212499Y-88849999D03*
X69212499Y-80949999D03*
%TD*%
D10*
%TO.C,J1*%
X30379999Y-87749999D03*
X32919999Y-87749999D03*
X30379999Y-86949999D03*
X32919999Y-86949999D03*
X30379999Y-86149999D03*
X32919999Y-86149999D03*
X30379999Y-85349999D03*
X32919999Y-85349999D03*
X30379999Y-84549999D03*
X32919999Y-84549999D03*
X30379999Y-83749999D03*
X32919999Y-83749999D03*
X30379999Y-82949999D03*
X32919999Y-82949999D03*
X30379999Y-82149999D03*
X32919999Y-82149999D03*
D11*
X31649999Y-88899999D03*
X31649999Y-80999999D03*
%TD*%
M02*
