M48
; DRILL file {KiCad (7.0.0-0)} date Friday, 28. April 2023 at 06:51:26
; FORMAT={-:-/ absolute / metric / decimal}
; #@! TF.CreationDate,2023-04-28T06:51:26+02:00
; #@! TF.GenerationSoftware,Kicad,Pcbnew,(7.0.0-0)
; #@! TF.FileFunction,MixedPlating,1,2
FMAT,2
METRIC
; #@! TA.AperFunction,Plated,PTH,ComponentDrill
T1C1.000
%
G90
G05
T1
X16.293Y-39.275
X16.293Y-41.815
X16.293Y-44.355
X16.293Y-46.895
X16.293Y-49.435
X16.293Y-51.975
X16.293Y-54.515
X16.293Y-57.055
X16.45Y-76.95
X16.45Y-79.49
X16.45Y-82.03
X16.45Y-84.57
X16.45Y-87.11
X16.45Y-89.65
X16.45Y-92.19
X16.45Y-94.73
X140.907Y-18.845
X140.907Y-21.385
X140.907Y-23.925
X140.907Y-26.465
X140.907Y-29.005
X140.907Y-31.545
X140.907Y-34.085
X140.907Y-36.625
X140.982Y-56.62
X140.982Y-59.16
X140.982Y-61.7
X140.982Y-64.24
X140.982Y-66.78
X140.982Y-69.32
X140.982Y-71.86
X140.982Y-74.4
T0
M30
