%TF.GenerationSoftware,KiCad,Pcbnew,(7.0.0-0)*%
%TF.CreationDate,2023-03-26T23:37:05+02:00*%
%TF.ProjectId,microsdcard_sub_panelized_wocuts,6d696372-6f73-4646-9361-72645f737562,rev?*%
%TF.SameCoordinates,Original*%
%TF.FileFunction,Legend,Top*%
%TF.FilePolarity,Positive*%
%FSLAX46Y46*%
G04 Gerber Fmt 4.6, Leading zero omitted, Abs format (unit mm)*
G04 Created by KiCad (PCBNEW (7.0.0-0)) date 2023-03-26 23:37:05*
%MOMM*%
%LPD*%
G01*
G04 APERTURE LIST*
%ADD10C,0.050000*%
%ADD11C,0.150000*%
%ADD12C,0.120000*%
G04 APERTURE END LIST*
D10*
X147264200Y-88765400D02*
X137205800Y-98823800D01*
X137205800Y-98823800D02*
X122278200Y-98823800D01*
X122278200Y-108270800D02*
X122278200Y-98827200D01*
X127278201Y-108270800D02*
X122278200Y-108270800D01*
X152191800Y-109770800D02*
X152191800Y-88765399D01*
X130528200Y-109770800D02*
X128778200Y-109770800D01*
X152191800Y-88765399D02*
X147264200Y-88765400D01*
X102786000Y-87322000D02*
X117713600Y-87322000D01*
X107713600Y-76375000D02*
X87800000Y-76375000D01*
X87800000Y-97380400D02*
X92727600Y-97380400D01*
X87800000Y-76375000D02*
X87800000Y-97380400D01*
X117713600Y-77875000D02*
X117713600Y-87318600D01*
X109463600Y-77125000D02*
X109463600Y-76375000D01*
X112713600Y-77875000D02*
X117713600Y-77875000D01*
X109463600Y-76375000D02*
X111213600Y-76375000D01*
X92727600Y-97380400D02*
X102786000Y-87322000D01*
X108463600Y-77125000D02*
X109463600Y-77125000D01*
X107713600Y-76375000D02*
X108463600Y-77125000D01*
X111213600Y-76375000D02*
X112713600Y-77875000D01*
X132278200Y-109770800D02*
X131528199Y-109020800D01*
X130528201Y-109020800D02*
X130528200Y-109770800D01*
X128778200Y-109770800D02*
X127278201Y-108270800D01*
X119115200Y-109785400D02*
X119115200Y-88779999D01*
X89201600Y-108285400D02*
X89201600Y-98841800D01*
X95701600Y-109785400D02*
X94201601Y-108285400D01*
X94201601Y-108285400D02*
X89201600Y-108285400D01*
X98451599Y-109035400D02*
X97451601Y-109035400D01*
X99201600Y-109785400D02*
X98451599Y-109035400D01*
X114187600Y-88780000D02*
X104129200Y-98838400D01*
X99201600Y-109785400D02*
X119115200Y-109785400D01*
X97451600Y-109785400D02*
X95701600Y-109785400D01*
X119115200Y-88779999D02*
X114187600Y-88780000D01*
X104129200Y-98838400D02*
X89201600Y-98838400D01*
X132278200Y-109770800D02*
X152191800Y-109770800D01*
X131528199Y-109020800D02*
X130528201Y-109020800D01*
X97451601Y-109035400D02*
X97451600Y-109785400D01*
X209291800Y-77095800D02*
X209291800Y-76345800D01*
X208291800Y-77095800D02*
X209291800Y-77095800D01*
X209291800Y-76345800D02*
X211041800Y-76345800D01*
X207541800Y-76345800D02*
X187628200Y-76345800D01*
X217541800Y-77845800D02*
X217541800Y-87289400D01*
X202614200Y-87292800D02*
X217541800Y-87292800D01*
X207541800Y-76345800D02*
X208291800Y-77095800D01*
X187628200Y-97351200D02*
X192555800Y-97351200D01*
X187628200Y-76345800D02*
X187628200Y-97351200D01*
X212541800Y-77845800D02*
X217541800Y-77845800D01*
X192555800Y-97351200D02*
X202614200Y-87292800D01*
X211041800Y-76345800D02*
X212541800Y-77845800D01*
X154551600Y-76360400D02*
X154551600Y-97365800D01*
X179465200Y-77860400D02*
X184465200Y-77860400D01*
X176215200Y-76360400D02*
X177965200Y-76360400D01*
X154551600Y-97365800D02*
X159479200Y-97365800D01*
X176215200Y-77110400D02*
X176215200Y-76360400D01*
X169537600Y-87307400D02*
X184465200Y-87307400D01*
X174465200Y-76360400D02*
X154551600Y-76360400D01*
X175215200Y-77110400D02*
X176215200Y-77110400D01*
X177965200Y-76360400D02*
X179465200Y-77860400D01*
X159479200Y-97365800D02*
X169537600Y-87307400D01*
X174465200Y-76360400D02*
X175215200Y-77110400D01*
X184465200Y-77860400D02*
X184465200Y-87304000D01*
X180939200Y-88765400D02*
X170880800Y-98823800D01*
X170880800Y-98823800D02*
X155953200Y-98823800D01*
X160953201Y-108270800D02*
X155953200Y-108270800D01*
X155953200Y-108270800D02*
X155953200Y-98827200D01*
X185866800Y-109770800D02*
X185866800Y-88765399D01*
X185866800Y-88765399D02*
X180939200Y-88765400D01*
X164203201Y-109020800D02*
X164203200Y-109770800D01*
X165953200Y-109770800D02*
X185866800Y-109770800D01*
X165953200Y-109770800D02*
X165203199Y-109020800D01*
X162453200Y-109770800D02*
X160953201Y-108270800D01*
X165203199Y-109020800D02*
X164203201Y-109020800D01*
X164203200Y-109770800D02*
X162453200Y-109770800D01*
X142540200Y-77110400D02*
X142540200Y-76360400D01*
X120876600Y-97365800D02*
X125804200Y-97365800D01*
X150790200Y-77860400D02*
X150790200Y-87304000D01*
X135862600Y-87307400D02*
X150790200Y-87307400D01*
X141540200Y-77110400D02*
X142540200Y-77110400D01*
X144290200Y-76360400D02*
X145790200Y-77860400D01*
X120876600Y-76360400D02*
X120876600Y-97365800D01*
X125804200Y-97365800D02*
X135862600Y-87307400D01*
X140790200Y-76360400D02*
X120876600Y-76360400D01*
X145790200Y-77860400D02*
X150790200Y-77860400D01*
X142540200Y-76360400D02*
X144290200Y-76360400D01*
X140790200Y-76360400D02*
X141540200Y-77110400D01*
X218943400Y-109756200D02*
X218943400Y-88750799D01*
X199029800Y-109756200D02*
X198279799Y-109006200D01*
X218943400Y-88750799D02*
X214015800Y-88750800D01*
X195529800Y-109756200D02*
X194029801Y-108256200D01*
X198279799Y-109006200D02*
X197279801Y-109006200D01*
X189029800Y-108256200D02*
X189029800Y-98812600D01*
X197279800Y-109756200D02*
X195529800Y-109756200D01*
X199029800Y-109756200D02*
X218943400Y-109756200D01*
X214015800Y-88750800D02*
X203957400Y-98809200D01*
X194029801Y-108256200D02*
X189029800Y-108256200D01*
X197279801Y-109006200D02*
X197279800Y-109756200D01*
X203957400Y-98809200D02*
X189029800Y-98809200D01*
X154651600Y-112860400D02*
X154651600Y-133865800D01*
X179565200Y-114360400D02*
X184565200Y-114360400D01*
X176315200Y-112860400D02*
X178065200Y-112860400D01*
X154651600Y-133865800D02*
X159579200Y-133865800D01*
X176315200Y-113610400D02*
X176315200Y-112860400D01*
X169637600Y-123807400D02*
X184565200Y-123807400D01*
X174565200Y-112860400D02*
X154651600Y-112860400D01*
X175315200Y-113610400D02*
X176315200Y-113610400D01*
X178065200Y-112860400D02*
X179565200Y-114360400D01*
X159579200Y-133865800D02*
X169637600Y-123807400D01*
X174565200Y-112860400D02*
X175315200Y-113610400D01*
X184565200Y-114360400D02*
X184565200Y-123804000D01*
X202714200Y-123792800D02*
X217641800Y-123792800D01*
X207641800Y-112845800D02*
X208391800Y-113595800D01*
X187728200Y-133851200D02*
X192655800Y-133851200D01*
X187728200Y-112845800D02*
X187728200Y-133851200D01*
X212641800Y-114345800D02*
X217641800Y-114345800D01*
X192655800Y-133851200D02*
X202714200Y-123792800D01*
X211141800Y-112845800D02*
X212641800Y-114345800D01*
X208391800Y-113595800D02*
X209391800Y-113595800D01*
X209391800Y-112845800D02*
X211141800Y-112845800D01*
X207641800Y-112845800D02*
X187728200Y-112845800D01*
X217641800Y-114345800D02*
X217641800Y-123789400D01*
X209391800Y-113595800D02*
X209391800Y-112845800D01*
X181039200Y-125265400D02*
X170980800Y-135323800D01*
X170980800Y-135323800D02*
X156053200Y-135323800D01*
X161053201Y-144770800D02*
X156053200Y-144770800D01*
X156053200Y-144770800D02*
X156053200Y-135327200D01*
X185966800Y-146270800D02*
X185966800Y-125265399D01*
X185966800Y-125265399D02*
X181039200Y-125265400D01*
X164303201Y-145520800D02*
X164303200Y-146270800D01*
X166053200Y-146270800D02*
X185966800Y-146270800D01*
X166053200Y-146270800D02*
X165303199Y-145520800D01*
X162553200Y-146270800D02*
X161053201Y-144770800D01*
X165303199Y-145520800D02*
X164303201Y-145520800D01*
X164303200Y-146270800D02*
X162553200Y-146270800D01*
X141640200Y-113610400D02*
X142640200Y-113610400D01*
X144390200Y-112860400D02*
X145890200Y-114360400D01*
X120976600Y-112860400D02*
X120976600Y-133865800D01*
X125904200Y-133865800D02*
X135962600Y-123807400D01*
X140890200Y-112860400D02*
X120976600Y-112860400D01*
X145890200Y-114360400D02*
X150890200Y-114360400D01*
X142640200Y-112860400D02*
X144390200Y-112860400D01*
X140890200Y-112860400D02*
X141640200Y-113610400D01*
X142640200Y-113610400D02*
X142640200Y-112860400D01*
X120976600Y-133865800D02*
X125904200Y-133865800D01*
X150890200Y-114360400D02*
X150890200Y-123804000D01*
X135962600Y-123807400D02*
X150890200Y-123807400D01*
X219043400Y-146256200D02*
X219043400Y-125250799D01*
X199129800Y-146256200D02*
X198379799Y-145506200D01*
X219043400Y-125250799D02*
X214115800Y-125250800D01*
X195629800Y-146256200D02*
X194129801Y-144756200D01*
X198379799Y-145506200D02*
X197379801Y-145506200D01*
X189129800Y-144756200D02*
X189129800Y-135312600D01*
X197379800Y-146256200D02*
X195629800Y-146256200D01*
X199129800Y-146256200D02*
X219043400Y-146256200D01*
X214115800Y-125250800D02*
X204057400Y-135309200D01*
X194129801Y-144756200D02*
X189129800Y-144756200D01*
X197379801Y-145506200D02*
X197379800Y-146256200D01*
X204057400Y-135309200D02*
X189129800Y-135309200D01*
X147364200Y-125265400D02*
X137305800Y-135323800D01*
X137305800Y-135323800D02*
X122378200Y-135323800D01*
X122378200Y-144770800D02*
X122378200Y-135327200D01*
X127378201Y-144770800D02*
X122378200Y-144770800D01*
X152291800Y-146270800D02*
X152291800Y-125265399D01*
X130628200Y-146270800D02*
X128878200Y-146270800D01*
X132378200Y-146270800D02*
X131628199Y-145520800D01*
X130628201Y-145520800D02*
X130628200Y-146270800D01*
X128878200Y-146270800D02*
X127378201Y-144770800D01*
X132378200Y-146270800D02*
X152291800Y-146270800D01*
X131628199Y-145520800D02*
X130628201Y-145520800D01*
X152291800Y-125265399D02*
X147364200Y-125265400D01*
X102886000Y-123822000D02*
X117813600Y-123822000D01*
X107813600Y-112875000D02*
X87900000Y-112875000D01*
X87900000Y-133880400D02*
X92827600Y-133880400D01*
X87900000Y-112875000D02*
X87900000Y-133880400D01*
X117813600Y-114375000D02*
X117813600Y-123818600D01*
X109563600Y-113625000D02*
X109563600Y-112875000D01*
X112813600Y-114375000D02*
X117813600Y-114375000D01*
X109563600Y-112875000D02*
X111313600Y-112875000D01*
X92827600Y-133880400D02*
X102886000Y-123822000D01*
X108563600Y-113625000D02*
X109563600Y-113625000D01*
X107813600Y-112875000D02*
X108563600Y-113625000D01*
X111313600Y-112875000D02*
X112813600Y-114375000D01*
X119215200Y-146285400D02*
X119215200Y-125279999D01*
X89301600Y-144785400D02*
X89301600Y-135341800D01*
X95801600Y-146285400D02*
X94301601Y-144785400D01*
X94301601Y-144785400D02*
X89301600Y-144785400D01*
X98551599Y-145535400D02*
X97551601Y-145535400D01*
X99301600Y-146285400D02*
X98551599Y-145535400D01*
X114287600Y-125280000D02*
X104229200Y-135338400D01*
X99301600Y-146285400D02*
X119215200Y-146285400D01*
X97551600Y-146285400D02*
X95801600Y-146285400D01*
X119215200Y-125279999D02*
X114287600Y-125280000D01*
X104229200Y-135338400D02*
X89301600Y-135338400D01*
X97551601Y-145535400D02*
X97551600Y-146285400D01*
D11*
%TO.C,REF\u002A\u002A*%
X156006866Y-76372780D02*
X155673533Y-75896590D01*
X155435438Y-76372780D02*
X155435438Y-75372780D01*
X155435438Y-75372780D02*
X155816390Y-75372780D01*
X155816390Y-75372780D02*
X155911628Y-75420400D01*
X155911628Y-75420400D02*
X155959247Y-75468019D01*
X155959247Y-75468019D02*
X156006866Y-75563257D01*
X156006866Y-75563257D02*
X156006866Y-75706114D01*
X156006866Y-75706114D02*
X155959247Y-75801352D01*
X155959247Y-75801352D02*
X155911628Y-75848971D01*
X155911628Y-75848971D02*
X155816390Y-75896590D01*
X155816390Y-75896590D02*
X155435438Y-75896590D01*
X156435438Y-75848971D02*
X156768771Y-75848971D01*
X156911628Y-76372780D02*
X156435438Y-76372780D01*
X156435438Y-76372780D02*
X156435438Y-75372780D01*
X156435438Y-75372780D02*
X156911628Y-75372780D01*
X157673533Y-75848971D02*
X157340200Y-75848971D01*
X157340200Y-76372780D02*
X157340200Y-75372780D01*
X157340200Y-75372780D02*
X157816390Y-75372780D01*
X158340200Y-75372780D02*
X158340200Y-75610876D01*
X158102105Y-75515638D02*
X158340200Y-75610876D01*
X158340200Y-75610876D02*
X158578295Y-75515638D01*
X158197343Y-75801352D02*
X158340200Y-75610876D01*
X158340200Y-75610876D02*
X158483057Y-75801352D01*
X159102105Y-75372780D02*
X159102105Y-75610876D01*
X158864010Y-75515638D02*
X159102105Y-75610876D01*
X159102105Y-75610876D02*
X159340200Y-75515638D01*
X158959248Y-75801352D02*
X159102105Y-75610876D01*
X159102105Y-75610876D02*
X159244962Y-75801352D01*
X122331866Y-76372780D02*
X121998533Y-75896590D01*
X121760438Y-76372780D02*
X121760438Y-75372780D01*
X121760438Y-75372780D02*
X122141390Y-75372780D01*
X122141390Y-75372780D02*
X122236628Y-75420400D01*
X122236628Y-75420400D02*
X122284247Y-75468019D01*
X122284247Y-75468019D02*
X122331866Y-75563257D01*
X122331866Y-75563257D02*
X122331866Y-75706114D01*
X122331866Y-75706114D02*
X122284247Y-75801352D01*
X122284247Y-75801352D02*
X122236628Y-75848971D01*
X122236628Y-75848971D02*
X122141390Y-75896590D01*
X122141390Y-75896590D02*
X121760438Y-75896590D01*
X122760438Y-75848971D02*
X123093771Y-75848971D01*
X123236628Y-76372780D02*
X122760438Y-76372780D01*
X122760438Y-76372780D02*
X122760438Y-75372780D01*
X122760438Y-75372780D02*
X123236628Y-75372780D01*
X123998533Y-75848971D02*
X123665200Y-75848971D01*
X123665200Y-76372780D02*
X123665200Y-75372780D01*
X123665200Y-75372780D02*
X124141390Y-75372780D01*
X124665200Y-75372780D02*
X124665200Y-75610876D01*
X124427105Y-75515638D02*
X124665200Y-75610876D01*
X124665200Y-75610876D02*
X124903295Y-75515638D01*
X124522343Y-75801352D02*
X124665200Y-75610876D01*
X124665200Y-75610876D02*
X124808057Y-75801352D01*
X125427105Y-75372780D02*
X125427105Y-75610876D01*
X125189010Y-75515638D02*
X125427105Y-75610876D01*
X125427105Y-75610876D02*
X125665200Y-75515638D01*
X125284248Y-75801352D02*
X125427105Y-75610876D01*
X125427105Y-75610876D02*
X125569962Y-75801352D01*
X181744866Y-110493180D02*
X181411533Y-110016990D01*
X181173438Y-110493180D02*
X181173438Y-109493180D01*
X181173438Y-109493180D02*
X181554390Y-109493180D01*
X181554390Y-109493180D02*
X181649628Y-109540800D01*
X181649628Y-109540800D02*
X181697247Y-109588419D01*
X181697247Y-109588419D02*
X181744866Y-109683657D01*
X181744866Y-109683657D02*
X181744866Y-109826514D01*
X181744866Y-109826514D02*
X181697247Y-109921752D01*
X181697247Y-109921752D02*
X181649628Y-109969371D01*
X181649628Y-109969371D02*
X181554390Y-110016990D01*
X181554390Y-110016990D02*
X181173438Y-110016990D01*
X182173438Y-109969371D02*
X182506771Y-109969371D01*
X182649628Y-110493180D02*
X182173438Y-110493180D01*
X182173438Y-110493180D02*
X182173438Y-109493180D01*
X182173438Y-109493180D02*
X182649628Y-109493180D01*
X183411533Y-109969371D02*
X183078200Y-109969371D01*
X183078200Y-110493180D02*
X183078200Y-109493180D01*
X183078200Y-109493180D02*
X183554390Y-109493180D01*
X184078200Y-109493180D02*
X184078200Y-109731276D01*
X183840105Y-109636038D02*
X184078200Y-109731276D01*
X184078200Y-109731276D02*
X184316295Y-109636038D01*
X183935343Y-109921752D02*
X184078200Y-109731276D01*
X184078200Y-109731276D02*
X184221057Y-109921752D01*
X184840105Y-109493180D02*
X184840105Y-109731276D01*
X184602010Y-109636038D02*
X184840105Y-109731276D01*
X184840105Y-109731276D02*
X185078200Y-109636038D01*
X184697248Y-109921752D02*
X184840105Y-109731276D01*
X184840105Y-109731276D02*
X184982962Y-109921752D01*
X148069866Y-110493180D02*
X147736533Y-110016990D01*
X147498438Y-110493180D02*
X147498438Y-109493180D01*
X147498438Y-109493180D02*
X147879390Y-109493180D01*
X147879390Y-109493180D02*
X147974628Y-109540800D01*
X147974628Y-109540800D02*
X148022247Y-109588419D01*
X148022247Y-109588419D02*
X148069866Y-109683657D01*
X148069866Y-109683657D02*
X148069866Y-109826514D01*
X148069866Y-109826514D02*
X148022247Y-109921752D01*
X148022247Y-109921752D02*
X147974628Y-109969371D01*
X147974628Y-109969371D02*
X147879390Y-110016990D01*
X147879390Y-110016990D02*
X147498438Y-110016990D01*
X148498438Y-109969371D02*
X148831771Y-109969371D01*
X148974628Y-110493180D02*
X148498438Y-110493180D01*
X148498438Y-110493180D02*
X148498438Y-109493180D01*
X148498438Y-109493180D02*
X148974628Y-109493180D01*
X149736533Y-109969371D02*
X149403200Y-109969371D01*
X149403200Y-110493180D02*
X149403200Y-109493180D01*
X149403200Y-109493180D02*
X149879390Y-109493180D01*
X150403200Y-109493180D02*
X150403200Y-109731276D01*
X150165105Y-109636038D02*
X150403200Y-109731276D01*
X150403200Y-109731276D02*
X150641295Y-109636038D01*
X150260343Y-109921752D02*
X150403200Y-109731276D01*
X150403200Y-109731276D02*
X150546057Y-109921752D01*
X151165105Y-109493180D02*
X151165105Y-109731276D01*
X150927010Y-109636038D02*
X151165105Y-109731276D01*
X151165105Y-109731276D02*
X151403200Y-109636038D01*
X151022248Y-109921752D02*
X151165105Y-109731276D01*
X151165105Y-109731276D02*
X151307962Y-109921752D01*
X114993266Y-110507780D02*
X114659933Y-110031590D01*
X114421838Y-110507780D02*
X114421838Y-109507780D01*
X114421838Y-109507780D02*
X114802790Y-109507780D01*
X114802790Y-109507780D02*
X114898028Y-109555400D01*
X114898028Y-109555400D02*
X114945647Y-109603019D01*
X114945647Y-109603019D02*
X114993266Y-109698257D01*
X114993266Y-109698257D02*
X114993266Y-109841114D01*
X114993266Y-109841114D02*
X114945647Y-109936352D01*
X114945647Y-109936352D02*
X114898028Y-109983971D01*
X114898028Y-109983971D02*
X114802790Y-110031590D01*
X114802790Y-110031590D02*
X114421838Y-110031590D01*
X115421838Y-109983971D02*
X115755171Y-109983971D01*
X115898028Y-110507780D02*
X115421838Y-110507780D01*
X115421838Y-110507780D02*
X115421838Y-109507780D01*
X115421838Y-109507780D02*
X115898028Y-109507780D01*
X116659933Y-109983971D02*
X116326600Y-109983971D01*
X116326600Y-110507780D02*
X116326600Y-109507780D01*
X116326600Y-109507780D02*
X116802790Y-109507780D01*
X117326600Y-109507780D02*
X117326600Y-109745876D01*
X117088505Y-109650638D02*
X117326600Y-109745876D01*
X117326600Y-109745876D02*
X117564695Y-109650638D01*
X117183743Y-109936352D02*
X117326600Y-109745876D01*
X117326600Y-109745876D02*
X117469457Y-109936352D01*
X118088505Y-109507780D02*
X118088505Y-109745876D01*
X117850410Y-109650638D02*
X118088505Y-109745876D01*
X118088505Y-109745876D02*
X118326600Y-109650638D01*
X117945648Y-109936352D02*
X118088505Y-109745876D01*
X118088505Y-109745876D02*
X118231362Y-109936352D01*
X89255266Y-76387380D02*
X88921933Y-75911190D01*
X88683838Y-76387380D02*
X88683838Y-75387380D01*
X88683838Y-75387380D02*
X89064790Y-75387380D01*
X89064790Y-75387380D02*
X89160028Y-75435000D01*
X89160028Y-75435000D02*
X89207647Y-75482619D01*
X89207647Y-75482619D02*
X89255266Y-75577857D01*
X89255266Y-75577857D02*
X89255266Y-75720714D01*
X89255266Y-75720714D02*
X89207647Y-75815952D01*
X89207647Y-75815952D02*
X89160028Y-75863571D01*
X89160028Y-75863571D02*
X89064790Y-75911190D01*
X89064790Y-75911190D02*
X88683838Y-75911190D01*
X89683838Y-75863571D02*
X90017171Y-75863571D01*
X90160028Y-76387380D02*
X89683838Y-76387380D01*
X89683838Y-76387380D02*
X89683838Y-75387380D01*
X89683838Y-75387380D02*
X90160028Y-75387380D01*
X90921933Y-75863571D02*
X90588600Y-75863571D01*
X90588600Y-76387380D02*
X90588600Y-75387380D01*
X90588600Y-75387380D02*
X91064790Y-75387380D01*
X91588600Y-75387380D02*
X91588600Y-75625476D01*
X91350505Y-75530238D02*
X91588600Y-75625476D01*
X91588600Y-75625476D02*
X91826695Y-75530238D01*
X91445743Y-75815952D02*
X91588600Y-75625476D01*
X91588600Y-75625476D02*
X91731457Y-75815952D01*
X92350505Y-75387380D02*
X92350505Y-75625476D01*
X92112410Y-75530238D02*
X92350505Y-75625476D01*
X92350505Y-75625476D02*
X92588600Y-75530238D01*
X92207648Y-75815952D02*
X92350505Y-75625476D01*
X92350505Y-75625476D02*
X92493362Y-75815952D01*
X189083466Y-76358180D02*
X188750133Y-75881990D01*
X188512038Y-76358180D02*
X188512038Y-75358180D01*
X188512038Y-75358180D02*
X188892990Y-75358180D01*
X188892990Y-75358180D02*
X188988228Y-75405800D01*
X188988228Y-75405800D02*
X189035847Y-75453419D01*
X189035847Y-75453419D02*
X189083466Y-75548657D01*
X189083466Y-75548657D02*
X189083466Y-75691514D01*
X189083466Y-75691514D02*
X189035847Y-75786752D01*
X189035847Y-75786752D02*
X188988228Y-75834371D01*
X188988228Y-75834371D02*
X188892990Y-75881990D01*
X188892990Y-75881990D02*
X188512038Y-75881990D01*
X189512038Y-75834371D02*
X189845371Y-75834371D01*
X189988228Y-76358180D02*
X189512038Y-76358180D01*
X189512038Y-76358180D02*
X189512038Y-75358180D01*
X189512038Y-75358180D02*
X189988228Y-75358180D01*
X190750133Y-75834371D02*
X190416800Y-75834371D01*
X190416800Y-76358180D02*
X190416800Y-75358180D01*
X190416800Y-75358180D02*
X190892990Y-75358180D01*
X191416800Y-75358180D02*
X191416800Y-75596276D01*
X191178705Y-75501038D02*
X191416800Y-75596276D01*
X191416800Y-75596276D02*
X191654895Y-75501038D01*
X191273943Y-75786752D02*
X191416800Y-75596276D01*
X191416800Y-75596276D02*
X191559657Y-75786752D01*
X192178705Y-75358180D02*
X192178705Y-75596276D01*
X191940610Y-75501038D02*
X192178705Y-75596276D01*
X192178705Y-75596276D02*
X192416800Y-75501038D01*
X192035848Y-75786752D02*
X192178705Y-75596276D01*
X192178705Y-75596276D02*
X192321562Y-75786752D01*
X214821466Y-110478580D02*
X214488133Y-110002390D01*
X214250038Y-110478580D02*
X214250038Y-109478580D01*
X214250038Y-109478580D02*
X214630990Y-109478580D01*
X214630990Y-109478580D02*
X214726228Y-109526200D01*
X214726228Y-109526200D02*
X214773847Y-109573819D01*
X214773847Y-109573819D02*
X214821466Y-109669057D01*
X214821466Y-109669057D02*
X214821466Y-109811914D01*
X214821466Y-109811914D02*
X214773847Y-109907152D01*
X214773847Y-109907152D02*
X214726228Y-109954771D01*
X214726228Y-109954771D02*
X214630990Y-110002390D01*
X214630990Y-110002390D02*
X214250038Y-110002390D01*
X215250038Y-109954771D02*
X215583371Y-109954771D01*
X215726228Y-110478580D02*
X215250038Y-110478580D01*
X215250038Y-110478580D02*
X215250038Y-109478580D01*
X215250038Y-109478580D02*
X215726228Y-109478580D01*
X216488133Y-109954771D02*
X216154800Y-109954771D01*
X216154800Y-110478580D02*
X216154800Y-109478580D01*
X216154800Y-109478580D02*
X216630990Y-109478580D01*
X217154800Y-109478580D02*
X217154800Y-109716676D01*
X216916705Y-109621438D02*
X217154800Y-109716676D01*
X217154800Y-109716676D02*
X217392895Y-109621438D01*
X217011943Y-109907152D02*
X217154800Y-109716676D01*
X217154800Y-109716676D02*
X217297657Y-109907152D01*
X217916705Y-109478580D02*
X217916705Y-109716676D01*
X217678610Y-109621438D02*
X217916705Y-109716676D01*
X217916705Y-109716676D02*
X218154800Y-109621438D01*
X217773848Y-109907152D02*
X217916705Y-109716676D01*
X217916705Y-109716676D02*
X218059562Y-109907152D01*
X89355266Y-112887380D02*
X89021933Y-112411190D01*
X88783838Y-112887380D02*
X88783838Y-111887380D01*
X88783838Y-111887380D02*
X89164790Y-111887380D01*
X89164790Y-111887380D02*
X89260028Y-111935000D01*
X89260028Y-111935000D02*
X89307647Y-111982619D01*
X89307647Y-111982619D02*
X89355266Y-112077857D01*
X89355266Y-112077857D02*
X89355266Y-112220714D01*
X89355266Y-112220714D02*
X89307647Y-112315952D01*
X89307647Y-112315952D02*
X89260028Y-112363571D01*
X89260028Y-112363571D02*
X89164790Y-112411190D01*
X89164790Y-112411190D02*
X88783838Y-112411190D01*
X89783838Y-112363571D02*
X90117171Y-112363571D01*
X90260028Y-112887380D02*
X89783838Y-112887380D01*
X89783838Y-112887380D02*
X89783838Y-111887380D01*
X89783838Y-111887380D02*
X90260028Y-111887380D01*
X91021933Y-112363571D02*
X90688600Y-112363571D01*
X90688600Y-112887380D02*
X90688600Y-111887380D01*
X90688600Y-111887380D02*
X91164790Y-111887380D01*
X91688600Y-111887380D02*
X91688600Y-112125476D01*
X91450505Y-112030238D02*
X91688600Y-112125476D01*
X91688600Y-112125476D02*
X91926695Y-112030238D01*
X91545743Y-112315952D02*
X91688600Y-112125476D01*
X91688600Y-112125476D02*
X91831457Y-112315952D01*
X92450505Y-111887380D02*
X92450505Y-112125476D01*
X92212410Y-112030238D02*
X92450505Y-112125476D01*
X92450505Y-112125476D02*
X92688600Y-112030238D01*
X92307648Y-112315952D02*
X92450505Y-112125476D01*
X92450505Y-112125476D02*
X92593362Y-112315952D01*
X214921466Y-146978580D02*
X214588133Y-146502390D01*
X214350038Y-146978580D02*
X214350038Y-145978580D01*
X214350038Y-145978580D02*
X214730990Y-145978580D01*
X214730990Y-145978580D02*
X214826228Y-146026200D01*
X214826228Y-146026200D02*
X214873847Y-146073819D01*
X214873847Y-146073819D02*
X214921466Y-146169057D01*
X214921466Y-146169057D02*
X214921466Y-146311914D01*
X214921466Y-146311914D02*
X214873847Y-146407152D01*
X214873847Y-146407152D02*
X214826228Y-146454771D01*
X214826228Y-146454771D02*
X214730990Y-146502390D01*
X214730990Y-146502390D02*
X214350038Y-146502390D01*
X215350038Y-146454771D02*
X215683371Y-146454771D01*
X215826228Y-146978580D02*
X215350038Y-146978580D01*
X215350038Y-146978580D02*
X215350038Y-145978580D01*
X215350038Y-145978580D02*
X215826228Y-145978580D01*
X216588133Y-146454771D02*
X216254800Y-146454771D01*
X216254800Y-146978580D02*
X216254800Y-145978580D01*
X216254800Y-145978580D02*
X216730990Y-145978580D01*
X217254800Y-145978580D02*
X217254800Y-146216676D01*
X217016705Y-146121438D02*
X217254800Y-146216676D01*
X217254800Y-146216676D02*
X217492895Y-146121438D01*
X217111943Y-146407152D02*
X217254800Y-146216676D01*
X217254800Y-146216676D02*
X217397657Y-146407152D01*
X218016705Y-145978580D02*
X218016705Y-146216676D01*
X217778610Y-146121438D02*
X218016705Y-146216676D01*
X218016705Y-146216676D02*
X218254800Y-146121438D01*
X217873848Y-146407152D02*
X218016705Y-146216676D01*
X218016705Y-146216676D02*
X218159562Y-146407152D01*
X156106866Y-112872780D02*
X155773533Y-112396590D01*
X155535438Y-112872780D02*
X155535438Y-111872780D01*
X155535438Y-111872780D02*
X155916390Y-111872780D01*
X155916390Y-111872780D02*
X156011628Y-111920400D01*
X156011628Y-111920400D02*
X156059247Y-111968019D01*
X156059247Y-111968019D02*
X156106866Y-112063257D01*
X156106866Y-112063257D02*
X156106866Y-112206114D01*
X156106866Y-112206114D02*
X156059247Y-112301352D01*
X156059247Y-112301352D02*
X156011628Y-112348971D01*
X156011628Y-112348971D02*
X155916390Y-112396590D01*
X155916390Y-112396590D02*
X155535438Y-112396590D01*
X156535438Y-112348971D02*
X156868771Y-112348971D01*
X157011628Y-112872780D02*
X156535438Y-112872780D01*
X156535438Y-112872780D02*
X156535438Y-111872780D01*
X156535438Y-111872780D02*
X157011628Y-111872780D01*
X157773533Y-112348971D02*
X157440200Y-112348971D01*
X157440200Y-112872780D02*
X157440200Y-111872780D01*
X157440200Y-111872780D02*
X157916390Y-111872780D01*
X158440200Y-111872780D02*
X158440200Y-112110876D01*
X158202105Y-112015638D02*
X158440200Y-112110876D01*
X158440200Y-112110876D02*
X158678295Y-112015638D01*
X158297343Y-112301352D02*
X158440200Y-112110876D01*
X158440200Y-112110876D02*
X158583057Y-112301352D01*
X159202105Y-111872780D02*
X159202105Y-112110876D01*
X158964010Y-112015638D02*
X159202105Y-112110876D01*
X159202105Y-112110876D02*
X159440200Y-112015638D01*
X159059248Y-112301352D02*
X159202105Y-112110876D01*
X159202105Y-112110876D02*
X159344962Y-112301352D01*
X189183466Y-112858180D02*
X188850133Y-112381990D01*
X188612038Y-112858180D02*
X188612038Y-111858180D01*
X188612038Y-111858180D02*
X188992990Y-111858180D01*
X188992990Y-111858180D02*
X189088228Y-111905800D01*
X189088228Y-111905800D02*
X189135847Y-111953419D01*
X189135847Y-111953419D02*
X189183466Y-112048657D01*
X189183466Y-112048657D02*
X189183466Y-112191514D01*
X189183466Y-112191514D02*
X189135847Y-112286752D01*
X189135847Y-112286752D02*
X189088228Y-112334371D01*
X189088228Y-112334371D02*
X188992990Y-112381990D01*
X188992990Y-112381990D02*
X188612038Y-112381990D01*
X189612038Y-112334371D02*
X189945371Y-112334371D01*
X190088228Y-112858180D02*
X189612038Y-112858180D01*
X189612038Y-112858180D02*
X189612038Y-111858180D01*
X189612038Y-111858180D02*
X190088228Y-111858180D01*
X190850133Y-112334371D02*
X190516800Y-112334371D01*
X190516800Y-112858180D02*
X190516800Y-111858180D01*
X190516800Y-111858180D02*
X190992990Y-111858180D01*
X191516800Y-111858180D02*
X191516800Y-112096276D01*
X191278705Y-112001038D02*
X191516800Y-112096276D01*
X191516800Y-112096276D02*
X191754895Y-112001038D01*
X191373943Y-112286752D02*
X191516800Y-112096276D01*
X191516800Y-112096276D02*
X191659657Y-112286752D01*
X192278705Y-111858180D02*
X192278705Y-112096276D01*
X192040610Y-112001038D02*
X192278705Y-112096276D01*
X192278705Y-112096276D02*
X192516800Y-112001038D01*
X192135848Y-112286752D02*
X192278705Y-112096276D01*
X192278705Y-112096276D02*
X192421562Y-112286752D01*
X181844866Y-146993180D02*
X181511533Y-146516990D01*
X181273438Y-146993180D02*
X181273438Y-145993180D01*
X181273438Y-145993180D02*
X181654390Y-145993180D01*
X181654390Y-145993180D02*
X181749628Y-146040800D01*
X181749628Y-146040800D02*
X181797247Y-146088419D01*
X181797247Y-146088419D02*
X181844866Y-146183657D01*
X181844866Y-146183657D02*
X181844866Y-146326514D01*
X181844866Y-146326514D02*
X181797247Y-146421752D01*
X181797247Y-146421752D02*
X181749628Y-146469371D01*
X181749628Y-146469371D02*
X181654390Y-146516990D01*
X181654390Y-146516990D02*
X181273438Y-146516990D01*
X182273438Y-146469371D02*
X182606771Y-146469371D01*
X182749628Y-146993180D02*
X182273438Y-146993180D01*
X182273438Y-146993180D02*
X182273438Y-145993180D01*
X182273438Y-145993180D02*
X182749628Y-145993180D01*
X183511533Y-146469371D02*
X183178200Y-146469371D01*
X183178200Y-146993180D02*
X183178200Y-145993180D01*
X183178200Y-145993180D02*
X183654390Y-145993180D01*
X184178200Y-145993180D02*
X184178200Y-146231276D01*
X183940105Y-146136038D02*
X184178200Y-146231276D01*
X184178200Y-146231276D02*
X184416295Y-146136038D01*
X184035343Y-146421752D02*
X184178200Y-146231276D01*
X184178200Y-146231276D02*
X184321057Y-146421752D01*
X184940105Y-145993180D02*
X184940105Y-146231276D01*
X184702010Y-146136038D02*
X184940105Y-146231276D01*
X184940105Y-146231276D02*
X185178200Y-146136038D01*
X184797248Y-146421752D02*
X184940105Y-146231276D01*
X184940105Y-146231276D02*
X185082962Y-146421752D01*
X122431866Y-112872780D02*
X122098533Y-112396590D01*
X121860438Y-112872780D02*
X121860438Y-111872780D01*
X121860438Y-111872780D02*
X122241390Y-111872780D01*
X122241390Y-111872780D02*
X122336628Y-111920400D01*
X122336628Y-111920400D02*
X122384247Y-111968019D01*
X122384247Y-111968019D02*
X122431866Y-112063257D01*
X122431866Y-112063257D02*
X122431866Y-112206114D01*
X122431866Y-112206114D02*
X122384247Y-112301352D01*
X122384247Y-112301352D02*
X122336628Y-112348971D01*
X122336628Y-112348971D02*
X122241390Y-112396590D01*
X122241390Y-112396590D02*
X121860438Y-112396590D01*
X122860438Y-112348971D02*
X123193771Y-112348971D01*
X123336628Y-112872780D02*
X122860438Y-112872780D01*
X122860438Y-112872780D02*
X122860438Y-111872780D01*
X122860438Y-111872780D02*
X123336628Y-111872780D01*
X124098533Y-112348971D02*
X123765200Y-112348971D01*
X123765200Y-112872780D02*
X123765200Y-111872780D01*
X123765200Y-111872780D02*
X124241390Y-111872780D01*
X124765200Y-111872780D02*
X124765200Y-112110876D01*
X124527105Y-112015638D02*
X124765200Y-112110876D01*
X124765200Y-112110876D02*
X125003295Y-112015638D01*
X124622343Y-112301352D02*
X124765200Y-112110876D01*
X124765200Y-112110876D02*
X124908057Y-112301352D01*
X125527105Y-111872780D02*
X125527105Y-112110876D01*
X125289010Y-112015638D02*
X125527105Y-112110876D01*
X125527105Y-112110876D02*
X125765200Y-112015638D01*
X125384248Y-112301352D02*
X125527105Y-112110876D01*
X125527105Y-112110876D02*
X125669962Y-112301352D01*
X148169866Y-146993180D02*
X147836533Y-146516990D01*
X147598438Y-146993180D02*
X147598438Y-145993180D01*
X147598438Y-145993180D02*
X147979390Y-145993180D01*
X147979390Y-145993180D02*
X148074628Y-146040800D01*
X148074628Y-146040800D02*
X148122247Y-146088419D01*
X148122247Y-146088419D02*
X148169866Y-146183657D01*
X148169866Y-146183657D02*
X148169866Y-146326514D01*
X148169866Y-146326514D02*
X148122247Y-146421752D01*
X148122247Y-146421752D02*
X148074628Y-146469371D01*
X148074628Y-146469371D02*
X147979390Y-146516990D01*
X147979390Y-146516990D02*
X147598438Y-146516990D01*
X148598438Y-146469371D02*
X148931771Y-146469371D01*
X149074628Y-146993180D02*
X148598438Y-146993180D01*
X148598438Y-146993180D02*
X148598438Y-145993180D01*
X148598438Y-145993180D02*
X149074628Y-145993180D01*
X149836533Y-146469371D02*
X149503200Y-146469371D01*
X149503200Y-146993180D02*
X149503200Y-145993180D01*
X149503200Y-145993180D02*
X149979390Y-145993180D01*
X150503200Y-145993180D02*
X150503200Y-146231276D01*
X150265105Y-146136038D02*
X150503200Y-146231276D01*
X150503200Y-146231276D02*
X150741295Y-146136038D01*
X150360343Y-146421752D02*
X150503200Y-146231276D01*
X150503200Y-146231276D02*
X150646057Y-146421752D01*
X151265105Y-145993180D02*
X151265105Y-146231276D01*
X151027010Y-146136038D02*
X151265105Y-146231276D01*
X151265105Y-146231276D02*
X151503200Y-146136038D01*
X151122248Y-146421752D02*
X151265105Y-146231276D01*
X151265105Y-146231276D02*
X151407962Y-146421752D01*
X115093266Y-147007780D02*
X114759933Y-146531590D01*
X114521838Y-147007780D02*
X114521838Y-146007780D01*
X114521838Y-146007780D02*
X114902790Y-146007780D01*
X114902790Y-146007780D02*
X114998028Y-146055400D01*
X114998028Y-146055400D02*
X115045647Y-146103019D01*
X115045647Y-146103019D02*
X115093266Y-146198257D01*
X115093266Y-146198257D02*
X115093266Y-146341114D01*
X115093266Y-146341114D02*
X115045647Y-146436352D01*
X115045647Y-146436352D02*
X114998028Y-146483971D01*
X114998028Y-146483971D02*
X114902790Y-146531590D01*
X114902790Y-146531590D02*
X114521838Y-146531590D01*
X115521838Y-146483971D02*
X115855171Y-146483971D01*
X115998028Y-147007780D02*
X115521838Y-147007780D01*
X115521838Y-147007780D02*
X115521838Y-146007780D01*
X115521838Y-146007780D02*
X115998028Y-146007780D01*
X116759933Y-146483971D02*
X116426600Y-146483971D01*
X116426600Y-147007780D02*
X116426600Y-146007780D01*
X116426600Y-146007780D02*
X116902790Y-146007780D01*
X117426600Y-146007780D02*
X117426600Y-146245876D01*
X117188505Y-146150638D02*
X117426600Y-146245876D01*
X117426600Y-146245876D02*
X117664695Y-146150638D01*
X117283743Y-146436352D02*
X117426600Y-146245876D01*
X117426600Y-146245876D02*
X117569457Y-146436352D01*
X118188505Y-146007780D02*
X118188505Y-146245876D01*
X117950410Y-146150638D02*
X118188505Y-146245876D01*
X118188505Y-146245876D02*
X118426600Y-146150638D01*
X118045648Y-146436352D02*
X118188505Y-146245876D01*
X118188505Y-146245876D02*
X118331362Y-146436352D01*
D12*
X156010200Y-77005400D02*
X157340200Y-77005400D01*
X156010200Y-78335400D02*
X156010200Y-77005400D01*
X156010200Y-79605400D02*
X156010200Y-97445400D01*
X156010200Y-79605400D02*
X158670200Y-79605400D01*
X156010200Y-97445400D02*
X158670200Y-97445400D01*
X158670200Y-79605400D02*
X158670200Y-97445400D01*
X122335200Y-77005400D02*
X123665200Y-77005400D01*
X122335200Y-78335400D02*
X122335200Y-77005400D01*
X122335200Y-79605400D02*
X122335200Y-97445400D01*
X122335200Y-79605400D02*
X124995200Y-79605400D01*
X122335200Y-97445400D02*
X124995200Y-97445400D01*
X124995200Y-79605400D02*
X124995200Y-97445400D01*
X184408200Y-109125800D02*
X183078200Y-109125800D01*
X184408200Y-107795800D02*
X184408200Y-109125800D01*
X184408200Y-106525800D02*
X184408200Y-88685800D01*
X184408200Y-106525800D02*
X181748200Y-106525800D01*
X184408200Y-88685800D02*
X181748200Y-88685800D01*
X181748200Y-106525800D02*
X181748200Y-88685800D01*
X150733200Y-109125800D02*
X149403200Y-109125800D01*
X150733200Y-107795800D02*
X150733200Y-109125800D01*
X150733200Y-106525800D02*
X150733200Y-88685800D01*
X150733200Y-106525800D02*
X148073200Y-106525800D01*
X150733200Y-88685800D02*
X148073200Y-88685800D01*
X148073200Y-106525800D02*
X148073200Y-88685800D01*
X117656600Y-109140400D02*
X116326600Y-109140400D01*
X117656600Y-107810400D02*
X117656600Y-109140400D01*
X117656600Y-106540400D02*
X117656600Y-88700400D01*
X117656600Y-106540400D02*
X114996600Y-106540400D01*
X117656600Y-88700400D02*
X114996600Y-88700400D01*
X114996600Y-106540400D02*
X114996600Y-88700400D01*
X89258600Y-77020000D02*
X90588600Y-77020000D01*
X89258600Y-78350000D02*
X89258600Y-77020000D01*
X89258600Y-79620000D02*
X89258600Y-97460000D01*
X89258600Y-79620000D02*
X91918600Y-79620000D01*
X89258600Y-97460000D02*
X91918600Y-97460000D01*
X91918600Y-79620000D02*
X91918600Y-97460000D01*
X189086800Y-76990800D02*
X190416800Y-76990800D01*
X189086800Y-78320800D02*
X189086800Y-76990800D01*
X189086800Y-79590800D02*
X189086800Y-97430800D01*
X189086800Y-79590800D02*
X191746800Y-79590800D01*
X189086800Y-97430800D02*
X191746800Y-97430800D01*
X191746800Y-79590800D02*
X191746800Y-97430800D01*
X217484800Y-109111200D02*
X216154800Y-109111200D01*
X217484800Y-107781200D02*
X217484800Y-109111200D01*
X217484800Y-106511200D02*
X217484800Y-88671200D01*
X217484800Y-106511200D02*
X214824800Y-106511200D01*
X217484800Y-88671200D02*
X214824800Y-88671200D01*
X214824800Y-106511200D02*
X214824800Y-88671200D01*
X89358600Y-113520000D02*
X90688600Y-113520000D01*
X89358600Y-114850000D02*
X89358600Y-113520000D01*
X89358600Y-116120000D02*
X89358600Y-133960000D01*
X89358600Y-116120000D02*
X92018600Y-116120000D01*
X89358600Y-133960000D02*
X92018600Y-133960000D01*
X92018600Y-116120000D02*
X92018600Y-133960000D01*
X217584800Y-145611200D02*
X216254800Y-145611200D01*
X217584800Y-144281200D02*
X217584800Y-145611200D01*
X217584800Y-143011200D02*
X217584800Y-125171200D01*
X217584800Y-143011200D02*
X214924800Y-143011200D01*
X217584800Y-125171200D02*
X214924800Y-125171200D01*
X214924800Y-143011200D02*
X214924800Y-125171200D01*
X156110200Y-113505400D02*
X157440200Y-113505400D01*
X156110200Y-114835400D02*
X156110200Y-113505400D01*
X156110200Y-116105400D02*
X156110200Y-133945400D01*
X156110200Y-116105400D02*
X158770200Y-116105400D01*
X156110200Y-133945400D02*
X158770200Y-133945400D01*
X158770200Y-116105400D02*
X158770200Y-133945400D01*
X189186800Y-113490800D02*
X190516800Y-113490800D01*
X189186800Y-114820800D02*
X189186800Y-113490800D01*
X189186800Y-116090800D02*
X189186800Y-133930800D01*
X189186800Y-116090800D02*
X191846800Y-116090800D01*
X189186800Y-133930800D02*
X191846800Y-133930800D01*
X191846800Y-116090800D02*
X191846800Y-133930800D01*
X184508200Y-145625800D02*
X183178200Y-145625800D01*
X184508200Y-144295800D02*
X184508200Y-145625800D01*
X184508200Y-143025800D02*
X184508200Y-125185800D01*
X184508200Y-143025800D02*
X181848200Y-143025800D01*
X184508200Y-125185800D02*
X181848200Y-125185800D01*
X181848200Y-143025800D02*
X181848200Y-125185800D01*
X122435200Y-113505400D02*
X123765200Y-113505400D01*
X122435200Y-114835400D02*
X122435200Y-113505400D01*
X122435200Y-116105400D02*
X122435200Y-133945400D01*
X122435200Y-116105400D02*
X125095200Y-116105400D01*
X122435200Y-133945400D02*
X125095200Y-133945400D01*
X125095200Y-116105400D02*
X125095200Y-133945400D01*
X150833200Y-145625800D02*
X149503200Y-145625800D01*
X150833200Y-144295800D02*
X150833200Y-145625800D01*
X150833200Y-143025800D02*
X150833200Y-125185800D01*
X150833200Y-143025800D02*
X148173200Y-143025800D01*
X150833200Y-125185800D02*
X148173200Y-125185800D01*
X148173200Y-143025800D02*
X148173200Y-125185800D01*
X117756600Y-145640400D02*
X116426600Y-145640400D01*
X117756600Y-144310400D02*
X117756600Y-145640400D01*
X117756600Y-143040400D02*
X117756600Y-125200400D01*
X117756600Y-143040400D02*
X115096600Y-143040400D01*
X117756600Y-125200400D02*
X115096600Y-125200400D01*
X115096600Y-143040400D02*
X115096600Y-125200400D01*
%TD*%
M02*
