%TF.GenerationSoftware,KiCad,Pcbnew,(7.0.0-0)*%
%TF.CreationDate,2023-03-26T17:43:22+02:00*%
%TF.ProjectId,microsdcard_sub,6d696372-6f73-4646-9361-72645f737562,rev?*%
%TF.SameCoordinates,Original*%
%TF.FileFunction,Copper,L1,Top*%
%TF.FilePolarity,Positive*%
%FSLAX46Y46*%
G04 Gerber Fmt 4.6, Leading zero omitted, Abs format (unit mm)*
G04 Created by KiCad (PCBNEW (7.0.0-0)) date 2023-03-26 17:43:22*
%MOMM*%
%LPD*%
G01*
G04 APERTURE LIST*
%TA.AperFunction,NonConductor*%
%ADD10C,0.200000*%
%TD*%
%TA.AperFunction,ComponentPad*%
%ADD11R,1.700000X1.700000*%
%TD*%
%TA.AperFunction,ComponentPad*%
%ADD12O,1.700000X1.700000*%
%TD*%
%TA.AperFunction,Conductor*%
%ADD13C,0.750000*%
%TD*%
%TA.AperFunction,Conductor*%
%ADD14C,0.650000*%
%TD*%
G04 APERTURE END LIST*
D10*
X101276600Y-60528200D02*
X103850000Y-60528200D01*
X103850000Y-60528200D02*
X103850000Y-61073800D01*
X103850000Y-61073800D02*
X101276600Y-61073800D01*
X101276600Y-61073800D02*
X101276600Y-60528200D01*
G36*
X101276600Y-60528200D02*
G01*
X103850000Y-60528200D01*
X103850000Y-61073800D01*
X101276600Y-61073800D01*
X101276600Y-60528200D01*
G37*
X100438000Y-67275800D02*
X103875000Y-67275800D01*
X103875000Y-67275800D02*
X103875000Y-67823400D01*
X103875000Y-67823400D02*
X100438000Y-67823400D01*
X100438000Y-67823400D02*
X100438000Y-67275800D01*
G36*
X100438000Y-67275800D02*
G01*
X103875000Y-67275800D01*
X103875000Y-67823400D01*
X100438000Y-67823400D01*
X100438000Y-67275800D01*
G37*
X100438000Y-68451600D02*
X103875000Y-68451600D01*
X103875000Y-68451600D02*
X103875000Y-68999200D01*
X103875000Y-68999200D02*
X100438000Y-68999200D01*
X100438000Y-68999200D02*
X100438000Y-68451600D01*
G36*
X100438000Y-68451600D02*
G01*
X103875000Y-68451600D01*
X103875000Y-68999200D01*
X100438000Y-68999200D01*
X100438000Y-68451600D01*
G37*
X100184000Y-61625800D02*
X103875000Y-61625800D01*
X103875000Y-61625800D02*
X103875000Y-62173400D01*
X103875000Y-62173400D02*
X100184000Y-62173400D01*
X100184000Y-62173400D02*
X100184000Y-61625800D01*
G36*
X100184000Y-61625800D02*
G01*
X103875000Y-61625800D01*
X103875000Y-62173400D01*
X100184000Y-62173400D01*
X100184000Y-61625800D01*
G37*
X100387200Y-62776200D02*
X103875000Y-62776200D01*
X103875000Y-62776200D02*
X103875000Y-63349200D01*
X103875000Y-63349200D02*
X100387200Y-63349200D01*
X100387200Y-63349200D02*
X100387200Y-62776200D01*
G36*
X100387200Y-62776200D02*
G01*
X103875000Y-62776200D01*
X103875000Y-63349200D01*
X100387200Y-63349200D01*
X100387200Y-62776200D01*
G37*
X100413000Y-66151200D02*
X104200000Y-66151200D01*
X104200000Y-66151200D02*
X104200000Y-66698800D01*
X104200000Y-66698800D02*
X100413000Y-66698800D01*
X100413000Y-66698800D02*
X100413000Y-66151200D01*
G36*
X100413000Y-66151200D02*
G01*
X104200000Y-66151200D01*
X104200000Y-66698800D01*
X100413000Y-66698800D01*
X100413000Y-66151200D01*
G37*
X100387200Y-63901200D02*
X104225000Y-63901200D01*
X104225000Y-63901200D02*
X104225000Y-64474200D01*
X104225000Y-64474200D02*
X100387200Y-64474200D01*
X100387200Y-64474200D02*
X100387200Y-63901200D01*
G36*
X100387200Y-63901200D02*
G01*
X104225000Y-63901200D01*
X104225000Y-64474200D01*
X100387200Y-64474200D01*
X100387200Y-63901200D01*
G37*
X100387200Y-65026200D02*
X103875000Y-65026200D01*
X103875000Y-65026200D02*
X103875000Y-65573800D01*
X103875000Y-65573800D02*
X100387200Y-65573800D01*
X100387200Y-65573800D02*
X100387200Y-65026200D01*
G36*
X100387200Y-65026200D02*
G01*
X103875000Y-65026200D01*
X103875000Y-65573800D01*
X100387200Y-65573800D01*
X100387200Y-65026200D01*
G37*
D11*
%TO.P,REF\u002A\u002A,1*%
%TO.N,N/C*%
X78291599Y-60350399D03*
D12*
%TO.P,REF\u002A\u002A,2*%
X78291599Y-62890399D03*
%TO.P,REF\u002A\u002A,3*%
X78291599Y-65430399D03*
%TO.P,REF\u002A\u002A,4*%
X78291599Y-67970399D03*
%TO.P,REF\u002A\u002A,5*%
X78291599Y-70510399D03*
%TO.P,REF\u002A\u002A,6*%
X78291599Y-73050399D03*
%TO.P,REF\u002A\u002A,7*%
X78291599Y-75590399D03*
%TO.P,REF\u002A\u002A,8*%
X78291599Y-78130399D03*
%TD*%
D13*
%TO.N,*%
X78291600Y-65430400D02*
X81788000Y-65430400D01*
X81330800Y-73050400D02*
X87934800Y-66446400D01*
X85699600Y-64160400D02*
X100431600Y-64160400D01*
X77986800Y-75590400D02*
X80822800Y-75590400D01*
X89611200Y-68732400D02*
X100482400Y-68732400D01*
X80721200Y-77622400D02*
X89611200Y-68732400D01*
D14*
X78291600Y-60350400D02*
X78621600Y-60680400D01*
D13*
X78291600Y-67970400D02*
X81889600Y-67970400D01*
X86969600Y-65328800D02*
X100431600Y-65328800D01*
X81838800Y-62890400D02*
X82804000Y-61925200D01*
X84124800Y-63093600D02*
X100482400Y-63093600D01*
X87934800Y-66446400D02*
X100431600Y-66446400D01*
X78291600Y-73050400D02*
X81330800Y-73050400D01*
X81788000Y-65430400D02*
X84124800Y-63093600D01*
X78291600Y-62890400D02*
X81838800Y-62890400D01*
X81788000Y-70510400D02*
X86969600Y-65328800D01*
X78291600Y-70510400D02*
X81788000Y-70510400D01*
X80213200Y-78130400D02*
X80721200Y-77622400D01*
X88849200Y-67564000D02*
X100177600Y-67564000D01*
X81889600Y-67970400D02*
X85699600Y-64160400D01*
D14*
X78291600Y-60350400D02*
X82245200Y-60350400D01*
D13*
X80772000Y-75590400D02*
X88798400Y-67564000D01*
X78291600Y-78130400D02*
X80213200Y-78130400D01*
D14*
X82600800Y-60706000D02*
X100482400Y-60706000D01*
D13*
X82804000Y-61925200D02*
X100525000Y-61925200D01*
D14*
X82245200Y-60350400D02*
X82600800Y-60706000D01*
X100482400Y-60706000D02*
X100651600Y-60706000D01*
%TD*%
M02*
