M48
; DRILL file {KiCad (7.0.0-0)} date Sunday, 26. March 2023 um 23:40:38
; FORMAT={-:-/ absolute / metric / decimal}
; #@! TF.CreationDate,2023-03-26T23:40:38+02:00
; #@! TF.GenerationSoftware,Kicad,Pcbnew,(7.0.0-0)
; #@! TF.FileFunction,MixedPlating,1,2
FMAT,2
METRIC
; #@! TA.AperFunction,Plated,PTH,ComponentDrill
T1C1.000
%
G90
G05
T1
X90.589Y-78.35
X90.589Y-80.89
X90.589Y-83.43
X90.589Y-85.97
X90.589Y-88.51
X90.589Y-91.05
X90.589Y-93.59
X90.589Y-96.13
X90.689Y-114.85
X90.689Y-117.39
X90.689Y-119.93
X90.689Y-122.47
X90.689Y-125.01
X90.689Y-127.55
X90.689Y-130.09
X90.689Y-132.63
X116.327Y-90.03
X116.327Y-92.57
X116.327Y-95.11
X116.327Y-97.65
X116.327Y-100.19
X116.327Y-102.73
X116.327Y-105.27
X116.327Y-107.81
X116.427Y-126.53
X116.427Y-129.07
X116.427Y-131.61
X116.427Y-134.15
X116.427Y-136.69
X116.427Y-139.23
X116.427Y-141.77
X116.427Y-144.31
X123.665Y-78.335
X123.665Y-80.875
X123.665Y-83.415
X123.665Y-85.955
X123.665Y-88.495
X123.665Y-91.035
X123.665Y-93.575
X123.665Y-96.115
X123.765Y-114.835
X123.765Y-117.375
X123.765Y-119.915
X123.765Y-122.455
X123.765Y-124.995
X123.765Y-127.535
X123.765Y-130.075
X123.765Y-132.615
X149.403Y-90.016
X149.403Y-92.556
X149.403Y-95.096
X149.403Y-97.636
X149.403Y-100.176
X149.403Y-102.716
X149.403Y-105.256
X149.403Y-107.796
X149.503Y-126.516
X149.503Y-129.056
X149.503Y-131.596
X149.503Y-134.136
X149.503Y-136.676
X149.503Y-139.216
X149.503Y-141.756
X149.503Y-144.296
X157.34Y-78.335
X157.34Y-80.875
X157.34Y-83.415
X157.34Y-85.955
X157.34Y-88.495
X157.34Y-91.035
X157.34Y-93.575
X157.34Y-96.115
X157.44Y-114.835
X157.44Y-117.375
X157.44Y-119.915
X157.44Y-122.455
X157.44Y-124.995
X157.44Y-127.535
X157.44Y-130.075
X157.44Y-132.615
X183.078Y-90.016
X183.078Y-92.556
X183.078Y-95.096
X183.078Y-97.636
X183.078Y-100.176
X183.078Y-102.716
X183.078Y-105.256
X183.078Y-107.796
X183.178Y-126.516
X183.178Y-129.056
X183.178Y-131.596
X183.178Y-134.136
X183.178Y-136.676
X183.178Y-139.216
X183.178Y-141.756
X183.178Y-144.296
X190.417Y-78.321
X190.417Y-80.861
X190.417Y-83.401
X190.417Y-85.941
X190.417Y-88.481
X190.417Y-91.021
X190.417Y-93.561
X190.417Y-96.101
X190.517Y-114.821
X190.517Y-117.361
X190.517Y-119.901
X190.517Y-122.441
X190.517Y-124.981
X190.517Y-127.521
X190.517Y-130.061
X190.517Y-132.601
X216.155Y-90.001
X216.155Y-92.541
X216.155Y-95.081
X216.155Y-97.621
X216.155Y-100.161
X216.155Y-102.701
X216.155Y-105.241
X216.155Y-107.781
X216.255Y-126.501
X216.255Y-129.041
X216.255Y-131.581
X216.255Y-134.121
X216.255Y-136.661
X216.255Y-139.201
X216.255Y-141.741
X216.255Y-144.281
T0
M30
