<?xml version="1.0" standalone="no"?>
 <!DOCTYPE svg PUBLIC "-//W3C//DTD SVG 1.1//EN" 
 "http://www.w3.org/Graphics/SVG/1.1/DTD/svg11.dtd"> 
<svg
  xmlns:svg="http://www.w3.org/2000/svg"
  xmlns="http://www.w3.org/2000/svg"
  xmlns:xlink="http://www.w3.org/1999/xlink"
  version="1.1"
  width="56.9722mm" height="24.6888mm" viewBox="0.0000 0.0000 56.9722 24.6888">
<title>SVG Image created as microsdcard_sub-Edge_Cuts.svg date 2023/03/06 15:01:36 </title>
  <desc>Image generated by PCBNEW </desc>
<g style="fill:#000000; fill-opacity:1.0000;stroke:#000000; stroke-opacity:1.0000;
stroke-linecap:round; stroke-linejoin:round;"
 transform="translate(0 0) scale(1 1)">
</g>
<g style="fill:#000000; fill-opacity:0.0; 
stroke:#000000; stroke-width:0.0000; stroke-opacity:1; 
stroke-linecap:round; stroke-linejoin:round;">
</g>
<g style="fill:#D0D2CD; fill-opacity:0.0; 
stroke:#D0D2CD; stroke-width:0.0000; stroke-opacity:1; 
stroke-linecap:round; stroke-linejoin:round;">
</g>
<g style="fill:#D0D2CD; fill-opacity:0.0; 
stroke:#D0D2CD; stroke-width:0.0500; stroke-opacity:1; 
stroke-linecap:round; stroke-linejoin:round;">
<path d="M47.6937 2.2875
L48.6937 2.2875
" />
<path d="M37.4437 1.5375
L46.9437 1.5375
" />
<path d="M24.0687 22.6125
L33.9437 12.5375
" />
<path d="M46.9437 1.5375
L47.6937 2.2875
" />
<path d="M48.6937 2.2875
L48.6937 1.5375
" />
<path d="M15.4437 1.5375
L15.4937 22.6125
" />
<path d="M48.6937 1.5375
L50.4437 1.5375
" />
<path d="M33.9437 12.5375
L37.4437 12.5375
" />
<path d="M56.9437 12.5375
L37.4437 12.5375
" />
<path d="M37.4437 1.5375
L15.4437 1.5375
" />
<path d="M50.4437 1.5375
L51.9437 3.0375
" />
<path d="M56.9437 3.0375
L56.9437 12.5375
" />
<path d="M15.4937 22.6125
L24.0687 22.6125
" />
<path d="M51.9437 3.0375
L56.9437 3.0375
" />
<g >
</g>
<g >
</g>
<g >
</g>
<g >
</g>
</g> 
</svg>
