%TF.GenerationSoftware,KiCad,Pcbnew,7.0.1*%
%TF.CreationDate,2023-03-21T17:03:06+01:00*%
%TF.ProjectId,microsdcard_sub_panelized,6d696372-6f73-4646-9361-72645f737562,rev?*%
%TF.SameCoordinates,Original*%
%TF.FileFunction,Copper,L2,Bot*%
%TF.FilePolarity,Positive*%
%FSLAX46Y46*%
G04 Gerber Fmt 4.6, Leading zero omitted, Abs format (unit mm)*
G04 Created by KiCad (PCBNEW 7.0.1) date 2023-03-21 17:03:06*
%MOMM*%
%LPD*%
G01*
G04 APERTURE LIST*
%TA.AperFunction,ComponentPad*%
%ADD10R,1.700000X1.700000*%
%TD*%
%TA.AperFunction,ComponentPad*%
%ADD11O,1.700000X1.700000*%
%TD*%
G04 APERTURE END LIST*
D10*
%TO.P,REF\u002A\u002A,1*%
%TO.N,N/C*%
X78393200Y-94894400D03*
D11*
%TO.P,REF\u002A\u002A,2*%
X78393200Y-97434400D03*
%TO.P,REF\u002A\u002A,3*%
X78393200Y-99974400D03*
%TO.P,REF\u002A\u002A,4*%
X78393200Y-102514400D03*
%TO.P,REF\u002A\u002A,5*%
X78393200Y-105054400D03*
%TO.P,REF\u002A\u002A,6*%
X78393200Y-107594400D03*
%TO.P,REF\u002A\u002A,7*%
X78393200Y-110134400D03*
%TO.P,REF\u002A\u002A,8*%
X78393200Y-112674400D03*
%TD*%
D10*
%TO.P,REF\u002A\u002A,1*%
%TO.N,N/C*%
X95132000Y-124617600D03*
D11*
%TO.P,REF\u002A\u002A,2*%
X95132000Y-122077600D03*
%TO.P,REF\u002A\u002A,3*%
X95132000Y-119537600D03*
%TO.P,REF\u002A\u002A,4*%
X95132000Y-116997600D03*
%TO.P,REF\u002A\u002A,5*%
X95132000Y-114457600D03*
%TO.P,REF\u002A\u002A,6*%
X95132000Y-111917600D03*
%TO.P,REF\u002A\u002A,7*%
X95132000Y-109377600D03*
%TO.P,REF\u002A\u002A,8*%
X95132000Y-106837600D03*
%TD*%
D10*
%TO.P,REF\u002A\u002A,1*%
%TO.N,N/C*%
X133486000Y-124588400D03*
D11*
%TO.P,REF\u002A\u002A,2*%
X133486000Y-122048400D03*
%TO.P,REF\u002A\u002A,3*%
X133486000Y-119508400D03*
%TO.P,REF\u002A\u002A,4*%
X133486000Y-116968400D03*
%TO.P,REF\u002A\u002A,5*%
X133486000Y-114428400D03*
%TO.P,REF\u002A\u002A,6*%
X133486000Y-111888400D03*
%TO.P,REF\u002A\u002A,7*%
X133486000Y-109348400D03*
%TO.P,REF\u002A\u002A,8*%
X133486000Y-106808400D03*
%TD*%
D10*
%TO.P,REF\u002A\u002A,1*%
%TO.N,N/C*%
X116747200Y-94865200D03*
D11*
%TO.P,REF\u002A\u002A,2*%
X116747200Y-97405200D03*
%TO.P,REF\u002A\u002A,3*%
X116747200Y-99945200D03*
%TO.P,REF\u002A\u002A,4*%
X116747200Y-102485200D03*
%TO.P,REF\u002A\u002A,5*%
X116747200Y-105025200D03*
%TO.P,REF\u002A\u002A,6*%
X116747200Y-107565200D03*
%TO.P,REF\u002A\u002A,7*%
X116747200Y-110105200D03*
%TO.P,REF\u002A\u002A,8*%
X116747200Y-112645200D03*
%TD*%
D10*
%TO.P,REF\u002A\u002A,1*%
%TO.N,N/C*%
X116645600Y-60321200D03*
D11*
%TO.P,REF\u002A\u002A,2*%
X116645600Y-62861200D03*
%TO.P,REF\u002A\u002A,3*%
X116645600Y-65401200D03*
%TO.P,REF\u002A\u002A,4*%
X116645600Y-67941200D03*
%TO.P,REF\u002A\u002A,5*%
X116645600Y-70481200D03*
%TO.P,REF\u002A\u002A,6*%
X116645600Y-73021200D03*
%TO.P,REF\u002A\u002A,7*%
X116645600Y-75561200D03*
%TO.P,REF\u002A\u002A,8*%
X116645600Y-78101200D03*
%TD*%
D10*
%TO.P,REF\u002A\u002A,1*%
%TO.N,N/C*%
X133384400Y-90044400D03*
D11*
%TO.P,REF\u002A\u002A,2*%
X133384400Y-87504400D03*
%TO.P,REF\u002A\u002A,3*%
X133384400Y-84964400D03*
%TO.P,REF\u002A\u002A,4*%
X133384400Y-82424400D03*
%TO.P,REF\u002A\u002A,5*%
X133384400Y-79884400D03*
%TO.P,REF\u002A\u002A,6*%
X133384400Y-77344400D03*
%TO.P,REF\u002A\u002A,7*%
X133384400Y-74804400D03*
%TO.P,REF\u002A\u002A,8*%
X133384400Y-72264400D03*
%TD*%
D10*
%TO.P,REF\u002A\u002A,1*%
%TO.N,N/C*%
X95030400Y-90073600D03*
D11*
%TO.P,REF\u002A\u002A,2*%
X95030400Y-87533600D03*
%TO.P,REF\u002A\u002A,3*%
X95030400Y-84993600D03*
%TO.P,REF\u002A\u002A,4*%
X95030400Y-82453600D03*
%TO.P,REF\u002A\u002A,5*%
X95030400Y-79913600D03*
%TO.P,REF\u002A\u002A,6*%
X95030400Y-77373600D03*
%TO.P,REF\u002A\u002A,7*%
X95030400Y-74833600D03*
%TO.P,REF\u002A\u002A,8*%
X95030400Y-72293600D03*
%TD*%
D10*
%TO.P,REF\u002A\u002A,1*%
%TO.N,N/C*%
X78291600Y-60350400D03*
D11*
%TO.P,REF\u002A\u002A,2*%
X78291600Y-62890400D03*
%TO.P,REF\u002A\u002A,3*%
X78291600Y-65430400D03*
%TO.P,REF\u002A\u002A,4*%
X78291600Y-67970400D03*
%TO.P,REF\u002A\u002A,5*%
X78291600Y-70510400D03*
%TO.P,REF\u002A\u002A,6*%
X78291600Y-73050400D03*
%TO.P,REF\u002A\u002A,7*%
X78291600Y-75590400D03*
%TO.P,REF\u002A\u002A,8*%
X78291600Y-78130400D03*
%TD*%
M02*
