<?xml version="1.0" standalone="no"?>
 <!DOCTYPE svg PUBLIC "-//W3C//DTD SVG 1.1//EN" 
 "http://www.w3.org/Graphics/SVG/1.1/DTD/svg11.dtd"> 
<svg
  xmlns:svg="http://www.w3.org/2000/svg"
  xmlns="http://www.w3.org/2000/svg"
  xmlns:xlink="http://www.w3.org/1999/xlink"
  version="1.1"
  width="131.2926mm" height="69.9770mm" viewBox="0.0000 0.0000 131.2926 69.9770">
<title>SVG Image created as microsdcard_sub_panelized_wocuts-F_Mask.svg date 2023/04/19 08:36:49 </title>
  <desc>Image generated by PCBNEW </desc>
<g style="fill:#000000; fill-opacity:1.0000;stroke:#000000; stroke-opacity:1.0000;
stroke-linecap:round; stroke-linejoin:round;"
 transform="translate(0 0) scale(1 1)">
</g>
<g style="fill:#000000; fill-opacity:0.0; 
stroke:#000000; stroke-width:0.0000; stroke-opacity:1; 
stroke-linecap:round; stroke-linejoin:round;">
<g >
</g>
<g style="fill:#D864FF; fill-opacity:0.0; 
stroke:#D864FF; stroke-width:0.0000; stroke-opacity:1; 
stroke-linecap:round; stroke-linejoin:round;">
</g>
<g style="fill:#D864FF; fill-opacity:0.0; 
stroke:#D864FF; stroke-width:0.0000; stroke-opacity:1; 
stroke-linecap:round; stroke-linejoin:round;">
</g>
<g style="fill:#D864FF; fill-opacity:0.4000; 
stroke:#D864FF; stroke-width:0.0000; stroke-opacity:1; 
stroke-linecap:round; stroke-linejoin:round;">
<path style="fill:#D864FF; fill-opacity:0.4000; 
stroke:#D864FF; stroke-width:0.0000; stroke-opacity:1; 
stroke-linecap:round; stroke-linejoin:round;fill-rule:evenodd;"
d="M 96.1532,30.6250
96.1532,32.3250
94.4532,32.3250
94.4532,30.6250
Z" /> 
<circle cx="95.3032" cy="28.9350" r="0.8500" /> 
<circle cx="95.3032" cy="26.3950" r="0.8500" /> 
<circle cx="95.3032" cy="23.8550" r="0.8500" /> 
<circle cx="95.3032" cy="21.3150" r="0.8500" /> 
<circle cx="95.3032" cy="18.7750" r="0.8500" /> 
<circle cx="95.3032" cy="16.2350" r="0.8500" /> 
<circle cx="95.3032" cy="13.6950" r="0.8500" /> 
</g>
<g >
</g>
<g style="fill:#D864FF; fill-opacity:0.4000; 
stroke:#D864FF; stroke-width:0.0000; stroke-opacity:1; 
stroke-linecap:round; stroke-linejoin:round;">
<path style="fill:#D864FF; fill-opacity:0.4000; 
stroke:#D864FF; stroke-width:0.0000; stroke-opacity:1; 
stroke-linecap:round; stroke-linejoin:round;fill-rule:evenodd;"
d="M 35.0402,2.8646
35.0402,1.1646
36.7402,1.1646
36.7402,2.8646
Z" /> 
<circle cx="35.8902" cy="4.5546" r="0.8500" /> 
<circle cx="35.8902" cy="7.0946" r="0.8500" /> 
<circle cx="35.8902" cy="9.6346" r="0.8500" /> 
<circle cx="35.8902" cy="12.1746" r="0.8500" /> 
<circle cx="35.8902" cy="14.7146" r="0.8500" /> 
<circle cx="35.8902" cy="17.2546" r="0.8500" /> 
<circle cx="35.8902" cy="19.7946" r="0.8500" /> 
</g>
<g >
</g>
<g style="fill:#D864FF; fill-opacity:0.4000; 
stroke:#D864FF; stroke-width:0.0000; stroke-opacity:1; 
stroke-linecap:round; stroke-linejoin:round;">
<path style="fill:#D864FF; fill-opacity:0.4000; 
stroke:#D864FF; stroke-width:0.0000; stroke-opacity:1; 
stroke-linecap:round; stroke-linejoin:round;fill-rule:evenodd;"
d="M 68.8152,39.3646
68.8152,37.6646
70.5152,37.6646
70.5152,39.3646
Z" /> 
<circle cx="69.6652" cy="41.0546" r="0.8500" /> 
<circle cx="69.6652" cy="43.5946" r="0.8500" /> 
<circle cx="69.6652" cy="46.1346" r="0.8500" /> 
<circle cx="69.6652" cy="48.6746" r="0.8500" /> 
<circle cx="69.6652" cy="51.2146" r="0.8500" /> 
<circle cx="69.6652" cy="53.7546" r="0.8500" /> 
<circle cx="69.6652" cy="56.2946" r="0.8500" /> 
</g>
<g >
</g>
<g style="fill:#D864FF; fill-opacity:0.4000; 
stroke:#D864FF; stroke-width:0.0000; stroke-opacity:1; 
stroke-linecap:round; stroke-linejoin:round;">
<path style="fill:#D864FF; fill-opacity:0.4000; 
stroke:#D864FF; stroke-width:0.0000; stroke-opacity:1; 
stroke-linecap:round; stroke-linejoin:round;fill-rule:evenodd;"
d="M 101.7918,2.8500
101.7918,1.1500
103.4918,1.1500
103.4918,2.8500
Z" /> 
<circle cx="102.6418" cy="4.5400" r="0.8500" /> 
<circle cx="102.6418" cy="7.0800" r="0.8500" /> 
<circle cx="102.6418" cy="9.6200" r="0.8500" /> 
<circle cx="102.6418" cy="12.1600" r="0.8500" /> 
<circle cx="102.6418" cy="14.7000" r="0.8500" /> 
<circle cx="102.6418" cy="17.2400" r="0.8500" /> 
<circle cx="102.6418" cy="19.7800" r="0.8500" /> 
</g>
<g >
</g>
<g style="fill:#D864FF; fill-opacity:0.4000; 
stroke:#D864FF; stroke-width:0.0000; stroke-opacity:1; 
stroke-linecap:round; stroke-linejoin:round;">
<path style="fill:#D864FF; fill-opacity:0.4000; 
stroke:#D864FF; stroke-width:0.0000; stroke-opacity:1; 
stroke-linecap:round; stroke-linejoin:round;fill-rule:evenodd;"
d="M 29.5016,67.1396
29.5016,68.8396
27.8016,68.8396
27.8016,67.1396
Z" /> 
<circle cx="28.6516" cy="65.4496" r="0.8500" /> 
<circle cx="28.6516" cy="62.9096" r="0.8500" /> 
<circle cx="28.6516" cy="60.3696" r="0.8500" /> 
<circle cx="28.6516" cy="57.8296" r="0.8500" /> 
<circle cx="28.6516" cy="55.2896" r="0.8500" /> 
<circle cx="28.6516" cy="52.7496" r="0.8500" /> 
<circle cx="28.6516" cy="50.2096" r="0.8500" /> 
</g>
<g >
</g>
<g style="fill:#D864FF; fill-opacity:0.4000; 
stroke:#D864FF; stroke-width:0.0000; stroke-opacity:1; 
stroke-linecap:round; stroke-linejoin:round;">
<path style="fill:#D864FF; fill-opacity:0.4000; 
stroke:#D864FF; stroke-width:0.0000; stroke-opacity:1; 
stroke-linecap:round; stroke-linejoin:round;fill-rule:evenodd;"
d="M 129.3298,67.1104
129.3298,68.8104
127.6298,68.8104
127.6298,67.1104
Z" /> 
<circle cx="128.4798" cy="65.4204" r="0.8500" /> 
<circle cx="128.4798" cy="62.8804" r="0.8500" /> 
<circle cx="128.4798" cy="60.3404" r="0.8500" /> 
<circle cx="128.4798" cy="57.8004" r="0.8500" /> 
<circle cx="128.4798" cy="55.2604" r="0.8500" /> 
<circle cx="128.4798" cy="52.7204" r="0.8500" /> 
<circle cx="128.4798" cy="50.1804" r="0.8500" /> 
</g>
<g >
</g>
<g style="fill:#D864FF; fill-opacity:0.4000; 
stroke:#D864FF; stroke-width:0.0000; stroke-opacity:1; 
stroke-linecap:round; stroke-linejoin:round;">
<path style="fill:#D864FF; fill-opacity:0.4000; 
stroke:#D864FF; stroke-width:0.0000; stroke-opacity:1; 
stroke-linecap:round; stroke-linejoin:round;fill-rule:evenodd;"
d="M 2.0636,39.3792
2.0636,37.6792
3.7636,37.6792
3.7636,39.3792
Z" /> 
<circle cx="2.9136" cy="41.0692" r="0.8500" /> 
<circle cx="2.9136" cy="43.6092" r="0.8500" /> 
<circle cx="2.9136" cy="46.1492" r="0.8500" /> 
<circle cx="2.9136" cy="48.6892" r="0.8500" /> 
<circle cx="2.9136" cy="51.2292" r="0.8500" /> 
<circle cx="2.9136" cy="53.7692" r="0.8500" /> 
<circle cx="2.9136" cy="56.3092" r="0.8500" /> 
</g>
<g >
</g>
<g style="fill:#D864FF; fill-opacity:0.4000; 
stroke:#D864FF; stroke-width:0.0000; stroke-opacity:1; 
stroke-linecap:round; stroke-linejoin:round;">
<path style="fill:#D864FF; fill-opacity:0.4000; 
stroke:#D864FF; stroke-width:0.0000; stroke-opacity:1; 
stroke-linecap:round; stroke-linejoin:round;fill-rule:evenodd;"
d="M 62.4782,30.6250
62.4782,32.3250
60.7782,32.3250
60.7782,30.6250
Z" /> 
<circle cx="61.6282" cy="28.9350" r="0.8500" /> 
<circle cx="61.6282" cy="26.3950" r="0.8500" /> 
<circle cx="61.6282" cy="23.8550" r="0.8500" /> 
<circle cx="61.6282" cy="21.3150" r="0.8500" /> 
<circle cx="61.6282" cy="18.7750" r="0.8500" /> 
<circle cx="61.6282" cy="16.2350" r="0.8500" /> 
<circle cx="61.6282" cy="13.6950" r="0.8500" /> 
</g>
<g >
</g>
<g style="fill:#D864FF; fill-opacity:0.4000; 
stroke:#D864FF; stroke-width:0.0000; stroke-opacity:1; 
stroke-linecap:round; stroke-linejoin:round;">
<path style="fill:#D864FF; fill-opacity:0.4000; 
stroke:#D864FF; stroke-width:0.0000; stroke-opacity:1; 
stroke-linecap:round; stroke-linejoin:round;fill-rule:evenodd;"
d="M 96.2532,67.1250
96.2532,68.8250
94.5532,68.8250
94.5532,67.1250
Z" /> 
<circle cx="95.4032" cy="65.4350" r="0.8500" /> 
<circle cx="95.4032" cy="62.8950" r="0.8500" /> 
<circle cx="95.4032" cy="60.3550" r="0.8500" /> 
<circle cx="95.4032" cy="57.8150" r="0.8500" /> 
<circle cx="95.4032" cy="55.2750" r="0.8500" /> 
<circle cx="95.4032" cy="52.7350" r="0.8500" /> 
<circle cx="95.4032" cy="50.1950" r="0.8500" /> 
</g>
<g >
</g>
<g style="fill:#D864FF; fill-opacity:0.4000; 
stroke:#D864FF; stroke-width:0.0000; stroke-opacity:1; 
stroke-linecap:round; stroke-linejoin:round;">
<path style="fill:#D864FF; fill-opacity:0.4000; 
stroke:#D864FF; stroke-width:0.0000; stroke-opacity:1; 
stroke-linecap:round; stroke-linejoin:round;fill-rule:evenodd;"
d="M 68.7152,2.8646
68.7152,1.1646
70.4152,1.1646
70.4152,2.8646
Z" /> 
<circle cx="69.5652" cy="4.5546" r="0.8500" /> 
<circle cx="69.5652" cy="7.0946" r="0.8500" /> 
<circle cx="69.5652" cy="9.6346" r="0.8500" /> 
<circle cx="69.5652" cy="12.1746" r="0.8500" /> 
<circle cx="69.5652" cy="14.7146" r="0.8500" /> 
<circle cx="69.5652" cy="17.2546" r="0.8500" /> 
<circle cx="69.5652" cy="19.7946" r="0.8500" /> 
</g>
<g >
</g>
<g style="fill:#D864FF; fill-opacity:0.4000; 
stroke:#D864FF; stroke-width:0.0000; stroke-opacity:1; 
stroke-linecap:round; stroke-linejoin:round;">
<path style="fill:#D864FF; fill-opacity:0.4000; 
stroke:#D864FF; stroke-width:0.0000; stroke-opacity:1; 
stroke-linecap:round; stroke-linejoin:round;fill-rule:evenodd;"
d="M 1.9636,2.8792
1.9636,1.1792
3.6636,1.1792
3.6636,2.8792
Z" /> 
<circle cx="2.8136" cy="4.5692" r="0.8500" /> 
<circle cx="2.8136" cy="7.1092" r="0.8500" /> 
<circle cx="2.8136" cy="9.6492" r="0.8500" /> 
<circle cx="2.8136" cy="12.1892" r="0.8500" /> 
<circle cx="2.8136" cy="14.7292" r="0.8500" /> 
<circle cx="2.8136" cy="17.2692" r="0.8500" /> 
<circle cx="2.8136" cy="19.8092" r="0.8500" /> 
</g>
<g >
</g>
<g style="fill:#D864FF; fill-opacity:0.4000; 
stroke:#D864FF; stroke-width:0.0000; stroke-opacity:1; 
stroke-linecap:round; stroke-linejoin:round;">
<path style="fill:#D864FF; fill-opacity:0.4000; 
stroke:#D864FF; stroke-width:0.0000; stroke-opacity:1; 
stroke-linecap:round; stroke-linejoin:round;fill-rule:evenodd;"
d="M 29.4016,30.6396
29.4016,32.3396
27.7016,32.3396
27.7016,30.6396
Z" /> 
<circle cx="28.5516" cy="28.9496" r="0.8500" /> 
<circle cx="28.5516" cy="26.4096" r="0.8500" /> 
<circle cx="28.5516" cy="23.8696" r="0.8500" /> 
<circle cx="28.5516" cy="21.3296" r="0.8500" /> 
<circle cx="28.5516" cy="18.7896" r="0.8500" /> 
<circle cx="28.5516" cy="16.2496" r="0.8500" /> 
<circle cx="28.5516" cy="13.7096" r="0.8500" /> 
</g>
<g >
</g>
<g style="fill:#D864FF; fill-opacity:0.4000; 
stroke:#D864FF; stroke-width:0.0000; stroke-opacity:1; 
stroke-linecap:round; stroke-linejoin:round;">
<path style="fill:#D864FF; fill-opacity:0.4000; 
stroke:#D864FF; stroke-width:0.0000; stroke-opacity:1; 
stroke-linecap:round; stroke-linejoin:round;fill-rule:evenodd;"
d="M 35.1402,39.3646
35.1402,37.6646
36.8402,37.6646
36.8402,39.3646
Z" /> 
<circle cx="35.9902" cy="41.0546" r="0.8500" /> 
<circle cx="35.9902" cy="43.5946" r="0.8500" /> 
<circle cx="35.9902" cy="46.1346" r="0.8500" /> 
<circle cx="35.9902" cy="48.6746" r="0.8500" /> 
<circle cx="35.9902" cy="51.2146" r="0.8500" /> 
<circle cx="35.9902" cy="53.7546" r="0.8500" /> 
<circle cx="35.9902" cy="56.2946" r="0.8500" /> 
</g>
<g >
</g>
<g style="fill:#D864FF; fill-opacity:0.4000; 
stroke:#D864FF; stroke-width:0.0000; stroke-opacity:1; 
stroke-linecap:round; stroke-linejoin:round;">
<path style="fill:#D864FF; fill-opacity:0.4000; 
stroke:#D864FF; stroke-width:0.0000; stroke-opacity:1; 
stroke-linecap:round; stroke-linejoin:round;fill-rule:evenodd;"
d="M 101.8918,39.3500
101.8918,37.6500
103.5918,37.6500
103.5918,39.3500
Z" /> 
<circle cx="102.7418" cy="41.0400" r="0.8500" /> 
<circle cx="102.7418" cy="43.5800" r="0.8500" /> 
<circle cx="102.7418" cy="46.1200" r="0.8500" /> 
<circle cx="102.7418" cy="48.6600" r="0.8500" /> 
<circle cx="102.7418" cy="51.2000" r="0.8500" /> 
<circle cx="102.7418" cy="53.7400" r="0.8500" /> 
<circle cx="102.7418" cy="56.2800" r="0.8500" /> 
</g>
<g >
</g>
<g style="fill:#D864FF; fill-opacity:0.4000; 
stroke:#D864FF; stroke-width:0.0000; stroke-opacity:1; 
stroke-linecap:round; stroke-linejoin:round;">
<path style="fill:#D864FF; fill-opacity:0.4000; 
stroke:#D864FF; stroke-width:0.0000; stroke-opacity:1; 
stroke-linecap:round; stroke-linejoin:round;fill-rule:evenodd;"
d="M 129.2298,30.6104
129.2298,32.3104
127.5298,32.3104
127.5298,30.6104
Z" /> 
<circle cx="128.3798" cy="28.9204" r="0.8500" /> 
<circle cx="128.3798" cy="26.3804" r="0.8500" /> 
<circle cx="128.3798" cy="23.8404" r="0.8500" /> 
<circle cx="128.3798" cy="21.3004" r="0.8500" /> 
<circle cx="128.3798" cy="18.7604" r="0.8500" /> 
<circle cx="128.3798" cy="16.2204" r="0.8500" /> 
<circle cx="128.3798" cy="13.6804" r="0.8500" /> 
</g>
<g >
</g>
<g style="fill:#D864FF; fill-opacity:0.4000; 
stroke:#D864FF; stroke-width:0.0000; stroke-opacity:1; 
stroke-linecap:round; stroke-linejoin:round;">
<path style="fill:#D864FF; fill-opacity:0.4000; 
stroke:#D864FF; stroke-width:0.0000; stroke-opacity:1; 
stroke-linecap:round; stroke-linejoin:round;fill-rule:evenodd;"
d="M 62.5782,67.1250
62.5782,68.8250
60.8782,68.8250
60.8782,67.1250
Z" /> 
<circle cx="61.7282" cy="65.4350" r="0.8500" /> 
<circle cx="61.7282" cy="62.8950" r="0.8500" /> 
<circle cx="61.7282" cy="60.3550" r="0.8500" /> 
<circle cx="61.7282" cy="57.8150" r="0.8500" /> 
<circle cx="61.7282" cy="55.2750" r="0.8500" /> 
<circle cx="61.7282" cy="52.7350" r="0.8500" /> 
<circle cx="61.7282" cy="50.1950" r="0.8500" /> 
</g>
<g >
</g>
<g >
</g>
<g >
</g>
</g>
<g style="fill:#000000; fill-opacity:1.0000; 
stroke:#000000; stroke-width:0.0000; stroke-opacity:1; 
stroke-linecap:round; stroke-linejoin:round;">
</g>
<g style="fill:#D0D2CD; fill-opacity:1.0000; 
stroke:#D0D2CD; stroke-width:0.0000; stroke-opacity:1; 
stroke-linecap:round; stroke-linejoin:round;">
</g>
<g style="fill:#D0D2CD; fill-opacity:1.0000; 
stroke:#D0D2CD; stroke-width:0.0500; stroke-opacity:1; 
stroke-linecap:round; stroke-linejoin:round;">
</g>
<g style="fill:#D0D2CD; fill-opacity:0.0; 
stroke:#D0D2CD; stroke-width:0.0500; stroke-opacity:1; 
stroke-linecap:round; stroke-linejoin:round;">
<path d="M-2.5250 -3.8212
L137.2000 -3.8212
" />
<path d="M137.2000 -3.8212
L137.2000 74.8042
" />
<path d="M137.2000 74.8042
L-2.5250 74.8042
" />
<path d="M-2.5250 74.8042
L-2.5250 -3.8212
" />
<g >
</g>
<g >
</g>
<g >
</g>
<g >
</g>
<g >
</g>
<g >
</g>
<g >
</g>
<g >
</g>
<g >
</g>
<g >
</g>
<g >
</g>
<g >
</g>
<g >
</g>
<g >
</g>
<g >
</g>
<g >
</g>
<g >
</g>
<g >
</g>
<g >
</g>
</g> 
</svg>
