%TF.GenerationSoftware,KiCad,Pcbnew,(7.0.0-0)*%
%TF.CreationDate,2023-03-26T23:37:05+02:00*%
%TF.ProjectId,microsdcard_sub_panelized_wocuts,6d696372-6f73-4646-9361-72645f737562,rev?*%
%TF.SameCoordinates,Original*%
%TF.FileFunction,Copper,L1,Top*%
%TF.FilePolarity,Positive*%
%FSLAX46Y46*%
G04 Gerber Fmt 4.6, Leading zero omitted, Abs format (unit mm)*
G04 Created by KiCad (PCBNEW (7.0.0-0)) date 2023-03-26 23:37:05*
%MOMM*%
%LPD*%
G01*
G04 APERTURE LIST*
%TA.AperFunction,NonConductor*%
%ADD10C,0.200000*%
%TD*%
%TA.AperFunction,ComponentPad*%
%ADD11R,1.700000X1.700000*%
%TD*%
%TA.AperFunction,ComponentPad*%
%ADD12O,1.700000X1.700000*%
%TD*%
%TA.AperFunction,Conductor*%
%ADD13C,0.750000*%
%TD*%
%TA.AperFunction,Conductor*%
%ADD14C,0.650000*%
%TD*%
G04 APERTURE END LIST*
D10*
G36*
X127116000Y-103244600D02*
G01*
X123628200Y-103244600D01*
X123628200Y-102697000D01*
X127116000Y-102697000D01*
X127116000Y-103244600D01*
G37*
X127116000Y-103244600D02*
X123628200Y-103244600D01*
X123628200Y-102697000D01*
X127116000Y-102697000D01*
X127116000Y-103244600D01*
G36*
X127176600Y-107742600D02*
G01*
X123653200Y-107742600D01*
X123653200Y-107197000D01*
X127176600Y-107197000D01*
X127176600Y-107742600D01*
G37*
X127176600Y-107742600D02*
X123653200Y-107742600D01*
X123653200Y-107197000D01*
X127176600Y-107197000D01*
X127176600Y-107742600D01*
G36*
X127065200Y-100995000D02*
G01*
X123628200Y-100995000D01*
X123628200Y-100447400D01*
X127065200Y-100447400D01*
X127065200Y-100995000D01*
G37*
X127065200Y-100995000D02*
X123628200Y-100995000D01*
X123628200Y-100447400D01*
X127065200Y-100447400D01*
X127065200Y-100995000D01*
G36*
X127319200Y-106645000D02*
G01*
X123628200Y-106645000D01*
X123628200Y-106097400D01*
X127319200Y-106097400D01*
X127319200Y-106645000D01*
G37*
X127319200Y-106645000D02*
X123628200Y-106645000D01*
X123628200Y-106097400D01*
X127319200Y-106097400D01*
X127319200Y-106645000D01*
G36*
X127065200Y-99819200D02*
G01*
X123628200Y-99819200D01*
X123628200Y-99271600D01*
X127065200Y-99271600D01*
X127065200Y-99819200D01*
G37*
X127065200Y-99819200D02*
X123628200Y-99819200D01*
X123628200Y-99271600D01*
X127065200Y-99271600D01*
X127065200Y-99819200D01*
G36*
X127116000Y-105494600D02*
G01*
X123628200Y-105494600D01*
X123628200Y-104921600D01*
X127116000Y-104921600D01*
X127116000Y-105494600D01*
G37*
X127116000Y-105494600D02*
X123628200Y-105494600D01*
X123628200Y-104921600D01*
X127116000Y-104921600D01*
X127116000Y-105494600D01*
G36*
X127090200Y-101572001D02*
G01*
X127090200Y-102119600D01*
X123303200Y-102119600D01*
X123303200Y-101572000D01*
X127090200Y-101572001D01*
G37*
X127090200Y-101572001D02*
X127090200Y-102119600D01*
X123303200Y-102119600D01*
X123303200Y-101572000D01*
X127090200Y-101572001D01*
G36*
X127116000Y-104369600D02*
G01*
X123278199Y-104369600D01*
X123278200Y-103796600D01*
X127116000Y-103796600D01*
X127116000Y-104369600D01*
G37*
X127116000Y-104369600D02*
X123278199Y-104369600D01*
X123278200Y-103796600D01*
X127116000Y-103796600D01*
X127116000Y-104369600D01*
X112926600Y-86326600D02*
X116363600Y-86326600D01*
X116363600Y-86326600D02*
X116363600Y-86874200D01*
X116363600Y-86874200D02*
X112926600Y-86874200D01*
X112926600Y-86874200D02*
X112926600Y-86326600D01*
G36*
X112926600Y-86326600D02*
G01*
X116363600Y-86326600D01*
X116363600Y-86874200D01*
X112926600Y-86874200D01*
X112926600Y-86326600D01*
G37*
X112875800Y-81776200D02*
X116713600Y-81776200D01*
X116713600Y-81776200D02*
X116713600Y-82349200D01*
X116713600Y-82349200D02*
X112875800Y-82349200D01*
X112875800Y-82349200D02*
X112875800Y-81776200D01*
G36*
X112875800Y-81776200D02*
G01*
X116713600Y-81776200D01*
X116713600Y-82349200D01*
X112875800Y-82349200D01*
X112875800Y-81776200D01*
G37*
X112901600Y-84026200D02*
X116688600Y-84026200D01*
X116688600Y-84026200D02*
X116688600Y-84573800D01*
X116688600Y-84573800D02*
X112901600Y-84573800D01*
X112901600Y-84573800D02*
X112901600Y-84026200D01*
G36*
X112901600Y-84026200D02*
G01*
X116688600Y-84026200D01*
X116688600Y-84573800D01*
X112901600Y-84573800D01*
X112901600Y-84026200D01*
G37*
X112815200Y-78403200D02*
X116338600Y-78403200D01*
X116338600Y-78403200D02*
X116338600Y-78948800D01*
X116338600Y-78948800D02*
X112815200Y-78948800D01*
X112815200Y-78948800D02*
X112815200Y-78403200D01*
G36*
X112815200Y-78403200D02*
G01*
X116338600Y-78403200D01*
X116338600Y-78948800D01*
X112815200Y-78948800D01*
X112815200Y-78403200D01*
G37*
X112875800Y-82901200D02*
X116363600Y-82901200D01*
X116363600Y-82901200D02*
X116363600Y-83448800D01*
X116363600Y-83448800D02*
X112875800Y-83448800D01*
X112875800Y-83448800D02*
X112875800Y-82901200D01*
G36*
X112875800Y-82901200D02*
G01*
X116363600Y-82901200D01*
X116363600Y-83448800D01*
X112875800Y-83448800D01*
X112875800Y-82901200D01*
G37*
X112875800Y-80651200D02*
X116363600Y-80651200D01*
X116363600Y-80651200D02*
X116363600Y-81224200D01*
X116363600Y-81224200D02*
X112875800Y-81224200D01*
X112875800Y-81224200D02*
X112875800Y-80651200D01*
G36*
X112875800Y-80651200D02*
G01*
X116363600Y-80651200D01*
X116363600Y-81224200D01*
X112875800Y-81224200D01*
X112875800Y-80651200D01*
G37*
X112672600Y-79500800D02*
X116363600Y-79500800D01*
X116363600Y-79500800D02*
X116363600Y-80048400D01*
X116363600Y-80048400D02*
X112672600Y-80048400D01*
X112672600Y-80048400D02*
X112672600Y-79500800D01*
G36*
X112672600Y-79500800D02*
G01*
X116363600Y-79500800D01*
X116363600Y-80048400D01*
X112672600Y-80048400D01*
X112672600Y-79500800D01*
G37*
X112926600Y-85150800D02*
X116363600Y-85150800D01*
X116363600Y-85150800D02*
X116363600Y-85698400D01*
X116363600Y-85698400D02*
X112926600Y-85698400D01*
X112926600Y-85698400D02*
X112926600Y-85150800D01*
G36*
X112926600Y-85150800D02*
G01*
X116363600Y-85150800D01*
X116363600Y-85698400D01*
X112926600Y-85698400D01*
X112926600Y-85150800D01*
G37*
G36*
X94039400Y-104384200D02*
G01*
X90201599Y-104384200D01*
X90201600Y-103811200D01*
X94039400Y-103811200D01*
X94039400Y-104384200D01*
G37*
X94039400Y-104384200D02*
X90201599Y-104384200D01*
X90201600Y-103811200D01*
X94039400Y-103811200D01*
X94039400Y-104384200D01*
G36*
X94013600Y-101586601D02*
G01*
X94013600Y-102134200D01*
X90226600Y-102134200D01*
X90226600Y-101586600D01*
X94013600Y-101586601D01*
G37*
X94013600Y-101586601D02*
X94013600Y-102134200D01*
X90226600Y-102134200D01*
X90226600Y-101586600D01*
X94013600Y-101586601D01*
G36*
X94039400Y-105509200D02*
G01*
X90551600Y-105509200D01*
X90551600Y-104936200D01*
X94039400Y-104936200D01*
X94039400Y-105509200D01*
G37*
X94039400Y-105509200D02*
X90551600Y-105509200D01*
X90551600Y-104936200D01*
X94039400Y-104936200D01*
X94039400Y-105509200D01*
G36*
X94242600Y-106659600D02*
G01*
X90551600Y-106659600D01*
X90551600Y-106112000D01*
X94242600Y-106112000D01*
X94242600Y-106659600D01*
G37*
X94242600Y-106659600D02*
X90551600Y-106659600D01*
X90551600Y-106112000D01*
X94242600Y-106112000D01*
X94242600Y-106659600D01*
G36*
X94039400Y-103259200D02*
G01*
X90551600Y-103259200D01*
X90551600Y-102711600D01*
X94039400Y-102711600D01*
X94039400Y-103259200D01*
G37*
X94039400Y-103259200D02*
X90551600Y-103259200D01*
X90551600Y-102711600D01*
X94039400Y-102711600D01*
X94039400Y-103259200D01*
G36*
X93988600Y-101009600D02*
G01*
X90551600Y-101009600D01*
X90551600Y-100462000D01*
X93988600Y-100462000D01*
X93988600Y-101009600D01*
G37*
X93988600Y-101009600D02*
X90551600Y-101009600D01*
X90551600Y-100462000D01*
X93988600Y-100462000D01*
X93988600Y-101009600D01*
G36*
X94100000Y-107757200D02*
G01*
X90576600Y-107757200D01*
X90576600Y-107211600D01*
X94100000Y-107211600D01*
X94100000Y-107757200D01*
G37*
X94100000Y-107757200D02*
X90576600Y-107757200D01*
X90576600Y-107211600D01*
X94100000Y-107211600D01*
X94100000Y-107757200D01*
G36*
X93988600Y-99833800D02*
G01*
X90551600Y-99833800D01*
X90551600Y-99286200D01*
X93988600Y-99286200D01*
X93988600Y-99833800D01*
G37*
X93988600Y-99833800D02*
X90551600Y-99833800D01*
X90551600Y-99286200D01*
X93988600Y-99286200D01*
X93988600Y-99833800D01*
G36*
X193867600Y-105480000D02*
G01*
X190379800Y-105480000D01*
X190379800Y-104907000D01*
X193867600Y-104907000D01*
X193867600Y-105480000D01*
G37*
X193867600Y-105480000D02*
X190379800Y-105480000D01*
X190379800Y-104907000D01*
X193867600Y-104907000D01*
X193867600Y-105480000D01*
X179653200Y-84011600D02*
X183440200Y-84011600D01*
X183440200Y-84011600D02*
X183440200Y-84559200D01*
X183440200Y-84559200D02*
X179653200Y-84559200D01*
X179653200Y-84559200D02*
X179653200Y-84011600D01*
G36*
X179653200Y-84011600D02*
G01*
X183440200Y-84011600D01*
X183440200Y-84559200D01*
X179653200Y-84559200D01*
X179653200Y-84011600D01*
G37*
X212729800Y-83997000D02*
X216516800Y-83997000D01*
X216516800Y-83997000D02*
X216516800Y-84544600D01*
X216516800Y-84544600D02*
X212729800Y-84544600D01*
X212729800Y-84544600D02*
X212729800Y-83997000D01*
G36*
X212729800Y-83997000D02*
G01*
X216516800Y-83997000D01*
X216516800Y-84544600D01*
X212729800Y-84544600D01*
X212729800Y-83997000D01*
G37*
X179566800Y-78388600D02*
X183090200Y-78388600D01*
X183090200Y-78388600D02*
X183090200Y-78934200D01*
X183090200Y-78934200D02*
X179566800Y-78934200D01*
X179566800Y-78934200D02*
X179566800Y-78388600D01*
G36*
X179566800Y-78388600D02*
G01*
X183090200Y-78388600D01*
X183090200Y-78934200D01*
X179566800Y-78934200D01*
X179566800Y-78388600D01*
G37*
X179627400Y-81761600D02*
X183465200Y-81761600D01*
X183465200Y-81761600D02*
X183465200Y-82334600D01*
X183465200Y-82334600D02*
X179627400Y-82334600D01*
X179627400Y-82334600D02*
X179627400Y-81761600D01*
G36*
X179627400Y-81761600D02*
G01*
X183465200Y-81761600D01*
X183465200Y-82334600D01*
X179627400Y-82334600D01*
X179627400Y-81761600D01*
G37*
X212704000Y-82872000D02*
X216191800Y-82872000D01*
X216191800Y-82872000D02*
X216191800Y-83419600D01*
X216191800Y-83419600D02*
X212704000Y-83419600D01*
X212704000Y-83419600D02*
X212704000Y-82872000D01*
G36*
X212704000Y-82872000D02*
G01*
X216191800Y-82872000D01*
X216191800Y-83419600D01*
X212704000Y-83419600D01*
X212704000Y-82872000D01*
G37*
X179678200Y-85136200D02*
X183115200Y-85136200D01*
X183115200Y-85136200D02*
X183115200Y-85683800D01*
X183115200Y-85683800D02*
X179678200Y-85683800D01*
X179678200Y-85683800D02*
X179678200Y-85136200D01*
G36*
X179678200Y-85136200D02*
G01*
X183115200Y-85136200D01*
X183115200Y-85683800D01*
X179678200Y-85683800D01*
X179678200Y-85136200D01*
G37*
X179627400Y-82886600D02*
X183115200Y-82886600D01*
X183115200Y-82886600D02*
X183115200Y-83434200D01*
X183115200Y-83434200D02*
X179627400Y-83434200D01*
X179627400Y-83434200D02*
X179627400Y-82886600D01*
G36*
X179627400Y-82886600D02*
G01*
X183115200Y-82886600D01*
X183115200Y-83434200D01*
X179627400Y-83434200D01*
X179627400Y-82886600D01*
G37*
X179424200Y-79486200D02*
X183115200Y-79486200D01*
X183115200Y-79486200D02*
X183115200Y-80033800D01*
X183115200Y-80033800D02*
X179424200Y-80033800D01*
X179424200Y-80033800D02*
X179424200Y-79486200D01*
G36*
X179424200Y-79486200D02*
G01*
X183115200Y-79486200D01*
X183115200Y-80033800D01*
X179424200Y-80033800D01*
X179424200Y-79486200D01*
G37*
X212754800Y-86297400D02*
X216191800Y-86297400D01*
X216191800Y-86297400D02*
X216191800Y-86845000D01*
X216191800Y-86845000D02*
X212754800Y-86845000D01*
X212754800Y-86845000D02*
X212754800Y-86297400D01*
G36*
X212754800Y-86297400D02*
G01*
X216191800Y-86297400D01*
X216191800Y-86845000D01*
X212754800Y-86845000D01*
X212754800Y-86297400D01*
G37*
X179678200Y-86312000D02*
X183115200Y-86312000D01*
X183115200Y-86312000D02*
X183115200Y-86859600D01*
X183115200Y-86859600D02*
X179678200Y-86859600D01*
X179678200Y-86859600D02*
X179678200Y-86312000D01*
G36*
X179678200Y-86312000D02*
G01*
X183115200Y-86312000D01*
X183115200Y-86859600D01*
X179678200Y-86859600D01*
X179678200Y-86312000D01*
G37*
X179627400Y-80636600D02*
X183115200Y-80636600D01*
X183115200Y-80636600D02*
X183115200Y-81209600D01*
X183115200Y-81209600D02*
X179627400Y-81209600D01*
X179627400Y-81209600D02*
X179627400Y-80636600D01*
G36*
X179627400Y-80636600D02*
G01*
X183115200Y-80636600D01*
X183115200Y-81209600D01*
X179627400Y-81209600D01*
X179627400Y-80636600D01*
G37*
G36*
X160994200Y-106645000D02*
G01*
X157303200Y-106645000D01*
X157303200Y-106097400D01*
X160994200Y-106097400D01*
X160994200Y-106645000D01*
G37*
X160994200Y-106645000D02*
X157303200Y-106645000D01*
X157303200Y-106097400D01*
X160994200Y-106097400D01*
X160994200Y-106645000D01*
G36*
X160765200Y-101572001D02*
G01*
X160765200Y-102119600D01*
X156978200Y-102119600D01*
X156978200Y-101572000D01*
X160765200Y-101572001D01*
G37*
X160765200Y-101572001D02*
X160765200Y-102119600D01*
X156978200Y-102119600D01*
X156978200Y-101572000D01*
X160765200Y-101572001D01*
G36*
X160791000Y-105494600D02*
G01*
X157303200Y-105494600D01*
X157303200Y-104921600D01*
X160791000Y-104921600D01*
X160791000Y-105494600D01*
G37*
X160791000Y-105494600D02*
X157303200Y-105494600D01*
X157303200Y-104921600D01*
X160791000Y-104921600D01*
X160791000Y-105494600D01*
G36*
X160851600Y-107742600D02*
G01*
X157328200Y-107742600D01*
X157328200Y-107197000D01*
X160851600Y-107197000D01*
X160851600Y-107742600D01*
G37*
X160851600Y-107742600D02*
X157328200Y-107742600D01*
X157328200Y-107197000D01*
X160851600Y-107197000D01*
X160851600Y-107742600D01*
G36*
X160791000Y-103244600D02*
G01*
X157303200Y-103244600D01*
X157303200Y-102697000D01*
X160791000Y-102697000D01*
X160791000Y-103244600D01*
G37*
X160791000Y-103244600D02*
X157303200Y-103244600D01*
X157303200Y-102697000D01*
X160791000Y-102697000D01*
X160791000Y-103244600D01*
G36*
X160740200Y-99819200D02*
G01*
X157303200Y-99819200D01*
X157303200Y-99271600D01*
X160740200Y-99271600D01*
X160740200Y-99819200D01*
G37*
X160740200Y-99819200D02*
X157303200Y-99819200D01*
X157303200Y-99271600D01*
X160740200Y-99271600D01*
X160740200Y-99819200D01*
X212643400Y-78374000D02*
X216166800Y-78374000D01*
X216166800Y-78374000D02*
X216166800Y-78919600D01*
X216166800Y-78919600D02*
X212643400Y-78919600D01*
X212643400Y-78919600D02*
X212643400Y-78374000D01*
G36*
X212643400Y-78374000D02*
G01*
X216166800Y-78374000D01*
X216166800Y-78919600D01*
X212643400Y-78919600D01*
X212643400Y-78374000D01*
G37*
X212704000Y-81747000D02*
X216541800Y-81747000D01*
X216541800Y-81747000D02*
X216541800Y-82320000D01*
X216541800Y-82320000D02*
X212704000Y-82320000D01*
X212704000Y-82320000D02*
X212704000Y-81747000D01*
G36*
X212704000Y-81747000D02*
G01*
X216541800Y-81747000D01*
X216541800Y-82320000D01*
X212704000Y-82320000D01*
X212704000Y-81747000D01*
G37*
G36*
X160740200Y-100995000D02*
G01*
X157303200Y-100995000D01*
X157303200Y-100447400D01*
X160740200Y-100447400D01*
X160740200Y-100995000D01*
G37*
X160740200Y-100995000D02*
X157303200Y-100995000D01*
X157303200Y-100447400D01*
X160740200Y-100447400D01*
X160740200Y-100995000D01*
X212500800Y-79471600D02*
X216191800Y-79471600D01*
X216191800Y-79471600D02*
X216191800Y-80019200D01*
X216191800Y-80019200D02*
X212500800Y-80019200D01*
X212500800Y-80019200D02*
X212500800Y-79471600D01*
G36*
X212500800Y-79471600D02*
G01*
X216191800Y-79471600D01*
X216191800Y-80019200D01*
X212500800Y-80019200D01*
X212500800Y-79471600D01*
G37*
X212754800Y-85121600D02*
X216191800Y-85121600D01*
X216191800Y-85121600D02*
X216191800Y-85669200D01*
X216191800Y-85669200D02*
X212754800Y-85669200D01*
X212754800Y-85669200D02*
X212754800Y-85121600D01*
G36*
X212754800Y-85121600D02*
G01*
X216191800Y-85121600D01*
X216191800Y-85669200D01*
X212754800Y-85669200D01*
X212754800Y-85121600D01*
G37*
X212704000Y-80622000D02*
X216191800Y-80622000D01*
X216191800Y-80622000D02*
X216191800Y-81195000D01*
X216191800Y-81195000D02*
X212704000Y-81195000D01*
X212704000Y-81195000D02*
X212704000Y-80622000D01*
G36*
X212704000Y-80622000D02*
G01*
X216191800Y-80622000D01*
X216191800Y-81195000D01*
X212704000Y-81195000D01*
X212704000Y-80622000D01*
G37*
X145749200Y-79486200D02*
X149440200Y-79486200D01*
X149440200Y-79486200D02*
X149440200Y-80033800D01*
X149440200Y-80033800D02*
X145749200Y-80033800D01*
X145749200Y-80033800D02*
X145749200Y-79486200D01*
G36*
X145749200Y-79486200D02*
G01*
X149440200Y-79486200D01*
X149440200Y-80033800D01*
X145749200Y-80033800D01*
X145749200Y-79486200D01*
G37*
X146003200Y-86312000D02*
X149440200Y-86312000D01*
X149440200Y-86312000D02*
X149440200Y-86859600D01*
X149440200Y-86859600D02*
X146003200Y-86859600D01*
X146003200Y-86859600D02*
X146003200Y-86312000D01*
G36*
X146003200Y-86312000D02*
G01*
X149440200Y-86312000D01*
X149440200Y-86859600D01*
X146003200Y-86859600D01*
X146003200Y-86312000D01*
G37*
X146003200Y-85136200D02*
X149440200Y-85136200D01*
X149440200Y-85136200D02*
X149440200Y-85683800D01*
X149440200Y-85683800D02*
X146003200Y-85683800D01*
X146003200Y-85683800D02*
X146003200Y-85136200D01*
G36*
X146003200Y-85136200D02*
G01*
X149440200Y-85136200D01*
X149440200Y-85683800D01*
X146003200Y-85683800D01*
X146003200Y-85136200D01*
G37*
X145952400Y-80636600D02*
X149440200Y-80636600D01*
X149440200Y-80636600D02*
X149440200Y-81209600D01*
X149440200Y-81209600D02*
X145952400Y-81209600D01*
X145952400Y-81209600D02*
X145952400Y-80636600D01*
G36*
X145952400Y-80636600D02*
G01*
X149440200Y-80636600D01*
X149440200Y-81209600D01*
X145952400Y-81209600D01*
X145952400Y-80636600D01*
G37*
X145891800Y-78388600D02*
X149415200Y-78388600D01*
X149415200Y-78388600D02*
X149415200Y-78934200D01*
X149415200Y-78934200D02*
X145891800Y-78934200D01*
X145891800Y-78934200D02*
X145891800Y-78388600D01*
G36*
X145891800Y-78388600D02*
G01*
X149415200Y-78388600D01*
X149415200Y-78934200D01*
X145891800Y-78934200D01*
X145891800Y-78388600D01*
G37*
G36*
X193928200Y-107728000D02*
G01*
X190404800Y-107728000D01*
X190404800Y-107182400D01*
X193928200Y-107182400D01*
X193928200Y-107728000D01*
G37*
X193928200Y-107728000D02*
X190404800Y-107728000D01*
X190404800Y-107182400D01*
X193928200Y-107182400D01*
X193928200Y-107728000D01*
X145952400Y-82886600D02*
X149440200Y-82886600D01*
X149440200Y-82886600D02*
X149440200Y-83434200D01*
X149440200Y-83434200D02*
X145952400Y-83434200D01*
X145952400Y-83434200D02*
X145952400Y-82886600D01*
G36*
X145952400Y-82886600D02*
G01*
X149440200Y-82886600D01*
X149440200Y-83434200D01*
X145952400Y-83434200D01*
X145952400Y-82886600D01*
G37*
G36*
X193816800Y-100980400D02*
G01*
X190379800Y-100980400D01*
X190379800Y-100432800D01*
X193816800Y-100432800D01*
X193816800Y-100980400D01*
G37*
X193816800Y-100980400D02*
X190379800Y-100980400D01*
X190379800Y-100432800D01*
X193816800Y-100432800D01*
X193816800Y-100980400D01*
X145952400Y-81761600D02*
X149790200Y-81761600D01*
X149790200Y-81761600D02*
X149790200Y-82334600D01*
X149790200Y-82334600D02*
X145952400Y-82334600D01*
X145952400Y-82334600D02*
X145952400Y-81761600D01*
G36*
X145952400Y-81761600D02*
G01*
X149790200Y-81761600D01*
X149790200Y-82334600D01*
X145952400Y-82334600D01*
X145952400Y-81761600D01*
G37*
X145978200Y-84011600D02*
X149765200Y-84011600D01*
X149765200Y-84011600D02*
X149765200Y-84559200D01*
X149765200Y-84559200D02*
X145978200Y-84559200D01*
X145978200Y-84559200D02*
X145978200Y-84011600D01*
G36*
X145978200Y-84011600D02*
G01*
X149765200Y-84011600D01*
X149765200Y-84559200D01*
X145978200Y-84559200D01*
X145978200Y-84011600D01*
G37*
G36*
X160791000Y-104369600D02*
G01*
X156953199Y-104369600D01*
X156953200Y-103796600D01*
X160791000Y-103796600D01*
X160791000Y-104369600D01*
G37*
X160791000Y-104369600D02*
X156953199Y-104369600D01*
X156953200Y-103796600D01*
X160791000Y-103796600D01*
X160791000Y-104369600D01*
G36*
X194070800Y-106630400D02*
G01*
X190379800Y-106630400D01*
X190379800Y-106082800D01*
X194070800Y-106082800D01*
X194070800Y-106630400D01*
G37*
X194070800Y-106630400D02*
X190379800Y-106630400D01*
X190379800Y-106082800D01*
X194070800Y-106082800D01*
X194070800Y-106630400D01*
G36*
X193816800Y-99804600D02*
G01*
X190379800Y-99804600D01*
X190379800Y-99257000D01*
X193816800Y-99257000D01*
X193816800Y-99804600D01*
G37*
X193816800Y-99804600D02*
X190379800Y-99804600D01*
X190379800Y-99257000D01*
X193816800Y-99257000D01*
X193816800Y-99804600D01*
G36*
X193867600Y-103230000D02*
G01*
X190379800Y-103230000D01*
X190379800Y-102682400D01*
X193867600Y-102682400D01*
X193867600Y-103230000D01*
G37*
X193867600Y-103230000D02*
X190379800Y-103230000D01*
X190379800Y-102682400D01*
X193867600Y-102682400D01*
X193867600Y-103230000D01*
G36*
X193867600Y-104355000D02*
G01*
X190029799Y-104355000D01*
X190029800Y-103782000D01*
X193867600Y-103782000D01*
X193867600Y-104355000D01*
G37*
X193867600Y-104355000D02*
X190029799Y-104355000D01*
X190029800Y-103782000D01*
X193867600Y-103782000D01*
X193867600Y-104355000D01*
G36*
X193841800Y-101557401D02*
G01*
X193841800Y-102105000D01*
X190054800Y-102105000D01*
X190054800Y-101557400D01*
X193841800Y-101557401D01*
G37*
X193841800Y-101557401D02*
X193841800Y-102105000D01*
X190054800Y-102105000D01*
X190054800Y-101557400D01*
X193841800Y-101557401D01*
X112975800Y-119401200D02*
X116463600Y-119401200D01*
X116463600Y-119401200D02*
X116463600Y-119948800D01*
X116463600Y-119948800D02*
X112975800Y-119948800D01*
X112975800Y-119948800D02*
X112975800Y-119401200D01*
G36*
X112975800Y-119401200D02*
G01*
X116463600Y-119401200D01*
X116463600Y-119948800D01*
X112975800Y-119948800D01*
X112975800Y-119401200D01*
G37*
X112975800Y-118276200D02*
X116813600Y-118276200D01*
X116813600Y-118276200D02*
X116813600Y-118849200D01*
X116813600Y-118849200D02*
X112975800Y-118849200D01*
X112975800Y-118849200D02*
X112975800Y-118276200D01*
G36*
X112975800Y-118276200D02*
G01*
X116813600Y-118276200D01*
X116813600Y-118849200D01*
X112975800Y-118849200D01*
X112975800Y-118276200D01*
G37*
X112772600Y-116000800D02*
X116463600Y-116000800D01*
X116463600Y-116000800D02*
X116463600Y-116548400D01*
X116463600Y-116548400D02*
X112772600Y-116548400D01*
X112772600Y-116548400D02*
X112772600Y-116000800D01*
G36*
X112772600Y-116000800D02*
G01*
X116463600Y-116000800D01*
X116463600Y-116548400D01*
X112772600Y-116548400D01*
X112772600Y-116000800D01*
G37*
X112975800Y-117151200D02*
X116463600Y-117151200D01*
X116463600Y-117151200D02*
X116463600Y-117724200D01*
X116463600Y-117724200D02*
X112975800Y-117724200D01*
X112975800Y-117724200D02*
X112975800Y-117151200D01*
G36*
X112975800Y-117151200D02*
G01*
X116463600Y-117151200D01*
X116463600Y-117724200D01*
X112975800Y-117724200D01*
X112975800Y-117151200D01*
G37*
X113026600Y-122826600D02*
X116463600Y-122826600D01*
X116463600Y-122826600D02*
X116463600Y-123374200D01*
X116463600Y-123374200D02*
X113026600Y-123374200D01*
X113026600Y-123374200D02*
X113026600Y-122826600D01*
G36*
X113026600Y-122826600D02*
G01*
X116463600Y-122826600D01*
X116463600Y-123374200D01*
X113026600Y-123374200D01*
X113026600Y-122826600D01*
G37*
X113026600Y-121650800D02*
X116463600Y-121650800D01*
X116463600Y-121650800D02*
X116463600Y-122198400D01*
X116463600Y-122198400D02*
X113026600Y-122198400D01*
X113026600Y-122198400D02*
X113026600Y-121650800D01*
G36*
X113026600Y-121650800D02*
G01*
X116463600Y-121650800D01*
X116463600Y-122198400D01*
X113026600Y-122198400D01*
X113026600Y-121650800D01*
G37*
X112915200Y-114903200D02*
X116438600Y-114903200D01*
X116438600Y-114903200D02*
X116438600Y-115448800D01*
X116438600Y-115448800D02*
X112915200Y-115448800D01*
X112915200Y-115448800D02*
X112915200Y-114903200D01*
G36*
X112915200Y-114903200D02*
G01*
X116438600Y-114903200D01*
X116438600Y-115448800D01*
X112915200Y-115448800D01*
X112915200Y-114903200D01*
G37*
X113001600Y-120526200D02*
X116788600Y-120526200D01*
X116788600Y-120526200D02*
X116788600Y-121073800D01*
X116788600Y-121073800D02*
X113001600Y-121073800D01*
X113001600Y-121073800D02*
X113001600Y-120526200D01*
G36*
X113001600Y-120526200D02*
G01*
X116788600Y-120526200D01*
X116788600Y-121073800D01*
X113001600Y-121073800D01*
X113001600Y-120526200D01*
G37*
G36*
X193941800Y-138057401D02*
G01*
X193941800Y-138605000D01*
X190154800Y-138605000D01*
X190154800Y-138057400D01*
X193941800Y-138057401D01*
G37*
X193941800Y-138057401D02*
X193941800Y-138605000D01*
X190154800Y-138605000D01*
X190154800Y-138057400D01*
X193941800Y-138057401D01*
G36*
X194170800Y-143130400D02*
G01*
X190479800Y-143130400D01*
X190479800Y-142582800D01*
X194170800Y-142582800D01*
X194170800Y-143130400D01*
G37*
X194170800Y-143130400D02*
X190479800Y-143130400D01*
X190479800Y-142582800D01*
X194170800Y-142582800D01*
X194170800Y-143130400D01*
G36*
X193916800Y-136304600D02*
G01*
X190479800Y-136304600D01*
X190479800Y-135757000D01*
X193916800Y-135757000D01*
X193916800Y-136304600D01*
G37*
X193916800Y-136304600D02*
X190479800Y-136304600D01*
X190479800Y-135757000D01*
X193916800Y-135757000D01*
X193916800Y-136304600D01*
G36*
X193916800Y-137480400D02*
G01*
X190479800Y-137480400D01*
X190479800Y-136932800D01*
X193916800Y-136932800D01*
X193916800Y-137480400D01*
G37*
X193916800Y-137480400D02*
X190479800Y-137480400D01*
X190479800Y-136932800D01*
X193916800Y-136932800D01*
X193916800Y-137480400D01*
G36*
X193967600Y-139730000D02*
G01*
X190479800Y-139730000D01*
X190479800Y-139182400D01*
X193967600Y-139182400D01*
X193967600Y-139730000D01*
G37*
X193967600Y-139730000D02*
X190479800Y-139730000D01*
X190479800Y-139182400D01*
X193967600Y-139182400D01*
X193967600Y-139730000D01*
G36*
X193967600Y-141980000D02*
G01*
X190479800Y-141980000D01*
X190479800Y-141407000D01*
X193967600Y-141407000D01*
X193967600Y-141980000D01*
G37*
X193967600Y-141980000D02*
X190479800Y-141980000D01*
X190479800Y-141407000D01*
X193967600Y-141407000D01*
X193967600Y-141980000D01*
G36*
X193967600Y-140855000D02*
G01*
X190129799Y-140855000D01*
X190129800Y-140282000D01*
X193967600Y-140282000D01*
X193967600Y-140855000D01*
G37*
X193967600Y-140855000D02*
X190129799Y-140855000D01*
X190129800Y-140282000D01*
X193967600Y-140282000D01*
X193967600Y-140855000D01*
G36*
X194028200Y-144228000D02*
G01*
X190504800Y-144228000D01*
X190504800Y-143682400D01*
X194028200Y-143682400D01*
X194028200Y-144228000D01*
G37*
X194028200Y-144228000D02*
X190504800Y-144228000D01*
X190504800Y-143682400D01*
X194028200Y-143682400D01*
X194028200Y-144228000D01*
X179753200Y-120511600D02*
X183540200Y-120511600D01*
X183540200Y-120511600D02*
X183540200Y-121059200D01*
X183540200Y-121059200D02*
X179753200Y-121059200D01*
X179753200Y-121059200D02*
X179753200Y-120511600D01*
G36*
X179753200Y-120511600D02*
G01*
X183540200Y-120511600D01*
X183540200Y-121059200D01*
X179753200Y-121059200D01*
X179753200Y-120511600D01*
G37*
X179727400Y-117136600D02*
X183215200Y-117136600D01*
X183215200Y-117136600D02*
X183215200Y-117709600D01*
X183215200Y-117709600D02*
X179727400Y-117709600D01*
X179727400Y-117709600D02*
X179727400Y-117136600D01*
G36*
X179727400Y-117136600D02*
G01*
X183215200Y-117136600D01*
X183215200Y-117709600D01*
X179727400Y-117709600D01*
X179727400Y-117136600D01*
G37*
X179778200Y-122812000D02*
X183215200Y-122812000D01*
X183215200Y-122812000D02*
X183215200Y-123359600D01*
X183215200Y-123359600D02*
X179778200Y-123359600D01*
X179778200Y-123359600D02*
X179778200Y-122812000D01*
G36*
X179778200Y-122812000D02*
G01*
X183215200Y-122812000D01*
X183215200Y-123359600D01*
X179778200Y-123359600D01*
X179778200Y-122812000D01*
G37*
X179524200Y-115986200D02*
X183215200Y-115986200D01*
X183215200Y-115986200D02*
X183215200Y-116533800D01*
X183215200Y-116533800D02*
X179524200Y-116533800D01*
X179524200Y-116533800D02*
X179524200Y-115986200D01*
G36*
X179524200Y-115986200D02*
G01*
X183215200Y-115986200D01*
X183215200Y-116533800D01*
X179524200Y-116533800D01*
X179524200Y-115986200D01*
G37*
X179778200Y-121636200D02*
X183215200Y-121636200D01*
X183215200Y-121636200D02*
X183215200Y-122183800D01*
X183215200Y-122183800D02*
X179778200Y-122183800D01*
X179778200Y-122183800D02*
X179778200Y-121636200D01*
G36*
X179778200Y-121636200D02*
G01*
X183215200Y-121636200D01*
X183215200Y-122183800D01*
X179778200Y-122183800D01*
X179778200Y-121636200D01*
G37*
X179727400Y-119386600D02*
X183215200Y-119386600D01*
X183215200Y-119386600D02*
X183215200Y-119934200D01*
X183215200Y-119934200D02*
X179727400Y-119934200D01*
X179727400Y-119934200D02*
X179727400Y-119386600D01*
G36*
X179727400Y-119386600D02*
G01*
X183215200Y-119386600D01*
X183215200Y-119934200D01*
X179727400Y-119934200D01*
X179727400Y-119386600D01*
G37*
X179666800Y-114888600D02*
X183190200Y-114888600D01*
X183190200Y-114888600D02*
X183190200Y-115434200D01*
X183190200Y-115434200D02*
X179666800Y-115434200D01*
X179666800Y-115434200D02*
X179666800Y-114888600D01*
G36*
X179666800Y-114888600D02*
G01*
X183190200Y-114888600D01*
X183190200Y-115434200D01*
X179666800Y-115434200D01*
X179666800Y-114888600D01*
G37*
X179727400Y-118261600D02*
X183565200Y-118261600D01*
X183565200Y-118261600D02*
X183565200Y-118834600D01*
X183565200Y-118834600D02*
X179727400Y-118834600D01*
X179727400Y-118834600D02*
X179727400Y-118261600D01*
G36*
X179727400Y-118261600D02*
G01*
X183565200Y-118261600D01*
X183565200Y-118834600D01*
X179727400Y-118834600D01*
X179727400Y-118261600D01*
G37*
X212804000Y-119372000D02*
X216291800Y-119372000D01*
X216291800Y-119372000D02*
X216291800Y-119919600D01*
X216291800Y-119919600D02*
X212804000Y-119919600D01*
X212804000Y-119919600D02*
X212804000Y-119372000D01*
G36*
X212804000Y-119372000D02*
G01*
X216291800Y-119372000D01*
X216291800Y-119919600D01*
X212804000Y-119919600D01*
X212804000Y-119372000D01*
G37*
X212829800Y-120497000D02*
X216616800Y-120497000D01*
X216616800Y-120497000D02*
X216616800Y-121044600D01*
X216616800Y-121044600D02*
X212829800Y-121044600D01*
X212829800Y-121044600D02*
X212829800Y-120497000D01*
G36*
X212829800Y-120497000D02*
G01*
X216616800Y-120497000D01*
X216616800Y-121044600D01*
X212829800Y-121044600D01*
X212829800Y-120497000D01*
G37*
X212854800Y-122797400D02*
X216291800Y-122797400D01*
X216291800Y-122797400D02*
X216291800Y-123345000D01*
X216291800Y-123345000D02*
X212854800Y-123345000D01*
X212854800Y-123345000D02*
X212854800Y-122797400D01*
G36*
X212854800Y-122797400D02*
G01*
X216291800Y-122797400D01*
X216291800Y-123345000D01*
X212854800Y-123345000D01*
X212854800Y-122797400D01*
G37*
X212600800Y-115971600D02*
X216291800Y-115971600D01*
X216291800Y-115971600D02*
X216291800Y-116519200D01*
X216291800Y-116519200D02*
X212600800Y-116519200D01*
X212600800Y-116519200D02*
X212600800Y-115971600D01*
G36*
X212600800Y-115971600D02*
G01*
X216291800Y-115971600D01*
X216291800Y-116519200D01*
X212600800Y-116519200D01*
X212600800Y-115971600D01*
G37*
X212854800Y-121621600D02*
X216291800Y-121621600D01*
X216291800Y-121621600D02*
X216291800Y-122169200D01*
X216291800Y-122169200D02*
X212854800Y-122169200D01*
X212854800Y-122169200D02*
X212854800Y-121621600D01*
G36*
X212854800Y-121621600D02*
G01*
X216291800Y-121621600D01*
X216291800Y-122169200D01*
X212854800Y-122169200D01*
X212854800Y-121621600D01*
G37*
X212804000Y-117122000D02*
X216291800Y-117122000D01*
X216291800Y-117122000D02*
X216291800Y-117695000D01*
X216291800Y-117695000D02*
X212804000Y-117695000D01*
X212804000Y-117695000D02*
X212804000Y-117122000D01*
G36*
X212804000Y-117122000D02*
G01*
X216291800Y-117122000D01*
X216291800Y-117695000D01*
X212804000Y-117695000D01*
X212804000Y-117122000D01*
G37*
X212743400Y-114874000D02*
X216266800Y-114874000D01*
X216266800Y-114874000D02*
X216266800Y-115419600D01*
X216266800Y-115419600D02*
X212743400Y-115419600D01*
X212743400Y-115419600D02*
X212743400Y-114874000D01*
G36*
X212743400Y-114874000D02*
G01*
X216266800Y-114874000D01*
X216266800Y-115419600D01*
X212743400Y-115419600D01*
X212743400Y-114874000D01*
G37*
X212804000Y-118247000D02*
X216641800Y-118247000D01*
X216641800Y-118247000D02*
X216641800Y-118820000D01*
X216641800Y-118820000D02*
X212804000Y-118820000D01*
X212804000Y-118820000D02*
X212804000Y-118247000D01*
G36*
X212804000Y-118247000D02*
G01*
X216641800Y-118247000D01*
X216641800Y-118820000D01*
X212804000Y-118820000D01*
X212804000Y-118247000D01*
G37*
G36*
X160840200Y-137495000D02*
G01*
X157403200Y-137495000D01*
X157403200Y-136947400D01*
X160840200Y-136947400D01*
X160840200Y-137495000D01*
G37*
X160840200Y-137495000D02*
X157403200Y-137495000D01*
X157403200Y-136947400D01*
X160840200Y-136947400D01*
X160840200Y-137495000D01*
G36*
X161094200Y-143145000D02*
G01*
X157403200Y-143145000D01*
X157403200Y-142597400D01*
X161094200Y-142597400D01*
X161094200Y-143145000D01*
G37*
X161094200Y-143145000D02*
X157403200Y-143145000D01*
X157403200Y-142597400D01*
X161094200Y-142597400D01*
X161094200Y-143145000D01*
G36*
X160865200Y-138072001D02*
G01*
X160865200Y-138619600D01*
X157078200Y-138619600D01*
X157078200Y-138072000D01*
X160865200Y-138072001D01*
G37*
X160865200Y-138072001D02*
X160865200Y-138619600D01*
X157078200Y-138619600D01*
X157078200Y-138072000D01*
X160865200Y-138072001D01*
G36*
X160891000Y-141994600D02*
G01*
X157403200Y-141994600D01*
X157403200Y-141421600D01*
X160891000Y-141421600D01*
X160891000Y-141994600D01*
G37*
X160891000Y-141994600D02*
X157403200Y-141994600D01*
X157403200Y-141421600D01*
X160891000Y-141421600D01*
X160891000Y-141994600D01*
G36*
X160951600Y-144242600D02*
G01*
X157428200Y-144242600D01*
X157428200Y-143697000D01*
X160951600Y-143697000D01*
X160951600Y-144242600D01*
G37*
X160951600Y-144242600D02*
X157428200Y-144242600D01*
X157428200Y-143697000D01*
X160951600Y-143697000D01*
X160951600Y-144242600D01*
G36*
X160891000Y-139744600D02*
G01*
X157403200Y-139744600D01*
X157403200Y-139197000D01*
X160891000Y-139197000D01*
X160891000Y-139744600D01*
G37*
X160891000Y-139744600D02*
X157403200Y-139744600D01*
X157403200Y-139197000D01*
X160891000Y-139197000D01*
X160891000Y-139744600D01*
G36*
X160840200Y-136319200D02*
G01*
X157403200Y-136319200D01*
X157403200Y-135771600D01*
X160840200Y-135771600D01*
X160840200Y-136319200D01*
G37*
X160840200Y-136319200D02*
X157403200Y-136319200D01*
X157403200Y-135771600D01*
X160840200Y-135771600D01*
X160840200Y-136319200D01*
G36*
X160891000Y-140869600D02*
G01*
X157053199Y-140869600D01*
X157053200Y-140296600D01*
X160891000Y-140296600D01*
X160891000Y-140869600D01*
G37*
X160891000Y-140869600D02*
X157053199Y-140869600D01*
X157053200Y-140296600D01*
X160891000Y-140296600D01*
X160891000Y-140869600D01*
X146078200Y-120511600D02*
X149865200Y-120511600D01*
X149865200Y-120511600D02*
X149865200Y-121059200D01*
X149865200Y-121059200D02*
X146078200Y-121059200D01*
X146078200Y-121059200D02*
X146078200Y-120511600D01*
G36*
X146078200Y-120511600D02*
G01*
X149865200Y-120511600D01*
X149865200Y-121059200D01*
X146078200Y-121059200D01*
X146078200Y-120511600D01*
G37*
X146052400Y-118261600D02*
X149890200Y-118261600D01*
X149890200Y-118261600D02*
X149890200Y-118834600D01*
X149890200Y-118834600D02*
X146052400Y-118834600D01*
X146052400Y-118834600D02*
X146052400Y-118261600D01*
G36*
X146052400Y-118261600D02*
G01*
X149890200Y-118261600D01*
X149890200Y-118834600D01*
X146052400Y-118834600D01*
X146052400Y-118261600D01*
G37*
X146052400Y-119386600D02*
X149540200Y-119386600D01*
X149540200Y-119386600D02*
X149540200Y-119934200D01*
X149540200Y-119934200D02*
X146052400Y-119934200D01*
X146052400Y-119934200D02*
X146052400Y-119386600D01*
G36*
X146052400Y-119386600D02*
G01*
X149540200Y-119386600D01*
X149540200Y-119934200D01*
X146052400Y-119934200D01*
X146052400Y-119386600D01*
G37*
X145849200Y-115986200D02*
X149540200Y-115986200D01*
X149540200Y-115986200D02*
X149540200Y-116533800D01*
X149540200Y-116533800D02*
X145849200Y-116533800D01*
X145849200Y-116533800D02*
X145849200Y-115986200D01*
G36*
X145849200Y-115986200D02*
G01*
X149540200Y-115986200D01*
X149540200Y-116533800D01*
X145849200Y-116533800D01*
X145849200Y-115986200D01*
G37*
X146103200Y-122812000D02*
X149540200Y-122812000D01*
X149540200Y-122812000D02*
X149540200Y-123359600D01*
X149540200Y-123359600D02*
X146103200Y-123359600D01*
X146103200Y-123359600D02*
X146103200Y-122812000D01*
G36*
X146103200Y-122812000D02*
G01*
X149540200Y-122812000D01*
X149540200Y-123359600D01*
X146103200Y-123359600D01*
X146103200Y-122812000D01*
G37*
X146103200Y-121636200D02*
X149540200Y-121636200D01*
X149540200Y-121636200D02*
X149540200Y-122183800D01*
X149540200Y-122183800D02*
X146103200Y-122183800D01*
X146103200Y-122183800D02*
X146103200Y-121636200D01*
G36*
X146103200Y-121636200D02*
G01*
X149540200Y-121636200D01*
X149540200Y-122183800D01*
X146103200Y-122183800D01*
X146103200Y-121636200D01*
G37*
X146052400Y-117136600D02*
X149540200Y-117136600D01*
X149540200Y-117136600D02*
X149540200Y-117709600D01*
X149540200Y-117709600D02*
X146052400Y-117709600D01*
X146052400Y-117709600D02*
X146052400Y-117136600D01*
G36*
X146052400Y-117136600D02*
G01*
X149540200Y-117136600D01*
X149540200Y-117709600D01*
X146052400Y-117709600D01*
X146052400Y-117136600D01*
G37*
X145991800Y-114888600D02*
X149515200Y-114888600D01*
X149515200Y-114888600D02*
X149515200Y-115434200D01*
X149515200Y-115434200D02*
X145991800Y-115434200D01*
X145991800Y-115434200D02*
X145991800Y-114888600D01*
G36*
X145991800Y-114888600D02*
G01*
X149515200Y-114888600D01*
X149515200Y-115434200D01*
X145991800Y-115434200D01*
X145991800Y-114888600D01*
G37*
G36*
X127216000Y-139744600D02*
G01*
X123728200Y-139744600D01*
X123728200Y-139197000D01*
X127216000Y-139197000D01*
X127216000Y-139744600D01*
G37*
X127216000Y-139744600D02*
X123728200Y-139744600D01*
X123728200Y-139197000D01*
X127216000Y-139197000D01*
X127216000Y-139744600D01*
G36*
X127276600Y-144242600D02*
G01*
X123753200Y-144242600D01*
X123753200Y-143697000D01*
X127276600Y-143697000D01*
X127276600Y-144242600D01*
G37*
X127276600Y-144242600D02*
X123753200Y-144242600D01*
X123753200Y-143697000D01*
X127276600Y-143697000D01*
X127276600Y-144242600D01*
G36*
X127165200Y-137495000D02*
G01*
X123728200Y-137495000D01*
X123728200Y-136947400D01*
X127165200Y-136947400D01*
X127165200Y-137495000D01*
G37*
X127165200Y-137495000D02*
X123728200Y-137495000D01*
X123728200Y-136947400D01*
X127165200Y-136947400D01*
X127165200Y-137495000D01*
G36*
X127419200Y-143145000D02*
G01*
X123728200Y-143145000D01*
X123728200Y-142597400D01*
X127419200Y-142597400D01*
X127419200Y-143145000D01*
G37*
X127419200Y-143145000D02*
X123728200Y-143145000D01*
X123728200Y-142597400D01*
X127419200Y-142597400D01*
X127419200Y-143145000D01*
G36*
X127165200Y-136319200D02*
G01*
X123728200Y-136319200D01*
X123728200Y-135771600D01*
X127165200Y-135771600D01*
X127165200Y-136319200D01*
G37*
X127165200Y-136319200D02*
X123728200Y-136319200D01*
X123728200Y-135771600D01*
X127165200Y-135771600D01*
X127165200Y-136319200D01*
G36*
X127216000Y-141994600D02*
G01*
X123728200Y-141994600D01*
X123728200Y-141421600D01*
X127216000Y-141421600D01*
X127216000Y-141994600D01*
G37*
X127216000Y-141994600D02*
X123728200Y-141994600D01*
X123728200Y-141421600D01*
X127216000Y-141421600D01*
X127216000Y-141994600D01*
G36*
X127190200Y-138072001D02*
G01*
X127190200Y-138619600D01*
X123403200Y-138619600D01*
X123403200Y-138072000D01*
X127190200Y-138072001D01*
G37*
X127190200Y-138072001D02*
X127190200Y-138619600D01*
X123403200Y-138619600D01*
X123403200Y-138072000D01*
X127190200Y-138072001D01*
G36*
X127216000Y-140869600D02*
G01*
X123378199Y-140869600D01*
X123378200Y-140296600D01*
X127216000Y-140296600D01*
X127216000Y-140869600D01*
G37*
X127216000Y-140869600D02*
X123378199Y-140869600D01*
X123378200Y-140296600D01*
X127216000Y-140296600D01*
X127216000Y-140869600D01*
G36*
X94139400Y-140884200D02*
G01*
X90301599Y-140884200D01*
X90301600Y-140311200D01*
X94139400Y-140311200D01*
X94139400Y-140884200D01*
G37*
X94139400Y-140884200D02*
X90301599Y-140884200D01*
X90301600Y-140311200D01*
X94139400Y-140311200D01*
X94139400Y-140884200D01*
G36*
X94113600Y-138086601D02*
G01*
X94113600Y-138634200D01*
X90326600Y-138634200D01*
X90326600Y-138086600D01*
X94113600Y-138086601D01*
G37*
X94113600Y-138086601D02*
X94113600Y-138634200D01*
X90326600Y-138634200D01*
X90326600Y-138086600D01*
X94113600Y-138086601D01*
G36*
X94139400Y-142009200D02*
G01*
X90651600Y-142009200D01*
X90651600Y-141436200D01*
X94139400Y-141436200D01*
X94139400Y-142009200D01*
G37*
X94139400Y-142009200D02*
X90651600Y-142009200D01*
X90651600Y-141436200D01*
X94139400Y-141436200D01*
X94139400Y-142009200D01*
G36*
X94342600Y-143159600D02*
G01*
X90651600Y-143159600D01*
X90651600Y-142612000D01*
X94342600Y-142612000D01*
X94342600Y-143159600D01*
G37*
X94342600Y-143159600D02*
X90651600Y-143159600D01*
X90651600Y-142612000D01*
X94342600Y-142612000D01*
X94342600Y-143159600D01*
G36*
X94139400Y-139759200D02*
G01*
X90651600Y-139759200D01*
X90651600Y-139211600D01*
X94139400Y-139211600D01*
X94139400Y-139759200D01*
G37*
X94139400Y-139759200D02*
X90651600Y-139759200D01*
X90651600Y-139211600D01*
X94139400Y-139211600D01*
X94139400Y-139759200D01*
G36*
X94088600Y-137509600D02*
G01*
X90651600Y-137509600D01*
X90651600Y-136962000D01*
X94088600Y-136962000D01*
X94088600Y-137509600D01*
G37*
X94088600Y-137509600D02*
X90651600Y-137509600D01*
X90651600Y-136962000D01*
X94088600Y-136962000D01*
X94088600Y-137509600D01*
G36*
X94088600Y-136333800D02*
G01*
X90651600Y-136333800D01*
X90651600Y-135786200D01*
X94088600Y-135786200D01*
X94088600Y-136333800D01*
G37*
X94088600Y-136333800D02*
X90651600Y-136333800D01*
X90651600Y-135786200D01*
X94088600Y-135786200D01*
X94088600Y-136333800D01*
G36*
X94200000Y-144257200D02*
G01*
X90676600Y-144257200D01*
X90676600Y-143711600D01*
X94200000Y-143711600D01*
X94200000Y-144257200D01*
G37*
X94200000Y-144257200D02*
X90676600Y-144257200D01*
X90676600Y-143711600D01*
X94200000Y-143711600D01*
X94200000Y-144257200D01*
D11*
%TO.P,REF\u002A\u002A,1*%
%TO.N,N/C*%
X157340199Y-78335399D03*
D12*
%TO.P,REF\u002A\u002A,2*%
X157340199Y-80875399D03*
%TO.P,REF\u002A\u002A,3*%
X157340199Y-83415399D03*
%TO.P,REF\u002A\u002A,4*%
X157340199Y-85955399D03*
%TO.P,REF\u002A\u002A,5*%
X157340199Y-88495399D03*
%TO.P,REF\u002A\u002A,6*%
X157340199Y-91035399D03*
%TO.P,REF\u002A\u002A,7*%
X157340199Y-93575399D03*
%TO.P,REF\u002A\u002A,8*%
X157340199Y-96115399D03*
%TD*%
D11*
%TO.P,REF\u002A\u002A,1*%
%TO.N,N/C*%
X123665199Y-78335399D03*
D12*
%TO.P,REF\u002A\u002A,2*%
X123665199Y-80875399D03*
%TO.P,REF\u002A\u002A,3*%
X123665199Y-83415399D03*
%TO.P,REF\u002A\u002A,4*%
X123665199Y-85955399D03*
%TO.P,REF\u002A\u002A,5*%
X123665199Y-88495399D03*
%TO.P,REF\u002A\u002A,6*%
X123665199Y-91035399D03*
%TO.P,REF\u002A\u002A,7*%
X123665199Y-93575399D03*
%TO.P,REF\u002A\u002A,8*%
X123665199Y-96115399D03*
%TD*%
D11*
%TO.P,REF\u002A\u002A,1*%
%TO.N,N/C*%
X183078199Y-107795799D03*
D12*
%TO.P,REF\u002A\u002A,2*%
X183078199Y-105255799D03*
%TO.P,REF\u002A\u002A,3*%
X183078199Y-102715799D03*
%TO.P,REF\u002A\u002A,4*%
X183078199Y-100175799D03*
%TO.P,REF\u002A\u002A,5*%
X183078199Y-97635799D03*
%TO.P,REF\u002A\u002A,6*%
X183078199Y-95095799D03*
%TO.P,REF\u002A\u002A,7*%
X183078199Y-92555799D03*
%TO.P,REF\u002A\u002A,8*%
X183078199Y-90015799D03*
%TD*%
D11*
%TO.P,REF\u002A\u002A,1*%
%TO.N,N/C*%
X149403199Y-107795799D03*
D12*
%TO.P,REF\u002A\u002A,2*%
X149403199Y-105255799D03*
%TO.P,REF\u002A\u002A,3*%
X149403199Y-102715799D03*
%TO.P,REF\u002A\u002A,4*%
X149403199Y-100175799D03*
%TO.P,REF\u002A\u002A,5*%
X149403199Y-97635799D03*
%TO.P,REF\u002A\u002A,6*%
X149403199Y-95095799D03*
%TO.P,REF\u002A\u002A,7*%
X149403199Y-92555799D03*
%TO.P,REF\u002A\u002A,8*%
X149403199Y-90015799D03*
%TD*%
D11*
%TO.P,REF\u002A\u002A,1*%
%TO.N,N/C*%
X116326599Y-107810399D03*
D12*
%TO.P,REF\u002A\u002A,2*%
X116326599Y-105270399D03*
%TO.P,REF\u002A\u002A,3*%
X116326599Y-102730399D03*
%TO.P,REF\u002A\u002A,4*%
X116326599Y-100190399D03*
%TO.P,REF\u002A\u002A,5*%
X116326599Y-97650399D03*
%TO.P,REF\u002A\u002A,6*%
X116326599Y-95110399D03*
%TO.P,REF\u002A\u002A,7*%
X116326599Y-92570399D03*
%TO.P,REF\u002A\u002A,8*%
X116326599Y-90030399D03*
%TD*%
D11*
%TO.P,REF\u002A\u002A,1*%
%TO.N,N/C*%
X90588599Y-78349999D03*
D12*
%TO.P,REF\u002A\u002A,2*%
X90588599Y-80889999D03*
%TO.P,REF\u002A\u002A,3*%
X90588599Y-83429999D03*
%TO.P,REF\u002A\u002A,4*%
X90588599Y-85969999D03*
%TO.P,REF\u002A\u002A,5*%
X90588599Y-88509999D03*
%TO.P,REF\u002A\u002A,6*%
X90588599Y-91049999D03*
%TO.P,REF\u002A\u002A,7*%
X90588599Y-93589999D03*
%TO.P,REF\u002A\u002A,8*%
X90588599Y-96129999D03*
%TD*%
D11*
%TO.P,REF\u002A\u002A,1*%
%TO.N,N/C*%
X190416799Y-78320799D03*
D12*
%TO.P,REF\u002A\u002A,2*%
X190416799Y-80860799D03*
%TO.P,REF\u002A\u002A,3*%
X190416799Y-83400799D03*
%TO.P,REF\u002A\u002A,4*%
X190416799Y-85940799D03*
%TO.P,REF\u002A\u002A,5*%
X190416799Y-88480799D03*
%TO.P,REF\u002A\u002A,6*%
X190416799Y-91020799D03*
%TO.P,REF\u002A\u002A,7*%
X190416799Y-93560799D03*
%TO.P,REF\u002A\u002A,8*%
X190416799Y-96100799D03*
%TD*%
D11*
%TO.P,REF\u002A\u002A,1*%
%TO.N,N/C*%
X216154799Y-107781199D03*
D12*
%TO.P,REF\u002A\u002A,2*%
X216154799Y-105241199D03*
%TO.P,REF\u002A\u002A,3*%
X216154799Y-102701199D03*
%TO.P,REF\u002A\u002A,4*%
X216154799Y-100161199D03*
%TO.P,REF\u002A\u002A,5*%
X216154799Y-97621199D03*
%TO.P,REF\u002A\u002A,6*%
X216154799Y-95081199D03*
%TO.P,REF\u002A\u002A,7*%
X216154799Y-92541199D03*
%TO.P,REF\u002A\u002A,8*%
X216154799Y-90001199D03*
%TD*%
D11*
%TO.P,REF\u002A\u002A,1*%
%TO.N,N/C*%
X90688599Y-114849999D03*
D12*
%TO.P,REF\u002A\u002A,2*%
X90688599Y-117389999D03*
%TO.P,REF\u002A\u002A,3*%
X90688599Y-119929999D03*
%TO.P,REF\u002A\u002A,4*%
X90688599Y-122469999D03*
%TO.P,REF\u002A\u002A,5*%
X90688599Y-125009999D03*
%TO.P,REF\u002A\u002A,6*%
X90688599Y-127549999D03*
%TO.P,REF\u002A\u002A,7*%
X90688599Y-130089999D03*
%TO.P,REF\u002A\u002A,8*%
X90688599Y-132629999D03*
%TD*%
D11*
%TO.P,REF\u002A\u002A,1*%
%TO.N,N/C*%
X216254799Y-144281199D03*
D12*
%TO.P,REF\u002A\u002A,2*%
X216254799Y-141741199D03*
%TO.P,REF\u002A\u002A,3*%
X216254799Y-139201199D03*
%TO.P,REF\u002A\u002A,4*%
X216254799Y-136661199D03*
%TO.P,REF\u002A\u002A,5*%
X216254799Y-134121199D03*
%TO.P,REF\u002A\u002A,6*%
X216254799Y-131581199D03*
%TO.P,REF\u002A\u002A,7*%
X216254799Y-129041199D03*
%TO.P,REF\u002A\u002A,8*%
X216254799Y-126501199D03*
%TD*%
D11*
%TO.P,REF\u002A\u002A,1*%
%TO.N,N/C*%
X157440199Y-114835399D03*
D12*
%TO.P,REF\u002A\u002A,2*%
X157440199Y-117375399D03*
%TO.P,REF\u002A\u002A,3*%
X157440199Y-119915399D03*
%TO.P,REF\u002A\u002A,4*%
X157440199Y-122455399D03*
%TO.P,REF\u002A\u002A,5*%
X157440199Y-124995399D03*
%TO.P,REF\u002A\u002A,6*%
X157440199Y-127535399D03*
%TO.P,REF\u002A\u002A,7*%
X157440199Y-130075399D03*
%TO.P,REF\u002A\u002A,8*%
X157440199Y-132615399D03*
%TD*%
D11*
%TO.P,REF\u002A\u002A,1*%
%TO.N,N/C*%
X190516799Y-114820799D03*
D12*
%TO.P,REF\u002A\u002A,2*%
X190516799Y-117360799D03*
%TO.P,REF\u002A\u002A,3*%
X190516799Y-119900799D03*
%TO.P,REF\u002A\u002A,4*%
X190516799Y-122440799D03*
%TO.P,REF\u002A\u002A,5*%
X190516799Y-124980799D03*
%TO.P,REF\u002A\u002A,6*%
X190516799Y-127520799D03*
%TO.P,REF\u002A\u002A,7*%
X190516799Y-130060799D03*
%TO.P,REF\u002A\u002A,8*%
X190516799Y-132600799D03*
%TD*%
D11*
%TO.P,REF\u002A\u002A,1*%
%TO.N,N/C*%
X183178199Y-144295799D03*
D12*
%TO.P,REF\u002A\u002A,2*%
X183178199Y-141755799D03*
%TO.P,REF\u002A\u002A,3*%
X183178199Y-139215799D03*
%TO.P,REF\u002A\u002A,4*%
X183178199Y-136675799D03*
%TO.P,REF\u002A\u002A,5*%
X183178199Y-134135799D03*
%TO.P,REF\u002A\u002A,6*%
X183178199Y-131595799D03*
%TO.P,REF\u002A\u002A,7*%
X183178199Y-129055799D03*
%TO.P,REF\u002A\u002A,8*%
X183178199Y-126515799D03*
%TD*%
D11*
%TO.P,REF\u002A\u002A,1*%
%TO.N,N/C*%
X123765199Y-114835399D03*
D12*
%TO.P,REF\u002A\u002A,2*%
X123765199Y-117375399D03*
%TO.P,REF\u002A\u002A,3*%
X123765199Y-119915399D03*
%TO.P,REF\u002A\u002A,4*%
X123765199Y-122455399D03*
%TO.P,REF\u002A\u002A,5*%
X123765199Y-124995399D03*
%TO.P,REF\u002A\u002A,6*%
X123765199Y-127535399D03*
%TO.P,REF\u002A\u002A,7*%
X123765199Y-130075399D03*
%TO.P,REF\u002A\u002A,8*%
X123765199Y-132615399D03*
%TD*%
D11*
%TO.P,REF\u002A\u002A,1*%
%TO.N,N/C*%
X149503199Y-144295799D03*
D12*
%TO.P,REF\u002A\u002A,2*%
X149503199Y-141755799D03*
%TO.P,REF\u002A\u002A,3*%
X149503199Y-139215799D03*
%TO.P,REF\u002A\u002A,4*%
X149503199Y-136675799D03*
%TO.P,REF\u002A\u002A,5*%
X149503199Y-134135799D03*
%TO.P,REF\u002A\u002A,6*%
X149503199Y-131595799D03*
%TO.P,REF\u002A\u002A,7*%
X149503199Y-129055799D03*
%TO.P,REF\u002A\u002A,8*%
X149503199Y-126515799D03*
%TD*%
D11*
%TO.P,REF\u002A\u002A,1*%
%TO.N,N/C*%
X116426599Y-144310399D03*
D12*
%TO.P,REF\u002A\u002A,2*%
X116426599Y-141770399D03*
%TO.P,REF\u002A\u002A,3*%
X116426599Y-139230399D03*
%TO.P,REF\u002A\u002A,4*%
X116426599Y-136690399D03*
%TO.P,REF\u002A\u002A,5*%
X116426599Y-134150399D03*
%TO.P,REF\u002A\u002A,6*%
X116426599Y-131610399D03*
%TO.P,REF\u002A\u002A,7*%
X116426599Y-129070399D03*
%TO.P,REF\u002A\u002A,8*%
X116426599Y-126530399D03*
%TD*%
D13*
%TO.N,*%
X134414400Y-85424400D02*
X145742800Y-85424400D01*
X128369200Y-79785600D02*
X146090200Y-79785600D01*
D14*
X146971200Y-78566400D02*
X147015200Y-78610400D01*
D13*
X127353200Y-83290800D02*
X129690000Y-80954000D01*
X135176400Y-86592800D02*
X146047600Y-86592800D01*
X126896000Y-90910800D02*
X133500000Y-84306800D01*
X127353200Y-88370800D02*
X132534800Y-83189200D01*
X133500000Y-84306800D02*
X145996800Y-84306800D01*
X129690000Y-80954000D02*
X146047600Y-80954000D01*
X123856800Y-85830800D02*
X127454800Y-85830800D01*
D14*
X123856800Y-78210800D02*
X127810400Y-78210800D01*
X128166000Y-78566400D02*
X146971200Y-78566400D01*
X127810400Y-78210800D02*
X128166000Y-78566400D01*
D13*
X123552000Y-93450800D02*
X126388000Y-93450800D01*
D14*
X123856800Y-78210800D02*
X124186800Y-78540800D01*
D13*
X123856800Y-80750800D02*
X127404000Y-80750800D01*
X126286400Y-95482800D02*
X135176400Y-86592800D01*
X123856800Y-90910800D02*
X126896000Y-90910800D01*
X123856800Y-95990800D02*
X125778400Y-95990800D01*
X210130000Y-105162600D02*
X193772400Y-105162600D01*
D14*
X215963200Y-107905800D02*
X212009600Y-107905800D01*
D13*
X215963200Y-97745799D02*
X212466800Y-97745800D01*
X132534800Y-83189200D02*
X145996800Y-83189200D01*
X211450800Y-106331000D02*
X193729801Y-106331000D01*
X215963200Y-95205800D02*
X212924000Y-95205800D01*
D14*
X192848800Y-107550200D02*
X192804800Y-107506200D01*
D13*
X212466800Y-97745800D02*
X207285200Y-102927400D01*
X215963200Y-90125800D02*
X214041600Y-90125800D01*
X212924000Y-95205800D02*
X206320000Y-101809800D01*
X215963200Y-100285801D02*
X212365200Y-100285800D01*
D14*
X212009600Y-107905800D02*
X211654000Y-107550201D01*
D13*
X214041600Y-90125800D02*
X213533600Y-90633800D01*
X213482800Y-92665800D02*
X205456400Y-100692200D01*
X205405600Y-100692200D02*
X194077200Y-100692200D01*
X204643600Y-99523800D02*
X193772400Y-99523800D01*
X212466800Y-102825800D02*
X210130000Y-105162600D01*
X206320000Y-101809800D02*
X193823200Y-101809800D01*
D14*
X215963200Y-107905800D02*
X215633200Y-107575800D01*
D13*
X208555199Y-104095800D02*
X193823200Y-104095800D01*
X216268000Y-92665800D02*
X213432000Y-92665800D01*
X212416000Y-105365800D02*
X211450800Y-106331000D01*
X207285200Y-102927400D02*
X193823200Y-102927400D01*
X193647600Y-90896200D02*
X200251600Y-84292200D01*
X194104800Y-88356200D02*
X199286400Y-83174600D01*
X192530000Y-95976200D02*
X193038000Y-95468200D01*
X195120800Y-79771000D02*
X212841800Y-79771000D01*
X178374200Y-106345600D02*
X160653201Y-106345600D01*
X180457000Y-90648400D02*
X171567000Y-99538400D01*
X180965000Y-90140400D02*
X180457000Y-90648400D01*
X180406200Y-92680400D02*
X172379800Y-100706800D01*
X182886600Y-105380400D02*
X179339400Y-105380400D01*
X182886600Y-95220400D02*
X179847400Y-95220400D01*
X172329000Y-100706800D02*
X161000600Y-100706800D01*
X175478599Y-104110400D02*
X160746600Y-104110400D01*
X182886600Y-102840400D02*
X179390200Y-102840400D01*
X179339400Y-105380400D02*
X178374200Y-106345600D01*
X171567000Y-99538400D02*
X160695800Y-99538400D01*
D14*
X182886600Y-107920400D02*
X182556600Y-107590400D01*
X182886600Y-107920400D02*
X178933000Y-107920400D01*
D13*
X179288600Y-100300400D02*
X175478599Y-104110400D01*
X179390200Y-102840400D02*
X177053400Y-105177200D01*
X179847400Y-95220400D02*
X173243400Y-101824400D01*
X183191400Y-92680400D02*
X180355400Y-92680400D01*
X173243400Y-101824400D02*
X160746600Y-101824400D01*
X177053400Y-105177200D02*
X160695800Y-105177200D01*
X182886600Y-97760399D02*
X179390200Y-97760400D01*
X182886600Y-90140400D02*
X180965000Y-90140400D01*
X179390200Y-97760400D02*
X174208600Y-102942000D01*
X174208600Y-102942000D02*
X160746600Y-102942000D01*
X123856800Y-83290800D02*
X127353200Y-83290800D01*
D14*
X178577400Y-107564801D02*
X159772200Y-107564800D01*
D13*
X126337200Y-93450800D02*
X134363600Y-85424400D01*
X125778400Y-95990800D02*
X126286400Y-95482800D01*
X131264800Y-82020800D02*
X145996800Y-82020800D01*
X127404000Y-80750800D02*
X128369200Y-79785600D01*
D14*
X159772200Y-107564800D02*
X159728200Y-107520800D01*
D13*
X127454800Y-85830800D02*
X131264800Y-82020800D01*
X123856800Y-88370800D02*
X127353200Y-88370800D01*
X182886600Y-100300401D02*
X179288600Y-100300400D01*
D14*
X178933000Y-107920400D02*
X178577400Y-107564801D01*
D13*
X215963200Y-105365800D02*
X212416000Y-105365800D01*
D14*
X211654000Y-107550201D02*
X192848800Y-107550200D01*
D13*
X215963200Y-102825800D02*
X212466800Y-102825800D01*
X212365200Y-100285800D02*
X208555199Y-104095800D01*
X213533600Y-90633800D02*
X204643600Y-99523800D01*
X149211600Y-90140400D02*
X147290000Y-90140400D01*
X139568400Y-101824400D02*
X127071600Y-101824400D01*
X149211600Y-95220400D02*
X146172400Y-95220400D01*
X146172400Y-95220400D02*
X139568400Y-101824400D01*
X149211600Y-102840400D02*
X145715200Y-102840400D01*
X145664400Y-105380400D02*
X144699200Y-106345600D01*
X137892000Y-99538400D02*
X127020800Y-99538400D01*
X149516400Y-92680400D02*
X146680400Y-92680400D01*
X141803599Y-104110400D02*
X127071600Y-104110400D01*
X138654000Y-100706800D02*
X127325600Y-100706800D01*
X147290000Y-90140400D02*
X146782000Y-90648400D01*
X149211600Y-97760399D02*
X145715200Y-97760400D01*
D14*
X149211600Y-107920400D02*
X148881600Y-107590400D01*
D13*
X146782000Y-90648400D02*
X137892000Y-99538400D01*
X149211600Y-100300401D02*
X145613600Y-100300400D01*
X145715200Y-97760400D02*
X140533600Y-102942000D01*
D14*
X126097200Y-107564800D02*
X126053200Y-107520800D01*
D13*
X145715200Y-102840400D02*
X143378400Y-105177200D01*
X146731200Y-92680400D02*
X138704800Y-100706800D01*
X145613600Y-100300400D02*
X141803599Y-104110400D01*
D14*
X149211600Y-107920400D02*
X145258000Y-107920400D01*
D13*
X149211600Y-105380400D02*
X145664400Y-105380400D01*
X144699200Y-106345600D02*
X126978201Y-106345600D01*
X140533600Y-102942000D02*
X127071600Y-102942000D01*
D14*
X144902400Y-107564801D02*
X126097200Y-107564800D01*
X94733800Y-78225400D02*
X95089400Y-78581000D01*
X113894600Y-78581000D02*
X113938600Y-78625000D01*
D13*
X95292600Y-79800200D02*
X113013600Y-79800200D01*
D14*
X90780200Y-78225400D02*
X94733800Y-78225400D01*
X95089400Y-78581000D02*
X113894600Y-78581000D01*
D13*
X143378400Y-105177200D02*
X127020800Y-105177200D01*
D14*
X145258000Y-107920400D02*
X144902400Y-107564801D01*
D13*
X161129800Y-85830800D02*
X164939800Y-82020800D01*
X166209800Y-83189200D02*
X179671800Y-83189200D01*
X168089400Y-85424400D02*
X179417800Y-85424400D01*
X161028200Y-88370800D02*
X166209800Y-83189200D01*
D14*
X161485400Y-78210800D02*
X161841000Y-78566400D01*
D13*
X157531800Y-95990800D02*
X159453400Y-95990800D01*
X160012200Y-93450800D02*
X168038600Y-85424400D01*
X159453400Y-95990800D02*
X159961400Y-95482800D01*
X161028200Y-83290800D02*
X163365000Y-80954000D01*
X163365000Y-80954000D02*
X179722600Y-80954000D01*
X157531800Y-88370800D02*
X161028200Y-88370800D01*
X157531800Y-80750800D02*
X161079000Y-80750800D01*
X160571000Y-90910800D02*
X167175000Y-84306800D01*
X161079000Y-80750800D02*
X162044200Y-79785600D01*
D14*
X157531800Y-78210800D02*
X157861800Y-78540800D01*
X157531800Y-78210800D02*
X161485400Y-78210800D01*
D13*
X162044200Y-79785600D02*
X179765200Y-79785600D01*
D14*
X161841000Y-78566400D02*
X180646200Y-78566400D01*
X180646200Y-78566400D02*
X180690200Y-78610400D01*
D13*
X168851400Y-86592800D02*
X179722600Y-86592800D01*
X157531800Y-90910800D02*
X160571000Y-90910800D01*
X157227000Y-93450800D02*
X160063000Y-93450800D01*
X167175000Y-84306800D02*
X179671800Y-84306800D01*
X157531800Y-83290800D02*
X161028200Y-83290800D01*
X159961400Y-95482800D02*
X168851400Y-86592800D01*
X164939800Y-82020800D02*
X179671800Y-82020800D01*
X157531800Y-85830800D02*
X161129800Y-85830800D01*
X194155600Y-80736200D02*
X195120800Y-79771000D01*
X190608400Y-90896200D02*
X193647600Y-90896200D01*
D14*
X194917600Y-78551800D02*
X213722800Y-78551800D01*
X190608400Y-78196200D02*
X190938400Y-78526200D01*
D13*
X196441600Y-80939400D02*
X212799200Y-80939400D01*
X201928000Y-86578200D02*
X212799200Y-86578200D01*
X190608400Y-83276200D02*
X194104800Y-83276200D01*
X198016400Y-82006200D02*
X212748400Y-82006200D01*
X194104800Y-83276200D02*
X196441600Y-80939400D01*
X190608400Y-80736200D02*
X194155600Y-80736200D01*
X190608400Y-88356200D02*
X194104800Y-88356200D01*
X199286400Y-83174600D02*
X212748400Y-83174600D01*
D14*
X194562000Y-78196200D02*
X194917600Y-78551800D01*
D13*
X190303600Y-93436200D02*
X193139600Y-93436200D01*
X190608400Y-85816200D02*
X194206400Y-85816200D01*
X190608400Y-95976200D02*
X192530000Y-95976200D01*
X193088800Y-93436200D02*
X201115200Y-85409800D01*
D14*
X213722800Y-78551800D02*
X213766800Y-78595800D01*
D13*
X194206400Y-85816200D02*
X198016400Y-82006200D01*
D14*
X190608400Y-78196200D02*
X194562000Y-78196200D01*
D13*
X201166000Y-85409800D02*
X212494400Y-85409800D01*
X193038000Y-95468200D02*
X201928000Y-86578200D01*
X200251600Y-84292200D02*
X212748400Y-84292200D01*
X93819400Y-90925400D02*
X100423400Y-84321400D01*
X90780200Y-83305400D02*
X94276600Y-83305400D01*
X96613400Y-80968600D02*
X112971000Y-80968600D01*
X98188200Y-82035400D02*
X112920200Y-82035400D01*
X90780200Y-88385400D02*
X94276600Y-88385400D01*
X101337800Y-85439000D02*
X112666200Y-85439000D01*
X94378200Y-85845400D02*
X98188200Y-82035400D01*
X100423400Y-84321400D02*
X112920200Y-84321400D01*
X94276600Y-83305400D02*
X96613400Y-80968600D01*
X99458200Y-83203800D02*
X112920200Y-83203800D01*
X94327400Y-80765400D02*
X95292600Y-79800200D01*
X102099800Y-86607400D02*
X112971000Y-86607400D01*
X93209800Y-95497400D02*
X102099800Y-86607400D01*
D14*
X90780200Y-78225400D02*
X91110200Y-78555400D01*
D13*
X92701800Y-96005400D02*
X93209800Y-95497400D01*
X93260600Y-93465400D02*
X101287000Y-85439000D01*
X90780200Y-90925400D02*
X93819400Y-90925400D01*
X90475400Y-93465400D02*
X93311400Y-93465400D01*
X90780200Y-80765400D02*
X94327400Y-80765400D01*
X94276600Y-88385400D02*
X99458200Y-83203800D01*
D14*
X93020600Y-107579400D02*
X92976600Y-107535400D01*
D13*
X113095800Y-95235000D02*
X106491800Y-101839000D01*
X113705400Y-90663000D02*
X104815400Y-99553000D01*
X116135000Y-90155000D02*
X114213400Y-90155000D01*
X112537000Y-100315000D02*
X108726999Y-104125000D01*
X113654600Y-92695000D02*
X105628200Y-100721400D01*
X116135000Y-97774999D02*
X112638600Y-97775000D01*
X111622600Y-106360200D02*
X93901601Y-106360200D01*
X112587800Y-105395000D02*
X111622600Y-106360200D01*
X112638600Y-102855000D02*
X110301800Y-105191800D01*
X106491800Y-101839000D02*
X93995000Y-101839000D01*
X116135000Y-95235000D02*
X113095800Y-95235000D01*
X90780200Y-85845400D02*
X94378200Y-85845400D01*
X90780200Y-96005400D02*
X92701800Y-96005400D01*
X107457000Y-102956600D02*
X93995000Y-102956600D01*
X116135000Y-102855000D02*
X112638600Y-102855000D01*
D14*
X116135000Y-107935000D02*
X112181400Y-107935000D01*
D13*
X116135000Y-105395000D02*
X112587800Y-105395000D01*
D14*
X116135000Y-107935000D02*
X115805000Y-107605000D01*
D13*
X114213400Y-90155000D02*
X113705400Y-90663000D01*
X105577400Y-100721400D02*
X94249000Y-100721400D01*
X110301800Y-105191800D02*
X93944200Y-105191800D01*
X108726999Y-104125000D02*
X93995000Y-104125000D01*
X112638600Y-97775000D02*
X107457000Y-102956600D01*
X116135000Y-100315001D02*
X112537000Y-100315000D01*
X104815400Y-99553000D02*
X93944200Y-99553000D01*
D14*
X111825800Y-107579401D02*
X93020600Y-107579400D01*
X112181400Y-107935000D02*
X111825800Y-107579401D01*
D13*
X116439800Y-92695000D02*
X113603800Y-92695000D01*
D14*
X113994600Y-115081000D02*
X114038600Y-115125000D01*
D13*
X90880200Y-132505400D02*
X92801800Y-132505400D01*
X92801800Y-132505400D02*
X93309800Y-131997400D01*
X90880200Y-124885400D02*
X94376600Y-124885400D01*
X94376600Y-124885400D02*
X99558200Y-119703800D01*
D14*
X94833800Y-114725400D02*
X95189400Y-115081000D01*
D13*
X93360600Y-129965400D02*
X101387000Y-121939000D01*
X90880200Y-122345400D02*
X94478200Y-122345400D01*
D14*
X90880200Y-114725400D02*
X91210200Y-115055400D01*
D13*
X94376600Y-119805400D02*
X96713400Y-117468600D01*
X93309800Y-131997400D02*
X102199800Y-123107400D01*
X101437800Y-121939000D02*
X112766200Y-121939000D01*
X90880200Y-119805400D02*
X94376600Y-119805400D01*
D14*
X95189400Y-115081000D02*
X113994600Y-115081000D01*
D13*
X90880200Y-127425400D02*
X93919400Y-127425400D01*
X94478200Y-122345400D02*
X98288200Y-118535400D01*
X102199800Y-123107400D02*
X113071000Y-123107400D01*
X100523400Y-120821400D02*
X113020200Y-120821400D01*
D14*
X90880200Y-114725400D02*
X94833800Y-114725400D01*
D13*
X94427400Y-117265400D02*
X95392600Y-116300200D01*
X93919400Y-127425400D02*
X100523400Y-120821400D01*
X90575400Y-129965400D02*
X93411400Y-129965400D01*
X90880200Y-117265400D02*
X94427400Y-117265400D01*
X99558200Y-119703800D02*
X113020200Y-119703800D01*
X96713400Y-117468600D02*
X113071000Y-117468600D01*
X95392600Y-116300200D02*
X113113600Y-116300200D01*
X98288200Y-118535400D02*
X113020200Y-118535400D01*
X204743600Y-136023800D02*
X193872400Y-136023800D01*
X210230000Y-141662600D02*
X193872400Y-141662600D01*
X205505600Y-137192200D02*
X194177200Y-137192200D01*
X211550800Y-142831000D02*
X193829801Y-142831000D01*
X213024000Y-131705800D02*
X206420000Y-138309800D01*
X213582800Y-129165800D02*
X205556400Y-137192200D01*
X212465200Y-136785800D02*
X208655199Y-140595800D01*
X216063200Y-131705800D02*
X213024000Y-131705800D01*
D14*
X216063200Y-144405800D02*
X215733200Y-144075800D01*
D13*
X214141600Y-126625800D02*
X213633600Y-127133800D01*
X216063200Y-126625800D02*
X214141600Y-126625800D01*
X216368000Y-129165800D02*
X213532000Y-129165800D01*
D14*
X216063200Y-144405800D02*
X212109600Y-144405800D01*
D13*
X216063200Y-134245799D02*
X212566800Y-134245800D01*
X213633600Y-127133800D02*
X204743600Y-136023800D01*
X216063200Y-136785801D02*
X212465200Y-136785800D01*
X207385200Y-139427400D02*
X193923200Y-139427400D01*
D14*
X212109600Y-144405800D02*
X211754000Y-144050201D01*
X192948800Y-144050200D02*
X192904800Y-144006200D01*
D13*
X216063200Y-141865800D02*
X212516000Y-141865800D01*
X208655199Y-140595800D02*
X193923200Y-140595800D01*
X212566800Y-139325800D02*
X210230000Y-141662600D01*
X212566800Y-134245800D02*
X207385200Y-139427400D01*
X206420000Y-138309800D02*
X193923200Y-138309800D01*
X216063200Y-139325800D02*
X212566800Y-139325800D01*
D14*
X211754000Y-144050201D02*
X192948800Y-144050200D01*
D13*
X212516000Y-141865800D02*
X211550800Y-142831000D01*
X161229800Y-122330800D02*
X165039800Y-118520800D01*
X166309800Y-119689200D02*
X179771800Y-119689200D01*
X168189400Y-121924400D02*
X179517800Y-121924400D01*
X161128200Y-124870800D02*
X166309800Y-119689200D01*
D14*
X161585400Y-114710800D02*
X161941000Y-115066400D01*
D13*
X157631800Y-132490800D02*
X159553400Y-132490800D01*
X160112200Y-129950800D02*
X168138600Y-121924400D01*
X159553400Y-132490800D02*
X160061400Y-131982800D01*
X161128200Y-119790800D02*
X163465000Y-117454000D01*
X163465000Y-117454000D02*
X179822600Y-117454000D01*
X157631800Y-124870800D02*
X161128200Y-124870800D01*
X157631800Y-117250800D02*
X161179000Y-117250800D01*
X160671000Y-127410800D02*
X167275000Y-120806800D01*
X161179000Y-117250800D02*
X162144200Y-116285600D01*
D14*
X157631800Y-114710800D02*
X157961800Y-115040800D01*
X157631800Y-114710800D02*
X161585400Y-114710800D01*
D13*
X162144200Y-116285600D02*
X179865200Y-116285600D01*
D14*
X161941000Y-115066400D02*
X180746200Y-115066400D01*
X180746200Y-115066400D02*
X180790200Y-115110400D01*
D13*
X168951400Y-123092800D02*
X179822600Y-123092800D01*
X157631800Y-127410800D02*
X160671000Y-127410800D01*
X157327000Y-129950800D02*
X160163000Y-129950800D01*
X167275000Y-120806800D02*
X179771800Y-120806800D01*
X157631800Y-119790800D02*
X161128200Y-119790800D01*
X160061400Y-131982800D02*
X168951400Y-123092800D01*
X165039800Y-118520800D02*
X179771800Y-118520800D01*
X157631800Y-122330800D02*
X161229800Y-122330800D01*
X194255600Y-117236200D02*
X195220800Y-116271000D01*
X190708400Y-127396200D02*
X193747600Y-127396200D01*
D14*
X195017600Y-115051800D02*
X213822800Y-115051800D01*
X190708400Y-114696200D02*
X191038400Y-115026200D01*
D13*
X196541600Y-117439400D02*
X212899200Y-117439400D01*
X202028000Y-123078200D02*
X212899200Y-123078200D01*
X190708400Y-119776200D02*
X194204800Y-119776200D01*
X198116400Y-118506200D02*
X212848400Y-118506200D01*
X194204800Y-119776200D02*
X196541600Y-117439400D01*
X190708400Y-117236200D02*
X194255600Y-117236200D01*
X190708400Y-124856200D02*
X194204800Y-124856200D01*
X199386400Y-119674600D02*
X212848400Y-119674600D01*
D14*
X194662000Y-114696200D02*
X195017600Y-115051800D01*
D13*
X190403600Y-129936200D02*
X193239600Y-129936200D01*
X190708400Y-122316200D02*
X194306400Y-122316200D01*
X190708400Y-132476200D02*
X192630000Y-132476200D01*
X193188800Y-129936200D02*
X201215200Y-121909800D01*
D14*
X213822800Y-115051800D02*
X213866800Y-115095800D01*
D13*
X194306400Y-122316200D02*
X198116400Y-118506200D01*
D14*
X190708400Y-114696200D02*
X194662000Y-114696200D01*
D13*
X201266000Y-121909800D02*
X212594400Y-121909800D01*
X193138000Y-131968200D02*
X202028000Y-123078200D01*
X200351600Y-120792200D02*
X212848400Y-120792200D01*
X194204800Y-124856200D02*
X199386400Y-119674600D01*
X193747600Y-127396200D02*
X200351600Y-120792200D01*
X192630000Y-132476200D02*
X193138000Y-131968200D01*
X195220800Y-116271000D02*
X212941800Y-116271000D01*
X180557000Y-127148400D02*
X171667000Y-136038400D01*
X178474200Y-142845600D02*
X160753201Y-142845600D01*
X181065000Y-126640400D02*
X180557000Y-127148400D01*
X182986600Y-141880400D02*
X179439400Y-141880400D01*
X180506200Y-129180400D02*
X172479800Y-137206800D01*
X182986600Y-131720400D02*
X179947400Y-131720400D01*
X172429000Y-137206800D02*
X161100600Y-137206800D01*
X182986600Y-139340400D02*
X179490200Y-139340400D01*
X179439400Y-141880400D02*
X178474200Y-142845600D01*
X175578599Y-140610400D02*
X160846600Y-140610400D01*
X171667000Y-136038400D02*
X160795800Y-136038400D01*
D14*
X182986600Y-144420400D02*
X179033000Y-144420400D01*
X182986600Y-144420400D02*
X182656600Y-144090400D01*
D13*
X179490200Y-139340400D02*
X177153400Y-141677200D01*
X179388600Y-136800400D02*
X175578599Y-140610400D01*
X179947400Y-131720400D02*
X173343400Y-138324400D01*
X173343400Y-138324400D02*
X160846600Y-138324400D01*
X183291400Y-129180400D02*
X180455400Y-129180400D01*
X177153400Y-141677200D02*
X160795800Y-141677200D01*
X182986600Y-134260399D02*
X179490200Y-134260400D01*
X182986600Y-126640400D02*
X181065000Y-126640400D01*
X182986600Y-136800401D02*
X179388600Y-136800400D01*
D14*
X179033000Y-144420400D02*
X178677400Y-144064801D01*
X159872200Y-144064800D02*
X159828200Y-144020800D01*
D13*
X179490200Y-134260400D02*
X174308600Y-139442000D01*
X174308600Y-139442000D02*
X160846600Y-139442000D01*
D14*
X178677400Y-144064801D02*
X159872200Y-144064800D01*
D13*
X123956800Y-124870800D02*
X127453200Y-124870800D01*
X126437200Y-129950800D02*
X134463600Y-121924400D01*
X127554800Y-122330800D02*
X131364800Y-118520800D01*
X131364800Y-118520800D02*
X146096800Y-118520800D01*
X125878400Y-132490800D02*
X126386400Y-131982800D01*
X127504000Y-117250800D02*
X128469200Y-116285600D01*
X123956800Y-119790800D02*
X127453200Y-119790800D01*
X134514400Y-121924400D02*
X145842800Y-121924400D01*
X128469200Y-116285600D02*
X146190200Y-116285600D01*
D14*
X147071200Y-115066400D02*
X147115200Y-115110400D01*
D13*
X127453200Y-119790800D02*
X129790000Y-117454000D01*
X135276400Y-123092800D02*
X146147600Y-123092800D01*
X126996000Y-127410800D02*
X133600000Y-120806800D01*
X133600000Y-120806800D02*
X146096800Y-120806800D01*
X127453200Y-124870800D02*
X132634800Y-119689200D01*
X123956800Y-122330800D02*
X127554800Y-122330800D01*
X129790000Y-117454000D02*
X146147600Y-117454000D01*
D14*
X128266000Y-115066400D02*
X147071200Y-115066400D01*
X123956800Y-114710800D02*
X127910400Y-114710800D01*
X127910400Y-114710800D02*
X128266000Y-115066400D01*
D13*
X123652000Y-129950800D02*
X126488000Y-129950800D01*
D14*
X123956800Y-114710800D02*
X124286800Y-115040800D01*
D13*
X126386400Y-131982800D02*
X135276400Y-123092800D01*
X123956800Y-117250800D02*
X127504000Y-117250800D01*
X123956800Y-127410800D02*
X126996000Y-127410800D01*
X123956800Y-132490800D02*
X125878400Y-132490800D01*
X132634800Y-119689200D02*
X146096800Y-119689200D01*
X149311600Y-126640400D02*
X147390000Y-126640400D01*
X139668400Y-138324400D02*
X127171600Y-138324400D01*
X149311600Y-131720400D02*
X146272400Y-131720400D01*
X146272400Y-131720400D02*
X139668400Y-138324400D01*
X149311600Y-139340400D02*
X145815200Y-139340400D01*
X145764400Y-141880400D02*
X144799200Y-142845600D01*
X137992000Y-136038400D02*
X127120800Y-136038400D01*
X149616400Y-129180400D02*
X146780400Y-129180400D01*
X141903599Y-140610400D02*
X127171600Y-140610400D01*
X138754000Y-137206800D02*
X127425600Y-137206800D01*
X147390000Y-126640400D02*
X146882000Y-127148400D01*
X149311600Y-134260399D02*
X145815200Y-134260400D01*
D14*
X149311600Y-144420400D02*
X148981600Y-144090400D01*
D13*
X146882000Y-127148400D02*
X137992000Y-136038400D01*
X149311600Y-136800401D02*
X145713600Y-136800400D01*
X145815200Y-134260400D02*
X140633600Y-139442000D01*
D14*
X126197200Y-144064800D02*
X126153200Y-144020800D01*
D13*
X145815200Y-139340400D02*
X143478400Y-141677200D01*
X146831200Y-129180400D02*
X138804800Y-137206800D01*
X145713600Y-136800400D02*
X141903599Y-140610400D01*
X140633600Y-139442000D02*
X127171600Y-139442000D01*
D14*
X149311600Y-144420400D02*
X145358000Y-144420400D01*
D13*
X149311600Y-141880400D02*
X145764400Y-141880400D01*
X144799200Y-142845600D02*
X127078201Y-142845600D01*
D14*
X145002400Y-144064801D02*
X126197200Y-144064800D01*
X145358000Y-144420400D02*
X145002400Y-144064801D01*
D13*
X143478400Y-141677200D02*
X127120800Y-141677200D01*
D14*
X93120600Y-144079400D02*
X93076600Y-144035400D01*
D13*
X113195800Y-131735000D02*
X106591800Y-138339000D01*
X113805400Y-127163000D02*
X104915400Y-136053000D01*
X116235000Y-126655000D02*
X114313400Y-126655000D01*
X112637000Y-136815000D02*
X108826999Y-140625000D01*
X113754600Y-129195000D02*
X105728200Y-137221400D01*
X116235000Y-134274999D02*
X112738600Y-134275000D01*
X111722600Y-142860200D02*
X94001601Y-142860200D01*
X112687800Y-141895000D02*
X111722600Y-142860200D01*
X112738600Y-139355000D02*
X110401800Y-141691800D01*
X106591800Y-138339000D02*
X94095000Y-138339000D01*
X116235000Y-131735000D02*
X113195800Y-131735000D01*
X107557000Y-139456600D02*
X94095000Y-139456600D01*
X116235000Y-139355000D02*
X112738600Y-139355000D01*
D14*
X116235000Y-144435000D02*
X112281400Y-144435000D01*
D13*
X116235000Y-141895000D02*
X112687800Y-141895000D01*
X114313400Y-126655000D02*
X113805400Y-127163000D01*
X116235000Y-136815001D02*
X112637000Y-136815000D01*
D14*
X116235000Y-144435000D02*
X115905000Y-144105000D01*
D13*
X105677400Y-137221400D02*
X94349000Y-137221400D01*
X110401800Y-141691800D02*
X94044200Y-141691800D01*
X108826999Y-140625000D02*
X94095000Y-140625000D01*
X112738600Y-134275000D02*
X107557000Y-139456600D01*
X104915400Y-136053000D02*
X94044200Y-136053000D01*
D14*
X111925800Y-144079401D02*
X93120600Y-144079400D01*
X112281400Y-144435000D02*
X111925800Y-144079401D01*
D13*
X116539800Y-129195000D02*
X113703800Y-129195000D01*
%TD*%
M02*
