%TF.GenerationSoftware,KiCad,Pcbnew,(7.0.0-0)*%
%TF.CreationDate,2023-03-26T23:37:05+02:00*%
%TF.ProjectId,microsdcard_sub_panelized_wocuts,6d696372-6f73-4646-9361-72645f737562,rev?*%
%TF.SameCoordinates,Original*%
%TF.FileFunction,Soldermask,Top*%
%TF.FilePolarity,Negative*%
%FSLAX46Y46*%
G04 Gerber Fmt 4.6, Leading zero omitted, Abs format (unit mm)*
G04 Created by KiCad (PCBNEW (7.0.0-0)) date 2023-03-26 23:37:05*
%MOMM*%
%LPD*%
G01*
G04 APERTURE LIST*
%ADD10R,1.700000X1.700000*%
%ADD11O,1.700000X1.700000*%
G04 APERTURE END LIST*
D10*
%TO.C,REF\u002A\u002A*%
X157340199Y-78335399D03*
D11*
X157340199Y-80875399D03*
X157340199Y-83415399D03*
X157340199Y-85955399D03*
X157340199Y-88495399D03*
X157340199Y-91035399D03*
X157340199Y-93575399D03*
X157340199Y-96115399D03*
%TD*%
D10*
%TO.C,REF\u002A\u002A*%
X123665199Y-78335399D03*
D11*
X123665199Y-80875399D03*
X123665199Y-83415399D03*
X123665199Y-85955399D03*
X123665199Y-88495399D03*
X123665199Y-91035399D03*
X123665199Y-93575399D03*
X123665199Y-96115399D03*
%TD*%
D10*
%TO.C,REF\u002A\u002A*%
X183078199Y-107795799D03*
D11*
X183078199Y-105255799D03*
X183078199Y-102715799D03*
X183078199Y-100175799D03*
X183078199Y-97635799D03*
X183078199Y-95095799D03*
X183078199Y-92555799D03*
X183078199Y-90015799D03*
%TD*%
D10*
%TO.C,REF\u002A\u002A*%
X149403199Y-107795799D03*
D11*
X149403199Y-105255799D03*
X149403199Y-102715799D03*
X149403199Y-100175799D03*
X149403199Y-97635799D03*
X149403199Y-95095799D03*
X149403199Y-92555799D03*
X149403199Y-90015799D03*
%TD*%
D10*
%TO.C,REF\u002A\u002A*%
X116326599Y-107810399D03*
D11*
X116326599Y-105270399D03*
X116326599Y-102730399D03*
X116326599Y-100190399D03*
X116326599Y-97650399D03*
X116326599Y-95110399D03*
X116326599Y-92570399D03*
X116326599Y-90030399D03*
%TD*%
D10*
%TO.C,REF\u002A\u002A*%
X90588599Y-78349999D03*
D11*
X90588599Y-80889999D03*
X90588599Y-83429999D03*
X90588599Y-85969999D03*
X90588599Y-88509999D03*
X90588599Y-91049999D03*
X90588599Y-93589999D03*
X90588599Y-96129999D03*
%TD*%
D10*
%TO.C,REF\u002A\u002A*%
X190416799Y-78320799D03*
D11*
X190416799Y-80860799D03*
X190416799Y-83400799D03*
X190416799Y-85940799D03*
X190416799Y-88480799D03*
X190416799Y-91020799D03*
X190416799Y-93560799D03*
X190416799Y-96100799D03*
%TD*%
D10*
%TO.C,REF\u002A\u002A*%
X216154799Y-107781199D03*
D11*
X216154799Y-105241199D03*
X216154799Y-102701199D03*
X216154799Y-100161199D03*
X216154799Y-97621199D03*
X216154799Y-95081199D03*
X216154799Y-92541199D03*
X216154799Y-90001199D03*
%TD*%
D10*
%TO.C,REF\u002A\u002A*%
X90688599Y-114849999D03*
D11*
X90688599Y-117389999D03*
X90688599Y-119929999D03*
X90688599Y-122469999D03*
X90688599Y-125009999D03*
X90688599Y-127549999D03*
X90688599Y-130089999D03*
X90688599Y-132629999D03*
%TD*%
D10*
%TO.C,REF\u002A\u002A*%
X216254799Y-144281199D03*
D11*
X216254799Y-141741199D03*
X216254799Y-139201199D03*
X216254799Y-136661199D03*
X216254799Y-134121199D03*
X216254799Y-131581199D03*
X216254799Y-129041199D03*
X216254799Y-126501199D03*
%TD*%
D10*
%TO.C,REF\u002A\u002A*%
X157440199Y-114835399D03*
D11*
X157440199Y-117375399D03*
X157440199Y-119915399D03*
X157440199Y-122455399D03*
X157440199Y-124995399D03*
X157440199Y-127535399D03*
X157440199Y-130075399D03*
X157440199Y-132615399D03*
%TD*%
D10*
%TO.C,REF\u002A\u002A*%
X190516799Y-114820799D03*
D11*
X190516799Y-117360799D03*
X190516799Y-119900799D03*
X190516799Y-122440799D03*
X190516799Y-124980799D03*
X190516799Y-127520799D03*
X190516799Y-130060799D03*
X190516799Y-132600799D03*
%TD*%
D10*
%TO.C,REF\u002A\u002A*%
X183178199Y-144295799D03*
D11*
X183178199Y-141755799D03*
X183178199Y-139215799D03*
X183178199Y-136675799D03*
X183178199Y-134135799D03*
X183178199Y-131595799D03*
X183178199Y-129055799D03*
X183178199Y-126515799D03*
%TD*%
D10*
%TO.C,REF\u002A\u002A*%
X123765199Y-114835399D03*
D11*
X123765199Y-117375399D03*
X123765199Y-119915399D03*
X123765199Y-122455399D03*
X123765199Y-124995399D03*
X123765199Y-127535399D03*
X123765199Y-130075399D03*
X123765199Y-132615399D03*
%TD*%
D10*
%TO.C,REF\u002A\u002A*%
X149503199Y-144295799D03*
D11*
X149503199Y-141755799D03*
X149503199Y-139215799D03*
X149503199Y-136675799D03*
X149503199Y-134135799D03*
X149503199Y-131595799D03*
X149503199Y-129055799D03*
X149503199Y-126515799D03*
%TD*%
D10*
%TO.C,REF\u002A\u002A*%
X116426599Y-144310399D03*
D11*
X116426599Y-141770399D03*
X116426599Y-139230399D03*
X116426599Y-136690399D03*
X116426599Y-134150399D03*
X116426599Y-131610399D03*
X116426599Y-129070399D03*
X116426599Y-126530399D03*
%TD*%
M02*
