<?xml version="1.0" standalone="no"?>
 <!DOCTYPE svg PUBLIC "-//W3C//DTD SVG 1.1//EN" 
 "http://www.w3.org/Graphics/SVG/1.1/DTD/svg11.dtd"> 
<svg
  xmlns:svg="http://www.w3.org/2000/svg"
  xmlns="http://www.w3.org/2000/svg"
  xmlns:xlink="http://www.w3.org/1999/xlink"
  version="1.1"
  width="131.2926mm" height="69.9770mm" viewBox="0.0000 0.0000 131.2926 69.9770">
<title>SVG Image created as microsdcard_sub_panelized_wocuts-F_Silkscreen.svg date 2023/04/19 08:37:46 </title>
  <desc>Image generated by PCBNEW </desc>
<g style="fill:#000000; fill-opacity:1.0000;stroke:#000000; stroke-opacity:1.0000;
stroke-linecap:round; stroke-linejoin:round;"
 transform="translate(0 0) scale(1 1)">
</g>
<g style="fill:#000000; fill-opacity:0.0; 
stroke:#000000; stroke-width:0.0000; stroke-opacity:1; 
stroke-linecap:round; stroke-linejoin:round;">
</g>
<g style="fill:#F2EDA1; fill-opacity:0.0; 
stroke:#F2EDA1; stroke-width:0.0000; stroke-opacity:1; 
stroke-linecap:round; stroke-linejoin:round;">
</g>
<g style="fill:#F2EDA1; fill-opacity:0.0; 
stroke:#F2EDA1; stroke-width:0.0500; stroke-opacity:1; 
stroke-linecap:round; stroke-linejoin:round;">
<path d="M9.6766 33.4646
L7.9266 33.4646
" />
<path d="M34.6032 68.4500
L34.6032 59.0064
" />
<path d="M101.2548 31.9354
L101.2548 22.4918
" />
<path d="M24.9386 1.5542
L29.9386 1.5542
" />
<path d="M39.5032 31.9500
L34.5032 31.9500
" />
<path d="M119.8668 36.5250
L120.6168 37.2750
" />
<path d="M124.7668 1.5250
L129.7668 1.5250
" />
<path d="M106.3548 68.4354
L101.3548 68.4354
" />
<path d="M31.3402 33.4646
L31.3402 12.4592
" />
<path d="M4.9526 21.0596
L15.0110 11.0012
" />
<path d="M104.7808 21.0304
L114.8392 10.9720
" />
<path d="M109.5048 33.4354
L107.7548 33.4354
" />
<path d="M15.1110 47.5012
L30.0386 47.5012
" />
<path d="M77.5282 69.2000
L76.5282 69.2000
" />
<path d="M54.7652 0.7896
L54.7652 0.0396
" />
<path d="M121.5168 0.7750
L121.5168 0.0250
" />
<path d="M131.1684 12.4300
L126.2408 12.4300
" />
<path d="M53.0152 0.0396
L53.7652 0.7896
" />
<path d="M64.5168 48.9446
L59.5892 48.9446
" />
<path d="M39.6032 68.4500
L34.6032 68.4500
" />
<path d="M78.1782 33.4500
L77.4282 32.7000
" />
<path d="M87.5402 37.2896
L88.5402 37.2896
" />
<path d="M31.3402 12.4592
L26.4126 12.4592
" />
<path d="M44.5032 33.4500
L43.7532 32.7000
" />
<path d="M53.7652 0.7896
L54.7652 0.7896
" />
<path d="M126.2408 12.4300
L116.1824 22.4884
" />
<path d="M116.2824 58.9884
L101.3548 58.9884
" />
<path d="M90.1902 0.0396
L91.6902 1.5396
" />
<path d="M101.3548 68.4354
L101.3548 58.9918
" />
<path d="M58.0152 1.5396
L63.0152 1.5396
" />
<path d="M78.2782 69.9500
L98.1918 69.9500
" />
<path d="M71.7042 21.0450
L81.7626 10.9866
" />
<path d="M121.6168 37.2750
L121.6168 36.5250
" />
<path d="M49.5308 59.0030
L34.6032 59.0030
" />
<path d="M88.5402 36.5396
L90.2902 36.5396
" />
<path d="M31.4402 48.9592
L26.5126 48.9592
" />
<path d="M90.2902 36.5396
L91.7902 38.0396
" />
<path d="M111.3548 69.9354
L110.6048 69.1854
" />
<path d="M76.4282 32.7000
L76.4282 33.4500
" />
<path d="M9.6766 32.7146
L9.6766 33.4646
" />
<path d="M86.6902 0.0396
L66.7766 0.0396
" />
<path d="M111.2548 33.4354
L110.5048 32.6854
" />
<path d="M5.0526 57.5596
L15.1110 47.5012
" />
<path d="M6.5266 68.4646
L1.5266 68.4646
" />
<path d="M44.6032 69.9500
L64.5168 69.9500
" />
<path d="M110.5048 32.6854
L109.5048 32.6854
" />
<path d="M120.5168 0.7750
L121.5168 0.7750
" />
<path d="M87.4402 0.7896
L88.4402 0.7896
" />
<path d="M16.4542 59.0176
L1.5266 59.0176
" />
<path d="M41.1032 69.9500
L39.6032 68.4500
" />
<path d="M74.7782 69.9500
L73.2782 68.4500
" />
<path d="M54.7652 0.0396
L56.5152 0.0396
" />
<path d="M54.8652 37.2896
L54.8652 36.5396
" />
<path d="M98.1918 48.9446
L93.2642 48.9446
" />
<path d="M98.0918 33.4500
L98.0918 12.4446
" />
<path d="M129.7668 1.5250
L129.7668 10.9686
" />
<path d="M6.4266 31.9646
L1.4266 31.9646
" />
<path d="M15.0110 11.0012
L29.9386 11.0012
" />
<path d="M1.5266 68.4646
L1.5266 59.0210
" />
<path d="M64.5168 69.9500
L64.5168 48.9446
" />
<path d="M0.0250 0.0542
L0.0250 21.0596
" />
<path d="M21.7886 36.5542
L23.5386 36.5542
" />
<path d="M64.4168 33.4500
L64.4168 12.4446
" />
<path d="M126.3408 48.9300
L116.2824 58.9884
" />
<path d="M66.8766 57.5450
L71.8042 57.5450
" />
<path d="M30.0386 38.0542
L30.0386 47.4978
" />
<path d="M119.7668 0.0250
L120.5168 0.7750
" />
<path d="M114.9392 47.4720
L129.8668 47.4720
" />
<path d="M68.1782 31.9500
L68.1782 22.5064
" />
<path d="M11.4266 33.4646
L10.6766 32.7146
" />
<path d="M9.7766 69.9646
L8.0266 69.9646
" />
<path d="M114.8392 10.9720
L129.7668 10.9720
" />
<path d="M99.9532 36.5250
L99.9532 57.5304
" />
<path d="M11.5266 69.9646
L31.4402 69.9646
" />
<path d="M71.8042 57.5450
L81.8626 47.4866
" />
<path d="M91.7902 38.0396
L96.7902 38.0396
" />
<path d="M29.9386 1.5542
L29.9386 10.9978
" />
<path d="M99.8532 0.0250
L99.8532 21.0304
" />
<path d="M119.7668 0.0250
L99.8532 0.0250
" />
<path d="M31.4402 69.9646
L31.4402 48.9592
" />
<path d="M93.2642 48.9446
L83.2058 59.0030
" />
<path d="M91.6902 1.5396
L96.6902 1.5396
" />
<path d="M23.4386 0.0542
L24.9386 1.5542
" />
<path d="M25.0386 38.0542
L30.0386 38.0542
" />
<path d="M42.7532 32.7000
L42.7532 33.4500
" />
<path d="M8.0266 69.9646
L6.5266 68.4646
" />
<path d="M66.8766 36.5396
L66.8766 57.5450
" />
<path d="M76.5282 69.9500
L74.7782 69.9500
" />
<path d="M42.7532 33.4500
L41.0032 33.4500
" />
<path d="M26.5126 48.9592
L16.4542 59.0176
" />
<path d="M96.6902 1.5396
L96.6902 10.9832
" />
<path d="M59.4892 12.4446
L49.4308 22.5030
" />
<path d="M49.4308 22.5030
L34.5032 22.5030
" />
<path d="M20.0386 36.5542
L20.7886 37.3042
" />
<path d="M26.4126 12.4592
L16.3542 22.5176
" />
<path d="M109.5048 32.6854
L109.5048 33.4354
" />
<path d="M20.6886 0.8042
L21.6886 0.8042
" />
<path d="M120.6168 37.2750
L121.6168 37.2750
" />
<path d="M107.7548 33.4354
L106.2548 31.9354
" />
<path d="M123.2668 0.0250
L124.7668 1.5250
" />
<path d="M86.6902 0.0396
L87.4402 0.7896
" />
<path d="M48.1876 47.4866
L63.1152 47.4866
" />
<path d="M21.6886 0.0542
L23.4386 0.0542
" />
<path d="M56.6152 36.5396
L58.1152 38.0396
" />
<path d="M1.4266 31.9646
L1.4266 22.5210
" />
<path d="M53.1152 36.5396
L53.8652 37.2896
" />
<path d="M83.2058 59.0030
L68.2782 59.0030
" />
<path d="M129.8668 38.0250
L129.8668 47.4686
" />
<path d="M93.1642 12.4446
L83.1058 22.5030
" />
<path d="M11.4266 33.4646
L31.3402 33.4646
" />
<path d="M53.1152 36.5396
L33.2016 36.5396
" />
<path d="M23.5386 36.5542
L25.0386 38.0542
" />
<path d="M81.8626 47.4866
L96.7902 47.4866
" />
<path d="M33.2016 36.5396
L33.2016 57.5450
" />
<path d="M42.8532 69.2000
L42.8532 69.9500
" />
<path d="M73.2782 68.4500
L68.2782 68.4500
" />
<path d="M20.7886 37.3042
L21.7886 37.3042
" />
<path d="M73.1782 31.9500
L68.1782 31.9500
" />
<path d="M11.5266 69.9646
L10.7766 69.2146
" />
<path d="M86.7902 36.5396
L87.5402 37.2896
" />
<path d="M16.3542 22.5176
L1.4266 22.5176
" />
<path d="M86.7902 36.5396
L66.8766 36.5396
" />
<path d="M44.6032 69.9500
L43.8532 69.2000
" />
<path d="M43.8532 69.2000
L42.8532 69.2000
" />
<path d="M38.0292 21.0450
L48.0876 10.9866
" />
<path d="M96.7902 38.0396
L96.7902 47.4832
" />
<path d="M21.6886 0.8042
L21.6886 0.0542
" />
<path d="M104.8808 57.5304
L114.9392 47.4720
" />
<path d="M131.2684 69.9354
L131.2684 48.9300
" />
<path d="M131.2684 48.9300
L126.3408 48.9300
" />
<path d="M98.1918 69.9500
L98.1918 48.9446
" />
<path d="M88.4402 0.0396
L90.1902 0.0396
" />
<path d="M38.1292 57.5450
L48.1876 47.4866
" />
<path d="M88.4402 0.7896
L88.4402 0.0396
" />
<path d="M124.8668 38.0250
L129.8668 38.0250
" />
<path d="M33.1016 0.0396
L33.1016 21.0450
" />
<path d="M10.7766 69.2146
L9.7766 69.2146
" />
<path d="M43.7532 32.7000
L42.7532 32.7000
" />
<path d="M10.6766 32.7146
L9.6766 32.7146
" />
<path d="M121.5168 0.0250
L123.2668 0.0250
" />
<path d="M33.1016 21.0450
L38.0292 21.0450
" />
<path d="M81.7626 10.9866
L96.6902 10.9866
" />
<path d="M76.4282 33.4500
L74.6782 33.4500
" />
<path d="M119.8668 36.5250
L99.9532 36.5250
" />
<path d="M99.9532 57.5304
L104.8808 57.5304
" />
<path d="M64.4168 12.4446
L59.4892 12.4446
" />
<path d="M66.7766 21.0450
L71.7042 21.0450
" />
<path d="M110.6048 69.1854
L109.6048 69.1854
" />
<path d="M33.2016 57.5450
L38.1292 57.5450
" />
<path d="M78.1782 33.4500
L98.0918 33.4500
" />
<path d="M56.5152 0.0396
L58.0152 1.5396
" />
<path d="M34.5032 31.9500
L34.5032 22.5064
" />
<path d="M48.0876 10.9866
L63.0152 10.9866
" />
<path d="M7.9266 33.4646
L6.4266 31.9646
" />
<path d="M121.6168 36.5250
L123.3668 36.5250
" />
<path d="M63.0152 1.5396
L63.0152 10.9832
" />
<path d="M0.0250 21.0596
L4.9526 21.0596
" />
<path d="M99.8532 21.0304
L104.7808 21.0304
" />
<path d="M74.6782 33.4500
L73.1782 31.9500
" />
<path d="M109.6048 69.9354
L107.8548 69.9354
" />
<path d="M98.0918 12.4446
L93.1642 12.4446
" />
<path d="M116.1824 22.4884
L101.2548 22.4884
" />
<path d="M42.8532 69.9500
L41.1032 69.9500
" />
<path d="M53.8652 37.2896
L54.8652 37.2896
" />
<path d="M123.3668 36.5250
L124.8668 38.0250
" />
<path d="M63.1152 38.0396
L63.1152 47.4832
" />
<path d="M44.5032 33.4500
L64.4168 33.4500
" />
<path d="M0.1250 36.5542
L0.1250 57.5596
" />
<path d="M76.5282 69.2000
L76.5282 69.9500
" />
<path d="M111.2548 33.4354
L131.1684 33.4354
" />
<path d="M19.9386 0.0542
L20.6886 0.8042
" />
<path d="M106.2548 31.9354
L101.2548 31.9354
" />
<path d="M66.7766 0.0396
L66.7766 21.0450
" />
<path d="M109.6048 69.1854
L109.6048 69.9354
" />
<path d="M21.7886 37.3042
L21.7886 36.5542
" />
<path d="M20.0386 36.5542
L0.1250 36.5542
" />
<path d="M107.8548 69.9354
L106.3548 68.4354
" />
<path d="M131.1684 33.4354
L131.1684 12.4300
" />
<path d="M53.0152 0.0396
L33.1016 0.0396
" />
<path d="M59.5892 48.9446
L49.5308 59.0030
" />
<path d="M78.2782 69.9500
L77.5282 69.2000
" />
<path d="M19.9386 0.0542
L0.0250 0.0542
" />
<path d="M58.1152 38.0396
L63.1152 38.0396
" />
<path d="M41.0032 33.4500
L39.5032 31.9500
" />
<path d="M88.5402 37.2896
L88.5402 36.5396
" />
<path d="M54.8652 36.5396
L56.6152 36.5396
" />
<path d="M83.1058 22.5030
L68.1782 22.5030
" />
<path d="M9.7766 69.2146
L9.7766 69.9646
" />
<path d="M111.3548 69.9354
L131.2684 69.9354
" />
<path d="M68.2782 68.4500
L68.2782 59.0064
" />
<path d="M0.1250 57.5596
L5.0526 57.5596
" />
<path d="M77.4282 32.7000
L76.4282 32.7000
" />
</g>
<g style="fill:#F2EDA1; fill-opacity:0.0; 
stroke:#F2EDA1; stroke-width:0.1500; stroke-opacity:1; 
stroke-linecap:round; stroke-linejoin:round;">
<text x="95.3032" y="34.3050"
textLength="4.4607" font-size="1.3333" lengthAdjust="spacingAndGlyphs"
text-anchor="middle" opacity="0">REF**</text>
<g class="stroked-text"><desc>REF**</desc>
<path d="M93.9699 34.1724
L93.6365 33.6962
" />
<path d="M93.3984 34.1724
L93.3984 33.1724
" />
<path d="M93.3984 33.1724
L93.7794 33.1724
" />
<path d="M93.7794 33.1724
L93.8746 33.2200
" />
<path d="M93.8746 33.2200
L93.9222 33.2676
" />
<path d="M93.9222 33.2676
L93.9699 33.3629
" />
<path d="M93.9699 33.3629
L93.9699 33.5057
" />
<path d="M93.9699 33.5057
L93.9222 33.6010
" />
<path d="M93.9222 33.6010
L93.8746 33.6486
" />
<path d="M93.8746 33.6486
L93.7794 33.6962
" />
<path d="M93.7794 33.6962
L93.3984 33.6962
" />
<path d="M94.3984 33.6486
L94.7318 33.6486
" />
<path d="M94.8746 34.1724
L94.3984 34.1724
" />
<path d="M94.3984 34.1724
L94.3984 33.1724
" />
<path d="M94.3984 33.1724
L94.8746 33.1724
" />
<path d="M95.6365 33.6486
L95.3032 33.6486
" />
<path d="M95.3032 34.1724
L95.3032 33.1724
" />
<path d="M95.3032 33.1724
L95.7794 33.1724
" />
<path d="M96.3032 33.1724
L96.3032 33.4105
" />
<path d="M96.0651 33.3152
L96.3032 33.4105
" />
<path d="M96.3032 33.4105
L96.5413 33.3152
" />
<path d="M96.1603 33.6010
L96.3032 33.4105
" />
<path d="M96.3032 33.4105
L96.4461 33.6010
" />
<path d="M97.0651 33.1724
L97.0651 33.4105
" />
<path d="M96.8270 33.3152
L97.0651 33.4105
" />
<path d="M97.0651 33.4105
L97.3032 33.3152
" />
<path d="M96.9222 33.6010
L97.0651 33.4105
" />
<path d="M97.0651 33.4105
L97.2080 33.6010
" />
</g><text x="35.8902" y="0.1846"
textLength="4.4607" font-size="1.3333" lengthAdjust="spacingAndGlyphs"
text-anchor="middle" opacity="0">REF**</text>
<g class="stroked-text"><desc>REF**</desc>
<path d="M34.5569 0.0520
L34.2235 -0.4242
" />
<path d="M33.9854 0.0520
L33.9854 -0.9480
" />
<path d="M33.9854 -0.9480
L34.3664 -0.9480
" />
<path d="M34.3664 -0.9480
L34.4616 -0.9004
" />
<path d="M34.4616 -0.9004
L34.5092 -0.8528
" />
<path d="M34.5092 -0.8528
L34.5569 -0.7575
" />
<path d="M34.5569 -0.7575
L34.5569 -0.6147
" />
<path d="M34.5569 -0.6147
L34.5092 -0.5194
" />
<path d="M34.5092 -0.5194
L34.4616 -0.4718
" />
<path d="M34.4616 -0.4718
L34.3664 -0.4242
" />
<path d="M34.3664 -0.4242
L33.9854 -0.4242
" />
<path d="M34.9854 -0.4718
L35.3188 -0.4718
" />
<path d="M35.4616 0.0520
L34.9854 0.0520
" />
<path d="M34.9854 0.0520
L34.9854 -0.9480
" />
<path d="M34.9854 -0.9480
L35.4616 -0.9480
" />
<path d="M36.2235 -0.4718
L35.8902 -0.4718
" />
<path d="M35.8902 0.0520
L35.8902 -0.9480
" />
<path d="M35.8902 -0.9480
L36.3664 -0.9480
" />
<path d="M36.8902 -0.9480
L36.8902 -0.7099
" />
<path d="M36.6521 -0.8052
L36.8902 -0.7099
" />
<path d="M36.8902 -0.7099
L37.1283 -0.8052
" />
<path d="M36.7473 -0.5194
L36.8902 -0.7099
" />
<path d="M36.8902 -0.7099
L37.0331 -0.5194
" />
<path d="M37.6521 -0.9480
L37.6521 -0.7099
" />
<path d="M37.4140 -0.8052
L37.6521 -0.7099
" />
<path d="M37.6521 -0.7099
L37.8902 -0.8052
" />
<path d="M37.5092 -0.5194
L37.6521 -0.7099
" />
<path d="M37.6521 -0.7099
L37.7950 -0.5194
" />
</g><text x="69.6652" y="36.6846"
textLength="4.4607" font-size="1.3333" lengthAdjust="spacingAndGlyphs"
text-anchor="middle" opacity="0">REF**</text>
<g class="stroked-text"><desc>REF**</desc>
<path d="M68.3319 36.5520
L67.9985 36.0758
" />
<path d="M67.7604 36.5520
L67.7604 35.5520
" />
<path d="M67.7604 35.5520
L68.1414 35.5520
" />
<path d="M68.1414 35.5520
L68.2366 35.5996
" />
<path d="M68.2366 35.5996
L68.2842 35.6472
" />
<path d="M68.2842 35.6472
L68.3319 35.7425
" />
<path d="M68.3319 35.7425
L68.3319 35.8853
" />
<path d="M68.3319 35.8853
L68.2842 35.9806
" />
<path d="M68.2842 35.9806
L68.2366 36.0282
" />
<path d="M68.2366 36.0282
L68.1414 36.0758
" />
<path d="M68.1414 36.0758
L67.7604 36.0758
" />
<path d="M68.7604 36.0282
L69.0938 36.0282
" />
<path d="M69.2366 36.5520
L68.7604 36.5520
" />
<path d="M68.7604 36.5520
L68.7604 35.5520
" />
<path d="M68.7604 35.5520
L69.2366 35.5520
" />
<path d="M69.9985 36.0282
L69.6652 36.0282
" />
<path d="M69.6652 36.5520
L69.6652 35.5520
" />
<path d="M69.6652 35.5520
L70.1414 35.5520
" />
<path d="M70.6652 35.5520
L70.6652 35.7901
" />
<path d="M70.4271 35.6948
L70.6652 35.7901
" />
<path d="M70.6652 35.7901
L70.9033 35.6948
" />
<path d="M70.5223 35.9806
L70.6652 35.7901
" />
<path d="M70.6652 35.7901
L70.8081 35.9806
" />
<path d="M71.4271 35.5520
L71.4271 35.7901
" />
<path d="M71.1890 35.6948
L71.4271 35.7901
" />
<path d="M71.4271 35.7901
L71.6652 35.6948
" />
<path d="M71.2842 35.9806
L71.4271 35.7901
" />
<path d="M71.4271 35.7901
L71.5700 35.9806
" />
</g><text x="102.6418" y="0.1700"
textLength="4.4607" font-size="1.3333" lengthAdjust="spacingAndGlyphs"
text-anchor="middle" opacity="0">REF**</text>
<g class="stroked-text"><desc>REF**</desc>
<path d="M101.3085 0.0374
L100.9751 -0.4388
" />
<path d="M100.7370 0.0374
L100.7370 -0.9626
" />
<path d="M100.7370 -0.9626
L101.1180 -0.9626
" />
<path d="M101.1180 -0.9626
L101.2132 -0.9150
" />
<path d="M101.2132 -0.9150
L101.2608 -0.8674
" />
<path d="M101.2608 -0.8674
L101.3085 -0.7721
" />
<path d="M101.3085 -0.7721
L101.3085 -0.6293
" />
<path d="M101.3085 -0.6293
L101.2608 -0.5340
" />
<path d="M101.2608 -0.5340
L101.2132 -0.4864
" />
<path d="M101.2132 -0.4864
L101.1180 -0.4388
" />
<path d="M101.1180 -0.4388
L100.7370 -0.4388
" />
<path d="M101.7370 -0.4864
L102.0704 -0.4864
" />
<path d="M102.2132 0.0374
L101.7370 0.0374
" />
<path d="M101.7370 0.0374
L101.7370 -0.9626
" />
<path d="M101.7370 -0.9626
L102.2132 -0.9626
" />
<path d="M102.9751 -0.4864
L102.6418 -0.4864
" />
<path d="M102.6418 0.0374
L102.6418 -0.9626
" />
<path d="M102.6418 -0.9626
L103.1180 -0.9626
" />
<path d="M103.6418 -0.9626
L103.6418 -0.7245
" />
<path d="M103.4037 -0.8198
L103.6418 -0.7245
" />
<path d="M103.6418 -0.7245
L103.8799 -0.8198
" />
<path d="M103.4989 -0.5340
L103.6418 -0.7245
" />
<path d="M103.6418 -0.7245
L103.7847 -0.5340
" />
<path d="M104.4037 -0.9626
L104.4037 -0.7245
" />
<path d="M104.1656 -0.8198
L104.4037 -0.7245
" />
<path d="M104.4037 -0.7245
L104.6418 -0.8198
" />
<path d="M104.2608 -0.5340
L104.4037 -0.7245
" />
<path d="M104.4037 -0.7245
L104.5466 -0.5340
" />
</g><text x="28.6516" y="70.8196"
textLength="4.4607" font-size="1.3333" lengthAdjust="spacingAndGlyphs"
text-anchor="middle" opacity="0">REF**</text>
<g class="stroked-text"><desc>REF**</desc>
<path d="M27.3183 70.6870
L26.9849 70.2108
" />
<path d="M26.7468 70.6870
L26.7468 69.6870
" />
<path d="M26.7468 69.6870
L27.1278 69.6870
" />
<path d="M27.1278 69.6870
L27.2230 69.7346
" />
<path d="M27.2230 69.7346
L27.2706 69.7822
" />
<path d="M27.2706 69.7822
L27.3183 69.8775
" />
<path d="M27.3183 69.8775
L27.3183 70.0203
" />
<path d="M27.3183 70.0203
L27.2706 70.1156
" />
<path d="M27.2706 70.1156
L27.2230 70.1632
" />
<path d="M27.2230 70.1632
L27.1278 70.2108
" />
<path d="M27.1278 70.2108
L26.7468 70.2108
" />
<path d="M27.7468 70.1632
L28.0802 70.1632
" />
<path d="M28.2230 70.6870
L27.7468 70.6870
" />
<path d="M27.7468 70.6870
L27.7468 69.6870
" />
<path d="M27.7468 69.6870
L28.2230 69.6870
" />
<path d="M28.9849 70.1632
L28.6516 70.1632
" />
<path d="M28.6516 70.6870
L28.6516 69.6870
" />
<path d="M28.6516 69.6870
L29.1278 69.6870
" />
<path d="M29.6516 69.6870
L29.6516 69.9251
" />
<path d="M29.4135 69.8298
L29.6516 69.9251
" />
<path d="M29.6516 69.9251
L29.8897 69.8298
" />
<path d="M29.5087 70.1156
L29.6516 69.9251
" />
<path d="M29.6516 69.9251
L29.7945 70.1156
" />
<path d="M30.4135 69.6870
L30.4135 69.9251
" />
<path d="M30.1754 69.8298
L30.4135 69.9251
" />
<path d="M30.4135 69.9251
L30.6516 69.8298
" />
<path d="M30.2706 70.1156
L30.4135 69.9251
" />
<path d="M30.4135 69.9251
L30.5564 70.1156
" />
</g><text x="128.4798" y="70.7904"
textLength="4.4607" font-size="1.3333" lengthAdjust="spacingAndGlyphs"
text-anchor="middle" opacity="0">REF**</text>
<g class="stroked-text"><desc>REF**</desc>
<path d="M127.1465 70.6578
L126.8131 70.1816
" />
<path d="M126.5750 70.6578
L126.5750 69.6578
" />
<path d="M126.5750 69.6578
L126.9560 69.6578
" />
<path d="M126.9560 69.6578
L127.0512 69.7054
" />
<path d="M127.0512 69.7054
L127.0988 69.7530
" />
<path d="M127.0988 69.7530
L127.1465 69.8483
" />
<path d="M127.1465 69.8483
L127.1465 69.9911
" />
<path d="M127.1465 69.9911
L127.0988 70.0864
" />
<path d="M127.0988 70.0864
L127.0512 70.1340
" />
<path d="M127.0512 70.1340
L126.9560 70.1816
" />
<path d="M126.9560 70.1816
L126.5750 70.1816
" />
<path d="M127.5750 70.1340
L127.9084 70.1340
" />
<path d="M128.0512 70.6578
L127.5750 70.6578
" />
<path d="M127.5750 70.6578
L127.5750 69.6578
" />
<path d="M127.5750 69.6578
L128.0512 69.6578
" />
<path d="M128.8131 70.1340
L128.4798 70.1340
" />
<path d="M128.4798 70.6578
L128.4798 69.6578
" />
<path d="M128.4798 69.6578
L128.9560 69.6578
" />
<path d="M129.4798 69.6578
L129.4798 69.8959
" />
<path d="M129.2417 69.8006
L129.4798 69.8959
" />
<path d="M129.4798 69.8959
L129.7179 69.8006
" />
<path d="M129.3369 70.0864
L129.4798 69.8959
" />
<path d="M129.4798 69.8959
L129.6227 70.0864
" />
<path d="M130.2417 69.6578
L130.2417 69.8959
" />
<path d="M130.0036 69.8006
L130.2417 69.8959
" />
<path d="M130.2417 69.8959
L130.4798 69.8006
" />
<path d="M130.0988 70.0864
L130.2417 69.8959
" />
<path d="M130.2417 69.8959
L130.3846 70.0864
" />
</g><text x="2.9136" y="36.6992"
textLength="4.4607" font-size="1.3333" lengthAdjust="spacingAndGlyphs"
text-anchor="middle" opacity="0">REF**</text>
<g class="stroked-text"><desc>REF**</desc>
<path d="M1.5803 36.5666
L1.2469 36.0904
" />
<path d="M1.0088 36.5666
L1.0088 35.5666
" />
<path d="M1.0088 35.5666
L1.3898 35.5666
" />
<path d="M1.3898 35.5666
L1.4850 35.6142
" />
<path d="M1.4850 35.6142
L1.5326 35.6618
" />
<path d="M1.5326 35.6618
L1.5803 35.7571
" />
<path d="M1.5803 35.7571
L1.5803 35.8999
" />
<path d="M1.5803 35.8999
L1.5326 35.9952
" />
<path d="M1.5326 35.9952
L1.4850 36.0428
" />
<path d="M1.4850 36.0428
L1.3898 36.0904
" />
<path d="M1.3898 36.0904
L1.0088 36.0904
" />
<path d="M2.0088 36.0428
L2.3422 36.0428
" />
<path d="M2.4850 36.5666
L2.0088 36.5666
" />
<path d="M2.0088 36.5666
L2.0088 35.5666
" />
<path d="M2.0088 35.5666
L2.4850 35.5666
" />
<path d="M3.2469 36.0428
L2.9136 36.0428
" />
<path d="M2.9136 36.5666
L2.9136 35.5666
" />
<path d="M2.9136 35.5666
L3.3898 35.5666
" />
<path d="M3.9136 35.5666
L3.9136 35.8047
" />
<path d="M3.6755 35.7094
L3.9136 35.8047
" />
<path d="M3.9136 35.8047
L4.1517 35.7094
" />
<path d="M3.7707 35.9952
L3.9136 35.8047
" />
<path d="M3.9136 35.8047
L4.0565 35.9952
" />
<path d="M4.6755 35.5666
L4.6755 35.8047
" />
<path d="M4.4374 35.7094
L4.6755 35.8047
" />
<path d="M4.6755 35.8047
L4.9136 35.7094
" />
<path d="M4.5326 35.9952
L4.6755 35.8047
" />
<path d="M4.6755 35.8047
L4.8184 35.9952
" />
</g><text x="61.6282" y="34.3050"
textLength="4.4607" font-size="1.3333" lengthAdjust="spacingAndGlyphs"
text-anchor="middle" opacity="0">REF**</text>
<g class="stroked-text"><desc>REF**</desc>
<path d="M60.2949 34.1724
L59.9615 33.6962
" />
<path d="M59.7234 34.1724
L59.7234 33.1724
" />
<path d="M59.7234 33.1724
L60.1044 33.1724
" />
<path d="M60.1044 33.1724
L60.1996 33.2200
" />
<path d="M60.1996 33.2200
L60.2472 33.2676
" />
<path d="M60.2472 33.2676
L60.2949 33.3629
" />
<path d="M60.2949 33.3629
L60.2949 33.5057
" />
<path d="M60.2949 33.5057
L60.2472 33.6010
" />
<path d="M60.2472 33.6010
L60.1996 33.6486
" />
<path d="M60.1996 33.6486
L60.1044 33.6962
" />
<path d="M60.1044 33.6962
L59.7234 33.6962
" />
<path d="M60.7234 33.6486
L61.0568 33.6486
" />
<path d="M61.1996 34.1724
L60.7234 34.1724
" />
<path d="M60.7234 34.1724
L60.7234 33.1724
" />
<path d="M60.7234 33.1724
L61.1996 33.1724
" />
<path d="M61.9615 33.6486
L61.6282 33.6486
" />
<path d="M61.6282 34.1724
L61.6282 33.1724
" />
<path d="M61.6282 33.1724
L62.1044 33.1724
" />
<path d="M62.6282 33.1724
L62.6282 33.4105
" />
<path d="M62.3901 33.3152
L62.6282 33.4105
" />
<path d="M62.6282 33.4105
L62.8663 33.3152
" />
<path d="M62.4853 33.6010
L62.6282 33.4105
" />
<path d="M62.6282 33.4105
L62.7711 33.6010
" />
<path d="M63.3901 33.1724
L63.3901 33.4105
" />
<path d="M63.1520 33.3152
L63.3901 33.4105
" />
<path d="M63.3901 33.4105
L63.6282 33.3152
" />
<path d="M63.2472 33.6010
L63.3901 33.4105
" />
<path d="M63.3901 33.4105
L63.5330 33.6010
" />
</g><text x="95.4032" y="70.8050"
textLength="4.4607" font-size="1.3333" lengthAdjust="spacingAndGlyphs"
text-anchor="middle" opacity="0">REF**</text>
<g class="stroked-text"><desc>REF**</desc>
<path d="M94.0699 70.6724
L93.7365 70.1962
" />
<path d="M93.4984 70.6724
L93.4984 69.6724
" />
<path d="M93.4984 69.6724
L93.8794 69.6724
" />
<path d="M93.8794 69.6724
L93.9746 69.7200
" />
<path d="M93.9746 69.7200
L94.0222 69.7676
" />
<path d="M94.0222 69.7676
L94.0699 69.8629
" />
<path d="M94.0699 69.8629
L94.0699 70.0057
" />
<path d="M94.0699 70.0057
L94.0222 70.1010
" />
<path d="M94.0222 70.1010
L93.9746 70.1486
" />
<path d="M93.9746 70.1486
L93.8794 70.1962
" />
<path d="M93.8794 70.1962
L93.4984 70.1962
" />
<path d="M94.4984 70.1486
L94.8318 70.1486
" />
<path d="M94.9746 70.6724
L94.4984 70.6724
" />
<path d="M94.4984 70.6724
L94.4984 69.6724
" />
<path d="M94.4984 69.6724
L94.9746 69.6724
" />
<path d="M95.7365 70.1486
L95.4032 70.1486
" />
<path d="M95.4032 70.6724
L95.4032 69.6724
" />
<path d="M95.4032 69.6724
L95.8794 69.6724
" />
<path d="M96.4032 69.6724
L96.4032 69.9105
" />
<path d="M96.1651 69.8152
L96.4032 69.9105
" />
<path d="M96.4032 69.9105
L96.6413 69.8152
" />
<path d="M96.2603 70.1010
L96.4032 69.9105
" />
<path d="M96.4032 69.9105
L96.5461 70.1010
" />
<path d="M97.1651 69.6724
L97.1651 69.9105
" />
<path d="M96.9270 69.8152
L97.1651 69.9105
" />
<path d="M97.1651 69.9105
L97.4032 69.8152
" />
<path d="M97.0222 70.1010
L97.1651 69.9105
" />
<path d="M97.1651 69.9105
L97.3080 70.1010
" />
</g><text x="69.5652" y="0.1846"
textLength="4.4607" font-size="1.3333" lengthAdjust="spacingAndGlyphs"
text-anchor="middle" opacity="0">REF**</text>
<g class="stroked-text"><desc>REF**</desc>
<path d="M68.2319 0.0520
L67.8985 -0.4242
" />
<path d="M67.6604 0.0520
L67.6604 -0.9480
" />
<path d="M67.6604 -0.9480
L68.0414 -0.9480
" />
<path d="M68.0414 -0.9480
L68.1366 -0.9004
" />
<path d="M68.1366 -0.9004
L68.1842 -0.8528
" />
<path d="M68.1842 -0.8528
L68.2319 -0.7575
" />
<path d="M68.2319 -0.7575
L68.2319 -0.6147
" />
<path d="M68.2319 -0.6147
L68.1842 -0.5194
" />
<path d="M68.1842 -0.5194
L68.1366 -0.4718
" />
<path d="M68.1366 -0.4718
L68.0414 -0.4242
" />
<path d="M68.0414 -0.4242
L67.6604 -0.4242
" />
<path d="M68.6604 -0.4718
L68.9938 -0.4718
" />
<path d="M69.1366 0.0520
L68.6604 0.0520
" />
<path d="M68.6604 0.0520
L68.6604 -0.9480
" />
<path d="M68.6604 -0.9480
L69.1366 -0.9480
" />
<path d="M69.8985 -0.4718
L69.5652 -0.4718
" />
<path d="M69.5652 0.0520
L69.5652 -0.9480
" />
<path d="M69.5652 -0.9480
L70.0414 -0.9480
" />
<path d="M70.5652 -0.9480
L70.5652 -0.7099
" />
<path d="M70.3271 -0.8052
L70.5652 -0.7099
" />
<path d="M70.5652 -0.7099
L70.8033 -0.8052
" />
<path d="M70.4223 -0.5194
L70.5652 -0.7099
" />
<path d="M70.5652 -0.7099
L70.7081 -0.5194
" />
<path d="M71.3271 -0.9480
L71.3271 -0.7099
" />
<path d="M71.0890 -0.8052
L71.3271 -0.7099
" />
<path d="M71.3271 -0.7099
L71.5652 -0.8052
" />
<path d="M71.1842 -0.5194
L71.3271 -0.7099
" />
<path d="M71.3271 -0.7099
L71.4700 -0.5194
" />
</g><text x="2.8136" y="0.1992"
textLength="4.4607" font-size="1.3333" lengthAdjust="spacingAndGlyphs"
text-anchor="middle" opacity="0">REF**</text>
<g class="stroked-text"><desc>REF**</desc>
<path d="M1.4803 0.0666
L1.1469 -0.4096
" />
<path d="M0.9088 0.0666
L0.9088 -0.9334
" />
<path d="M0.9088 -0.9334
L1.2898 -0.9334
" />
<path d="M1.2898 -0.9334
L1.3850 -0.8858
" />
<path d="M1.3850 -0.8858
L1.4326 -0.8382
" />
<path d="M1.4326 -0.8382
L1.4803 -0.7429
" />
<path d="M1.4803 -0.7429
L1.4803 -0.6001
" />
<path d="M1.4803 -0.6001
L1.4326 -0.5048
" />
<path d="M1.4326 -0.5048
L1.3850 -0.4572
" />
<path d="M1.3850 -0.4572
L1.2898 -0.4096
" />
<path d="M1.2898 -0.4096
L0.9088 -0.4096
" />
<path d="M1.9088 -0.4572
L2.2422 -0.4572
" />
<path d="M2.3850 0.0666
L1.9088 0.0666
" />
<path d="M1.9088 0.0666
L1.9088 -0.9334
" />
<path d="M1.9088 -0.9334
L2.3850 -0.9334
" />
<path d="M3.1469 -0.4572
L2.8136 -0.4572
" />
<path d="M2.8136 0.0666
L2.8136 -0.9334
" />
<path d="M2.8136 -0.9334
L3.2898 -0.9334
" />
<path d="M3.8136 -0.9334
L3.8136 -0.6953
" />
<path d="M3.5755 -0.7906
L3.8136 -0.6953
" />
<path d="M3.8136 -0.6953
L4.0517 -0.7906
" />
<path d="M3.6707 -0.5048
L3.8136 -0.6953
" />
<path d="M3.8136 -0.6953
L3.9565 -0.5048
" />
<path d="M4.5755 -0.9334
L4.5755 -0.6953
" />
<path d="M4.3374 -0.7906
L4.5755 -0.6953
" />
<path d="M4.5755 -0.6953
L4.8136 -0.7906
" />
<path d="M4.4326 -0.5048
L4.5755 -0.6953
" />
<path d="M4.5755 -0.6953
L4.7184 -0.5048
" />
</g><text x="28.5516" y="34.3196"
textLength="4.4607" font-size="1.3333" lengthAdjust="spacingAndGlyphs"
text-anchor="middle" opacity="0">REF**</text>
<g class="stroked-text"><desc>REF**</desc>
<path d="M27.2183 34.1870
L26.8849 33.7108
" />
<path d="M26.6468 34.1870
L26.6468 33.1870
" />
<path d="M26.6468 33.1870
L27.0278 33.1870
" />
<path d="M27.0278 33.1870
L27.1230 33.2346
" />
<path d="M27.1230 33.2346
L27.1706 33.2822
" />
<path d="M27.1706 33.2822
L27.2183 33.3775
" />
<path d="M27.2183 33.3775
L27.2183 33.5203
" />
<path d="M27.2183 33.5203
L27.1706 33.6156
" />
<path d="M27.1706 33.6156
L27.1230 33.6632
" />
<path d="M27.1230 33.6632
L27.0278 33.7108
" />
<path d="M27.0278 33.7108
L26.6468 33.7108
" />
<path d="M27.6468 33.6632
L27.9802 33.6632
" />
<path d="M28.1230 34.1870
L27.6468 34.1870
" />
<path d="M27.6468 34.1870
L27.6468 33.1870
" />
<path d="M27.6468 33.1870
L28.1230 33.1870
" />
<path d="M28.8849 33.6632
L28.5516 33.6632
" />
<path d="M28.5516 34.1870
L28.5516 33.1870
" />
<path d="M28.5516 33.1870
L29.0278 33.1870
" />
<path d="M29.5516 33.1870
L29.5516 33.4251
" />
<path d="M29.3135 33.3298
L29.5516 33.4251
" />
<path d="M29.5516 33.4251
L29.7897 33.3298
" />
<path d="M29.4087 33.6156
L29.5516 33.4251
" />
<path d="M29.5516 33.4251
L29.6945 33.6156
" />
<path d="M30.3135 33.1870
L30.3135 33.4251
" />
<path d="M30.0754 33.3298
L30.3135 33.4251
" />
<path d="M30.3135 33.4251
L30.5516 33.3298
" />
<path d="M30.1706 33.6156
L30.3135 33.4251
" />
<path d="M30.3135 33.4251
L30.4564 33.6156
" />
</g><text x="35.9902" y="36.6846"
textLength="4.4607" font-size="1.3333" lengthAdjust="spacingAndGlyphs"
text-anchor="middle" opacity="0">REF**</text>
<g class="stroked-text"><desc>REF**</desc>
<path d="M34.6569 36.5520
L34.3235 36.0758
" />
<path d="M34.0854 36.5520
L34.0854 35.5520
" />
<path d="M34.0854 35.5520
L34.4664 35.5520
" />
<path d="M34.4664 35.5520
L34.5616 35.5996
" />
<path d="M34.5616 35.5996
L34.6092 35.6472
" />
<path d="M34.6092 35.6472
L34.6569 35.7425
" />
<path d="M34.6569 35.7425
L34.6569 35.8853
" />
<path d="M34.6569 35.8853
L34.6092 35.9806
" />
<path d="M34.6092 35.9806
L34.5616 36.0282
" />
<path d="M34.5616 36.0282
L34.4664 36.0758
" />
<path d="M34.4664 36.0758
L34.0854 36.0758
" />
<path d="M35.0854 36.0282
L35.4188 36.0282
" />
<path d="M35.5616 36.5520
L35.0854 36.5520
" />
<path d="M35.0854 36.5520
L35.0854 35.5520
" />
<path d="M35.0854 35.5520
L35.5616 35.5520
" />
<path d="M36.3235 36.0282
L35.9902 36.0282
" />
<path d="M35.9902 36.5520
L35.9902 35.5520
" />
<path d="M35.9902 35.5520
L36.4664 35.5520
" />
<path d="M36.9902 35.5520
L36.9902 35.7901
" />
<path d="M36.7521 35.6948
L36.9902 35.7901
" />
<path d="M36.9902 35.7901
L37.2283 35.6948
" />
<path d="M36.8473 35.9806
L36.9902 35.7901
" />
<path d="M36.9902 35.7901
L37.1331 35.9806
" />
<path d="M37.7521 35.5520
L37.7521 35.7901
" />
<path d="M37.5140 35.6948
L37.7521 35.7901
" />
<path d="M37.7521 35.7901
L37.9902 35.6948
" />
<path d="M37.6092 35.9806
L37.7521 35.7901
" />
<path d="M37.7521 35.7901
L37.8950 35.9806
" />
</g><text x="102.7418" y="36.6700"
textLength="4.4607" font-size="1.3333" lengthAdjust="spacingAndGlyphs"
text-anchor="middle" opacity="0">REF**</text>
<g class="stroked-text"><desc>REF**</desc>
<path d="M101.4085 36.5374
L101.0751 36.0612
" />
<path d="M100.8370 36.5374
L100.8370 35.5374
" />
<path d="M100.8370 35.5374
L101.2180 35.5374
" />
<path d="M101.2180 35.5374
L101.3132 35.5850
" />
<path d="M101.3132 35.5850
L101.3608 35.6326
" />
<path d="M101.3608 35.6326
L101.4085 35.7279
" />
<path d="M101.4085 35.7279
L101.4085 35.8707
" />
<path d="M101.4085 35.8707
L101.3608 35.9660
" />
<path d="M101.3608 35.9660
L101.3132 36.0136
" />
<path d="M101.3132 36.0136
L101.2180 36.0612
" />
<path d="M101.2180 36.0612
L100.8370 36.0612
" />
<path d="M101.8370 36.0136
L102.1704 36.0136
" />
<path d="M102.3132 36.5374
L101.8370 36.5374
" />
<path d="M101.8370 36.5374
L101.8370 35.5374
" />
<path d="M101.8370 35.5374
L102.3132 35.5374
" />
<path d="M103.0751 36.0136
L102.7418 36.0136
" />
<path d="M102.7418 36.5374
L102.7418 35.5374
" />
<path d="M102.7418 35.5374
L103.2180 35.5374
" />
<path d="M103.7418 35.5374
L103.7418 35.7755
" />
<path d="M103.5037 35.6802
L103.7418 35.7755
" />
<path d="M103.7418 35.7755
L103.9799 35.6802
" />
<path d="M103.5989 35.9660
L103.7418 35.7755
" />
<path d="M103.7418 35.7755
L103.8847 35.9660
" />
<path d="M104.5037 35.5374
L104.5037 35.7755
" />
<path d="M104.2656 35.6802
L104.5037 35.7755
" />
<path d="M104.5037 35.7755
L104.7418 35.6802
" />
<path d="M104.3608 35.9660
L104.5037 35.7755
" />
<path d="M104.5037 35.7755
L104.6466 35.9660
" />
</g><text x="128.3798" y="34.2904"
textLength="4.4607" font-size="1.3333" lengthAdjust="spacingAndGlyphs"
text-anchor="middle" opacity="0">REF**</text>
<g class="stroked-text"><desc>REF**</desc>
<path d="M127.0465 34.1578
L126.7131 33.6816
" />
<path d="M126.4750 34.1578
L126.4750 33.1578
" />
<path d="M126.4750 33.1578
L126.8560 33.1578
" />
<path d="M126.8560 33.1578
L126.9512 33.2054
" />
<path d="M126.9512 33.2054
L126.9988 33.2530
" />
<path d="M126.9988 33.2530
L127.0465 33.3483
" />
<path d="M127.0465 33.3483
L127.0465 33.4911
" />
<path d="M127.0465 33.4911
L126.9988 33.5864
" />
<path d="M126.9988 33.5864
L126.9512 33.6340
" />
<path d="M126.9512 33.6340
L126.8560 33.6816
" />
<path d="M126.8560 33.6816
L126.4750 33.6816
" />
<path d="M127.4750 33.6340
L127.8084 33.6340
" />
<path d="M127.9512 34.1578
L127.4750 34.1578
" />
<path d="M127.4750 34.1578
L127.4750 33.1578
" />
<path d="M127.4750 33.1578
L127.9512 33.1578
" />
<path d="M128.7131 33.6340
L128.3798 33.6340
" />
<path d="M128.3798 34.1578
L128.3798 33.1578
" />
<path d="M128.3798 33.1578
L128.8560 33.1578
" />
<path d="M129.3798 33.1578
L129.3798 33.3959
" />
<path d="M129.1417 33.3006
L129.3798 33.3959
" />
<path d="M129.3798 33.3959
L129.6179 33.3006
" />
<path d="M129.2369 33.5864
L129.3798 33.3959
" />
<path d="M129.3798 33.3959
L129.5227 33.5864
" />
<path d="M130.1417 33.1578
L130.1417 33.3959
" />
<path d="M129.9036 33.3006
L130.1417 33.3959
" />
<path d="M130.1417 33.3959
L130.3798 33.3006
" />
<path d="M129.9988 33.5864
L130.1417 33.3959
" />
<path d="M130.1417 33.3959
L130.2846 33.5864
" />
</g><text x="61.7282" y="70.8050"
textLength="4.4607" font-size="1.3333" lengthAdjust="spacingAndGlyphs"
text-anchor="middle" opacity="0">REF**</text>
<g class="stroked-text"><desc>REF**</desc>
<path d="M60.3949 70.6724
L60.0615 70.1962
" />
<path d="M59.8234 70.6724
L59.8234 69.6724
" />
<path d="M59.8234 69.6724
L60.2044 69.6724
" />
<path d="M60.2044 69.6724
L60.2996 69.7200
" />
<path d="M60.2996 69.7200
L60.3472 69.7676
" />
<path d="M60.3472 69.7676
L60.3949 69.8629
" />
<path d="M60.3949 69.8629
L60.3949 70.0057
" />
<path d="M60.3949 70.0057
L60.3472 70.1010
" />
<path d="M60.3472 70.1010
L60.2996 70.1486
" />
<path d="M60.2996 70.1486
L60.2044 70.1962
" />
<path d="M60.2044 70.1962
L59.8234 70.1962
" />
<path d="M60.8234 70.1486
L61.1568 70.1486
" />
<path d="M61.2996 70.6724
L60.8234 70.6724
" />
<path d="M60.8234 70.6724
L60.8234 69.6724
" />
<path d="M60.8234 69.6724
L61.2996 69.6724
" />
<path d="M62.0615 70.1486
L61.7282 70.1486
" />
<path d="M61.7282 70.6724
L61.7282 69.6724
" />
<path d="M61.7282 69.6724
L62.2044 69.6724
" />
<path d="M62.7282 69.6724
L62.7282 69.9105
" />
<path d="M62.4901 69.8152
L62.7282 69.9105
" />
<path d="M62.7282 69.9105
L62.9663 69.8152
" />
<path d="M62.5853 70.1010
L62.7282 69.9105
" />
<path d="M62.7282 69.9105
L62.8711 70.1010
" />
<path d="M63.4901 69.6724
L63.4901 69.9105
" />
<path d="M63.2520 69.8152
L63.4901 69.9105
" />
<path d="M63.4901 69.9105
L63.7282 69.8152
" />
<path d="M63.3472 70.1010
L63.4901 69.9105
" />
<path d="M63.4901 69.9105
L63.6330 70.1010
" />
</g></g>
<g style="fill:#F2EDA1; fill-opacity:0.0; 
stroke:#F2EDA1; stroke-width:0.1200; stroke-opacity:1; 
stroke-linecap:round; stroke-linejoin:round;">
<path d="M96.6332 32.8050
L95.3032 32.8050
" />
<path d="M96.6332 31.4750
L96.6332 32.8050
" />
<path d="M96.6332 30.2050
L96.6332 12.3650
" />
<path d="M96.6332 30.2050
L93.9732 30.2050
" />
<path d="M96.6332 12.3650
L93.9732 12.3650
" />
<path d="M93.9732 30.2050
L93.9732 12.3650
" />
<path d="M34.5602 0.6846
L35.8902 0.6846
" />
<path d="M34.5602 2.0146
L34.5602 0.6846
" />
<path d="M34.5602 3.2846
L34.5602 21.1246
" />
<path d="M34.5602 3.2846
L37.2202 3.2846
" />
<path d="M34.5602 21.1246
L37.2202 21.1246
" />
<path d="M37.2202 3.2846
L37.2202 21.1246
" />
<path d="M68.3352 37.1846
L69.6652 37.1846
" />
<path d="M68.3352 38.5146
L68.3352 37.1846
" />
<path d="M68.3352 39.7846
L68.3352 57.6246
" />
<path d="M68.3352 39.7846
L70.9952 39.7846
" />
<path d="M68.3352 57.6246
L70.9952 57.6246
" />
<path d="M70.9952 39.7846
L70.9952 57.6246
" />
<path d="M101.3118 0.6700
L102.6418 0.6700
" />
<path d="M101.3118 2.0000
L101.3118 0.6700
" />
<path d="M101.3118 3.2700
L101.3118 21.1100
" />
<path d="M101.3118 3.2700
L103.9718 3.2700
" />
<path d="M101.3118 21.1100
L103.9718 21.1100
" />
<path d="M103.9718 3.2700
L103.9718 21.1100
" />
<path d="M29.9816 69.3196
L28.6516 69.3196
" />
<path d="M29.9816 67.9896
L29.9816 69.3196
" />
<path d="M29.9816 66.7196
L29.9816 48.8796
" />
<path d="M29.9816 66.7196
L27.3216 66.7196
" />
<path d="M29.9816 48.8796
L27.3216 48.8796
" />
<path d="M27.3216 66.7196
L27.3216 48.8796
" />
<path d="M129.8098 69.2904
L128.4798 69.2904
" />
<path d="M129.8098 67.9604
L129.8098 69.2904
" />
<path d="M129.8098 66.6904
L129.8098 48.8504
" />
<path d="M129.8098 66.6904
L127.1498 66.6904
" />
<path d="M129.8098 48.8504
L127.1498 48.8504
" />
<path d="M127.1498 66.6904
L127.1498 48.8504
" />
<path d="M1.5836 37.1992
L2.9136 37.1992
" />
<path d="M1.5836 38.5292
L1.5836 37.1992
" />
<path d="M1.5836 39.7992
L1.5836 57.6392
" />
<path d="M1.5836 39.7992
L4.2436 39.7992
" />
<path d="M1.5836 57.6392
L4.2436 57.6392
" />
<path d="M4.2436 39.7992
L4.2436 57.6392
" />
<path d="M62.9582 32.8050
L61.6282 32.8050
" />
<path d="M62.9582 31.4750
L62.9582 32.8050
" />
<path d="M62.9582 30.2050
L62.9582 12.3650
" />
<path d="M62.9582 30.2050
L60.2982 30.2050
" />
<path d="M62.9582 12.3650
L60.2982 12.3650
" />
<path d="M60.2982 30.2050
L60.2982 12.3650
" />
<path d="M96.7332 69.3050
L95.4032 69.3050
" />
<path d="M96.7332 67.9750
L96.7332 69.3050
" />
<path d="M96.7332 66.7050
L96.7332 48.8650
" />
<path d="M96.7332 66.7050
L94.0732 66.7050
" />
<path d="M96.7332 48.8650
L94.0732 48.8650
" />
<path d="M94.0732 66.7050
L94.0732 48.8650
" />
<path d="M68.2352 0.6846
L69.5652 0.6846
" />
<path d="M68.2352 2.0146
L68.2352 0.6846
" />
<path d="M68.2352 3.2846
L68.2352 21.1246
" />
<path d="M68.2352 3.2846
L70.8952 3.2846
" />
<path d="M68.2352 21.1246
L70.8952 21.1246
" />
<path d="M70.8952 3.2846
L70.8952 21.1246
" />
<path d="M1.4836 0.6992
L2.8136 0.6992
" />
<path d="M1.4836 2.0292
L1.4836 0.6992
" />
<path d="M1.4836 3.2992
L1.4836 21.1392
" />
<path d="M1.4836 3.2992
L4.1436 3.2992
" />
<path d="M1.4836 21.1392
L4.1436 21.1392
" />
<path d="M4.1436 3.2992
L4.1436 21.1392
" />
<path d="M29.8816 32.8196
L28.5516 32.8196
" />
<path d="M29.8816 31.4896
L29.8816 32.8196
" />
<path d="M29.8816 30.2196
L29.8816 12.3796
" />
<path d="M29.8816 30.2196
L27.2216 30.2196
" />
<path d="M29.8816 12.3796
L27.2216 12.3796
" />
<path d="M27.2216 30.2196
L27.2216 12.3796
" />
<path d="M34.6602 37.1846
L35.9902 37.1846
" />
<path d="M34.6602 38.5146
L34.6602 37.1846
" />
<path d="M34.6602 39.7846
L34.6602 57.6246
" />
<path d="M34.6602 39.7846
L37.3202 39.7846
" />
<path d="M34.6602 57.6246
L37.3202 57.6246
" />
<path d="M37.3202 39.7846
L37.3202 57.6246
" />
<path d="M101.4118 37.1700
L102.7418 37.1700
" />
<path d="M101.4118 38.5000
L101.4118 37.1700
" />
<path d="M101.4118 39.7700
L101.4118 57.6100
" />
<path d="M101.4118 39.7700
L104.0718 39.7700
" />
<path d="M101.4118 57.6100
L104.0718 57.6100
" />
<path d="M104.0718 39.7700
L104.0718 57.6100
" />
<path d="M129.7098 32.7904
L128.3798 32.7904
" />
<path d="M129.7098 31.4604
L129.7098 32.7904
" />
<path d="M129.7098 30.1904
L129.7098 12.3504
" />
<path d="M129.7098 30.1904
L127.0498 30.1904
" />
<path d="M129.7098 12.3504
L127.0498 12.3504
" />
<path d="M127.0498 30.1904
L127.0498 12.3504
" />
<path d="M63.0582 69.3050
L61.7282 69.3050
" />
<path d="M63.0582 67.9750
L63.0582 69.3050
" />
<path d="M63.0582 66.7050
L63.0582 48.8650
" />
<path d="M63.0582 66.7050
L60.3982 66.7050
" />
<path d="M63.0582 48.8650
L60.3982 48.8650
" />
<path d="M60.3982 66.7050
L60.3982 48.8650
" />
<g >
</g>
<g >
</g>
<g >
</g>
<g >
</g>
<g >
</g>
<g >
</g>
<g >
</g>
<g >
</g>
<g >
</g>
<g >
</g>
<g >
</g>
<g >
</g>
<g >
</g>
<g >
</g>
<g >
</g>
<g >
</g>
<g >
</g>
<g >
</g>
<g >
</g>
</g>
<g style="fill:#000000; fill-opacity:0.0; 
stroke:#000000; stroke-width:0.1200; stroke-opacity:1; 
stroke-linecap:round; stroke-linejoin:round;">
</g>
<g style="fill:#D0D2CD; fill-opacity:0.0; 
stroke:#D0D2CD; stroke-width:0.1200; stroke-opacity:1; 
stroke-linecap:round; stroke-linejoin:round;">
</g>
<g style="fill:#D0D2CD; fill-opacity:0.0; 
stroke:#D0D2CD; stroke-width:0.0500; stroke-opacity:1; 
stroke-linecap:round; stroke-linejoin:round;">
<path d="M-2.5250 -3.8212
L137.2000 -3.8212
" />
<path d="M137.2000 -3.8212
L137.2000 74.8042
" />
<path d="M137.2000 74.8042
L-2.5250 74.8042
" />
<path d="M-2.5250 74.8042
L-2.5250 -3.8212
" />
<g >
</g>
<g >
</g>
<g >
</g>
<g >
</g>
<g >
</g>
<g >
</g>
<g >
</g>
<g >
</g>
<g >
</g>
<g >
</g>
<g >
</g>
<g >
</g>
<g >
</g>
<g >
</g>
<g >
</g>
<g >
</g>
<g >
</g>
<g >
</g>
<g >
</g>
</g> 
</svg>
