%TF.GenerationSoftware,KiCad,Pcbnew,(6.0.1)*%
%TF.CreationDate,2023-02-20T14:13:47+01:00*%
%TF.ProjectId,omniscope,6f6d6e69-7363-46f7-9065-2e6b69636164,rev?*%
%TF.SameCoordinates,Original*%
%TF.FileFunction,Soldermask,Top*%
%TF.FilePolarity,Negative*%
%FSLAX46Y46*%
G04 Gerber Fmt 4.6, Leading zero omitted, Abs format (unit mm)*
G04 Created by KiCad (PCBNEW (6.0.1)) date 2023-02-20 14:13:47*
%MOMM*%
%LPD*%
G01*
G04 APERTURE LIST*
G04 Aperture macros list*
%AMRotRect*
0 Rectangle, with rotation*
0 The origin of the aperture is its center*
0 $1 length*
0 $2 width*
0 $3 Rotation angle, in degrees counterclockwise*
0 Add horizontal line*
21,1,$1,$2,0,0,$3*%
G04 Aperture macros list end*
%ADD10C,3.200000*%
%ADD11RotRect,0.806000X4.586000X40.000000*%
%ADD12RotRect,0.800000X4.586000X40.000000*%
%ADD13RotRect,0.808000X4.586000X40.000000*%
%ADD14RotRect,0.810000X4.586000X40.000000*%
%ADD15R,1.700000X1.700000*%
%ADD16O,1.700000X1.700000*%
G04 APERTURE END LIST*
D10*
%TO.C,*%
X20015200Y-94335600D03*
%TD*%
%TO.C,*%
X137617200Y-94488000D03*
%TD*%
%TO.C,*%
X137515600Y-19050000D03*
%TD*%
%TO.C,REF\u002A\u002A*%
X18948400Y-17678400D03*
%TD*%
D11*
%TO.C,J8*%
X45977519Y-29121373D03*
D12*
X46817870Y-28416233D03*
X47660520Y-27709168D03*
D13*
X48506233Y-26999531D03*
D12*
X49345818Y-26295033D03*
X50188467Y-25587970D03*
D14*
X51034946Y-24877689D03*
D12*
X51873765Y-24173835D03*
%TD*%
D15*
%TO.C,J2*%
X17907297Y-30831900D03*
D16*
X17907297Y-28291900D03*
%TD*%
D11*
%TO.C,J6*%
X102568719Y-29070573D03*
D12*
X103409070Y-28365433D03*
X104251720Y-27658368D03*
D13*
X105097433Y-26948731D03*
D12*
X105937018Y-26244233D03*
X106779667Y-25537170D03*
D14*
X107626146Y-24826889D03*
D12*
X108464965Y-24123035D03*
%TD*%
D15*
%TO.C,J3*%
X17907297Y-25434100D03*
D16*
X17907297Y-22894100D03*
%TD*%
D11*
%TO.C,J4*%
X64773519Y-29019773D03*
D12*
X65613870Y-28314633D03*
X66456520Y-27607568D03*
D13*
X67302233Y-26897931D03*
D12*
X68141818Y-26193433D03*
X68984467Y-25486370D03*
D14*
X69830946Y-24776089D03*
D12*
X70669765Y-24072235D03*
%TD*%
D11*
%TO.C,J5*%
X83721919Y-28968973D03*
D12*
X84562270Y-28263833D03*
X85404920Y-27556768D03*
D13*
X86250633Y-26847131D03*
D12*
X87090218Y-26142633D03*
X87932867Y-25435570D03*
D14*
X88779346Y-24725289D03*
D12*
X89618165Y-24021435D03*
%TD*%
D11*
%TO.C,J7*%
X121415519Y-29019773D03*
D12*
X122255870Y-28314633D03*
X123098520Y-27607568D03*
D13*
X123944233Y-26897931D03*
D12*
X124783818Y-26193433D03*
X125626467Y-25486370D03*
D14*
X126472946Y-24776089D03*
D12*
X127311765Y-24072235D03*
%TD*%
D11*
%TO.C,J1*%
X26927519Y-29070573D03*
D12*
X27767870Y-28365433D03*
X28610520Y-27658368D03*
D13*
X29456233Y-26948731D03*
D12*
X30295818Y-26244233D03*
X31138467Y-25537170D03*
D14*
X31984946Y-24826889D03*
D12*
X32823765Y-24123035D03*
%TD*%
D11*
%TO.C,J8*%
X46028319Y-48018973D03*
D12*
X46868670Y-47313833D03*
X47711320Y-46606768D03*
D13*
X48557033Y-45897131D03*
D12*
X49396618Y-45192633D03*
X50239267Y-44485570D03*
D14*
X51085746Y-43775289D03*
D12*
X51924565Y-43071435D03*
%TD*%
D15*
%TO.C,J2*%
X17958097Y-49729500D03*
D16*
X17958097Y-47189500D03*
%TD*%
D11*
%TO.C,J6*%
X102619519Y-47968173D03*
D12*
X103459870Y-47263033D03*
X104302520Y-46555968D03*
D13*
X105148233Y-45846331D03*
D12*
X105987818Y-45141833D03*
X106830467Y-44434770D03*
D14*
X107676946Y-43724489D03*
D12*
X108515765Y-43020635D03*
%TD*%
D15*
%TO.C,J3*%
X17958097Y-44331700D03*
D16*
X17958097Y-41791700D03*
%TD*%
D11*
%TO.C,J4*%
X64824319Y-47917373D03*
D12*
X65664670Y-47212233D03*
X66507320Y-46505168D03*
D13*
X67353033Y-45795531D03*
D12*
X68192618Y-45091033D03*
X69035267Y-44383970D03*
D14*
X69881746Y-43673689D03*
D12*
X70720565Y-42969835D03*
%TD*%
D11*
%TO.C,J5*%
X83772719Y-47866573D03*
D12*
X84613070Y-47161433D03*
X85455720Y-46454368D03*
D13*
X86301433Y-45744731D03*
D12*
X87141018Y-45040233D03*
X87983667Y-44333170D03*
D14*
X88830146Y-43622889D03*
D12*
X89668965Y-42919035D03*
%TD*%
D11*
%TO.C,J7*%
X121466319Y-47917373D03*
D12*
X122306670Y-47212233D03*
X123149320Y-46505168D03*
D13*
X123995033Y-45795531D03*
D12*
X124834618Y-45091033D03*
X125677267Y-44383970D03*
D14*
X126523746Y-43673689D03*
D12*
X127362565Y-42969835D03*
%TD*%
D11*
%TO.C,J1*%
X26978319Y-47968173D03*
D12*
X27818670Y-47263033D03*
X28661320Y-46555968D03*
D13*
X29507033Y-45846331D03*
D12*
X30346618Y-45141833D03*
X31189267Y-44434770D03*
D14*
X32035746Y-43724489D03*
D12*
X32874565Y-43020635D03*
%TD*%
D11*
%TO.C,J8*%
X46028319Y-67018173D03*
D12*
X46868670Y-66313033D03*
X47711320Y-65605968D03*
D13*
X48557033Y-64896331D03*
D12*
X49396618Y-64191833D03*
X50239267Y-63484770D03*
D14*
X51085746Y-62774489D03*
D12*
X51924565Y-62070635D03*
%TD*%
D15*
%TO.C,J2*%
X17958097Y-68728700D03*
D16*
X17958097Y-66188700D03*
%TD*%
D11*
%TO.C,J6*%
X102619519Y-66967373D03*
D12*
X103459870Y-66262233D03*
X104302520Y-65555168D03*
D13*
X105148233Y-64845531D03*
D12*
X105987818Y-64141033D03*
X106830467Y-63433970D03*
D14*
X107676946Y-62723689D03*
D12*
X108515765Y-62019835D03*
%TD*%
D15*
%TO.C,J3*%
X17958097Y-63330900D03*
D16*
X17958097Y-60790900D03*
%TD*%
D11*
%TO.C,J4*%
X64824319Y-66916573D03*
D12*
X65664670Y-66211433D03*
X66507320Y-65504368D03*
D13*
X67353033Y-64794731D03*
D12*
X68192618Y-64090233D03*
X69035267Y-63383170D03*
D14*
X69881746Y-62672889D03*
D12*
X70720565Y-61969035D03*
%TD*%
D11*
%TO.C,J5*%
X83772719Y-66865773D03*
D12*
X84613070Y-66160633D03*
X85455720Y-65453568D03*
D13*
X86301433Y-64743931D03*
D12*
X87141018Y-64039433D03*
X87983667Y-63332370D03*
D14*
X88830146Y-62622089D03*
D12*
X89668965Y-61918235D03*
%TD*%
D11*
%TO.C,J7*%
X121466319Y-66916573D03*
D12*
X122306670Y-66211433D03*
X123149320Y-65504368D03*
D13*
X123995033Y-64794731D03*
D12*
X124834618Y-64090233D03*
X125677267Y-63383170D03*
D14*
X126523746Y-62672889D03*
D12*
X127362565Y-61969035D03*
%TD*%
D11*
%TO.C,J1*%
X26978319Y-66967373D03*
D12*
X27818670Y-66262233D03*
X28661320Y-65555168D03*
D13*
X29507033Y-64845531D03*
D12*
X30346618Y-64141033D03*
X31189267Y-63433970D03*
D14*
X32035746Y-62723689D03*
D12*
X32874565Y-62019835D03*
%TD*%
D11*
%TO.C,J6*%
X102695422Y-85721273D03*
D12*
X103535773Y-85016133D03*
X104378423Y-84309068D03*
D13*
X105224136Y-83599431D03*
D12*
X106063721Y-82894933D03*
X106906370Y-82187870D03*
D14*
X107752849Y-81477589D03*
D12*
X108591668Y-80773735D03*
%TD*%
D11*
%TO.C,J8*%
X46104222Y-85772073D03*
D12*
X46944573Y-85066933D03*
X47787223Y-84359868D03*
D13*
X48632936Y-83650231D03*
D12*
X49472521Y-82945733D03*
X50315170Y-82238670D03*
D14*
X51161649Y-81528389D03*
D12*
X52000468Y-80824535D03*
%TD*%
D11*
%TO.C,J7*%
X121542222Y-85670473D03*
D12*
X122382573Y-84965333D03*
X123225223Y-84258268D03*
D13*
X124070936Y-83548631D03*
D12*
X124910521Y-82844133D03*
X125753170Y-82137070D03*
D14*
X126599649Y-81426789D03*
D12*
X127438468Y-80722935D03*
%TD*%
D11*
%TO.C,J4*%
X64900222Y-85670473D03*
D12*
X65740573Y-84965333D03*
X66583223Y-84258268D03*
D13*
X67428936Y-83548631D03*
D12*
X68268521Y-82844133D03*
X69111170Y-82137070D03*
D14*
X69957649Y-81426789D03*
D12*
X70796468Y-80722935D03*
%TD*%
D15*
%TO.C,J3*%
X18034000Y-82084800D03*
D16*
X18034000Y-79544800D03*
%TD*%
D11*
%TO.C,J5*%
X83848622Y-85619673D03*
D12*
X84688973Y-84914533D03*
X85531623Y-84207468D03*
D13*
X86377336Y-83497831D03*
D12*
X87216921Y-82793333D03*
X88059570Y-82086270D03*
D14*
X88906049Y-81375989D03*
D12*
X89744868Y-80672135D03*
%TD*%
D15*
%TO.C,J2*%
X18034000Y-87482600D03*
D16*
X18034000Y-84942600D03*
%TD*%
D11*
%TO.C,J1*%
X27054222Y-85721273D03*
D12*
X27894573Y-85016133D03*
X28737223Y-84309068D03*
D13*
X29582936Y-83599431D03*
D12*
X30422521Y-82894933D03*
X31265170Y-82187870D03*
D14*
X32111649Y-81477589D03*
D12*
X32950468Y-80773735D03*
%TD*%
M02*
