M48
; DRILL file {KiCad (7.0.0-0)} date Monday, 03. April 2023 at 17:09:54
; FORMAT={-:-/ absolute / metric / decimal}
; #@! TF.CreationDate,2023-04-03T17:09:54+02:00
; #@! TF.GenerationSoftware,Kicad,Pcbnew,(7.0.0-0)
; #@! TF.FileFunction,MixedPlating,1,2
FMAT,2
METRIC
; #@! TA.AperFunction,Plated,PTH,ComponentDrill
T1C1.000
%
G90
G05
T1
X25.042Y-53.208
X25.092Y-34.383
X25.167Y-72.208
X25.204Y-91.146
X26.838Y-51.412
X26.888Y-32.587
X26.963Y-70.412
X27.0Y-89.35
X28.634Y-49.616
X28.684Y-30.791
X28.759Y-68.616
X28.796Y-87.554
X30.43Y-47.82
X30.48Y-28.995
X30.555Y-66.82
X30.592Y-85.758
X32.226Y-46.024
X32.276Y-27.199
X32.351Y-65.024
X32.388Y-83.962
X34.022Y-44.228
X34.072Y-25.403
X34.147Y-63.228
X34.184Y-82.166
X35.818Y-42.432
X35.868Y-23.607
X35.943Y-61.432
X35.98Y-80.37
X37.614Y-40.636
X37.664Y-21.811
X37.739Y-59.636
X37.776Y-78.574
X43.828Y-53.222
X43.878Y-34.397
X43.953Y-72.222
X43.991Y-91.159
X45.624Y-51.426
X45.674Y-32.601
X45.749Y-70.426
X45.787Y-89.363
X47.42Y-49.63
X47.47Y-30.805
X47.545Y-68.63
X47.583Y-87.567
X49.217Y-47.833
X49.267Y-29.008
X49.342Y-66.833
X49.379Y-85.771
X51.013Y-46.037
X51.063Y-27.212
X51.138Y-65.037
X51.175Y-83.975
X52.809Y-44.241
X52.859Y-25.416
X52.934Y-63.241
X52.971Y-82.179
X54.605Y-42.445
X54.655Y-23.62
X54.73Y-61.445
X54.767Y-80.383
X56.401Y-40.649
X56.451Y-21.824
X56.526Y-59.649
X56.563Y-78.587
X62.812Y-53.238
X62.862Y-34.413
X62.937Y-72.238
X62.974Y-91.176
X64.608Y-51.442
X64.658Y-32.617
X64.733Y-70.442
X64.77Y-89.38
X66.404Y-49.646
X66.454Y-30.821
X66.529Y-68.646
X66.567Y-87.583
X68.2Y-47.85
X68.25Y-29.025
X68.325Y-66.85
X68.363Y-85.787
X69.996Y-46.054
X70.046Y-27.229
X70.121Y-65.054
X70.159Y-83.991
X71.792Y-44.258
X71.842Y-25.433
X71.917Y-63.258
X71.955Y-82.195
X73.588Y-42.462
X73.638Y-23.637
X73.713Y-61.462
X73.751Y-80.399
X75.384Y-40.666
X75.434Y-21.841
X75.509Y-59.666
X75.547Y-78.603
X81.849Y-53.376
X81.899Y-34.551
X81.974Y-72.376
X82.012Y-91.313
X83.645Y-51.58
X83.695Y-32.755
X83.77Y-70.58
X83.808Y-89.517
X85.442Y-49.783
X85.492Y-30.958
X85.567Y-68.783
X85.604Y-87.721
X87.238Y-47.987
X87.288Y-29.162
X87.363Y-66.987
X87.4Y-85.925
X89.034Y-46.191
X89.084Y-27.366
X89.159Y-65.191
X89.196Y-84.129
X90.83Y-44.395
X90.88Y-25.57
X90.955Y-63.395
X90.992Y-82.333
X92.626Y-42.599
X92.676Y-23.774
X92.751Y-61.599
X92.788Y-80.537
X94.422Y-40.803
X94.472Y-21.978
X94.547Y-59.803
X94.584Y-78.741
X100.674Y-53.276
X100.724Y-34.451
X100.799Y-72.276
X100.837Y-91.213
X102.47Y-51.48
X102.52Y-32.655
X102.595Y-70.48
X102.633Y-89.417
X104.267Y-49.683
X104.317Y-30.858
X104.392Y-68.683
X104.429Y-87.621
X106.063Y-47.887
X106.113Y-29.062
X106.188Y-66.887
X106.225Y-85.825
X107.859Y-46.091
X107.909Y-27.266
X107.984Y-65.091
X108.021Y-84.029
X109.655Y-44.295
X109.705Y-25.47
X109.78Y-63.295
X109.817Y-82.233
X111.451Y-42.499
X111.501Y-23.674
X111.576Y-61.499
X111.613Y-80.437
X113.247Y-40.703
X113.297Y-21.878
X113.372Y-59.703
X113.409Y-78.641
X119.649Y-53.426
X119.699Y-34.601
X119.774Y-72.426
X119.812Y-91.363
X121.445Y-51.63
X121.495Y-32.805
X121.57Y-70.63
X121.608Y-89.567
X123.242Y-49.833
X123.292Y-31.008
X123.367Y-68.833
X123.404Y-87.771
X125.038Y-48.037
X125.088Y-29.212
X125.163Y-67.037
X125.2Y-85.975
X126.834Y-46.241
X126.884Y-27.416
X126.959Y-65.241
X126.996Y-84.179
X128.63Y-44.445
X128.68Y-25.62
X128.755Y-63.445
X128.792Y-82.383
X130.426Y-42.649
X130.476Y-23.824
X130.551Y-61.649
X130.588Y-80.587
X132.222Y-40.853
X132.272Y-22.028
X132.347Y-59.853
X132.384Y-78.791
T0
M30
