  0
SECTION
  2
HEADER
  9
$ACADVER
  1
AC1014
  9
$HANDSEED
  5
FFFF
  9
$MEASUREMENT
 70
     1
  0
ENDSEC
  0
SECTION
  2
TABLES
  0
TABLE
  2
VPORT
  5
8
330
0
100
AcDbSymbolTable
 70
     4
  0
VPORT
  5
2E
330
8
100
AcDbSymbolTableRecord
100
AcDbViewportTableRecord
  2
*ACTIVE
 70
     0
 10
0.0
 20
0.0
 11
1.0
 21
1.0
 12
210.0
 22
148.5
 13
0.0
 23
0.0
 14
10.0
 24
10.0
 15
10.0
 25
10.0
 16
0.0
 26
0.0
 36
1.0
 17
0.0
 27
0.0
 37
0.0
 40
341.0
 41
1.24
 42
50.0
 43
0.0
 44
0.0
 50
0.0
 51
0.0
 71
     0
 72
   100
 73
     1
 74
     3
 75
     0
 76
     0
 77
     0
 78
     0
  0
ENDTAB
  0
TABLE
  2
LTYPE
  5
5
330
0
100
AcDbSymbolTable
 70
     1
  0
LTYPE
  5
14
330
5
100
AcDbSymbolTableRecord
100
AcDbLinetypeTableRecord
  2
BYBLOCK
 70
     0
  3

 72
    65
 73
     0
 40
0.0
  0
LTYPE
  5
15
330
5
100
AcDbSymbolTableRecord
100
AcDbLinetypeTableRecord
  2
BYLAYER
 70
     0
  3

 72
    65
 73
     0
 40
0.0
  0
LTYPE
  5
16
330
5
100
AcDbSymbolTableRecord
100
AcDbLinetypeTableRecord
  2
CONTINUOUS
 70
     0
  3
Solid line
 72
    65
 73
     0
 40
0.0
  0
ENDTAB
  0
TABLE
  2
LAYER
  5
2
100
AcDbSymbolTable
 70
1
  0
LAYER
  5
50
100
AcDbSymbolTableRecord
100
AcDbLayerTableRecord
  2
0
 70
0
  6
CONTINUOUS
  0
ENDTAB
  0
TABLE
  2
STYLE
  5
3
330
0
100
AcDbSymbolTable
 70
     1
  0
STYLE
  5
11
330
3
100
AcDbSymbolTableRecord
100
AcDbTextStyleTableRecord
  2
STANDARD
 70
     0
 40
0.0
 41
1.0
 50
0.0
 71
     0
 42
2.5
  3
txt
  4

  0
ENDTAB
  0
TABLE
  2
VIEW
  5
6
330
0
100
AcDbSymbolTable
 70
     0
  0
ENDTAB
  0
TABLE
  2
UCS
  5
7
330
0
100
AcDbSymbolTable
 70
     0
  0
ENDTAB
  0
TABLE
  2
APPID
  5
9
330
0
100
AcDbSymbolTable
 70
     2
  0
APPID
  5
12
330
9
100
AcDbSymbolTableRecord
100
AcDbRegAppTableRecord
  2
ACAD
 70
     0
  0
ENDTAB
  0
TABLE
  2
DIMSTYLE
  5
A
330
0
100
AcDbSymbolTable
 70
     1
  0
DIMSTYLE
105
27
330
A
100
AcDbSymbolTableRecord
100
AcDbDimStyleTableRecord
  2
ISO-25
 70
     0
  3

  4

  5

  6

  7

 40
1.0
 41
2.5
 42
0.625
 43
3.75
 44
1.25
 45
0.0
 46
0.0
 47
0.0
 48
0.0
140
2.5
141
2.5
142
0.0
143
0.03937007874016
144
1.0
145
0.0
146
1.0
147
0.625
 71
     0
 72
     0
 73
     0
 74
     0
 75
     0
 76
     0
 77
     1
 78
     8
170
     0
171
     3
172
     1
173
     0
174
     0
175
     0
176
     0
177
     0
178
     0
270
     2
271
     2
272
     2
273
     2
274
     3
340
11
275
     0
280
     0
281
     0
282
     0
283
     0
284
     8
285
     0
286
     0
287
     3
288
     0
  0
ENDTAB
  0
TABLE
  2
BLOCK_RECORD
  5
1
330
0
100
AcDbSymbolTable
 70
     1
  0
BLOCK_RECORD
  5
1F
330
1
100
AcDbSymbolTableRecord
100
AcDbBlockTableRecord
  2
*MODEL_SPACE
  0
BLOCK_RECORD
  5
1B
330
1
100
AcDbSymbolTableRecord
100
AcDbBlockTableRecord
  2
*PAPER_SPACE
  0
ENDTAB
  0
ENDSEC
  0
SECTION
  2
BLOCKS
  0
BLOCK
  5
20
330
1F
100
AcDbEntity
  8
0
100
AcDbBlockBegin
  2
*MODEL_SPACE
 70
     0
 10
0.0
 20
0.0
 30
0.0
  3
*MODEL_SPACE
  1

  0
ENDBLK
  5
21
330
1F
100
AcDbEntity
  8
0
100
AcDbBlockEnd
  0
BLOCK
  5
1C
330
1B
100
AcDbEntity
 67
     1
  8
0
100
AcDbBlockBegin
  2
*PAPER_SPACE
  1

  0
ENDBLK
  5
1D
330
1B
100
AcDbEntity
 67
     1
  8
0
100
AcDbBlockEnd
  0
ENDSEC
  0
SECTION
  2
ENTITIES
  0
LWPOLYLINE
  5
100
100
AcDbEntity
  8
0
 62
1
100
AcDbPolyline
 90
4
 70
1
 10
78.832600
 20
37.261800
 30
0.0
 10
79.622600
 20
37.261800
 30
0.0
 10
79.622600
 20
36.861800
 30
0.0
 10
78.832600
 20
36.861800
 30
0.0
  0
LWPOLYLINE
  5
101
100
AcDbEntity
  8
0
 62
1
100
AcDbPolyline
 90
4
 70
1
 10
76.292600
 20
37.261800
 30
0.0
 10
77.082600
 20
37.261800
 30
0.0
 10
77.082600
 20
36.861800
 30
0.0
 10
76.292600
 20
36.861800
 30
0.0
  0
LWPOLYLINE
  5
102
100
AcDbEntity
  8
0
 62
1
100
AcDbPolyline
 90
4
 70
1
 10
78.832600
 20
36.461800
 30
0.0
 10
79.622600
 20
36.461800
 30
0.0
 10
79.622600
 20
36.061800
 30
0.0
 10
78.832600
 20
36.061800
 30
0.0
  0
LWPOLYLINE
  5
103
100
AcDbEntity
  8
0
 62
1
100
AcDbPolyline
 90
4
 70
1
 10
76.292600
 20
36.461800
 30
0.0
 10
77.082600
 20
36.461800
 30
0.0
 10
77.082600
 20
36.061800
 30
0.0
 10
76.292600
 20
36.061800
 30
0.0
  0
LWPOLYLINE
  5
104
100
AcDbEntity
  8
0
 62
1
100
AcDbPolyline
 90
4
 70
1
 10
78.832600
 20
35.661800
 30
0.0
 10
79.622600
 20
35.661800
 30
0.0
 10
79.622600
 20
35.261800
 30
0.0
 10
78.832600
 20
35.261800
 30
0.0
  0
LWPOLYLINE
  5
105
100
AcDbEntity
  8
0
 62
1
100
AcDbPolyline
 90
4
 70
1
 10
76.292600
 20
35.661800
 30
0.0
 10
77.082600
 20
35.661800
 30
0.0
 10
77.082600
 20
35.261800
 30
0.0
 10
76.292600
 20
35.261800
 30
0.0
  0
LWPOLYLINE
  5
106
100
AcDbEntity
  8
0
 62
1
100
AcDbPolyline
 90
4
 70
1
 10
78.832600
 20
34.861800
 30
0.0
 10
79.622600
 20
34.861800
 30
0.0
 10
79.622600
 20
34.461800
 30
0.0
 10
78.832600
 20
34.461800
 30
0.0
  0
LWPOLYLINE
  5
107
100
AcDbEntity
  8
0
 62
1
100
AcDbPolyline
 90
4
 70
1
 10
76.292600
 20
34.861800
 30
0.0
 10
77.082600
 20
34.861800
 30
0.0
 10
77.082600
 20
34.461800
 30
0.0
 10
76.292600
 20
34.461800
 30
0.0
  0
LWPOLYLINE
  5
108
100
AcDbEntity
  8
0
 62
1
100
AcDbPolyline
 90
4
 70
1
 10
78.832600
 20
34.061800
 30
0.0
 10
79.622600
 20
34.061800
 30
0.0
 10
79.622600
 20
33.661800
 30
0.0
 10
78.832600
 20
33.661800
 30
0.0
  0
LWPOLYLINE
  5
109
100
AcDbEntity
  8
0
 62
1
100
AcDbPolyline
 90
4
 70
1
 10
76.292600
 20
34.061800
 30
0.0
 10
77.082600
 20
34.061800
 30
0.0
 10
77.082600
 20
33.661800
 30
0.0
 10
76.292600
 20
33.661800
 30
0.0
  0
LWPOLYLINE
  5
10a
100
AcDbEntity
  8
0
 62
1
100
AcDbPolyline
 90
4
 70
1
 10
78.832600
 20
33.261800
 30
0.0
 10
79.622600
 20
33.261800
 30
0.0
 10
79.622600
 20
32.861800
 30
0.0
 10
78.832600
 20
32.861800
 30
0.0
  0
LWPOLYLINE
  5
10b
100
AcDbEntity
  8
0
 62
1
100
AcDbPolyline
 90
4
 70
1
 10
76.292600
 20
33.261800
 30
0.0
 10
77.082600
 20
33.261800
 30
0.0
 10
77.082600
 20
32.861800
 30
0.0
 10
76.292600
 20
32.861800
 30
0.0
  0
LWPOLYLINE
  5
10c
100
AcDbEntity
  8
0
 62
1
100
AcDbPolyline
 90
4
 70
1
 10
78.832600
 20
32.461800
 30
0.0
 10
79.622600
 20
32.461800
 30
0.0
 10
79.622600
 20
32.061800
 30
0.0
 10
78.832600
 20
32.061800
 30
0.0
  0
LWPOLYLINE
  5
10d
100
AcDbEntity
  8
0
 62
1
100
AcDbPolyline
 90
4
 70
1
 10
76.292600
 20
32.461800
 30
0.0
 10
77.082600
 20
32.461800
 30
0.0
 10
77.082600
 20
32.061800
 30
0.0
 10
76.292600
 20
32.061800
 30
0.0
  0
LWPOLYLINE
  5
10e
100
AcDbEntity
  8
0
 62
1
100
AcDbPolyline
 90
4
 70
1
 10
78.832600
 20
31.661800
 30
0.0
 10
79.622600
 20
31.661800
 30
0.0
 10
79.622600
 20
31.261800
 30
0.0
 10
78.832600
 20
31.261800
 30
0.0
  0
LWPOLYLINE
  5
10f
100
AcDbEntity
  8
0
 62
1
100
AcDbPolyline
 90
4
 70
1
 10
76.292600
 20
31.661800
 30
0.0
 10
77.082600
 20
31.661800
 30
0.0
 10
77.082600
 20
31.261800
 30
0.0
 10
76.292600
 20
31.261800
 30
0.0
  0
LWPOLYLINE
  5
110
100
AcDbEntity
  8
0
 62
1
100
AcDbPolyline
 90
4
 70
1
 10
77.157600
 20
38.536800
 30
0.0
 10
78.757600
 20
38.536800
 30
0.0
 10
78.757600
 20
37.886800
 30
0.0
 10
77.157600
 20
37.886800
 30
0.0
  0
LWPOLYLINE
  5
111
100
AcDbEntity
  8
0
 62
1
100
AcDbPolyline
 90
4
 70
1
 10
77.157600
 20
30.636800
 30
0.0
 10
78.757600
 20
30.636800
 30
0.0
 10
78.757600
 20
29.986800
 30
0.0
 10
77.157600
 20
29.986800
 30
0.0
  0
LWPOLYLINE
  5
112
100
AcDbEntity
  8
0
 62
1
100
AcDbPolyline
 90
4
 70
1
 10
22.007600
 20
75.161800
 30
0.0
 10
22.797600
 20
75.161800
 30
0.0
 10
22.797600
 20
74.761800
 30
0.0
 10
22.007600
 20
74.761800
 30
0.0
  0
LWPOLYLINE
  5
113
100
AcDbEntity
  8
0
 62
1
100
AcDbPolyline
 90
4
 70
1
 10
19.467600
 20
75.161800
 30
0.0
 10
20.257600
 20
75.161800
 30
0.0
 10
20.257600
 20
74.761800
 30
0.0
 10
19.467600
 20
74.761800
 30
0.0
  0
LWPOLYLINE
  5
114
100
AcDbEntity
  8
0
 62
1
100
AcDbPolyline
 90
4
 70
1
 10
22.007600
 20
74.361800
 30
0.0
 10
22.797600
 20
74.361800
 30
0.0
 10
22.797600
 20
73.961800
 30
0.0
 10
22.007600
 20
73.961800
 30
0.0
  0
LWPOLYLINE
  5
115
100
AcDbEntity
  8
0
 62
1
100
AcDbPolyline
 90
4
 70
1
 10
19.467600
 20
74.361800
 30
0.0
 10
20.257600
 20
74.361800
 30
0.0
 10
20.257600
 20
73.961800
 30
0.0
 10
19.467600
 20
73.961800
 30
0.0
  0
LWPOLYLINE
  5
116
100
AcDbEntity
  8
0
 62
1
100
AcDbPolyline
 90
4
 70
1
 10
22.007600
 20
73.561800
 30
0.0
 10
22.797600
 20
73.561800
 30
0.0
 10
22.797600
 20
73.161800
 30
0.0
 10
22.007600
 20
73.161800
 30
0.0
  0
LWPOLYLINE
  5
117
100
AcDbEntity
  8
0
 62
1
100
AcDbPolyline
 90
4
 70
1
 10
19.467600
 20
73.561800
 30
0.0
 10
20.257600
 20
73.561800
 30
0.0
 10
20.257600
 20
73.161800
 30
0.0
 10
19.467600
 20
73.161800
 30
0.0
  0
LWPOLYLINE
  5
118
100
AcDbEntity
  8
0
 62
1
100
AcDbPolyline
 90
4
 70
1
 10
22.007600
 20
72.761800
 30
0.0
 10
22.797600
 20
72.761800
 30
0.0
 10
22.797600
 20
72.361800
 30
0.0
 10
22.007600
 20
72.361800
 30
0.0
  0
LWPOLYLINE
  5
119
100
AcDbEntity
  8
0
 62
1
100
AcDbPolyline
 90
4
 70
1
 10
19.467600
 20
72.761800
 30
0.0
 10
20.257600
 20
72.761800
 30
0.0
 10
20.257600
 20
72.361800
 30
0.0
 10
19.467600
 20
72.361800
 30
0.0
  0
LWPOLYLINE
  5
11a
100
AcDbEntity
  8
0
 62
1
100
AcDbPolyline
 90
4
 70
1
 10
22.007600
 20
71.961800
 30
0.0
 10
22.797600
 20
71.961800
 30
0.0
 10
22.797600
 20
71.561800
 30
0.0
 10
22.007600
 20
71.561800
 30
0.0
  0
LWPOLYLINE
  5
11b
100
AcDbEntity
  8
0
 62
1
100
AcDbPolyline
 90
4
 70
1
 10
19.467600
 20
71.961800
 30
0.0
 10
20.257600
 20
71.961800
 30
0.0
 10
20.257600
 20
71.561800
 30
0.0
 10
19.467600
 20
71.561800
 30
0.0
  0
LWPOLYLINE
  5
11c
100
AcDbEntity
  8
0
 62
1
100
AcDbPolyline
 90
4
 70
1
 10
22.007600
 20
71.161800
 30
0.0
 10
22.797600
 20
71.161800
 30
0.0
 10
22.797600
 20
70.761800
 30
0.0
 10
22.007600
 20
70.761800
 30
0.0
  0
LWPOLYLINE
  5
11d
100
AcDbEntity
  8
0
 62
1
100
AcDbPolyline
 90
4
 70
1
 10
19.467600
 20
71.161800
 30
0.0
 10
20.257600
 20
71.161800
 30
0.0
 10
20.257600
 20
70.761800
 30
0.0
 10
19.467600
 20
70.761800
 30
0.0
  0
LWPOLYLINE
  5
11e
100
AcDbEntity
  8
0
 62
1
100
AcDbPolyline
 90
4
 70
1
 10
22.007600
 20
70.361800
 30
0.0
 10
22.797600
 20
70.361800
 30
0.0
 10
22.797600
 20
69.961800
 30
0.0
 10
22.007600
 20
69.961800
 30
0.0
  0
LWPOLYLINE
  5
11f
100
AcDbEntity
  8
0
 62
1
100
AcDbPolyline
 90
4
 70
1
 10
19.467600
 20
70.361800
 30
0.0
 10
20.257600
 20
70.361800
 30
0.0
 10
20.257600
 20
69.961800
 30
0.0
 10
19.467600
 20
69.961800
 30
0.0
  0
LWPOLYLINE
  5
120
100
AcDbEntity
  8
0
 62
1
100
AcDbPolyline
 90
4
 70
1
 10
22.007600
 20
69.561800
 30
0.0
 10
22.797600
 20
69.561800
 30
0.0
 10
22.797600
 20
69.161800
 30
0.0
 10
22.007600
 20
69.161800
 30
0.0
  0
LWPOLYLINE
  5
121
100
AcDbEntity
  8
0
 62
1
100
AcDbPolyline
 90
4
 70
1
 10
19.467600
 20
69.561800
 30
0.0
 10
20.257600
 20
69.561800
 30
0.0
 10
20.257600
 20
69.161800
 30
0.0
 10
19.467600
 20
69.161800
 30
0.0
  0
LWPOLYLINE
  5
122
100
AcDbEntity
  8
0
 62
1
100
AcDbPolyline
 90
4
 70
1
 10
20.332600
 20
76.436800
 30
0.0
 10
21.932600
 20
76.436800
 30
0.0
 10
21.932600
 20
75.786800
 30
0.0
 10
20.332600
 20
75.786800
 30
0.0
  0
LWPOLYLINE
  5
123
100
AcDbEntity
  8
0
 62
1
100
AcDbPolyline
 90
4
 70
1
 10
20.332600
 20
68.536800
 30
0.0
 10
21.932600
 20
68.536800
 30
0.0
 10
21.932600
 20
67.886800
 30
0.0
 10
20.332600
 20
67.886800
 30
0.0
  0
LWPOLYLINE
  5
124
100
AcDbEntity
  8
0
 62
1
100
AcDbPolyline
 90
4
 70
1
 10
116.395100
 20
37.311800
 30
0.0
 10
117.185100
 20
37.311800
 30
0.0
 10
117.185100
 20
36.911800
 30
0.0
 10
116.395100
 20
36.911800
 30
0.0
  0
LWPOLYLINE
  5
125
100
AcDbEntity
  8
0
 62
1
100
AcDbPolyline
 90
4
 70
1
 10
113.855100
 20
37.311800
 30
0.0
 10
114.645100
 20
37.311800
 30
0.0
 10
114.645100
 20
36.911800
 30
0.0
 10
113.855100
 20
36.911800
 30
0.0
  0
LWPOLYLINE
  5
126
100
AcDbEntity
  8
0
 62
1
100
AcDbPolyline
 90
4
 70
1
 10
116.395100
 20
36.511800
 30
0.0
 10
117.185100
 20
36.511800
 30
0.0
 10
117.185100
 20
36.111800
 30
0.0
 10
116.395100
 20
36.111800
 30
0.0
  0
LWPOLYLINE
  5
127
100
AcDbEntity
  8
0
 62
1
100
AcDbPolyline
 90
4
 70
1
 10
113.855100
 20
36.511800
 30
0.0
 10
114.645100
 20
36.511800
 30
0.0
 10
114.645100
 20
36.111800
 30
0.0
 10
113.855100
 20
36.111800
 30
0.0
  0
LWPOLYLINE
  5
128
100
AcDbEntity
  8
0
 62
1
100
AcDbPolyline
 90
4
 70
1
 10
116.395100
 20
35.711800
 30
0.0
 10
117.185100
 20
35.711800
 30
0.0
 10
117.185100
 20
35.311800
 30
0.0
 10
116.395100
 20
35.311800
 30
0.0
  0
LWPOLYLINE
  5
129
100
AcDbEntity
  8
0
 62
1
100
AcDbPolyline
 90
4
 70
1
 10
113.855100
 20
35.711800
 30
0.0
 10
114.645100
 20
35.711800
 30
0.0
 10
114.645100
 20
35.311800
 30
0.0
 10
113.855100
 20
35.311800
 30
0.0
  0
LWPOLYLINE
  5
12a
100
AcDbEntity
  8
0
 62
1
100
AcDbPolyline
 90
4
 70
1
 10
116.395100
 20
34.911800
 30
0.0
 10
117.185100
 20
34.911800
 30
0.0
 10
117.185100
 20
34.511800
 30
0.0
 10
116.395100
 20
34.511800
 30
0.0
  0
LWPOLYLINE
  5
12b
100
AcDbEntity
  8
0
 62
1
100
AcDbPolyline
 90
4
 70
1
 10
113.855100
 20
34.911800
 30
0.0
 10
114.645100
 20
34.911800
 30
0.0
 10
114.645100
 20
34.511800
 30
0.0
 10
113.855100
 20
34.511800
 30
0.0
  0
LWPOLYLINE
  5
12c
100
AcDbEntity
  8
0
 62
1
100
AcDbPolyline
 90
4
 70
1
 10
116.395100
 20
34.111800
 30
0.0
 10
117.185100
 20
34.111800
 30
0.0
 10
117.185100
 20
33.711800
 30
0.0
 10
116.395100
 20
33.711800
 30
0.0
  0
LWPOLYLINE
  5
12d
100
AcDbEntity
  8
0
 62
1
100
AcDbPolyline
 90
4
 70
1
 10
113.855100
 20
34.111800
 30
0.0
 10
114.645100
 20
34.111800
 30
0.0
 10
114.645100
 20
33.711800
 30
0.0
 10
113.855100
 20
33.711800
 30
0.0
  0
LWPOLYLINE
  5
12e
100
AcDbEntity
  8
0
 62
1
100
AcDbPolyline
 90
4
 70
1
 10
116.395100
 20
33.311800
 30
0.0
 10
117.185100
 20
33.311800
 30
0.0
 10
117.185100
 20
32.911800
 30
0.0
 10
116.395100
 20
32.911800
 30
0.0
  0
LWPOLYLINE
  5
12f
100
AcDbEntity
  8
0
 62
1
100
AcDbPolyline
 90
4
 70
1
 10
113.855100
 20
33.311800
 30
0.0
 10
114.645100
 20
33.311800
 30
0.0
 10
114.645100
 20
32.911800
 30
0.0
 10
113.855100
 20
32.911800
 30
0.0
  0
LWPOLYLINE
  5
130
100
AcDbEntity
  8
0
 62
1
100
AcDbPolyline
 90
4
 70
1
 10
116.395100
 20
32.511800
 30
0.0
 10
117.185100
 20
32.511800
 30
0.0
 10
117.185100
 20
32.111800
 30
0.0
 10
116.395100
 20
32.111800
 30
0.0
  0
LWPOLYLINE
  5
131
100
AcDbEntity
  8
0
 62
1
100
AcDbPolyline
 90
4
 70
1
 10
113.855100
 20
32.511800
 30
0.0
 10
114.645100
 20
32.511800
 30
0.0
 10
114.645100
 20
32.111800
 30
0.0
 10
113.855100
 20
32.111800
 30
0.0
  0
LWPOLYLINE
  5
132
100
AcDbEntity
  8
0
 62
1
100
AcDbPolyline
 90
4
 70
1
 10
116.395100
 20
31.711800
 30
0.0
 10
117.185100
 20
31.711800
 30
0.0
 10
117.185100
 20
31.311800
 30
0.0
 10
116.395100
 20
31.311800
 30
0.0
  0
LWPOLYLINE
  5
133
100
AcDbEntity
  8
0
 62
1
100
AcDbPolyline
 90
4
 70
1
 10
113.855100
 20
31.711800
 30
0.0
 10
114.645100
 20
31.711800
 30
0.0
 10
114.645100
 20
31.311800
 30
0.0
 10
113.855100
 20
31.311800
 30
0.0
  0
LWPOLYLINE
  5
134
100
AcDbEntity
  8
0
 62
1
100
AcDbPolyline
 90
4
 70
1
 10
114.720100
 20
38.586800
 30
0.0
 10
116.320100
 20
38.586800
 30
0.0
 10
116.320100
 20
37.936800
 30
0.0
 10
114.720100
 20
37.936800
 30
0.0
  0
LWPOLYLINE
  5
135
100
AcDbEntity
  8
0
 62
1
100
AcDbPolyline
 90
4
 70
1
 10
114.720100
 20
30.686800
 30
0.0
 10
116.320100
 20
30.686800
 30
0.0
 10
116.320100
 20
30.036800
 30
0.0
 10
114.720100
 20
30.036800
 30
0.0
  0
LWPOLYLINE
  5
136
100
AcDbEntity
  8
0
 62
1
100
AcDbPolyline
 90
4
 70
1
 10
22.082600
 20
37.386800
 30
0.0
 10
22.872600
 20
37.386800
 30
0.0
 10
22.872600
 20
36.986800
 30
0.0
 10
22.082600
 20
36.986800
 30
0.0
  0
LWPOLYLINE
  5
137
100
AcDbEntity
  8
0
 62
1
100
AcDbPolyline
 90
4
 70
1
 10
19.542600
 20
37.386800
 30
0.0
 10
20.332600
 20
37.386800
 30
0.0
 10
20.332600
 20
36.986800
 30
0.0
 10
19.542600
 20
36.986800
 30
0.0
  0
LWPOLYLINE
  5
138
100
AcDbEntity
  8
0
 62
1
100
AcDbPolyline
 90
4
 70
1
 10
22.082600
 20
36.586800
 30
0.0
 10
22.872600
 20
36.586800
 30
0.0
 10
22.872600
 20
36.186800
 30
0.0
 10
22.082600
 20
36.186800
 30
0.0
  0
LWPOLYLINE
  5
139
100
AcDbEntity
  8
0
 62
1
100
AcDbPolyline
 90
4
 70
1
 10
19.542600
 20
36.586800
 30
0.0
 10
20.332600
 20
36.586800
 30
0.0
 10
20.332600
 20
36.186800
 30
0.0
 10
19.542600
 20
36.186800
 30
0.0
  0
LWPOLYLINE
  5
13a
100
AcDbEntity
  8
0
 62
1
100
AcDbPolyline
 90
4
 70
1
 10
22.082600
 20
35.786800
 30
0.0
 10
22.872600
 20
35.786800
 30
0.0
 10
22.872600
 20
35.386800
 30
0.0
 10
22.082600
 20
35.386800
 30
0.0
  0
LWPOLYLINE
  5
13b
100
AcDbEntity
  8
0
 62
1
100
AcDbPolyline
 90
4
 70
1
 10
19.542600
 20
35.786800
 30
0.0
 10
20.332600
 20
35.786800
 30
0.0
 10
20.332600
 20
35.386800
 30
0.0
 10
19.542600
 20
35.386800
 30
0.0
  0
LWPOLYLINE
  5
13c
100
AcDbEntity
  8
0
 62
1
100
AcDbPolyline
 90
4
 70
1
 10
22.082600
 20
34.986800
 30
0.0
 10
22.872600
 20
34.986800
 30
0.0
 10
22.872600
 20
34.586800
 30
0.0
 10
22.082600
 20
34.586800
 30
0.0
  0
LWPOLYLINE
  5
13d
100
AcDbEntity
  8
0
 62
1
100
AcDbPolyline
 90
4
 70
1
 10
19.542600
 20
34.986800
 30
0.0
 10
20.332600
 20
34.986800
 30
0.0
 10
20.332600
 20
34.586800
 30
0.0
 10
19.542600
 20
34.586800
 30
0.0
  0
LWPOLYLINE
  5
13e
100
AcDbEntity
  8
0
 62
1
100
AcDbPolyline
 90
4
 70
1
 10
22.082600
 20
34.186800
 30
0.0
 10
22.872600
 20
34.186800
 30
0.0
 10
22.872600
 20
33.786800
 30
0.0
 10
22.082600
 20
33.786800
 30
0.0
  0
LWPOLYLINE
  5
13f
100
AcDbEntity
  8
0
 62
1
100
AcDbPolyline
 90
4
 70
1
 10
19.542600
 20
34.186800
 30
0.0
 10
20.332600
 20
34.186800
 30
0.0
 10
20.332600
 20
33.786800
 30
0.0
 10
19.542600
 20
33.786800
 30
0.0
  0
LWPOLYLINE
  5
140
100
AcDbEntity
  8
0
 62
1
100
AcDbPolyline
 90
4
 70
1
 10
22.082600
 20
33.386800
 30
0.0
 10
22.872600
 20
33.386800
 30
0.0
 10
22.872600
 20
32.986800
 30
0.0
 10
22.082600
 20
32.986800
 30
0.0
  0
LWPOLYLINE
  5
141
100
AcDbEntity
  8
0
 62
1
100
AcDbPolyline
 90
4
 70
1
 10
19.542600
 20
33.386800
 30
0.0
 10
20.332600
 20
33.386800
 30
0.0
 10
20.332600
 20
32.986800
 30
0.0
 10
19.542600
 20
32.986800
 30
0.0
  0
LWPOLYLINE
  5
142
100
AcDbEntity
  8
0
 62
1
100
AcDbPolyline
 90
4
 70
1
 10
22.082600
 20
32.586800
 30
0.0
 10
22.872600
 20
32.586800
 30
0.0
 10
22.872600
 20
32.186800
 30
0.0
 10
22.082600
 20
32.186800
 30
0.0
  0
LWPOLYLINE
  5
143
100
AcDbEntity
  8
0
 62
1
100
AcDbPolyline
 90
4
 70
1
 10
19.542600
 20
32.586800
 30
0.0
 10
20.332600
 20
32.586800
 30
0.0
 10
20.332600
 20
32.186800
 30
0.0
 10
19.542600
 20
32.186800
 30
0.0
  0
LWPOLYLINE
  5
144
100
AcDbEntity
  8
0
 62
1
100
AcDbPolyline
 90
4
 70
1
 10
22.082600
 20
31.786800
 30
0.0
 10
22.872600
 20
31.786800
 30
0.0
 10
22.872600
 20
31.386800
 30
0.0
 10
22.082600
 20
31.386800
 30
0.0
  0
LWPOLYLINE
  5
145
100
AcDbEntity
  8
0
 62
1
100
AcDbPolyline
 90
4
 70
1
 10
19.542600
 20
31.786800
 30
0.0
 10
20.332600
 20
31.786800
 30
0.0
 10
20.332600
 20
31.386800
 30
0.0
 10
19.542600
 20
31.386800
 30
0.0
  0
LWPOLYLINE
  5
146
100
AcDbEntity
  8
0
 62
1
100
AcDbPolyline
 90
4
 70
1
 10
20.407600
 20
38.661800
 30
0.0
 10
22.007600
 20
38.661800
 30
0.0
 10
22.007600
 20
38.011800
 30
0.0
 10
20.407600
 20
38.011800
 30
0.0
  0
LWPOLYLINE
  5
147
100
AcDbEntity
  8
0
 62
1
100
AcDbPolyline
 90
4
 70
1
 10
20.407600
 20
30.761800
 30
0.0
 10
22.007600
 20
30.761800
 30
0.0
 10
22.007600
 20
30.111800
 30
0.0
 10
20.407600
 20
30.111800
 30
0.0
  0
LWPOLYLINE
  5
148
100
AcDbEntity
  8
0
 62
1
100
AcDbPolyline
 90
4
 70
1
 10
95.775100
 20
12.711800
 30
0.0
 10
94.985100
 20
12.711800
 30
0.0
 10
94.985100
 20
13.111800
 30
0.0
 10
95.775100
 20
13.111800
 30
0.0
  0
LWPOLYLINE
  5
149
100
AcDbEntity
  8
0
 62
1
100
AcDbPolyline
 90
4
 70
1
 10
98.315100
 20
12.711800
 30
0.0
 10
97.525100
 20
12.711800
 30
0.0
 10
97.525100
 20
13.111800
 30
0.0
 10
98.315100
 20
13.111800
 30
0.0
  0
LWPOLYLINE
  5
14a
100
AcDbEntity
  8
0
 62
1
100
AcDbPolyline
 90
4
 70
1
 10
95.775100
 20
13.511800
 30
0.0
 10
94.985100
 20
13.511800
 30
0.0
 10
94.985100
 20
13.911800
 30
0.0
 10
95.775100
 20
13.911800
 30
0.0
  0
LWPOLYLINE
  5
14b
100
AcDbEntity
  8
0
 62
1
100
AcDbPolyline
 90
4
 70
1
 10
98.315100
 20
13.511800
 30
0.0
 10
97.525100
 20
13.511800
 30
0.0
 10
97.525100
 20
13.911800
 30
0.0
 10
98.315100
 20
13.911800
 30
0.0
  0
LWPOLYLINE
  5
14c
100
AcDbEntity
  8
0
 62
1
100
AcDbPolyline
 90
4
 70
1
 10
95.775100
 20
14.311800
 30
0.0
 10
94.985100
 20
14.311800
 30
0.0
 10
94.985100
 20
14.711800
 30
0.0
 10
95.775100
 20
14.711800
 30
0.0
  0
LWPOLYLINE
  5
14d
100
AcDbEntity
  8
0
 62
1
100
AcDbPolyline
 90
4
 70
1
 10
98.315100
 20
14.311800
 30
0.0
 10
97.525100
 20
14.311800
 30
0.0
 10
97.525100
 20
14.711800
 30
0.0
 10
98.315100
 20
14.711800
 30
0.0
  0
LWPOLYLINE
  5
14e
100
AcDbEntity
  8
0
 62
1
100
AcDbPolyline
 90
4
 70
1
 10
95.775100
 20
15.111800
 30
0.0
 10
94.985100
 20
15.111800
 30
0.0
 10
94.985100
 20
15.511800
 30
0.0
 10
95.775100
 20
15.511800
 30
0.0
  0
LWPOLYLINE
  5
14f
100
AcDbEntity
  8
0
 62
1
100
AcDbPolyline
 90
4
 70
1
 10
98.315100
 20
15.111800
 30
0.0
 10
97.525100
 20
15.111800
 30
0.0
 10
97.525100
 20
15.511800
 30
0.0
 10
98.315100
 20
15.511800
 30
0.0
  0
LWPOLYLINE
  5
150
100
AcDbEntity
  8
0
 62
1
100
AcDbPolyline
 90
4
 70
1
 10
95.775100
 20
15.911800
 30
0.0
 10
94.985100
 20
15.911800
 30
0.0
 10
94.985100
 20
16.311800
 30
0.0
 10
95.775100
 20
16.311800
 30
0.0
  0
LWPOLYLINE
  5
151
100
AcDbEntity
  8
0
 62
1
100
AcDbPolyline
 90
4
 70
1
 10
98.315100
 20
15.911800
 30
0.0
 10
97.525100
 20
15.911800
 30
0.0
 10
97.525100
 20
16.311800
 30
0.0
 10
98.315100
 20
16.311800
 30
0.0
  0
LWPOLYLINE
  5
152
100
AcDbEntity
  8
0
 62
1
100
AcDbPolyline
 90
4
 70
1
 10
95.775100
 20
16.711800
 30
0.0
 10
94.985100
 20
16.711800
 30
0.0
 10
94.985100
 20
17.111800
 30
0.0
 10
95.775100
 20
17.111800
 30
0.0
  0
LWPOLYLINE
  5
153
100
AcDbEntity
  8
0
 62
1
100
AcDbPolyline
 90
4
 70
1
 10
98.315100
 20
16.711800
 30
0.0
 10
97.525100
 20
16.711800
 30
0.0
 10
97.525100
 20
17.111800
 30
0.0
 10
98.315100
 20
17.111800
 30
0.0
  0
LWPOLYLINE
  5
154
100
AcDbEntity
  8
0
 62
1
100
AcDbPolyline
 90
4
 70
1
 10
95.775100
 20
17.511800
 30
0.0
 10
94.985100
 20
17.511800
 30
0.0
 10
94.985100
 20
17.911800
 30
0.0
 10
95.775100
 20
17.911800
 30
0.0
  0
LWPOLYLINE
  5
155
100
AcDbEntity
  8
0
 62
1
100
AcDbPolyline
 90
4
 70
1
 10
98.315100
 20
17.511800
 30
0.0
 10
97.525100
 20
17.511800
 30
0.0
 10
97.525100
 20
17.911800
 30
0.0
 10
98.315100
 20
17.911800
 30
0.0
  0
LWPOLYLINE
  5
156
100
AcDbEntity
  8
0
 62
1
100
AcDbPolyline
 90
4
 70
1
 10
95.775100
 20
18.311800
 30
0.0
 10
94.985100
 20
18.311800
 30
0.0
 10
94.985100
 20
18.711800
 30
0.0
 10
95.775100
 20
18.711800
 30
0.0
  0
LWPOLYLINE
  5
157
100
AcDbEntity
  8
0
 62
1
100
AcDbPolyline
 90
4
 70
1
 10
98.315100
 20
18.311800
 30
0.0
 10
97.525100
 20
18.311800
 30
0.0
 10
97.525100
 20
18.711800
 30
0.0
 10
98.315100
 20
18.711800
 30
0.0
  0
LWPOLYLINE
  5
158
100
AcDbEntity
  8
0
 62
1
100
AcDbPolyline
 90
4
 70
1
 10
97.450100
 20
11.436800
 30
0.0
 10
95.850100
 20
11.436800
 30
0.0
 10
95.850100
 20
12.086800
 30
0.0
 10
97.450100
 20
12.086800
 30
0.0
  0
LWPOLYLINE
  5
159
100
AcDbEntity
  8
0
 62
1
100
AcDbPolyline
 90
4
 70
1
 10
97.450100
 20
19.336800
 30
0.0
 10
95.850100
 20
19.336800
 30
0.0
 10
95.850100
 20
19.986800
 30
0.0
 10
97.450100
 20
19.986800
 30
0.0
  0
LWPOLYLINE
  5
15a
100
AcDbEntity
  8
0
 62
1
100
AcDbPolyline
 90
4
 70
1
 10
59.882600
 20
75.036800
 30
0.0
 10
60.672600
 20
75.036800
 30
0.0
 10
60.672600
 20
74.636800
 30
0.0
 10
59.882600
 20
74.636800
 30
0.0
  0
LWPOLYLINE
  5
15b
100
AcDbEntity
  8
0
 62
1
100
AcDbPolyline
 90
4
 70
1
 10
57.342600
 20
75.036800
 30
0.0
 10
58.132600
 20
75.036800
 30
0.0
 10
58.132600
 20
74.636800
 30
0.0
 10
57.342600
 20
74.636800
 30
0.0
  0
LWPOLYLINE
  5
15c
100
AcDbEntity
  8
0
 62
1
100
AcDbPolyline
 90
4
 70
1
 10
59.882600
 20
74.236800
 30
0.0
 10
60.672600
 20
74.236800
 30
0.0
 10
60.672600
 20
73.836800
 30
0.0
 10
59.882600
 20
73.836800
 30
0.0
  0
LWPOLYLINE
  5
15d
100
AcDbEntity
  8
0
 62
1
100
AcDbPolyline
 90
4
 70
1
 10
57.342600
 20
74.236800
 30
0.0
 10
58.132600
 20
74.236800
 30
0.0
 10
58.132600
 20
73.836800
 30
0.0
 10
57.342600
 20
73.836800
 30
0.0
  0
LWPOLYLINE
  5
15e
100
AcDbEntity
  8
0
 62
1
100
AcDbPolyline
 90
4
 70
1
 10
59.882600
 20
73.436800
 30
0.0
 10
60.672600
 20
73.436800
 30
0.0
 10
60.672600
 20
73.036800
 30
0.0
 10
59.882600
 20
73.036800
 30
0.0
  0
LWPOLYLINE
  5
15f
100
AcDbEntity
  8
0
 62
1
100
AcDbPolyline
 90
4
 70
1
 10
57.342600
 20
73.436800
 30
0.0
 10
58.132600
 20
73.436800
 30
0.0
 10
58.132600
 20
73.036800
 30
0.0
 10
57.342600
 20
73.036800
 30
0.0
  0
LWPOLYLINE
  5
160
100
AcDbEntity
  8
0
 62
1
100
AcDbPolyline
 90
4
 70
1
 10
59.882600
 20
72.636800
 30
0.0
 10
60.672600
 20
72.636800
 30
0.0
 10
60.672600
 20
72.236800
 30
0.0
 10
59.882600
 20
72.236800
 30
0.0
  0
LWPOLYLINE
  5
161
100
AcDbEntity
  8
0
 62
1
100
AcDbPolyline
 90
4
 70
1
 10
57.342600
 20
72.636800
 30
0.0
 10
58.132600
 20
72.636800
 30
0.0
 10
58.132600
 20
72.236800
 30
0.0
 10
57.342600
 20
72.236800
 30
0.0
  0
LWPOLYLINE
  5
162
100
AcDbEntity
  8
0
 62
1
100
AcDbPolyline
 90
4
 70
1
 10
59.882600
 20
71.836800
 30
0.0
 10
60.672600
 20
71.836800
 30
0.0
 10
60.672600
 20
71.436800
 30
0.0
 10
59.882600
 20
71.436800
 30
0.0
  0
LWPOLYLINE
  5
163
100
AcDbEntity
  8
0
 62
1
100
AcDbPolyline
 90
4
 70
1
 10
57.342600
 20
71.836800
 30
0.0
 10
58.132600
 20
71.836800
 30
0.0
 10
58.132600
 20
71.436800
 30
0.0
 10
57.342600
 20
71.436800
 30
0.0
  0
LWPOLYLINE
  5
164
100
AcDbEntity
  8
0
 62
1
100
AcDbPolyline
 90
4
 70
1
 10
59.882600
 20
71.036800
 30
0.0
 10
60.672600
 20
71.036800
 30
0.0
 10
60.672600
 20
70.636800
 30
0.0
 10
59.882600
 20
70.636800
 30
0.0
  0
LWPOLYLINE
  5
165
100
AcDbEntity
  8
0
 62
1
100
AcDbPolyline
 90
4
 70
1
 10
57.342600
 20
71.036800
 30
0.0
 10
58.132600
 20
71.036800
 30
0.0
 10
58.132600
 20
70.636800
 30
0.0
 10
57.342600
 20
70.636800
 30
0.0
  0
LWPOLYLINE
  5
166
100
AcDbEntity
  8
0
 62
1
100
AcDbPolyline
 90
4
 70
1
 10
59.882600
 20
70.236800
 30
0.0
 10
60.672600
 20
70.236800
 30
0.0
 10
60.672600
 20
69.836800
 30
0.0
 10
59.882600
 20
69.836800
 30
0.0
  0
LWPOLYLINE
  5
167
100
AcDbEntity
  8
0
 62
1
100
AcDbPolyline
 90
4
 70
1
 10
57.342600
 20
70.236800
 30
0.0
 10
58.132600
 20
70.236800
 30
0.0
 10
58.132600
 20
69.836800
 30
0.0
 10
57.342600
 20
69.836800
 30
0.0
  0
LWPOLYLINE
  5
168
100
AcDbEntity
  8
0
 62
1
100
AcDbPolyline
 90
4
 70
1
 10
59.882600
 20
69.436800
 30
0.0
 10
60.672600
 20
69.436800
 30
0.0
 10
60.672600
 20
69.036800
 30
0.0
 10
59.882600
 20
69.036800
 30
0.0
  0
LWPOLYLINE
  5
169
100
AcDbEntity
  8
0
 62
1
100
AcDbPolyline
 90
4
 70
1
 10
57.342600
 20
69.436800
 30
0.0
 10
58.132600
 20
69.436800
 30
0.0
 10
58.132600
 20
69.036800
 30
0.0
 10
57.342600
 20
69.036800
 30
0.0
  0
LWPOLYLINE
  5
16a
100
AcDbEntity
  8
0
 62
1
100
AcDbPolyline
 90
4
 70
1
 10
58.207600
 20
76.311800
 30
0.0
 10
59.807600
 20
76.311800
 30
0.0
 10
59.807600
 20
75.661800
 30
0.0
 10
58.207600
 20
75.661800
 30
0.0
  0
LWPOLYLINE
  5
16b
100
AcDbEntity
  8
0
 62
1
100
AcDbPolyline
 90
4
 70
1
 10
58.207600
 20
68.411800
 30
0.0
 10
59.807600
 20
68.411800
 30
0.0
 10
59.807600
 20
67.761800
 30
0.0
 10
58.207600
 20
67.761800
 30
0.0
  0
LWPOLYLINE
  5
16c
100
AcDbEntity
  8
0
 62
1
100
AcDbPolyline
 90
4
 70
1
 10
76.792600
 20
50.486800
 30
0.0
 10
76.002600
 20
50.486800
 30
0.0
 10
76.002600
 20
50.886800
 30
0.0
 10
76.792600
 20
50.886800
 30
0.0
  0
LWPOLYLINE
  5
16d
100
AcDbEntity
  8
0
 62
1
100
AcDbPolyline
 90
4
 70
1
 10
79.332600
 20
50.486800
 30
0.0
 10
78.542600
 20
50.486800
 30
0.0
 10
78.542600
 20
50.886800
 30
0.0
 10
79.332600
 20
50.886800
 30
0.0
  0
LWPOLYLINE
  5
16e
100
AcDbEntity
  8
0
 62
1
100
AcDbPolyline
 90
4
 70
1
 10
76.792600
 20
51.286800
 30
0.0
 10
76.002600
 20
51.286800
 30
0.0
 10
76.002600
 20
51.686800
 30
0.0
 10
76.792600
 20
51.686800
 30
0.0
  0
LWPOLYLINE
  5
16f
100
AcDbEntity
  8
0
 62
1
100
AcDbPolyline
 90
4
 70
1
 10
79.332600
 20
51.286800
 30
0.0
 10
78.542600
 20
51.286800
 30
0.0
 10
78.542600
 20
51.686800
 30
0.0
 10
79.332600
 20
51.686800
 30
0.0
  0
LWPOLYLINE
  5
170
100
AcDbEntity
  8
0
 62
1
100
AcDbPolyline
 90
4
 70
1
 10
76.792600
 20
52.086800
 30
0.0
 10
76.002600
 20
52.086800
 30
0.0
 10
76.002600
 20
52.486800
 30
0.0
 10
76.792600
 20
52.486800
 30
0.0
  0
LWPOLYLINE
  5
171
100
AcDbEntity
  8
0
 62
1
100
AcDbPolyline
 90
4
 70
1
 10
79.332600
 20
52.086800
 30
0.0
 10
78.542600
 20
52.086800
 30
0.0
 10
78.542600
 20
52.486800
 30
0.0
 10
79.332600
 20
52.486800
 30
0.0
  0
LWPOLYLINE
  5
172
100
AcDbEntity
  8
0
 62
1
100
AcDbPolyline
 90
4
 70
1
 10
76.792600
 20
52.886800
 30
0.0
 10
76.002600
 20
52.886800
 30
0.0
 10
76.002600
 20
53.286800
 30
0.0
 10
76.792600
 20
53.286800
 30
0.0
  0
LWPOLYLINE
  5
173
100
AcDbEntity
  8
0
 62
1
100
AcDbPolyline
 90
4
 70
1
 10
79.332600
 20
52.886800
 30
0.0
 10
78.542600
 20
52.886800
 30
0.0
 10
78.542600
 20
53.286800
 30
0.0
 10
79.332600
 20
53.286800
 30
0.0
  0
LWPOLYLINE
  5
174
100
AcDbEntity
  8
0
 62
1
100
AcDbPolyline
 90
4
 70
1
 10
76.792600
 20
53.686800
 30
0.0
 10
76.002600
 20
53.686800
 30
0.0
 10
76.002600
 20
54.086800
 30
0.0
 10
76.792600
 20
54.086800
 30
0.0
  0
LWPOLYLINE
  5
175
100
AcDbEntity
  8
0
 62
1
100
AcDbPolyline
 90
4
 70
1
 10
79.332600
 20
53.686800
 30
0.0
 10
78.542600
 20
53.686800
 30
0.0
 10
78.542600
 20
54.086800
 30
0.0
 10
79.332600
 20
54.086800
 30
0.0
  0
LWPOLYLINE
  5
176
100
AcDbEntity
  8
0
 62
1
100
AcDbPolyline
 90
4
 70
1
 10
76.792600
 20
54.486800
 30
0.0
 10
76.002600
 20
54.486800
 30
0.0
 10
76.002600
 20
54.886800
 30
0.0
 10
76.792600
 20
54.886800
 30
0.0
  0
LWPOLYLINE
  5
177
100
AcDbEntity
  8
0
 62
1
100
AcDbPolyline
 90
4
 70
1
 10
79.332600
 20
54.486800
 30
0.0
 10
78.542600
 20
54.486800
 30
0.0
 10
78.542600
 20
54.886800
 30
0.0
 10
79.332600
 20
54.886800
 30
0.0
  0
LWPOLYLINE
  5
178
100
AcDbEntity
  8
0
 62
1
100
AcDbPolyline
 90
4
 70
1
 10
76.792600
 20
55.286800
 30
0.0
 10
76.002600
 20
55.286800
 30
0.0
 10
76.002600
 20
55.686800
 30
0.0
 10
76.792600
 20
55.686800
 30
0.0
  0
LWPOLYLINE
  5
179
100
AcDbEntity
  8
0
 62
1
100
AcDbPolyline
 90
4
 70
1
 10
79.332600
 20
55.286800
 30
0.0
 10
78.542600
 20
55.286800
 30
0.0
 10
78.542600
 20
55.686800
 30
0.0
 10
79.332600
 20
55.686800
 30
0.0
  0
LWPOLYLINE
  5
17a
100
AcDbEntity
  8
0
 62
1
100
AcDbPolyline
 90
4
 70
1
 10
76.792600
 20
56.086800
 30
0.0
 10
76.002600
 20
56.086800
 30
0.0
 10
76.002600
 20
56.486800
 30
0.0
 10
76.792600
 20
56.486800
 30
0.0
  0
LWPOLYLINE
  5
17b
100
AcDbEntity
  8
0
 62
1
100
AcDbPolyline
 90
4
 70
1
 10
79.332600
 20
56.086800
 30
0.0
 10
78.542600
 20
56.086800
 30
0.0
 10
78.542600
 20
56.486800
 30
0.0
 10
79.332600
 20
56.486800
 30
0.0
  0
LWPOLYLINE
  5
17c
100
AcDbEntity
  8
0
 62
1
100
AcDbPolyline
 90
4
 70
1
 10
78.467600
 20
49.211800
 30
0.0
 10
76.867600
 20
49.211800
 30
0.0
 10
76.867600
 20
49.861800
 30
0.0
 10
78.467600
 20
49.861800
 30
0.0
  0
LWPOLYLINE
  5
17d
100
AcDbEntity
  8
0
 62
1
100
AcDbPolyline
 90
4
 70
1
 10
78.467600
 20
57.111800
 30
0.0
 10
76.867600
 20
57.111800
 30
0.0
 10
76.867600
 20
57.761800
 30
0.0
 10
78.467600
 20
57.761800
 30
0.0
  0
LWPOLYLINE
  5
17e
100
AcDbEntity
  8
0
 62
1
100
AcDbPolyline
 90
4
 70
1
 10
39.110100
 20
50.411800
 30
0.0
 10
38.320100
 20
50.411800
 30
0.0
 10
38.320100
 20
50.811800
 30
0.0
 10
39.110100
 20
50.811800
 30
0.0
  0
LWPOLYLINE
  5
17f
100
AcDbEntity
  8
0
 62
1
100
AcDbPolyline
 90
4
 70
1
 10
41.650100
 20
50.411800
 30
0.0
 10
40.860100
 20
50.411800
 30
0.0
 10
40.860100
 20
50.811800
 30
0.0
 10
41.650100
 20
50.811800
 30
0.0
  0
LWPOLYLINE
  5
180
100
AcDbEntity
  8
0
 62
1
100
AcDbPolyline
 90
4
 70
1
 10
39.110100
 20
51.211800
 30
0.0
 10
38.320100
 20
51.211800
 30
0.0
 10
38.320100
 20
51.611800
 30
0.0
 10
39.110100
 20
51.611800
 30
0.0
  0
LWPOLYLINE
  5
181
100
AcDbEntity
  8
0
 62
1
100
AcDbPolyline
 90
4
 70
1
 10
41.650100
 20
51.211800
 30
0.0
 10
40.860100
 20
51.211800
 30
0.0
 10
40.860100
 20
51.611800
 30
0.0
 10
41.650100
 20
51.611800
 30
0.0
  0
LWPOLYLINE
  5
182
100
AcDbEntity
  8
0
 62
1
100
AcDbPolyline
 90
4
 70
1
 10
39.110100
 20
52.011800
 30
0.0
 10
38.320100
 20
52.011800
 30
0.0
 10
38.320100
 20
52.411800
 30
0.0
 10
39.110100
 20
52.411800
 30
0.0
  0
LWPOLYLINE
  5
183
100
AcDbEntity
  8
0
 62
1
100
AcDbPolyline
 90
4
 70
1
 10
41.650100
 20
52.011800
 30
0.0
 10
40.860100
 20
52.011800
 30
0.0
 10
40.860100
 20
52.411800
 30
0.0
 10
41.650100
 20
52.411800
 30
0.0
  0
LWPOLYLINE
  5
184
100
AcDbEntity
  8
0
 62
1
100
AcDbPolyline
 90
4
 70
1
 10
39.110100
 20
52.811800
 30
0.0
 10
38.320100
 20
52.811800
 30
0.0
 10
38.320100
 20
53.211800
 30
0.0
 10
39.110100
 20
53.211800
 30
0.0
  0
LWPOLYLINE
  5
185
100
AcDbEntity
  8
0
 62
1
100
AcDbPolyline
 90
4
 70
1
 10
41.650100
 20
52.811800
 30
0.0
 10
40.860100
 20
52.811800
 30
0.0
 10
40.860100
 20
53.211800
 30
0.0
 10
41.650100
 20
53.211800
 30
0.0
  0
LWPOLYLINE
  5
186
100
AcDbEntity
  8
0
 62
1
100
AcDbPolyline
 90
4
 70
1
 10
39.110100
 20
53.611800
 30
0.0
 10
38.320100
 20
53.611800
 30
0.0
 10
38.320100
 20
54.011800
 30
0.0
 10
39.110100
 20
54.011800
 30
0.0
  0
LWPOLYLINE
  5
187
100
AcDbEntity
  8
0
 62
1
100
AcDbPolyline
 90
4
 70
1
 10
41.650100
 20
53.611800
 30
0.0
 10
40.860100
 20
53.611800
 30
0.0
 10
40.860100
 20
54.011800
 30
0.0
 10
41.650100
 20
54.011800
 30
0.0
  0
LWPOLYLINE
  5
188
100
AcDbEntity
  8
0
 62
1
100
AcDbPolyline
 90
4
 70
1
 10
39.110100
 20
54.411800
 30
0.0
 10
38.320100
 20
54.411800
 30
0.0
 10
38.320100
 20
54.811800
 30
0.0
 10
39.110100
 20
54.811800
 30
0.0
  0
LWPOLYLINE
  5
189
100
AcDbEntity
  8
0
 62
1
100
AcDbPolyline
 90
4
 70
1
 10
41.650100
 20
54.411800
 30
0.0
 10
40.860100
 20
54.411800
 30
0.0
 10
40.860100
 20
54.811800
 30
0.0
 10
41.650100
 20
54.811800
 30
0.0
  0
LWPOLYLINE
  5
18a
100
AcDbEntity
  8
0
 62
1
100
AcDbPolyline
 90
4
 70
1
 10
39.110100
 20
55.211800
 30
0.0
 10
38.320100
 20
55.211800
 30
0.0
 10
38.320100
 20
55.611800
 30
0.0
 10
39.110100
 20
55.611800
 30
0.0
  0
LWPOLYLINE
  5
18b
100
AcDbEntity
  8
0
 62
1
100
AcDbPolyline
 90
4
 70
1
 10
41.650100
 20
55.211800
 30
0.0
 10
40.860100
 20
55.211800
 30
0.0
 10
40.860100
 20
55.611800
 30
0.0
 10
41.650100
 20
55.611800
 30
0.0
  0
LWPOLYLINE
  5
18c
100
AcDbEntity
  8
0
 62
1
100
AcDbPolyline
 90
4
 70
1
 10
39.110100
 20
56.011800
 30
0.0
 10
38.320100
 20
56.011800
 30
0.0
 10
38.320100
 20
56.411800
 30
0.0
 10
39.110100
 20
56.411800
 30
0.0
  0
LWPOLYLINE
  5
18d
100
AcDbEntity
  8
0
 62
1
100
AcDbPolyline
 90
4
 70
1
 10
41.650100
 20
56.011800
 30
0.0
 10
40.860100
 20
56.011800
 30
0.0
 10
40.860100
 20
56.411800
 30
0.0
 10
41.650100
 20
56.411800
 30
0.0
  0
LWPOLYLINE
  5
18e
100
AcDbEntity
  8
0
 62
1
100
AcDbPolyline
 90
4
 70
1
 10
40.785100
 20
49.136800
 30
0.0
 10
39.185100
 20
49.136800
 30
0.0
 10
39.185100
 20
49.786800
 30
0.0
 10
40.785100
 20
49.786800
 30
0.0
  0
LWPOLYLINE
  5
18f
100
AcDbEntity
  8
0
 62
1
100
AcDbPolyline
 90
4
 70
1
 10
40.785100
 20
57.036800
 30
0.0
 10
39.185100
 20
57.036800
 30
0.0
 10
39.185100
 20
57.686800
 30
0.0
 10
40.785100
 20
57.686800
 30
0.0
  0
LWPOLYLINE
  5
190
100
AcDbEntity
  8
0
 62
1
100
AcDbPolyline
 90
4
 70
1
 10
39.267600
 20
12.736800
 30
0.0
 10
38.477600
 20
12.736800
 30
0.0
 10
38.477600
 20
13.136800
 30
0.0
 10
39.267600
 20
13.136800
 30
0.0
  0
LWPOLYLINE
  5
191
100
AcDbEntity
  8
0
 62
1
100
AcDbPolyline
 90
4
 70
1
 10
41.807600
 20
12.736800
 30
0.0
 10
41.017600
 20
12.736800
 30
0.0
 10
41.017600
 20
13.136800
 30
0.0
 10
41.807600
 20
13.136800
 30
0.0
  0
LWPOLYLINE
  5
192
100
AcDbEntity
  8
0
 62
1
100
AcDbPolyline
 90
4
 70
1
 10
39.267600
 20
13.536800
 30
0.0
 10
38.477600
 20
13.536800
 30
0.0
 10
38.477600
 20
13.936800
 30
0.0
 10
39.267600
 20
13.936800
 30
0.0
  0
LWPOLYLINE
  5
193
100
AcDbEntity
  8
0
 62
1
100
AcDbPolyline
 90
4
 70
1
 10
41.807600
 20
13.536800
 30
0.0
 10
41.017600
 20
13.536800
 30
0.0
 10
41.017600
 20
13.936800
 30
0.0
 10
41.807600
 20
13.936800
 30
0.0
  0
LWPOLYLINE
  5
194
100
AcDbEntity
  8
0
 62
1
100
AcDbPolyline
 90
4
 70
1
 10
39.267600
 20
14.336800
 30
0.0
 10
38.477600
 20
14.336800
 30
0.0
 10
38.477600
 20
14.736800
 30
0.0
 10
39.267600
 20
14.736800
 30
0.0
  0
LWPOLYLINE
  5
195
100
AcDbEntity
  8
0
 62
1
100
AcDbPolyline
 90
4
 70
1
 10
41.807600
 20
14.336800
 30
0.0
 10
41.017600
 20
14.336800
 30
0.0
 10
41.017600
 20
14.736800
 30
0.0
 10
41.807600
 20
14.736800
 30
0.0
  0
LWPOLYLINE
  5
196
100
AcDbEntity
  8
0
 62
1
100
AcDbPolyline
 90
4
 70
1
 10
39.267600
 20
15.136800
 30
0.0
 10
38.477600
 20
15.136800
 30
0.0
 10
38.477600
 20
15.536800
 30
0.0
 10
39.267600
 20
15.536800
 30
0.0
  0
LWPOLYLINE
  5
197
100
AcDbEntity
  8
0
 62
1
100
AcDbPolyline
 90
4
 70
1
 10
41.807600
 20
15.136800
 30
0.0
 10
41.017600
 20
15.136800
 30
0.0
 10
41.017600
 20
15.536800
 30
0.0
 10
41.807600
 20
15.536800
 30
0.0
  0
LWPOLYLINE
  5
198
100
AcDbEntity
  8
0
 62
1
100
AcDbPolyline
 90
4
 70
1
 10
39.267600
 20
15.936800
 30
0.0
 10
38.477600
 20
15.936800
 30
0.0
 10
38.477600
 20
16.336800
 30
0.0
 10
39.267600
 20
16.336800
 30
0.0
  0
LWPOLYLINE
  5
199
100
AcDbEntity
  8
0
 62
1
100
AcDbPolyline
 90
4
 70
1
 10
41.807600
 20
15.936800
 30
0.0
 10
41.017600
 20
15.936800
 30
0.0
 10
41.017600
 20
16.336800
 30
0.0
 10
41.807600
 20
16.336800
 30
0.0
  0
LWPOLYLINE
  5
19a
100
AcDbEntity
  8
0
 62
1
100
AcDbPolyline
 90
4
 70
1
 10
39.267600
 20
16.736800
 30
0.0
 10
38.477600
 20
16.736800
 30
0.0
 10
38.477600
 20
17.136800
 30
0.0
 10
39.267600
 20
17.136800
 30
0.0
  0
LWPOLYLINE
  5
19b
100
AcDbEntity
  8
0
 62
1
100
AcDbPolyline
 90
4
 70
1
 10
41.807600
 20
16.736800
 30
0.0
 10
41.017600
 20
16.736800
 30
0.0
 10
41.017600
 20
17.136800
 30
0.0
 10
41.807600
 20
17.136800
 30
0.0
  0
LWPOLYLINE
  5
19c
100
AcDbEntity
  8
0
 62
1
100
AcDbPolyline
 90
4
 70
1
 10
39.267600
 20
17.536800
 30
0.0
 10
38.477600
 20
17.536800
 30
0.0
 10
38.477600
 20
17.936800
 30
0.0
 10
39.267600
 20
17.936800
 30
0.0
  0
LWPOLYLINE
  5
19d
100
AcDbEntity
  8
0
 62
1
100
AcDbPolyline
 90
4
 70
1
 10
41.807600
 20
17.536800
 30
0.0
 10
41.017600
 20
17.536800
 30
0.0
 10
41.017600
 20
17.936800
 30
0.0
 10
41.807600
 20
17.936800
 30
0.0
  0
LWPOLYLINE
  5
19e
100
AcDbEntity
  8
0
 62
1
100
AcDbPolyline
 90
4
 70
1
 10
39.267600
 20
18.336800
 30
0.0
 10
38.477600
 20
18.336800
 30
0.0
 10
38.477600
 20
18.736800
 30
0.0
 10
39.267600
 20
18.736800
 30
0.0
  0
LWPOLYLINE
  5
19f
100
AcDbEntity
  8
0
 62
1
100
AcDbPolyline
 90
4
 70
1
 10
41.807600
 20
18.336800
 30
0.0
 10
41.017600
 20
18.336800
 30
0.0
 10
41.017600
 20
18.736800
 30
0.0
 10
41.807600
 20
18.736800
 30
0.0
  0
LWPOLYLINE
  5
1a0
100
AcDbEntity
  8
0
 62
1
100
AcDbPolyline
 90
4
 70
1
 10
40.942600
 20
11.461800
 30
0.0
 10
39.342600
 20
11.461800
 30
0.0
 10
39.342600
 20
12.111800
 30
0.0
 10
40.942600
 20
12.111800
 30
0.0
  0
LWPOLYLINE
  5
1a1
100
AcDbEntity
  8
0
 62
1
100
AcDbPolyline
 90
4
 70
1
 10
40.942600
 20
19.361800
 30
0.0
 10
39.342600
 20
19.361800
 30
0.0
 10
39.342600
 20
20.011800
 30
0.0
 10
40.942600
 20
20.011800
 30
0.0
  0
LWPOLYLINE
  5
1a2
100
AcDbEntity
  8
0
 62
1
100
AcDbPolyline
 90
4
 70
1
 10
114.825100
 20
12.686800
 30
0.0
 10
114.035100
 20
12.686800
 30
0.0
 10
114.035100
 20
13.086800
 30
0.0
 10
114.825100
 20
13.086800
 30
0.0
  0
LWPOLYLINE
  5
1a3
100
AcDbEntity
  8
0
 62
1
100
AcDbPolyline
 90
4
 70
1
 10
117.365100
 20
12.686800
 30
0.0
 10
116.575100
 20
12.686800
 30
0.0
 10
116.575100
 20
13.086800
 30
0.0
 10
117.365100
 20
13.086800
 30
0.0
  0
LWPOLYLINE
  5
1a4
100
AcDbEntity
  8
0
 62
1
100
AcDbPolyline
 90
4
 70
1
 10
114.825100
 20
13.486800
 30
0.0
 10
114.035100
 20
13.486800
 30
0.0
 10
114.035100
 20
13.886800
 30
0.0
 10
114.825100
 20
13.886800
 30
0.0
  0
LWPOLYLINE
  5
1a5
100
AcDbEntity
  8
0
 62
1
100
AcDbPolyline
 90
4
 70
1
 10
117.365100
 20
13.486800
 30
0.0
 10
116.575100
 20
13.486800
 30
0.0
 10
116.575100
 20
13.886800
 30
0.0
 10
117.365100
 20
13.886800
 30
0.0
  0
LWPOLYLINE
  5
1a6
100
AcDbEntity
  8
0
 62
1
100
AcDbPolyline
 90
4
 70
1
 10
114.825100
 20
14.286800
 30
0.0
 10
114.035100
 20
14.286800
 30
0.0
 10
114.035100
 20
14.686800
 30
0.0
 10
114.825100
 20
14.686800
 30
0.0
  0
LWPOLYLINE
  5
1a7
100
AcDbEntity
  8
0
 62
1
100
AcDbPolyline
 90
4
 70
1
 10
117.365100
 20
14.286800
 30
0.0
 10
116.575100
 20
14.286800
 30
0.0
 10
116.575100
 20
14.686800
 30
0.0
 10
117.365100
 20
14.686800
 30
0.0
  0
LWPOLYLINE
  5
1a8
100
AcDbEntity
  8
0
 62
1
100
AcDbPolyline
 90
4
 70
1
 10
114.825100
 20
15.086800
 30
0.0
 10
114.035100
 20
15.086800
 30
0.0
 10
114.035100
 20
15.486800
 30
0.0
 10
114.825100
 20
15.486800
 30
0.0
  0
LWPOLYLINE
  5
1a9
100
AcDbEntity
  8
0
 62
1
100
AcDbPolyline
 90
4
 70
1
 10
117.365100
 20
15.086800
 30
0.0
 10
116.575100
 20
15.086800
 30
0.0
 10
116.575100
 20
15.486800
 30
0.0
 10
117.365100
 20
15.486800
 30
0.0
  0
LWPOLYLINE
  5
1aa
100
AcDbEntity
  8
0
 62
1
100
AcDbPolyline
 90
4
 70
1
 10
114.825100
 20
15.886800
 30
0.0
 10
114.035100
 20
15.886800
 30
0.0
 10
114.035100
 20
16.286800
 30
0.0
 10
114.825100
 20
16.286800
 30
0.0
  0
LWPOLYLINE
  5
1ab
100
AcDbEntity
  8
0
 62
1
100
AcDbPolyline
 90
4
 70
1
 10
117.365100
 20
15.886800
 30
0.0
 10
116.575100
 20
15.886800
 30
0.0
 10
116.575100
 20
16.286800
 30
0.0
 10
117.365100
 20
16.286800
 30
0.0
  0
LWPOLYLINE
  5
1ac
100
AcDbEntity
  8
0
 62
1
100
AcDbPolyline
 90
4
 70
1
 10
114.825100
 20
16.686800
 30
0.0
 10
114.035100
 20
16.686800
 30
0.0
 10
114.035100
 20
17.086800
 30
0.0
 10
114.825100
 20
17.086800
 30
0.0
  0
LWPOLYLINE
  5
1ad
100
AcDbEntity
  8
0
 62
1
100
AcDbPolyline
 90
4
 70
1
 10
117.365100
 20
16.686800
 30
0.0
 10
116.575100
 20
16.686800
 30
0.0
 10
116.575100
 20
17.086800
 30
0.0
 10
117.365100
 20
17.086800
 30
0.0
  0
LWPOLYLINE
  5
1ae
100
AcDbEntity
  8
0
 62
1
100
AcDbPolyline
 90
4
 70
1
 10
114.825100
 20
17.486800
 30
0.0
 10
114.035100
 20
17.486800
 30
0.0
 10
114.035100
 20
17.886800
 30
0.0
 10
114.825100
 20
17.886800
 30
0.0
  0
LWPOLYLINE
  5
1af
100
AcDbEntity
  8
0
 62
1
100
AcDbPolyline
 90
4
 70
1
 10
117.365100
 20
17.486800
 30
0.0
 10
116.575100
 20
17.486800
 30
0.0
 10
116.575100
 20
17.886800
 30
0.0
 10
117.365100
 20
17.886800
 30
0.0
  0
LWPOLYLINE
  5
1b0
100
AcDbEntity
  8
0
 62
1
100
AcDbPolyline
 90
4
 70
1
 10
114.825100
 20
18.286800
 30
0.0
 10
114.035100
 20
18.286800
 30
0.0
 10
114.035100
 20
18.686800
 30
0.0
 10
114.825100
 20
18.686800
 30
0.0
  0
LWPOLYLINE
  5
1b1
100
AcDbEntity
  8
0
 62
1
100
AcDbPolyline
 90
4
 70
1
 10
117.365100
 20
18.286800
 30
0.0
 10
116.575100
 20
18.286800
 30
0.0
 10
116.575100
 20
18.686800
 30
0.0
 10
117.365100
 20
18.686800
 30
0.0
  0
LWPOLYLINE
  5
1b2
100
AcDbEntity
  8
0
 62
1
100
AcDbPolyline
 90
4
 70
1
 10
116.500100
 20
11.411800
 30
0.0
 10
114.900100
 20
11.411800
 30
0.0
 10
114.900100
 20
12.061800
 30
0.0
 10
116.500100
 20
12.061800
 30
0.0
  0
LWPOLYLINE
  5
1b3
100
AcDbEntity
  8
0
 62
1
100
AcDbPolyline
 90
4
 70
1
 10
116.500100
 20
19.311800
 30
0.0
 10
114.900100
 20
19.311800
 30
0.0
 10
114.900100
 20
19.961800
 30
0.0
 10
116.500100
 20
19.961800
 30
0.0
  0
LWPOLYLINE
  5
1b4
100
AcDbEntity
  8
0
 62
1
100
AcDbPolyline
 90
4
 70
1
 10
58.075100
 20
12.811800
 30
0.0
 10
57.285100
 20
12.811800
 30
0.0
 10
57.285100
 20
13.211800
 30
0.0
 10
58.075100
 20
13.211800
 30
0.0
  0
LWPOLYLINE
  5
1b5
100
AcDbEntity
  8
0
 62
1
100
AcDbPolyline
 90
4
 70
1
 10
60.615100
 20
12.811800
 30
0.0
 10
59.825100
 20
12.811800
 30
0.0
 10
59.825100
 20
13.211800
 30
0.0
 10
60.615100
 20
13.211800
 30
0.0
  0
LWPOLYLINE
  5
1b6
100
AcDbEntity
  8
0
 62
1
100
AcDbPolyline
 90
4
 70
1
 10
58.075100
 20
13.611800
 30
0.0
 10
57.285100
 20
13.611800
 30
0.0
 10
57.285100
 20
14.011800
 30
0.0
 10
58.075100
 20
14.011800
 30
0.0
  0
LWPOLYLINE
  5
1b7
100
AcDbEntity
  8
0
 62
1
100
AcDbPolyline
 90
4
 70
1
 10
60.615100
 20
13.611800
 30
0.0
 10
59.825100
 20
13.611800
 30
0.0
 10
59.825100
 20
14.011800
 30
0.0
 10
60.615100
 20
14.011800
 30
0.0
  0
LWPOLYLINE
  5
1b8
100
AcDbEntity
  8
0
 62
1
100
AcDbPolyline
 90
4
 70
1
 10
58.075100
 20
14.411800
 30
0.0
 10
57.285100
 20
14.411800
 30
0.0
 10
57.285100
 20
14.811800
 30
0.0
 10
58.075100
 20
14.811800
 30
0.0
  0
LWPOLYLINE
  5
1b9
100
AcDbEntity
  8
0
 62
1
100
AcDbPolyline
 90
4
 70
1
 10
60.615100
 20
14.411800
 30
0.0
 10
59.825100
 20
14.411800
 30
0.0
 10
59.825100
 20
14.811800
 30
0.0
 10
60.615100
 20
14.811800
 30
0.0
  0
LWPOLYLINE
  5
1ba
100
AcDbEntity
  8
0
 62
1
100
AcDbPolyline
 90
4
 70
1
 10
58.075100
 20
15.211800
 30
0.0
 10
57.285100
 20
15.211800
 30
0.0
 10
57.285100
 20
15.611800
 30
0.0
 10
58.075100
 20
15.611800
 30
0.0
  0
LWPOLYLINE
  5
1bb
100
AcDbEntity
  8
0
 62
1
100
AcDbPolyline
 90
4
 70
1
 10
60.615100
 20
15.211800
 30
0.0
 10
59.825100
 20
15.211800
 30
0.0
 10
59.825100
 20
15.611800
 30
0.0
 10
60.615100
 20
15.611800
 30
0.0
  0
LWPOLYLINE
  5
1bc
100
AcDbEntity
  8
0
 62
1
100
AcDbPolyline
 90
4
 70
1
 10
58.075100
 20
16.011800
 30
0.0
 10
57.285100
 20
16.011800
 30
0.0
 10
57.285100
 20
16.411800
 30
0.0
 10
58.075100
 20
16.411800
 30
0.0
  0
LWPOLYLINE
  5
1bd
100
AcDbEntity
  8
0
 62
1
100
AcDbPolyline
 90
4
 70
1
 10
60.615100
 20
16.011800
 30
0.0
 10
59.825100
 20
16.011800
 30
0.0
 10
59.825100
 20
16.411800
 30
0.0
 10
60.615100
 20
16.411800
 30
0.0
  0
LWPOLYLINE
  5
1be
100
AcDbEntity
  8
0
 62
1
100
AcDbPolyline
 90
4
 70
1
 10
58.075100
 20
16.811800
 30
0.0
 10
57.285100
 20
16.811800
 30
0.0
 10
57.285100
 20
17.211800
 30
0.0
 10
58.075100
 20
17.211800
 30
0.0
  0
LWPOLYLINE
  5
1bf
100
AcDbEntity
  8
0
 62
1
100
AcDbPolyline
 90
4
 70
1
 10
60.615100
 20
16.811800
 30
0.0
 10
59.825100
 20
16.811800
 30
0.0
 10
59.825100
 20
17.211800
 30
0.0
 10
60.615100
 20
17.211800
 30
0.0
  0
LWPOLYLINE
  5
1c0
100
AcDbEntity
  8
0
 62
1
100
AcDbPolyline
 90
4
 70
1
 10
58.075100
 20
17.611800
 30
0.0
 10
57.285100
 20
17.611800
 30
0.0
 10
57.285100
 20
18.011800
 30
0.0
 10
58.075100
 20
18.011800
 30
0.0
  0
LWPOLYLINE
  5
1c1
100
AcDbEntity
  8
0
 62
1
100
AcDbPolyline
 90
4
 70
1
 10
60.615100
 20
17.611800
 30
0.0
 10
59.825100
 20
17.611800
 30
0.0
 10
59.825100
 20
18.011800
 30
0.0
 10
60.615100
 20
18.011800
 30
0.0
  0
LWPOLYLINE
  5
1c2
100
AcDbEntity
  8
0
 62
1
100
AcDbPolyline
 90
4
 70
1
 10
58.075100
 20
18.411800
 30
0.0
 10
57.285100
 20
18.411800
 30
0.0
 10
57.285100
 20
18.811800
 30
0.0
 10
58.075100
 20
18.811800
 30
0.0
  0
LWPOLYLINE
  5
1c3
100
AcDbEntity
  8
0
 62
1
100
AcDbPolyline
 90
4
 70
1
 10
60.615100
 20
18.411800
 30
0.0
 10
59.825100
 20
18.411800
 30
0.0
 10
59.825100
 20
18.811800
 30
0.0
 10
60.615100
 20
18.811800
 30
0.0
  0
LWPOLYLINE
  5
1c4
100
AcDbEntity
  8
0
 62
1
100
AcDbPolyline
 90
4
 70
1
 10
59.750100
 20
11.536800
 30
0.0
 10
58.150100
 20
11.536800
 30
0.0
 10
58.150100
 20
12.186800
 30
0.0
 10
59.750100
 20
12.186800
 30
0.0
  0
LWPOLYLINE
  5
1c5
100
AcDbEntity
  8
0
 62
1
100
AcDbPolyline
 90
4
 70
1
 10
59.750100
 20
19.436800
 30
0.0
 10
58.150100
 20
19.436800
 30
0.0
 10
58.150100
 20
20.086800
 30
0.0
 10
59.750100
 20
20.086800
 30
0.0
  0
LWPOLYLINE
  5
1c6
100
AcDbEntity
  8
0
 62
1
100
AcDbPolyline
 90
4
 70
1
 10
95.617600
 20
50.386800
 30
0.0
 10
94.827600
 20
50.386800
 30
0.0
 10
94.827600
 20
50.786800
 30
0.0
 10
95.617600
 20
50.786800
 30
0.0
  0
LWPOLYLINE
  5
1c7
100
AcDbEntity
  8
0
 62
1
100
AcDbPolyline
 90
4
 70
1
 10
98.157600
 20
50.386800
 30
0.0
 10
97.367600
 20
50.386800
 30
0.0
 10
97.367600
 20
50.786800
 30
0.0
 10
98.157600
 20
50.786800
 30
0.0
  0
LWPOLYLINE
  5
1c8
100
AcDbEntity
  8
0
 62
1
100
AcDbPolyline
 90
4
 70
1
 10
95.617600
 20
51.186800
 30
0.0
 10
94.827600
 20
51.186800
 30
0.0
 10
94.827600
 20
51.586800
 30
0.0
 10
95.617600
 20
51.586800
 30
0.0
  0
LWPOLYLINE
  5
1c9
100
AcDbEntity
  8
0
 62
1
100
AcDbPolyline
 90
4
 70
1
 10
98.157600
 20
51.186800
 30
0.0
 10
97.367600
 20
51.186800
 30
0.0
 10
97.367600
 20
51.586800
 30
0.0
 10
98.157600
 20
51.586800
 30
0.0
  0
LWPOLYLINE
  5
1ca
100
AcDbEntity
  8
0
 62
1
100
AcDbPolyline
 90
4
 70
1
 10
95.617600
 20
51.986800
 30
0.0
 10
94.827600
 20
51.986800
 30
0.0
 10
94.827600
 20
52.386800
 30
0.0
 10
95.617600
 20
52.386800
 30
0.0
  0
LWPOLYLINE
  5
1cb
100
AcDbEntity
  8
0
 62
1
100
AcDbPolyline
 90
4
 70
1
 10
98.157600
 20
51.986800
 30
0.0
 10
97.367600
 20
51.986800
 30
0.0
 10
97.367600
 20
52.386800
 30
0.0
 10
98.157600
 20
52.386800
 30
0.0
  0
LWPOLYLINE
  5
1cc
100
AcDbEntity
  8
0
 62
1
100
AcDbPolyline
 90
4
 70
1
 10
95.617600
 20
52.786800
 30
0.0
 10
94.827600
 20
52.786800
 30
0.0
 10
94.827600
 20
53.186800
 30
0.0
 10
95.617600
 20
53.186800
 30
0.0
  0
LWPOLYLINE
  5
1cd
100
AcDbEntity
  8
0
 62
1
100
AcDbPolyline
 90
4
 70
1
 10
98.157600
 20
52.786800
 30
0.0
 10
97.367600
 20
52.786800
 30
0.0
 10
97.367600
 20
53.186800
 30
0.0
 10
98.157600
 20
53.186800
 30
0.0
  0
LWPOLYLINE
  5
1ce
100
AcDbEntity
  8
0
 62
1
100
AcDbPolyline
 90
4
 70
1
 10
95.617600
 20
53.586800
 30
0.0
 10
94.827600
 20
53.586800
 30
0.0
 10
94.827600
 20
53.986800
 30
0.0
 10
95.617600
 20
53.986800
 30
0.0
  0
LWPOLYLINE
  5
1cf
100
AcDbEntity
  8
0
 62
1
100
AcDbPolyline
 90
4
 70
1
 10
98.157600
 20
53.586800
 30
0.0
 10
97.367600
 20
53.586800
 30
0.0
 10
97.367600
 20
53.986800
 30
0.0
 10
98.157600
 20
53.986800
 30
0.0
  0
LWPOLYLINE
  5
1d0
100
AcDbEntity
  8
0
 62
1
100
AcDbPolyline
 90
4
 70
1
 10
95.617600
 20
54.386800
 30
0.0
 10
94.827600
 20
54.386800
 30
0.0
 10
94.827600
 20
54.786800
 30
0.0
 10
95.617600
 20
54.786800
 30
0.0
  0
LWPOLYLINE
  5
1d1
100
AcDbEntity
  8
0
 62
1
100
AcDbPolyline
 90
4
 70
1
 10
98.157600
 20
54.386800
 30
0.0
 10
97.367600
 20
54.386800
 30
0.0
 10
97.367600
 20
54.786800
 30
0.0
 10
98.157600
 20
54.786800
 30
0.0
  0
LWPOLYLINE
  5
1d2
100
AcDbEntity
  8
0
 62
1
100
AcDbPolyline
 90
4
 70
1
 10
95.617600
 20
55.186800
 30
0.0
 10
94.827600
 20
55.186800
 30
0.0
 10
94.827600
 20
55.586800
 30
0.0
 10
95.617600
 20
55.586800
 30
0.0
  0
LWPOLYLINE
  5
1d3
100
AcDbEntity
  8
0
 62
1
100
AcDbPolyline
 90
4
 70
1
 10
98.157600
 20
55.186800
 30
0.0
 10
97.367600
 20
55.186800
 30
0.0
 10
97.367600
 20
55.586800
 30
0.0
 10
98.157600
 20
55.586800
 30
0.0
  0
LWPOLYLINE
  5
1d4
100
AcDbEntity
  8
0
 62
1
100
AcDbPolyline
 90
4
 70
1
 10
95.617600
 20
55.986800
 30
0.0
 10
94.827600
 20
55.986800
 30
0.0
 10
94.827600
 20
56.386800
 30
0.0
 10
95.617600
 20
56.386800
 30
0.0
  0
LWPOLYLINE
  5
1d5
100
AcDbEntity
  8
0
 62
1
100
AcDbPolyline
 90
4
 70
1
 10
98.157600
 20
55.986800
 30
0.0
 10
97.367600
 20
55.986800
 30
0.0
 10
97.367600
 20
56.386800
 30
0.0
 10
98.157600
 20
56.386800
 30
0.0
  0
LWPOLYLINE
  5
1d6
100
AcDbEntity
  8
0
 62
1
100
AcDbPolyline
 90
4
 70
1
 10
97.292600
 20
49.111800
 30
0.0
 10
95.692600
 20
49.111800
 30
0.0
 10
95.692600
 20
49.761800
 30
0.0
 10
97.292600
 20
49.761800
 30
0.0
  0
LWPOLYLINE
  5
1d7
100
AcDbEntity
  8
0
 62
1
100
AcDbPolyline
 90
4
 70
1
 10
97.292600
 20
57.011800
 30
0.0
 10
95.692600
 20
57.011800
 30
0.0
 10
95.692600
 20
57.661800
 30
0.0
 10
97.292600
 20
57.661800
 30
0.0
  0
LWPOLYLINE
  5
1d8
100
AcDbEntity
  8
0
 62
1
100
AcDbPolyline
 90
4
 70
1
 10
76.950100
 20
12.811800
 30
0.0
 10
76.160100
 20
12.811800
 30
0.0
 10
76.160100
 20
13.211800
 30
0.0
 10
76.950100
 20
13.211800
 30
0.0
  0
LWPOLYLINE
  5
1d9
100
AcDbEntity
  8
0
 62
1
100
AcDbPolyline
 90
4
 70
1
 10
79.490100
 20
12.811800
 30
0.0
 10
78.700100
 20
12.811800
 30
0.0
 10
78.700100
 20
13.211800
 30
0.0
 10
79.490100
 20
13.211800
 30
0.0
  0
LWPOLYLINE
  5
1da
100
AcDbEntity
  8
0
 62
1
100
AcDbPolyline
 90
4
 70
1
 10
76.950100
 20
13.611800
 30
0.0
 10
76.160100
 20
13.611800
 30
0.0
 10
76.160100
 20
14.011800
 30
0.0
 10
76.950100
 20
14.011800
 30
0.0
  0
LWPOLYLINE
  5
1db
100
AcDbEntity
  8
0
 62
1
100
AcDbPolyline
 90
4
 70
1
 10
79.490100
 20
13.611800
 30
0.0
 10
78.700100
 20
13.611800
 30
0.0
 10
78.700100
 20
14.011800
 30
0.0
 10
79.490100
 20
14.011800
 30
0.0
  0
LWPOLYLINE
  5
1dc
100
AcDbEntity
  8
0
 62
1
100
AcDbPolyline
 90
4
 70
1
 10
76.950100
 20
14.411800
 30
0.0
 10
76.160100
 20
14.411800
 30
0.0
 10
76.160100
 20
14.811800
 30
0.0
 10
76.950100
 20
14.811800
 30
0.0
  0
LWPOLYLINE
  5
1dd
100
AcDbEntity
  8
0
 62
1
100
AcDbPolyline
 90
4
 70
1
 10
79.490100
 20
14.411800
 30
0.0
 10
78.700100
 20
14.411800
 30
0.0
 10
78.700100
 20
14.811800
 30
0.0
 10
79.490100
 20
14.811800
 30
0.0
  0
LWPOLYLINE
  5
1de
100
AcDbEntity
  8
0
 62
1
100
AcDbPolyline
 90
4
 70
1
 10
76.950100
 20
15.211800
 30
0.0
 10
76.160100
 20
15.211800
 30
0.0
 10
76.160100
 20
15.611800
 30
0.0
 10
76.950100
 20
15.611800
 30
0.0
  0
LWPOLYLINE
  5
1df
100
AcDbEntity
  8
0
 62
1
100
AcDbPolyline
 90
4
 70
1
 10
79.490100
 20
15.211800
 30
0.0
 10
78.700100
 20
15.211800
 30
0.0
 10
78.700100
 20
15.611800
 30
0.0
 10
79.490100
 20
15.611800
 30
0.0
  0
LWPOLYLINE
  5
1e0
100
AcDbEntity
  8
0
 62
1
100
AcDbPolyline
 90
4
 70
1
 10
76.950100
 20
16.011800
 30
0.0
 10
76.160100
 20
16.011800
 30
0.0
 10
76.160100
 20
16.411800
 30
0.0
 10
76.950100
 20
16.411800
 30
0.0
  0
LWPOLYLINE
  5
1e1
100
AcDbEntity
  8
0
 62
1
100
AcDbPolyline
 90
4
 70
1
 10
79.490100
 20
16.011800
 30
0.0
 10
78.700100
 20
16.011800
 30
0.0
 10
78.700100
 20
16.411800
 30
0.0
 10
79.490100
 20
16.411800
 30
0.0
  0
LWPOLYLINE
  5
1e2
100
AcDbEntity
  8
0
 62
1
100
AcDbPolyline
 90
4
 70
1
 10
76.950100
 20
16.811800
 30
0.0
 10
76.160100
 20
16.811800
 30
0.0
 10
76.160100
 20
17.211800
 30
0.0
 10
76.950100
 20
17.211800
 30
0.0
  0
LWPOLYLINE
  5
1e3
100
AcDbEntity
  8
0
 62
1
100
AcDbPolyline
 90
4
 70
1
 10
79.490100
 20
16.811800
 30
0.0
 10
78.700100
 20
16.811800
 30
0.0
 10
78.700100
 20
17.211800
 30
0.0
 10
79.490100
 20
17.211800
 30
0.0
  0
LWPOLYLINE
  5
1e4
100
AcDbEntity
  8
0
 62
1
100
AcDbPolyline
 90
4
 70
1
 10
76.950100
 20
17.611800
 30
0.0
 10
76.160100
 20
17.611800
 30
0.0
 10
76.160100
 20
18.011800
 30
0.0
 10
76.950100
 20
18.011800
 30
0.0
  0
LWPOLYLINE
  5
1e5
100
AcDbEntity
  8
0
 62
1
100
AcDbPolyline
 90
4
 70
1
 10
79.490100
 20
17.611800
 30
0.0
 10
78.700100
 20
17.611800
 30
0.0
 10
78.700100
 20
18.011800
 30
0.0
 10
79.490100
 20
18.011800
 30
0.0
  0
LWPOLYLINE
  5
1e6
100
AcDbEntity
  8
0
 62
1
100
AcDbPolyline
 90
4
 70
1
 10
76.950100
 20
18.411800
 30
0.0
 10
76.160100
 20
18.411800
 30
0.0
 10
76.160100
 20
18.811800
 30
0.0
 10
76.950100
 20
18.811800
 30
0.0
  0
LWPOLYLINE
  5
1e7
100
AcDbEntity
  8
0
 62
1
100
AcDbPolyline
 90
4
 70
1
 10
79.490100
 20
18.411800
 30
0.0
 10
78.700100
 20
18.411800
 30
0.0
 10
78.700100
 20
18.811800
 30
0.0
 10
79.490100
 20
18.811800
 30
0.0
  0
LWPOLYLINE
  5
1e8
100
AcDbEntity
  8
0
 62
1
100
AcDbPolyline
 90
4
 70
1
 10
78.625100
 20
11.536800
 30
0.0
 10
77.025100
 20
11.536800
 30
0.0
 10
77.025100
 20
12.186800
 30
0.0
 10
78.625100
 20
12.186800
 30
0.0
  0
LWPOLYLINE
  5
1e9
100
AcDbEntity
  8
0
 62
1
100
AcDbPolyline
 90
4
 70
1
 10
78.625100
 20
19.436800
 30
0.0
 10
77.025100
 20
19.436800
 30
0.0
 10
77.025100
 20
20.086800
 30
0.0
 10
78.625100
 20
20.086800
 30
0.0
  0
LWPOLYLINE
  5
1ea
100
AcDbEntity
  8
0
 62
1
100
AcDbPolyline
 90
4
 70
1
 10
41.132600
 20
37.361800
 30
0.0
 10
41.922600
 20
37.361800
 30
0.0
 10
41.922600
 20
36.961800
 30
0.0
 10
41.132600
 20
36.961800
 30
0.0
  0
LWPOLYLINE
  5
1eb
100
AcDbEntity
  8
0
 62
1
100
AcDbPolyline
 90
4
 70
1
 10
38.592600
 20
37.361800
 30
0.0
 10
39.382600
 20
37.361800
 30
0.0
 10
39.382600
 20
36.961800
 30
0.0
 10
38.592600
 20
36.961800
 30
0.0
  0
LWPOLYLINE
  5
1ec
100
AcDbEntity
  8
0
 62
1
100
AcDbPolyline
 90
4
 70
1
 10
41.132600
 20
36.561800
 30
0.0
 10
41.922600
 20
36.561800
 30
0.0
 10
41.922600
 20
36.161800
 30
0.0
 10
41.132600
 20
36.161800
 30
0.0
  0
LWPOLYLINE
  5
1ed
100
AcDbEntity
  8
0
 62
1
100
AcDbPolyline
 90
4
 70
1
 10
38.592600
 20
36.561800
 30
0.0
 10
39.382600
 20
36.561800
 30
0.0
 10
39.382600
 20
36.161800
 30
0.0
 10
38.592600
 20
36.161800
 30
0.0
  0
LWPOLYLINE
  5
1ee
100
AcDbEntity
  8
0
 62
1
100
AcDbPolyline
 90
4
 70
1
 10
41.132600
 20
35.761800
 30
0.0
 10
41.922600
 20
35.761800
 30
0.0
 10
41.922600
 20
35.361800
 30
0.0
 10
41.132600
 20
35.361800
 30
0.0
  0
LWPOLYLINE
  5
1ef
100
AcDbEntity
  8
0
 62
1
100
AcDbPolyline
 90
4
 70
1
 10
38.592600
 20
35.761800
 30
0.0
 10
39.382600
 20
35.761800
 30
0.0
 10
39.382600
 20
35.361800
 30
0.0
 10
38.592600
 20
35.361800
 30
0.0
  0
LWPOLYLINE
  5
1f0
100
AcDbEntity
  8
0
 62
1
100
AcDbPolyline
 90
4
 70
1
 10
41.132600
 20
34.961800
 30
0.0
 10
41.922600
 20
34.961800
 30
0.0
 10
41.922600
 20
34.561800
 30
0.0
 10
41.132600
 20
34.561800
 30
0.0
  0
LWPOLYLINE
  5
1f1
100
AcDbEntity
  8
0
 62
1
100
AcDbPolyline
 90
4
 70
1
 10
38.592600
 20
34.961800
 30
0.0
 10
39.382600
 20
34.961800
 30
0.0
 10
39.382600
 20
34.561800
 30
0.0
 10
38.592600
 20
34.561800
 30
0.0
  0
LWPOLYLINE
  5
1f2
100
AcDbEntity
  8
0
 62
1
100
AcDbPolyline
 90
4
 70
1
 10
41.132600
 20
34.161800
 30
0.0
 10
41.922600
 20
34.161800
 30
0.0
 10
41.922600
 20
33.761800
 30
0.0
 10
41.132600
 20
33.761800
 30
0.0
  0
LWPOLYLINE
  5
1f3
100
AcDbEntity
  8
0
 62
1
100
AcDbPolyline
 90
4
 70
1
 10
38.592600
 20
34.161800
 30
0.0
 10
39.382600
 20
34.161800
 30
0.0
 10
39.382600
 20
33.761800
 30
0.0
 10
38.592600
 20
33.761800
 30
0.0
  0
LWPOLYLINE
  5
1f4
100
AcDbEntity
  8
0
 62
1
100
AcDbPolyline
 90
4
 70
1
 10
41.132600
 20
33.361800
 30
0.0
 10
41.922600
 20
33.361800
 30
0.0
 10
41.922600
 20
32.961800
 30
0.0
 10
41.132600
 20
32.961800
 30
0.0
  0
LWPOLYLINE
  5
1f5
100
AcDbEntity
  8
0
 62
1
100
AcDbPolyline
 90
4
 70
1
 10
38.592600
 20
33.361800
 30
0.0
 10
39.382600
 20
33.361800
 30
0.0
 10
39.382600
 20
32.961800
 30
0.0
 10
38.592600
 20
32.961800
 30
0.0
  0
LWPOLYLINE
  5
1f6
100
AcDbEntity
  8
0
 62
1
100
AcDbPolyline
 90
4
 70
1
 10
41.132600
 20
32.561800
 30
0.0
 10
41.922600
 20
32.561800
 30
0.0
 10
41.922600
 20
32.161800
 30
0.0
 10
41.132600
 20
32.161800
 30
0.0
  0
LWPOLYLINE
  5
1f7
100
AcDbEntity
  8
0
 62
1
100
AcDbPolyline
 90
4
 70
1
 10
38.592600
 20
32.561800
 30
0.0
 10
39.382600
 20
32.561800
 30
0.0
 10
39.382600
 20
32.161800
 30
0.0
 10
38.592600
 20
32.161800
 30
0.0
  0
LWPOLYLINE
  5
1f8
100
AcDbEntity
  8
0
 62
1
100
AcDbPolyline
 90
4
 70
1
 10
41.132600
 20
31.761800
 30
0.0
 10
41.922600
 20
31.761800
 30
0.0
 10
41.922600
 20
31.361800
 30
0.0
 10
41.132600
 20
31.361800
 30
0.0
  0
LWPOLYLINE
  5
1f9
100
AcDbEntity
  8
0
 62
1
100
AcDbPolyline
 90
4
 70
1
 10
38.592600
 20
31.761800
 30
0.0
 10
39.382600
 20
31.761800
 30
0.0
 10
39.382600
 20
31.361800
 30
0.0
 10
38.592600
 20
31.361800
 30
0.0
  0
LWPOLYLINE
  5
1fa
100
AcDbEntity
  8
0
 62
1
100
AcDbPolyline
 90
4
 70
1
 10
39.457600
 20
38.636800
 30
0.0
 10
41.057600
 20
38.636800
 30
0.0
 10
41.057600
 20
37.986800
 30
0.0
 10
39.457600
 20
37.986800
 30
0.0
  0
LWPOLYLINE
  5
1fb
100
AcDbEntity
  8
0
 62
1
100
AcDbPolyline
 90
4
 70
1
 10
39.457600
 20
30.736800
 30
0.0
 10
41.057600
 20
30.736800
 30
0.0
 10
41.057600
 20
30.086800
 30
0.0
 10
39.457600
 20
30.086800
 30
0.0
  0
LWPOLYLINE
  5
1fc
100
AcDbEntity
  8
0
 62
1
100
AcDbPolyline
 90
4
 70
1
 10
116.320100
 20
75.086800
 30
0.0
 10
117.110100
 20
75.086800
 30
0.0
 10
117.110100
 20
74.686800
 30
0.0
 10
116.320100
 20
74.686800
 30
0.0
  0
LWPOLYLINE
  5
1fd
100
AcDbEntity
  8
0
 62
1
100
AcDbPolyline
 90
4
 70
1
 10
113.780100
 20
75.086800
 30
0.0
 10
114.570100
 20
75.086800
 30
0.0
 10
114.570100
 20
74.686800
 30
0.0
 10
113.780100
 20
74.686800
 30
0.0
  0
LWPOLYLINE
  5
1fe
100
AcDbEntity
  8
0
 62
1
100
AcDbPolyline
 90
4
 70
1
 10
116.320100
 20
74.286800
 30
0.0
 10
117.110100
 20
74.286800
 30
0.0
 10
117.110100
 20
73.886800
 30
0.0
 10
116.320100
 20
73.886800
 30
0.0
  0
LWPOLYLINE
  5
1ff
100
AcDbEntity
  8
0
 62
1
100
AcDbPolyline
 90
4
 70
1
 10
113.780100
 20
74.286800
 30
0.0
 10
114.570100
 20
74.286800
 30
0.0
 10
114.570100
 20
73.886800
 30
0.0
 10
113.780100
 20
73.886800
 30
0.0
  0
LWPOLYLINE
  5
200
100
AcDbEntity
  8
0
 62
1
100
AcDbPolyline
 90
4
 70
1
 10
116.320100
 20
73.486800
 30
0.0
 10
117.110100
 20
73.486800
 30
0.0
 10
117.110100
 20
73.086800
 30
0.0
 10
116.320100
 20
73.086800
 30
0.0
  0
LWPOLYLINE
  5
201
100
AcDbEntity
  8
0
 62
1
100
AcDbPolyline
 90
4
 70
1
 10
113.780100
 20
73.486800
 30
0.0
 10
114.570100
 20
73.486800
 30
0.0
 10
114.570100
 20
73.086800
 30
0.0
 10
113.780100
 20
73.086800
 30
0.0
  0
LWPOLYLINE
  5
202
100
AcDbEntity
  8
0
 62
1
100
AcDbPolyline
 90
4
 70
1
 10
116.320100
 20
72.686800
 30
0.0
 10
117.110100
 20
72.686800
 30
0.0
 10
117.110100
 20
72.286800
 30
0.0
 10
116.320100
 20
72.286800
 30
0.0
  0
LWPOLYLINE
  5
203
100
AcDbEntity
  8
0
 62
1
100
AcDbPolyline
 90
4
 70
1
 10
113.780100
 20
72.686800
 30
0.0
 10
114.570100
 20
72.686800
 30
0.0
 10
114.570100
 20
72.286800
 30
0.0
 10
113.780100
 20
72.286800
 30
0.0
  0
LWPOLYLINE
  5
204
100
AcDbEntity
  8
0
 62
1
100
AcDbPolyline
 90
4
 70
1
 10
116.320100
 20
71.886800
 30
0.0
 10
117.110100
 20
71.886800
 30
0.0
 10
117.110100
 20
71.486800
 30
0.0
 10
116.320100
 20
71.486800
 30
0.0
  0
LWPOLYLINE
  5
205
100
AcDbEntity
  8
0
 62
1
100
AcDbPolyline
 90
4
 70
1
 10
113.780100
 20
71.886800
 30
0.0
 10
114.570100
 20
71.886800
 30
0.0
 10
114.570100
 20
71.486800
 30
0.0
 10
113.780100
 20
71.486800
 30
0.0
  0
LWPOLYLINE
  5
206
100
AcDbEntity
  8
0
 62
1
100
AcDbPolyline
 90
4
 70
1
 10
116.320100
 20
71.086800
 30
0.0
 10
117.110100
 20
71.086800
 30
0.0
 10
117.110100
 20
70.686800
 30
0.0
 10
116.320100
 20
70.686800
 30
0.0
  0
LWPOLYLINE
  5
207
100
AcDbEntity
  8
0
 62
1
100
AcDbPolyline
 90
4
 70
1
 10
113.780100
 20
71.086800
 30
0.0
 10
114.570100
 20
71.086800
 30
0.0
 10
114.570100
 20
70.686800
 30
0.0
 10
113.780100
 20
70.686800
 30
0.0
  0
LWPOLYLINE
  5
208
100
AcDbEntity
  8
0
 62
1
100
AcDbPolyline
 90
4
 70
1
 10
116.320100
 20
70.286800
 30
0.0
 10
117.110100
 20
70.286800
 30
0.0
 10
117.110100
 20
69.886800
 30
0.0
 10
116.320100
 20
69.886800
 30
0.0
  0
LWPOLYLINE
  5
209
100
AcDbEntity
  8
0
 62
1
100
AcDbPolyline
 90
4
 70
1
 10
113.780100
 20
70.286800
 30
0.0
 10
114.570100
 20
70.286800
 30
0.0
 10
114.570100
 20
69.886800
 30
0.0
 10
113.780100
 20
69.886800
 30
0.0
  0
LWPOLYLINE
  5
20a
100
AcDbEntity
  8
0
 62
1
100
AcDbPolyline
 90
4
 70
1
 10
116.320100
 20
69.486800
 30
0.0
 10
117.110100
 20
69.486800
 30
0.0
 10
117.110100
 20
69.086800
 30
0.0
 10
116.320100
 20
69.086800
 30
0.0
  0
LWPOLYLINE
  5
20b
100
AcDbEntity
  8
0
 62
1
100
AcDbPolyline
 90
4
 70
1
 10
113.780100
 20
69.486800
 30
0.0
 10
114.570100
 20
69.486800
 30
0.0
 10
114.570100
 20
69.086800
 30
0.0
 10
113.780100
 20
69.086800
 30
0.0
  0
LWPOLYLINE
  5
20c
100
AcDbEntity
  8
0
 62
1
100
AcDbPolyline
 90
4
 70
1
 10
114.645100
 20
76.361800
 30
0.0
 10
116.245100
 20
76.361800
 30
0.0
 10
116.245100
 20
75.711800
 30
0.0
 10
114.645100
 20
75.711800
 30
0.0
  0
LWPOLYLINE
  5
20d
100
AcDbEntity
  8
0
 62
1
100
AcDbPolyline
 90
4
 70
1
 10
114.645100
 20
68.461800
 30
0.0
 10
116.245100
 20
68.461800
 30
0.0
 10
116.245100
 20
67.811800
 30
0.0
 10
114.645100
 20
67.811800
 30
0.0
  0
LWPOLYLINE
  5
20e
100
AcDbEntity
  8
0
 62
1
100
AcDbPolyline
 90
4
 70
1
 10
97.565100
 20
75.111800
 30
0.0
 10
98.355100
 20
75.111800
 30
0.0
 10
98.355100
 20
74.711800
 30
0.0
 10
97.565100
 20
74.711800
 30
0.0
  0
LWPOLYLINE
  5
20f
100
AcDbEntity
  8
0
 62
1
100
AcDbPolyline
 90
4
 70
1
 10
95.025100
 20
75.111800
 30
0.0
 10
95.815100
 20
75.111800
 30
0.0
 10
95.815100
 20
74.711800
 30
0.0
 10
95.025100
 20
74.711800
 30
0.0
  0
LWPOLYLINE
  5
210
100
AcDbEntity
  8
0
 62
1
100
AcDbPolyline
 90
4
 70
1
 10
97.565100
 20
74.311800
 30
0.0
 10
98.355100
 20
74.311800
 30
0.0
 10
98.355100
 20
73.911800
 30
0.0
 10
97.565100
 20
73.911800
 30
0.0
  0
LWPOLYLINE
  5
211
100
AcDbEntity
  8
0
 62
1
100
AcDbPolyline
 90
4
 70
1
 10
95.025100
 20
74.311800
 30
0.0
 10
95.815100
 20
74.311800
 30
0.0
 10
95.815100
 20
73.911800
 30
0.0
 10
95.025100
 20
73.911800
 30
0.0
  0
LWPOLYLINE
  5
212
100
AcDbEntity
  8
0
 62
1
100
AcDbPolyline
 90
4
 70
1
 10
97.565100
 20
73.511800
 30
0.0
 10
98.355100
 20
73.511800
 30
0.0
 10
98.355100
 20
73.111800
 30
0.0
 10
97.565100
 20
73.111800
 30
0.0
  0
LWPOLYLINE
  5
213
100
AcDbEntity
  8
0
 62
1
100
AcDbPolyline
 90
4
 70
1
 10
95.025100
 20
73.511800
 30
0.0
 10
95.815100
 20
73.511800
 30
0.0
 10
95.815100
 20
73.111800
 30
0.0
 10
95.025100
 20
73.111800
 30
0.0
  0
LWPOLYLINE
  5
214
100
AcDbEntity
  8
0
 62
1
100
AcDbPolyline
 90
4
 70
1
 10
97.565100
 20
72.711800
 30
0.0
 10
98.355100
 20
72.711800
 30
0.0
 10
98.355100
 20
72.311800
 30
0.0
 10
97.565100
 20
72.311800
 30
0.0
  0
LWPOLYLINE
  5
215
100
AcDbEntity
  8
0
 62
1
100
AcDbPolyline
 90
4
 70
1
 10
95.025100
 20
72.711800
 30
0.0
 10
95.815100
 20
72.711800
 30
0.0
 10
95.815100
 20
72.311800
 30
0.0
 10
95.025100
 20
72.311800
 30
0.0
  0
LWPOLYLINE
  5
216
100
AcDbEntity
  8
0
 62
1
100
AcDbPolyline
 90
4
 70
1
 10
97.565100
 20
71.911800
 30
0.0
 10
98.355100
 20
71.911800
 30
0.0
 10
98.355100
 20
71.511800
 30
0.0
 10
97.565100
 20
71.511800
 30
0.0
  0
LWPOLYLINE
  5
217
100
AcDbEntity
  8
0
 62
1
100
AcDbPolyline
 90
4
 70
1
 10
95.025100
 20
71.911800
 30
0.0
 10
95.815100
 20
71.911800
 30
0.0
 10
95.815100
 20
71.511800
 30
0.0
 10
95.025100
 20
71.511800
 30
0.0
  0
LWPOLYLINE
  5
218
100
AcDbEntity
  8
0
 62
1
100
AcDbPolyline
 90
4
 70
1
 10
97.565100
 20
71.111800
 30
0.0
 10
98.355100
 20
71.111800
 30
0.0
 10
98.355100
 20
70.711800
 30
0.0
 10
97.565100
 20
70.711800
 30
0.0
  0
LWPOLYLINE
  5
219
100
AcDbEntity
  8
0
 62
1
100
AcDbPolyline
 90
4
 70
1
 10
95.025100
 20
71.111800
 30
0.0
 10
95.815100
 20
71.111800
 30
0.0
 10
95.815100
 20
70.711800
 30
0.0
 10
95.025100
 20
70.711800
 30
0.0
  0
LWPOLYLINE
  5
21a
100
AcDbEntity
  8
0
 62
1
100
AcDbPolyline
 90
4
 70
1
 10
97.565100
 20
70.311800
 30
0.0
 10
98.355100
 20
70.311800
 30
0.0
 10
98.355100
 20
69.911800
 30
0.0
 10
97.565100
 20
69.911800
 30
0.0
  0
LWPOLYLINE
  5
21b
100
AcDbEntity
  8
0
 62
1
100
AcDbPolyline
 90
4
 70
1
 10
95.025100
 20
70.311800
 30
0.0
 10
95.815100
 20
70.311800
 30
0.0
 10
95.815100
 20
69.911800
 30
0.0
 10
95.025100
 20
69.911800
 30
0.0
  0
LWPOLYLINE
  5
21c
100
AcDbEntity
  8
0
 62
1
100
AcDbPolyline
 90
4
 70
1
 10
97.565100
 20
69.511800
 30
0.0
 10
98.355100
 20
69.511800
 30
0.0
 10
98.355100
 20
69.111800
 30
0.0
 10
97.565100
 20
69.111800
 30
0.0
  0
LWPOLYLINE
  5
21d
100
AcDbEntity
  8
0
 62
1
100
AcDbPolyline
 90
4
 70
1
 10
95.025100
 20
69.511800
 30
0.0
 10
95.815100
 20
69.511800
 30
0.0
 10
95.815100
 20
69.111800
 30
0.0
 10
95.025100
 20
69.111800
 30
0.0
  0
LWPOLYLINE
  5
21e
100
AcDbEntity
  8
0
 62
1
100
AcDbPolyline
 90
4
 70
1
 10
95.890100
 20
76.386800
 30
0.0
 10
97.490100
 20
76.386800
 30
0.0
 10
97.490100
 20
75.736800
 30
0.0
 10
95.890100
 20
75.736800
 30
0.0
  0
LWPOLYLINE
  5
21f
100
AcDbEntity
  8
0
 62
1
100
AcDbPolyline
 90
4
 70
1
 10
95.890100
 20
68.486800
 30
0.0
 10
97.490100
 20
68.486800
 30
0.0
 10
97.490100
 20
67.836800
 30
0.0
 10
95.890100
 20
67.836800
 30
0.0
  0
LWPOLYLINE
  5
220
100
AcDbEntity
  8
0
 62
1
100
AcDbPolyline
 90
4
 70
1
 10
114.667600
 20
50.361800
 30
0.0
 10
113.877600
 20
50.361800
 30
0.0
 10
113.877600
 20
50.761800
 30
0.0
 10
114.667600
 20
50.761800
 30
0.0
  0
LWPOLYLINE
  5
221
100
AcDbEntity
  8
0
 62
1
100
AcDbPolyline
 90
4
 70
1
 10
117.207600
 20
50.361800
 30
0.0
 10
116.417600
 20
50.361800
 30
0.0
 10
116.417600
 20
50.761800
 30
0.0
 10
117.207600
 20
50.761800
 30
0.0
  0
LWPOLYLINE
  5
222
100
AcDbEntity
  8
0
 62
1
100
AcDbPolyline
 90
4
 70
1
 10
114.667600
 20
51.161800
 30
0.0
 10
113.877600
 20
51.161800
 30
0.0
 10
113.877600
 20
51.561800
 30
0.0
 10
114.667600
 20
51.561800
 30
0.0
  0
LWPOLYLINE
  5
223
100
AcDbEntity
  8
0
 62
1
100
AcDbPolyline
 90
4
 70
1
 10
117.207600
 20
51.161800
 30
0.0
 10
116.417600
 20
51.161800
 30
0.0
 10
116.417600
 20
51.561800
 30
0.0
 10
117.207600
 20
51.561800
 30
0.0
  0
LWPOLYLINE
  5
224
100
AcDbEntity
  8
0
 62
1
100
AcDbPolyline
 90
4
 70
1
 10
114.667600
 20
51.961800
 30
0.0
 10
113.877600
 20
51.961800
 30
0.0
 10
113.877600
 20
52.361800
 30
0.0
 10
114.667600
 20
52.361800
 30
0.0
  0
LWPOLYLINE
  5
225
100
AcDbEntity
  8
0
 62
1
100
AcDbPolyline
 90
4
 70
1
 10
117.207600
 20
51.961800
 30
0.0
 10
116.417600
 20
51.961800
 30
0.0
 10
116.417600
 20
52.361800
 30
0.0
 10
117.207600
 20
52.361800
 30
0.0
  0
LWPOLYLINE
  5
226
100
AcDbEntity
  8
0
 62
1
100
AcDbPolyline
 90
4
 70
1
 10
114.667600
 20
52.761800
 30
0.0
 10
113.877600
 20
52.761800
 30
0.0
 10
113.877600
 20
53.161800
 30
0.0
 10
114.667600
 20
53.161800
 30
0.0
  0
LWPOLYLINE
  5
227
100
AcDbEntity
  8
0
 62
1
100
AcDbPolyline
 90
4
 70
1
 10
117.207600
 20
52.761800
 30
0.0
 10
116.417600
 20
52.761800
 30
0.0
 10
116.417600
 20
53.161800
 30
0.0
 10
117.207600
 20
53.161800
 30
0.0
  0
LWPOLYLINE
  5
228
100
AcDbEntity
  8
0
 62
1
100
AcDbPolyline
 90
4
 70
1
 10
114.667600
 20
53.561800
 30
0.0
 10
113.877600
 20
53.561800
 30
0.0
 10
113.877600
 20
53.961800
 30
0.0
 10
114.667600
 20
53.961800
 30
0.0
  0
LWPOLYLINE
  5
229
100
AcDbEntity
  8
0
 62
1
100
AcDbPolyline
 90
4
 70
1
 10
117.207600
 20
53.561800
 30
0.0
 10
116.417600
 20
53.561800
 30
0.0
 10
116.417600
 20
53.961800
 30
0.0
 10
117.207600
 20
53.961800
 30
0.0
  0
LWPOLYLINE
  5
22a
100
AcDbEntity
  8
0
 62
1
100
AcDbPolyline
 90
4
 70
1
 10
114.667600
 20
54.361800
 30
0.0
 10
113.877600
 20
54.361800
 30
0.0
 10
113.877600
 20
54.761800
 30
0.0
 10
114.667600
 20
54.761800
 30
0.0
  0
LWPOLYLINE
  5
22b
100
AcDbEntity
  8
0
 62
1
100
AcDbPolyline
 90
4
 70
1
 10
117.207600
 20
54.361800
 30
0.0
 10
116.417600
 20
54.361800
 30
0.0
 10
116.417600
 20
54.761800
 30
0.0
 10
117.207600
 20
54.761800
 30
0.0
  0
LWPOLYLINE
  5
22c
100
AcDbEntity
  8
0
 62
1
100
AcDbPolyline
 90
4
 70
1
 10
114.667600
 20
55.161800
 30
0.0
 10
113.877600
 20
55.161800
 30
0.0
 10
113.877600
 20
55.561800
 30
0.0
 10
114.667600
 20
55.561800
 30
0.0
  0
LWPOLYLINE
  5
22d
100
AcDbEntity
  8
0
 62
1
100
AcDbPolyline
 90
4
 70
1
 10
117.207600
 20
55.161800
 30
0.0
 10
116.417600
 20
55.161800
 30
0.0
 10
116.417600
 20
55.561800
 30
0.0
 10
117.207600
 20
55.561800
 30
0.0
  0
LWPOLYLINE
  5
22e
100
AcDbEntity
  8
0
 62
1
100
AcDbPolyline
 90
4
 70
1
 10
114.667600
 20
55.961800
 30
0.0
 10
113.877600
 20
55.961800
 30
0.0
 10
113.877600
 20
56.361800
 30
0.0
 10
114.667600
 20
56.361800
 30
0.0
  0
LWPOLYLINE
  5
22f
100
AcDbEntity
  8
0
 62
1
100
AcDbPolyline
 90
4
 70
1
 10
117.207600
 20
55.961800
 30
0.0
 10
116.417600
 20
55.961800
 30
0.0
 10
116.417600
 20
56.361800
 30
0.0
 10
117.207600
 20
56.361800
 30
0.0
  0
LWPOLYLINE
  5
230
100
AcDbEntity
  8
0
 62
1
100
AcDbPolyline
 90
4
 70
1
 10
116.342600
 20
49.086800
 30
0.0
 10
114.742600
 20
49.086800
 30
0.0
 10
114.742600
 20
49.736800
 30
0.0
 10
116.342600
 20
49.736800
 30
0.0
  0
LWPOLYLINE
  5
231
100
AcDbEntity
  8
0
 62
1
100
AcDbPolyline
 90
4
 70
1
 10
116.342600
 20
56.986800
 30
0.0
 10
114.742600
 20
56.986800
 30
0.0
 10
114.742600
 20
57.636800
 30
0.0
 10
116.342600
 20
57.636800
 30
0.0
  0
LWPOLYLINE
  5
232
100
AcDbEntity
  8
0
 62
1
100
AcDbPolyline
 90
4
 70
1
 10
57.917600
 20
50.486800
 30
0.0
 10
57.127600
 20
50.486800
 30
0.0
 10
57.127600
 20
50.886800
 30
0.0
 10
57.917600
 20
50.886800
 30
0.0
  0
LWPOLYLINE
  5
233
100
AcDbEntity
  8
0
 62
1
100
AcDbPolyline
 90
4
 70
1
 10
60.457600
 20
50.486800
 30
0.0
 10
59.667600
 20
50.486800
 30
0.0
 10
59.667600
 20
50.886800
 30
0.0
 10
60.457600
 20
50.886800
 30
0.0
  0
LWPOLYLINE
  5
234
100
AcDbEntity
  8
0
 62
1
100
AcDbPolyline
 90
4
 70
1
 10
57.917600
 20
51.286800
 30
0.0
 10
57.127600
 20
51.286800
 30
0.0
 10
57.127600
 20
51.686800
 30
0.0
 10
57.917600
 20
51.686800
 30
0.0
  0
LWPOLYLINE
  5
235
100
AcDbEntity
  8
0
 62
1
100
AcDbPolyline
 90
4
 70
1
 10
60.457600
 20
51.286800
 30
0.0
 10
59.667600
 20
51.286800
 30
0.0
 10
59.667600
 20
51.686800
 30
0.0
 10
60.457600
 20
51.686800
 30
0.0
  0
LWPOLYLINE
  5
236
100
AcDbEntity
  8
0
 62
1
100
AcDbPolyline
 90
4
 70
1
 10
57.917600
 20
52.086800
 30
0.0
 10
57.127600
 20
52.086800
 30
0.0
 10
57.127600
 20
52.486800
 30
0.0
 10
57.917600
 20
52.486800
 30
0.0
  0
LWPOLYLINE
  5
237
100
AcDbEntity
  8
0
 62
1
100
AcDbPolyline
 90
4
 70
1
 10
60.457600
 20
52.086800
 30
0.0
 10
59.667600
 20
52.086800
 30
0.0
 10
59.667600
 20
52.486800
 30
0.0
 10
60.457600
 20
52.486800
 30
0.0
  0
LWPOLYLINE
  5
238
100
AcDbEntity
  8
0
 62
1
100
AcDbPolyline
 90
4
 70
1
 10
57.917600
 20
52.886800
 30
0.0
 10
57.127600
 20
52.886800
 30
0.0
 10
57.127600
 20
53.286800
 30
0.0
 10
57.917600
 20
53.286800
 30
0.0
  0
LWPOLYLINE
  5
239
100
AcDbEntity
  8
0
 62
1
100
AcDbPolyline
 90
4
 70
1
 10
60.457600
 20
52.886800
 30
0.0
 10
59.667600
 20
52.886800
 30
0.0
 10
59.667600
 20
53.286800
 30
0.0
 10
60.457600
 20
53.286800
 30
0.0
  0
LWPOLYLINE
  5
23a
100
AcDbEntity
  8
0
 62
1
100
AcDbPolyline
 90
4
 70
1
 10
57.917600
 20
53.686800
 30
0.0
 10
57.127600
 20
53.686800
 30
0.0
 10
57.127600
 20
54.086800
 30
0.0
 10
57.917600
 20
54.086800
 30
0.0
  0
LWPOLYLINE
  5
23b
100
AcDbEntity
  8
0
 62
1
100
AcDbPolyline
 90
4
 70
1
 10
60.457600
 20
53.686800
 30
0.0
 10
59.667600
 20
53.686800
 30
0.0
 10
59.667600
 20
54.086800
 30
0.0
 10
60.457600
 20
54.086800
 30
0.0
  0
LWPOLYLINE
  5
23c
100
AcDbEntity
  8
0
 62
1
100
AcDbPolyline
 90
4
 70
1
 10
57.917600
 20
54.486800
 30
0.0
 10
57.127600
 20
54.486800
 30
0.0
 10
57.127600
 20
54.886800
 30
0.0
 10
57.917600
 20
54.886800
 30
0.0
  0
LWPOLYLINE
  5
23d
100
AcDbEntity
  8
0
 62
1
100
AcDbPolyline
 90
4
 70
1
 10
60.457600
 20
54.486800
 30
0.0
 10
59.667600
 20
54.486800
 30
0.0
 10
59.667600
 20
54.886800
 30
0.0
 10
60.457600
 20
54.886800
 30
0.0
  0
LWPOLYLINE
  5
23e
100
AcDbEntity
  8
0
 62
1
100
AcDbPolyline
 90
4
 70
1
 10
57.917600
 20
55.286800
 30
0.0
 10
57.127600
 20
55.286800
 30
0.0
 10
57.127600
 20
55.686800
 30
0.0
 10
57.917600
 20
55.686800
 30
0.0
  0
LWPOLYLINE
  5
23f
100
AcDbEntity
  8
0
 62
1
100
AcDbPolyline
 90
4
 70
1
 10
60.457600
 20
55.286800
 30
0.0
 10
59.667600
 20
55.286800
 30
0.0
 10
59.667600
 20
55.686800
 30
0.0
 10
60.457600
 20
55.686800
 30
0.0
  0
LWPOLYLINE
  5
240
100
AcDbEntity
  8
0
 62
1
100
AcDbPolyline
 90
4
 70
1
 10
57.917600
 20
56.086800
 30
0.0
 10
57.127600
 20
56.086800
 30
0.0
 10
57.127600
 20
56.486800
 30
0.0
 10
57.917600
 20
56.486800
 30
0.0
  0
LWPOLYLINE
  5
241
100
AcDbEntity
  8
0
 62
1
100
AcDbPolyline
 90
4
 70
1
 10
60.457600
 20
56.086800
 30
0.0
 10
59.667600
 20
56.086800
 30
0.0
 10
59.667600
 20
56.486800
 30
0.0
 10
60.457600
 20
56.486800
 30
0.0
  0
LWPOLYLINE
  5
242
100
AcDbEntity
  8
0
 62
1
100
AcDbPolyline
 90
4
 70
1
 10
59.592600
 20
49.211800
 30
0.0
 10
57.992600
 20
49.211800
 30
0.0
 10
57.992600
 20
49.861800
 30
0.0
 10
59.592600
 20
49.861800
 30
0.0
  0
LWPOLYLINE
  5
243
100
AcDbEntity
  8
0
 62
1
100
AcDbPolyline
 90
4
 70
1
 10
59.592600
 20
57.111800
 30
0.0
 10
57.992600
 20
57.111800
 30
0.0
 10
57.992600
 20
57.761800
 30
0.0
 10
59.592600
 20
57.761800
 30
0.0
  0
LWPOLYLINE
  5
244
100
AcDbEntity
  8
0
 62
1
100
AcDbPolyline
 90
4
 70
1
 10
41.057600
 20
75.136800
 30
0.0
 10
41.847600
 20
75.136800
 30
0.0
 10
41.847600
 20
74.736800
 30
0.0
 10
41.057600
 20
74.736800
 30
0.0
  0
LWPOLYLINE
  5
245
100
AcDbEntity
  8
0
 62
1
100
AcDbPolyline
 90
4
 70
1
 10
38.517600
 20
75.136800
 30
0.0
 10
39.307600
 20
75.136800
 30
0.0
 10
39.307600
 20
74.736800
 30
0.0
 10
38.517600
 20
74.736800
 30
0.0
  0
LWPOLYLINE
  5
246
100
AcDbEntity
  8
0
 62
1
100
AcDbPolyline
 90
4
 70
1
 10
41.057600
 20
74.336800
 30
0.0
 10
41.847600
 20
74.336800
 30
0.0
 10
41.847600
 20
73.936800
 30
0.0
 10
41.057600
 20
73.936800
 30
0.0
  0
LWPOLYLINE
  5
247
100
AcDbEntity
  8
0
 62
1
100
AcDbPolyline
 90
4
 70
1
 10
38.517600
 20
74.336800
 30
0.0
 10
39.307600
 20
74.336800
 30
0.0
 10
39.307600
 20
73.936800
 30
0.0
 10
38.517600
 20
73.936800
 30
0.0
  0
LWPOLYLINE
  5
248
100
AcDbEntity
  8
0
 62
1
100
AcDbPolyline
 90
4
 70
1
 10
41.057600
 20
73.536800
 30
0.0
 10
41.847600
 20
73.536800
 30
0.0
 10
41.847600
 20
73.136800
 30
0.0
 10
41.057600
 20
73.136800
 30
0.0
  0
LWPOLYLINE
  5
249
100
AcDbEntity
  8
0
 62
1
100
AcDbPolyline
 90
4
 70
1
 10
38.517600
 20
73.536800
 30
0.0
 10
39.307600
 20
73.536800
 30
0.0
 10
39.307600
 20
73.136800
 30
0.0
 10
38.517600
 20
73.136800
 30
0.0
  0
LWPOLYLINE
  5
24a
100
AcDbEntity
  8
0
 62
1
100
AcDbPolyline
 90
4
 70
1
 10
41.057600
 20
72.736800
 30
0.0
 10
41.847600
 20
72.736800
 30
0.0
 10
41.847600
 20
72.336800
 30
0.0
 10
41.057600
 20
72.336800
 30
0.0
  0
LWPOLYLINE
  5
24b
100
AcDbEntity
  8
0
 62
1
100
AcDbPolyline
 90
4
 70
1
 10
38.517600
 20
72.736800
 30
0.0
 10
39.307600
 20
72.736800
 30
0.0
 10
39.307600
 20
72.336800
 30
0.0
 10
38.517600
 20
72.336800
 30
0.0
  0
LWPOLYLINE
  5
24c
100
AcDbEntity
  8
0
 62
1
100
AcDbPolyline
 90
4
 70
1
 10
41.057600
 20
71.936800
 30
0.0
 10
41.847600
 20
71.936800
 30
0.0
 10
41.847600
 20
71.536800
 30
0.0
 10
41.057600
 20
71.536800
 30
0.0
  0
LWPOLYLINE
  5
24d
100
AcDbEntity
  8
0
 62
1
100
AcDbPolyline
 90
4
 70
1
 10
38.517600
 20
71.936800
 30
0.0
 10
39.307600
 20
71.936800
 30
0.0
 10
39.307600
 20
71.536800
 30
0.0
 10
38.517600
 20
71.536800
 30
0.0
  0
LWPOLYLINE
  5
24e
100
AcDbEntity
  8
0
 62
1
100
AcDbPolyline
 90
4
 70
1
 10
41.057600
 20
71.136800
 30
0.0
 10
41.847600
 20
71.136800
 30
0.0
 10
41.847600
 20
70.736800
 30
0.0
 10
41.057600
 20
70.736800
 30
0.0
  0
LWPOLYLINE
  5
24f
100
AcDbEntity
  8
0
 62
1
100
AcDbPolyline
 90
4
 70
1
 10
38.517600
 20
71.136800
 30
0.0
 10
39.307600
 20
71.136800
 30
0.0
 10
39.307600
 20
70.736800
 30
0.0
 10
38.517600
 20
70.736800
 30
0.0
  0
LWPOLYLINE
  5
250
100
AcDbEntity
  8
0
 62
1
100
AcDbPolyline
 90
4
 70
1
 10
41.057600
 20
70.336800
 30
0.0
 10
41.847600
 20
70.336800
 30
0.0
 10
41.847600
 20
69.936800
 30
0.0
 10
41.057600
 20
69.936800
 30
0.0
  0
LWPOLYLINE
  5
251
100
AcDbEntity
  8
0
 62
1
100
AcDbPolyline
 90
4
 70
1
 10
38.517600
 20
70.336800
 30
0.0
 10
39.307600
 20
70.336800
 30
0.0
 10
39.307600
 20
69.936800
 30
0.0
 10
38.517600
 20
69.936800
 30
0.0
  0
LWPOLYLINE
  5
252
100
AcDbEntity
  8
0
 62
1
100
AcDbPolyline
 90
4
 70
1
 10
41.057600
 20
69.536800
 30
0.0
 10
41.847600
 20
69.536800
 30
0.0
 10
41.847600
 20
69.136800
 30
0.0
 10
41.057600
 20
69.136800
 30
0.0
  0
LWPOLYLINE
  5
253
100
AcDbEntity
  8
0
 62
1
100
AcDbPolyline
 90
4
 70
1
 10
38.517600
 20
69.536800
 30
0.0
 10
39.307600
 20
69.536800
 30
0.0
 10
39.307600
 20
69.136800
 30
0.0
 10
38.517600
 20
69.136800
 30
0.0
  0
LWPOLYLINE
  5
254
100
AcDbEntity
  8
0
 62
1
100
AcDbPolyline
 90
4
 70
1
 10
39.382600
 20
76.411800
 30
0.0
 10
40.982600
 20
76.411800
 30
0.0
 10
40.982600
 20
75.761800
 30
0.0
 10
39.382600
 20
75.761800
 30
0.0
  0
LWPOLYLINE
  5
255
100
AcDbEntity
  8
0
 62
1
100
AcDbPolyline
 90
4
 70
1
 10
39.382600
 20
68.511800
 30
0.0
 10
40.982600
 20
68.511800
 30
0.0
 10
40.982600
 20
67.861800
 30
0.0
 10
39.382600
 20
67.861800
 30
0.0
  0
LWPOLYLINE
  5
256
100
AcDbEntity
  8
0
 62
1
100
AcDbPolyline
 90
4
 70
1
 10
20.355100
 20
50.436800
 30
0.0
 10
19.565100
 20
50.436800
 30
0.0
 10
19.565100
 20
50.836800
 30
0.0
 10
20.355100
 20
50.836800
 30
0.0
  0
LWPOLYLINE
  5
257
100
AcDbEntity
  8
0
 62
1
100
AcDbPolyline
 90
4
 70
1
 10
22.895100
 20
50.436800
 30
0.0
 10
22.105100
 20
50.436800
 30
0.0
 10
22.105100
 20
50.836800
 30
0.0
 10
22.895100
 20
50.836800
 30
0.0
  0
LWPOLYLINE
  5
258
100
AcDbEntity
  8
0
 62
1
100
AcDbPolyline
 90
4
 70
1
 10
20.355100
 20
51.236800
 30
0.0
 10
19.565100
 20
51.236800
 30
0.0
 10
19.565100
 20
51.636800
 30
0.0
 10
20.355100
 20
51.636800
 30
0.0
  0
LWPOLYLINE
  5
259
100
AcDbEntity
  8
0
 62
1
100
AcDbPolyline
 90
4
 70
1
 10
22.895100
 20
51.236800
 30
0.0
 10
22.105100
 20
51.236800
 30
0.0
 10
22.105100
 20
51.636800
 30
0.0
 10
22.895100
 20
51.636800
 30
0.0
  0
LWPOLYLINE
  5
25a
100
AcDbEntity
  8
0
 62
1
100
AcDbPolyline
 90
4
 70
1
 10
20.355100
 20
52.036800
 30
0.0
 10
19.565100
 20
52.036800
 30
0.0
 10
19.565100
 20
52.436800
 30
0.0
 10
20.355100
 20
52.436800
 30
0.0
  0
LWPOLYLINE
  5
25b
100
AcDbEntity
  8
0
 62
1
100
AcDbPolyline
 90
4
 70
1
 10
22.895100
 20
52.036800
 30
0.0
 10
22.105100
 20
52.036800
 30
0.0
 10
22.105100
 20
52.436800
 30
0.0
 10
22.895100
 20
52.436800
 30
0.0
  0
LWPOLYLINE
  5
25c
100
AcDbEntity
  8
0
 62
1
100
AcDbPolyline
 90
4
 70
1
 10
20.355100
 20
52.836800
 30
0.0
 10
19.565100
 20
52.836800
 30
0.0
 10
19.565100
 20
53.236800
 30
0.0
 10
20.355100
 20
53.236800
 30
0.0
  0
LWPOLYLINE
  5
25d
100
AcDbEntity
  8
0
 62
1
100
AcDbPolyline
 90
4
 70
1
 10
22.895100
 20
52.836800
 30
0.0
 10
22.105100
 20
52.836800
 30
0.0
 10
22.105100
 20
53.236800
 30
0.0
 10
22.895100
 20
53.236800
 30
0.0
  0
LWPOLYLINE
  5
25e
100
AcDbEntity
  8
0
 62
1
100
AcDbPolyline
 90
4
 70
1
 10
20.355100
 20
53.636800
 30
0.0
 10
19.565100
 20
53.636800
 30
0.0
 10
19.565100
 20
54.036800
 30
0.0
 10
20.355100
 20
54.036800
 30
0.0
  0
LWPOLYLINE
  5
25f
100
AcDbEntity
  8
0
 62
1
100
AcDbPolyline
 90
4
 70
1
 10
22.895100
 20
53.636800
 30
0.0
 10
22.105100
 20
53.636800
 30
0.0
 10
22.105100
 20
54.036800
 30
0.0
 10
22.895100
 20
54.036800
 30
0.0
  0
LWPOLYLINE
  5
260
100
AcDbEntity
  8
0
 62
1
100
AcDbPolyline
 90
4
 70
1
 10
20.355100
 20
54.436800
 30
0.0
 10
19.565100
 20
54.436800
 30
0.0
 10
19.565100
 20
54.836800
 30
0.0
 10
20.355100
 20
54.836800
 30
0.0
  0
LWPOLYLINE
  5
261
100
AcDbEntity
  8
0
 62
1
100
AcDbPolyline
 90
4
 70
1
 10
22.895100
 20
54.436800
 30
0.0
 10
22.105100
 20
54.436800
 30
0.0
 10
22.105100
 20
54.836800
 30
0.0
 10
22.895100
 20
54.836800
 30
0.0
  0
LWPOLYLINE
  5
262
100
AcDbEntity
  8
0
 62
1
100
AcDbPolyline
 90
4
 70
1
 10
20.355100
 20
55.236800
 30
0.0
 10
19.565100
 20
55.236800
 30
0.0
 10
19.565100
 20
55.636800
 30
0.0
 10
20.355100
 20
55.636800
 30
0.0
  0
LWPOLYLINE
  5
263
100
AcDbEntity
  8
0
 62
1
100
AcDbPolyline
 90
4
 70
1
 10
22.895100
 20
55.236800
 30
0.0
 10
22.105100
 20
55.236800
 30
0.0
 10
22.105100
 20
55.636800
 30
0.0
 10
22.895100
 20
55.636800
 30
0.0
  0
LWPOLYLINE
  5
264
100
AcDbEntity
  8
0
 62
1
100
AcDbPolyline
 90
4
 70
1
 10
20.355100
 20
56.036800
 30
0.0
 10
19.565100
 20
56.036800
 30
0.0
 10
19.565100
 20
56.436800
 30
0.0
 10
20.355100
 20
56.436800
 30
0.0
  0
LWPOLYLINE
  5
265
100
AcDbEntity
  8
0
 62
1
100
AcDbPolyline
 90
4
 70
1
 10
22.895100
 20
56.036800
 30
0.0
 10
22.105100
 20
56.036800
 30
0.0
 10
22.105100
 20
56.436800
 30
0.0
 10
22.895100
 20
56.436800
 30
0.0
  0
LWPOLYLINE
  5
266
100
AcDbEntity
  8
0
 62
1
100
AcDbPolyline
 90
4
 70
1
 10
22.030100
 20
49.161800
 30
0.0
 10
20.430100
 20
49.161800
 30
0.0
 10
20.430100
 20
49.811800
 30
0.0
 10
22.030100
 20
49.811800
 30
0.0
  0
LWPOLYLINE
  5
267
100
AcDbEntity
  8
0
 62
1
100
AcDbPolyline
 90
4
 70
1
 10
22.030100
 20
57.061800
 30
0.0
 10
20.430100
 20
57.061800
 30
0.0
 10
20.430100
 20
57.711800
 30
0.0
 10
22.030100
 20
57.711800
 30
0.0
  0
LWPOLYLINE
  5
268
100
AcDbEntity
  8
0
 62
1
100
AcDbPolyline
 90
4
 70
1
 10
59.957600
 20
37.261800
 30
0.0
 10
60.747600
 20
37.261800
 30
0.0
 10
60.747600
 20
36.861800
 30
0.0
 10
59.957600
 20
36.861800
 30
0.0
  0
LWPOLYLINE
  5
269
100
AcDbEntity
  8
0
 62
1
100
AcDbPolyline
 90
4
 70
1
 10
57.417600
 20
37.261800
 30
0.0
 10
58.207600
 20
37.261800
 30
0.0
 10
58.207600
 20
36.861800
 30
0.0
 10
57.417600
 20
36.861800
 30
0.0
  0
LWPOLYLINE
  5
26a
100
AcDbEntity
  8
0
 62
1
100
AcDbPolyline
 90
4
 70
1
 10
59.957600
 20
36.461800
 30
0.0
 10
60.747600
 20
36.461800
 30
0.0
 10
60.747600
 20
36.061800
 30
0.0
 10
59.957600
 20
36.061800
 30
0.0
  0
LWPOLYLINE
  5
26b
100
AcDbEntity
  8
0
 62
1
100
AcDbPolyline
 90
4
 70
1
 10
57.417600
 20
36.461800
 30
0.0
 10
58.207600
 20
36.461800
 30
0.0
 10
58.207600
 20
36.061800
 30
0.0
 10
57.417600
 20
36.061800
 30
0.0
  0
LWPOLYLINE
  5
26c
100
AcDbEntity
  8
0
 62
1
100
AcDbPolyline
 90
4
 70
1
 10
59.957600
 20
35.661800
 30
0.0
 10
60.747600
 20
35.661800
 30
0.0
 10
60.747600
 20
35.261800
 30
0.0
 10
59.957600
 20
35.261800
 30
0.0
  0
LWPOLYLINE
  5
26d
100
AcDbEntity
  8
0
 62
1
100
AcDbPolyline
 90
4
 70
1
 10
57.417600
 20
35.661800
 30
0.0
 10
58.207600
 20
35.661800
 30
0.0
 10
58.207600
 20
35.261800
 30
0.0
 10
57.417600
 20
35.261800
 30
0.0
  0
LWPOLYLINE
  5
26e
100
AcDbEntity
  8
0
 62
1
100
AcDbPolyline
 90
4
 70
1
 10
59.957600
 20
34.861800
 30
0.0
 10
60.747600
 20
34.861800
 30
0.0
 10
60.747600
 20
34.461800
 30
0.0
 10
59.957600
 20
34.461800
 30
0.0
  0
LWPOLYLINE
  5
26f
100
AcDbEntity
  8
0
 62
1
100
AcDbPolyline
 90
4
 70
1
 10
57.417600
 20
34.861800
 30
0.0
 10
58.207600
 20
34.861800
 30
0.0
 10
58.207600
 20
34.461800
 30
0.0
 10
57.417600
 20
34.461800
 30
0.0
  0
LWPOLYLINE
  5
270
100
AcDbEntity
  8
0
 62
1
100
AcDbPolyline
 90
4
 70
1
 10
59.957600
 20
34.061800
 30
0.0
 10
60.747600
 20
34.061800
 30
0.0
 10
60.747600
 20
33.661800
 30
0.0
 10
59.957600
 20
33.661800
 30
0.0
  0
LWPOLYLINE
  5
271
100
AcDbEntity
  8
0
 62
1
100
AcDbPolyline
 90
4
 70
1
 10
57.417600
 20
34.061800
 30
0.0
 10
58.207600
 20
34.061800
 30
0.0
 10
58.207600
 20
33.661800
 30
0.0
 10
57.417600
 20
33.661800
 30
0.0
  0
LWPOLYLINE
  5
272
100
AcDbEntity
  8
0
 62
1
100
AcDbPolyline
 90
4
 70
1
 10
59.957600
 20
33.261800
 30
0.0
 10
60.747600
 20
33.261800
 30
0.0
 10
60.747600
 20
32.861800
 30
0.0
 10
59.957600
 20
32.861800
 30
0.0
  0
LWPOLYLINE
  5
273
100
AcDbEntity
  8
0
 62
1
100
AcDbPolyline
 90
4
 70
1
 10
57.417600
 20
33.261800
 30
0.0
 10
58.207600
 20
33.261800
 30
0.0
 10
58.207600
 20
32.861800
 30
0.0
 10
57.417600
 20
32.861800
 30
0.0
  0
LWPOLYLINE
  5
274
100
AcDbEntity
  8
0
 62
1
100
AcDbPolyline
 90
4
 70
1
 10
59.957600
 20
32.461800
 30
0.0
 10
60.747600
 20
32.461800
 30
0.0
 10
60.747600
 20
32.061800
 30
0.0
 10
59.957600
 20
32.061800
 30
0.0
  0
LWPOLYLINE
  5
275
100
AcDbEntity
  8
0
 62
1
100
AcDbPolyline
 90
4
 70
1
 10
57.417600
 20
32.461800
 30
0.0
 10
58.207600
 20
32.461800
 30
0.0
 10
58.207600
 20
32.061800
 30
0.0
 10
57.417600
 20
32.061800
 30
0.0
  0
LWPOLYLINE
  5
276
100
AcDbEntity
  8
0
 62
1
100
AcDbPolyline
 90
4
 70
1
 10
59.957600
 20
31.661800
 30
0.0
 10
60.747600
 20
31.661800
 30
0.0
 10
60.747600
 20
31.261800
 30
0.0
 10
59.957600
 20
31.261800
 30
0.0
  0
LWPOLYLINE
  5
277
100
AcDbEntity
  8
0
 62
1
100
AcDbPolyline
 90
4
 70
1
 10
57.417600
 20
31.661800
 30
0.0
 10
58.207600
 20
31.661800
 30
0.0
 10
58.207600
 20
31.261800
 30
0.0
 10
57.417600
 20
31.261800
 30
0.0
  0
LWPOLYLINE
  5
278
100
AcDbEntity
  8
0
 62
1
100
AcDbPolyline
 90
4
 70
1
 10
58.282600
 20
38.536800
 30
0.0
 10
59.882600
 20
38.536800
 30
0.0
 10
59.882600
 20
37.886800
 30
0.0
 10
58.282600
 20
37.886800
 30
0.0
  0
LWPOLYLINE
  5
279
100
AcDbEntity
  8
0
 62
1
100
AcDbPolyline
 90
4
 70
1
 10
58.282600
 20
30.636800
 30
0.0
 10
59.882600
 20
30.636800
 30
0.0
 10
59.882600
 20
29.986800
 30
0.0
 10
58.282600
 20
29.986800
 30
0.0
  0
LWPOLYLINE
  5
27a
100
AcDbEntity
  8
0
 62
1
100
AcDbPolyline
 90
4
 70
1
 10
78.757600
 20
75.036800
 30
0.0
 10
79.547600
 20
75.036800
 30
0.0
 10
79.547600
 20
74.636800
 30
0.0
 10
78.757600
 20
74.636800
 30
0.0
  0
LWPOLYLINE
  5
27b
100
AcDbEntity
  8
0
 62
1
100
AcDbPolyline
 90
4
 70
1
 10
76.217600
 20
75.036800
 30
0.0
 10
77.007600
 20
75.036800
 30
0.0
 10
77.007600
 20
74.636800
 30
0.0
 10
76.217600
 20
74.636800
 30
0.0
  0
LWPOLYLINE
  5
27c
100
AcDbEntity
  8
0
 62
1
100
AcDbPolyline
 90
4
 70
1
 10
78.757600
 20
74.236800
 30
0.0
 10
79.547600
 20
74.236800
 30
0.0
 10
79.547600
 20
73.836800
 30
0.0
 10
78.757600
 20
73.836800
 30
0.0
  0
LWPOLYLINE
  5
27d
100
AcDbEntity
  8
0
 62
1
100
AcDbPolyline
 90
4
 70
1
 10
76.217600
 20
74.236800
 30
0.0
 10
77.007600
 20
74.236800
 30
0.0
 10
77.007600
 20
73.836800
 30
0.0
 10
76.217600
 20
73.836800
 30
0.0
  0
LWPOLYLINE
  5
27e
100
AcDbEntity
  8
0
 62
1
100
AcDbPolyline
 90
4
 70
1
 10
78.757600
 20
73.436800
 30
0.0
 10
79.547600
 20
73.436800
 30
0.0
 10
79.547600
 20
73.036800
 30
0.0
 10
78.757600
 20
73.036800
 30
0.0
  0
LWPOLYLINE
  5
27f
100
AcDbEntity
  8
0
 62
1
100
AcDbPolyline
 90
4
 70
1
 10
76.217600
 20
73.436800
 30
0.0
 10
77.007600
 20
73.436800
 30
0.0
 10
77.007600
 20
73.036800
 30
0.0
 10
76.217600
 20
73.036800
 30
0.0
  0
LWPOLYLINE
  5
280
100
AcDbEntity
  8
0
 62
1
100
AcDbPolyline
 90
4
 70
1
 10
78.757600
 20
72.636800
 30
0.0
 10
79.547600
 20
72.636800
 30
0.0
 10
79.547600
 20
72.236800
 30
0.0
 10
78.757600
 20
72.236800
 30
0.0
  0
LWPOLYLINE
  5
281
100
AcDbEntity
  8
0
 62
1
100
AcDbPolyline
 90
4
 70
1
 10
76.217600
 20
72.636800
 30
0.0
 10
77.007600
 20
72.636800
 30
0.0
 10
77.007600
 20
72.236800
 30
0.0
 10
76.217600
 20
72.236800
 30
0.0
  0
LWPOLYLINE
  5
282
100
AcDbEntity
  8
0
 62
1
100
AcDbPolyline
 90
4
 70
1
 10
78.757600
 20
71.836800
 30
0.0
 10
79.547600
 20
71.836800
 30
0.0
 10
79.547600
 20
71.436800
 30
0.0
 10
78.757600
 20
71.436800
 30
0.0
  0
LWPOLYLINE
  5
283
100
AcDbEntity
  8
0
 62
1
100
AcDbPolyline
 90
4
 70
1
 10
76.217600
 20
71.836800
 30
0.0
 10
77.007600
 20
71.836800
 30
0.0
 10
77.007600
 20
71.436800
 30
0.0
 10
76.217600
 20
71.436800
 30
0.0
  0
LWPOLYLINE
  5
284
100
AcDbEntity
  8
0
 62
1
100
AcDbPolyline
 90
4
 70
1
 10
78.757600
 20
71.036800
 30
0.0
 10
79.547600
 20
71.036800
 30
0.0
 10
79.547600
 20
70.636800
 30
0.0
 10
78.757600
 20
70.636800
 30
0.0
  0
LWPOLYLINE
  5
285
100
AcDbEntity
  8
0
 62
1
100
AcDbPolyline
 90
4
 70
1
 10
76.217600
 20
71.036800
 30
0.0
 10
77.007600
 20
71.036800
 30
0.0
 10
77.007600
 20
70.636800
 30
0.0
 10
76.217600
 20
70.636800
 30
0.0
  0
LWPOLYLINE
  5
286
100
AcDbEntity
  8
0
 62
1
100
AcDbPolyline
 90
4
 70
1
 10
78.757600
 20
70.236800
 30
0.0
 10
79.547600
 20
70.236800
 30
0.0
 10
79.547600
 20
69.836800
 30
0.0
 10
78.757600
 20
69.836800
 30
0.0
  0
LWPOLYLINE
  5
287
100
AcDbEntity
  8
0
 62
1
100
AcDbPolyline
 90
4
 70
1
 10
76.217600
 20
70.236800
 30
0.0
 10
77.007600
 20
70.236800
 30
0.0
 10
77.007600
 20
69.836800
 30
0.0
 10
76.217600
 20
69.836800
 30
0.0
  0
LWPOLYLINE
  5
288
100
AcDbEntity
  8
0
 62
1
100
AcDbPolyline
 90
4
 70
1
 10
78.757600
 20
69.436800
 30
0.0
 10
79.547600
 20
69.436800
 30
0.0
 10
79.547600
 20
69.036800
 30
0.0
 10
78.757600
 20
69.036800
 30
0.0
  0
LWPOLYLINE
  5
289
100
AcDbEntity
  8
0
 62
1
100
AcDbPolyline
 90
4
 70
1
 10
76.217600
 20
69.436800
 30
0.0
 10
77.007600
 20
69.436800
 30
0.0
 10
77.007600
 20
69.036800
 30
0.0
 10
76.217600
 20
69.036800
 30
0.0
  0
LWPOLYLINE
  5
28a
100
AcDbEntity
  8
0
 62
1
100
AcDbPolyline
 90
4
 70
1
 10
77.082600
 20
76.311800
 30
0.0
 10
78.682600
 20
76.311800
 30
0.0
 10
78.682600
 20
75.661800
 30
0.0
 10
77.082600
 20
75.661800
 30
0.0
  0
LWPOLYLINE
  5
28b
100
AcDbEntity
  8
0
 62
1
100
AcDbPolyline
 90
4
 70
1
 10
77.082600
 20
68.411800
 30
0.0
 10
78.682600
 20
68.411800
 30
0.0
 10
78.682600
 20
67.761800
 30
0.0
 10
77.082600
 20
67.761800
 30
0.0
  0
LWPOLYLINE
  5
28c
100
AcDbEntity
  8
0
 62
1
100
AcDbPolyline
 90
4
 70
1
 10
97.640100
 20
37.336800
 30
0.0
 10
98.430100
 20
37.336800
 30
0.0
 10
98.430100
 20
36.936800
 30
0.0
 10
97.640100
 20
36.936800
 30
0.0
  0
LWPOLYLINE
  5
28d
100
AcDbEntity
  8
0
 62
1
100
AcDbPolyline
 90
4
 70
1
 10
95.100100
 20
37.336800
 30
0.0
 10
95.890100
 20
37.336800
 30
0.0
 10
95.890100
 20
36.936800
 30
0.0
 10
95.100100
 20
36.936800
 30
0.0
  0
LWPOLYLINE
  5
28e
100
AcDbEntity
  8
0
 62
1
100
AcDbPolyline
 90
4
 70
1
 10
97.640100
 20
36.536800
 30
0.0
 10
98.430100
 20
36.536800
 30
0.0
 10
98.430100
 20
36.136800
 30
0.0
 10
97.640100
 20
36.136800
 30
0.0
  0
LWPOLYLINE
  5
28f
100
AcDbEntity
  8
0
 62
1
100
AcDbPolyline
 90
4
 70
1
 10
95.100100
 20
36.536800
 30
0.0
 10
95.890100
 20
36.536800
 30
0.0
 10
95.890100
 20
36.136800
 30
0.0
 10
95.100100
 20
36.136800
 30
0.0
  0
LWPOLYLINE
  5
290
100
AcDbEntity
  8
0
 62
1
100
AcDbPolyline
 90
4
 70
1
 10
97.640100
 20
35.736800
 30
0.0
 10
98.430100
 20
35.736800
 30
0.0
 10
98.430100
 20
35.336800
 30
0.0
 10
97.640100
 20
35.336800
 30
0.0
  0
LWPOLYLINE
  5
291
100
AcDbEntity
  8
0
 62
1
100
AcDbPolyline
 90
4
 70
1
 10
95.100100
 20
35.736800
 30
0.0
 10
95.890100
 20
35.736800
 30
0.0
 10
95.890100
 20
35.336800
 30
0.0
 10
95.100100
 20
35.336800
 30
0.0
  0
LWPOLYLINE
  5
292
100
AcDbEntity
  8
0
 62
1
100
AcDbPolyline
 90
4
 70
1
 10
97.640100
 20
34.936800
 30
0.0
 10
98.430100
 20
34.936800
 30
0.0
 10
98.430100
 20
34.536800
 30
0.0
 10
97.640100
 20
34.536800
 30
0.0
  0
LWPOLYLINE
  5
293
100
AcDbEntity
  8
0
 62
1
100
AcDbPolyline
 90
4
 70
1
 10
95.100100
 20
34.936800
 30
0.0
 10
95.890100
 20
34.936800
 30
0.0
 10
95.890100
 20
34.536800
 30
0.0
 10
95.100100
 20
34.536800
 30
0.0
  0
LWPOLYLINE
  5
294
100
AcDbEntity
  8
0
 62
1
100
AcDbPolyline
 90
4
 70
1
 10
97.640100
 20
34.136800
 30
0.0
 10
98.430100
 20
34.136800
 30
0.0
 10
98.430100
 20
33.736800
 30
0.0
 10
97.640100
 20
33.736800
 30
0.0
  0
LWPOLYLINE
  5
295
100
AcDbEntity
  8
0
 62
1
100
AcDbPolyline
 90
4
 70
1
 10
95.100100
 20
34.136800
 30
0.0
 10
95.890100
 20
34.136800
 30
0.0
 10
95.890100
 20
33.736800
 30
0.0
 10
95.100100
 20
33.736800
 30
0.0
  0
LWPOLYLINE
  5
296
100
AcDbEntity
  8
0
 62
1
100
AcDbPolyline
 90
4
 70
1
 10
97.640100
 20
33.336800
 30
0.0
 10
98.430100
 20
33.336800
 30
0.0
 10
98.430100
 20
32.936800
 30
0.0
 10
97.640100
 20
32.936800
 30
0.0
  0
LWPOLYLINE
  5
297
100
AcDbEntity
  8
0
 62
1
100
AcDbPolyline
 90
4
 70
1
 10
95.100100
 20
33.336800
 30
0.0
 10
95.890100
 20
33.336800
 30
0.0
 10
95.890100
 20
32.936800
 30
0.0
 10
95.100100
 20
32.936800
 30
0.0
  0
LWPOLYLINE
  5
298
100
AcDbEntity
  8
0
 62
1
100
AcDbPolyline
 90
4
 70
1
 10
97.640100
 20
32.536800
 30
0.0
 10
98.430100
 20
32.536800
 30
0.0
 10
98.430100
 20
32.136800
 30
0.0
 10
97.640100
 20
32.136800
 30
0.0
  0
LWPOLYLINE
  5
299
100
AcDbEntity
  8
0
 62
1
100
AcDbPolyline
 90
4
 70
1
 10
95.100100
 20
32.536800
 30
0.0
 10
95.890100
 20
32.536800
 30
0.0
 10
95.890100
 20
32.136800
 30
0.0
 10
95.100100
 20
32.136800
 30
0.0
  0
LWPOLYLINE
  5
29a
100
AcDbEntity
  8
0
 62
1
100
AcDbPolyline
 90
4
 70
1
 10
97.640100
 20
31.736800
 30
0.0
 10
98.430100
 20
31.736800
 30
0.0
 10
98.430100
 20
31.336800
 30
0.0
 10
97.640100
 20
31.336800
 30
0.0
  0
LWPOLYLINE
  5
29b
100
AcDbEntity
  8
0
 62
1
100
AcDbPolyline
 90
4
 70
1
 10
95.100100
 20
31.736800
 30
0.0
 10
95.890100
 20
31.736800
 30
0.0
 10
95.890100
 20
31.336800
 30
0.0
 10
95.100100
 20
31.336800
 30
0.0
  0
LWPOLYLINE
  5
29c
100
AcDbEntity
  8
0
 62
1
100
AcDbPolyline
 90
4
 70
1
 10
95.965100
 20
38.611800
 30
0.0
 10
97.565100
 20
38.611800
 30
0.0
 10
97.565100
 20
37.961800
 30
0.0
 10
95.965100
 20
37.961800
 30
0.0
  0
LWPOLYLINE
  5
29d
100
AcDbEntity
  8
0
 62
1
100
AcDbPolyline
 90
4
 70
1
 10
95.965100
 20
30.711800
 30
0.0
 10
97.565100
 20
30.711800
 30
0.0
 10
97.565100
 20
30.061800
 30
0.0
 10
95.965100
 20
30.061800
 30
0.0
  0
LWPOLYLINE
  5
29e
100
AcDbEntity
  8
0
 62
1
100
AcDbPolyline
 90
4
 70
1
 10
20.512600
 20
12.761800
 30
0.0
 10
19.722600
 20
12.761800
 30
0.0
 10
19.722600
 20
13.161800
 30
0.0
 10
20.512600
 20
13.161800
 30
0.0
  0
LWPOLYLINE
  5
29f
100
AcDbEntity
  8
0
 62
1
100
AcDbPolyline
 90
4
 70
1
 10
23.052600
 20
12.761800
 30
0.0
 10
22.262600
 20
12.761800
 30
0.0
 10
22.262600
 20
13.161800
 30
0.0
 10
23.052600
 20
13.161800
 30
0.0
  0
LWPOLYLINE
  5
2a0
100
AcDbEntity
  8
0
 62
1
100
AcDbPolyline
 90
4
 70
1
 10
20.512600
 20
13.561800
 30
0.0
 10
19.722600
 20
13.561800
 30
0.0
 10
19.722600
 20
13.961800
 30
0.0
 10
20.512600
 20
13.961800
 30
0.0
  0
LWPOLYLINE
  5
2a1
100
AcDbEntity
  8
0
 62
1
100
AcDbPolyline
 90
4
 70
1
 10
23.052600
 20
13.561800
 30
0.0
 10
22.262600
 20
13.561800
 30
0.0
 10
22.262600
 20
13.961800
 30
0.0
 10
23.052600
 20
13.961800
 30
0.0
  0
LWPOLYLINE
  5
2a2
100
AcDbEntity
  8
0
 62
1
100
AcDbPolyline
 90
4
 70
1
 10
20.512600
 20
14.361800
 30
0.0
 10
19.722600
 20
14.361800
 30
0.0
 10
19.722600
 20
14.761800
 30
0.0
 10
20.512600
 20
14.761800
 30
0.0
  0
LWPOLYLINE
  5
2a3
100
AcDbEntity
  8
0
 62
1
100
AcDbPolyline
 90
4
 70
1
 10
23.052600
 20
14.361800
 30
0.0
 10
22.262600
 20
14.361800
 30
0.0
 10
22.262600
 20
14.761800
 30
0.0
 10
23.052600
 20
14.761800
 30
0.0
  0
LWPOLYLINE
  5
2a4
100
AcDbEntity
  8
0
 62
1
100
AcDbPolyline
 90
4
 70
1
 10
20.512600
 20
15.161800
 30
0.0
 10
19.722600
 20
15.161800
 30
0.0
 10
19.722600
 20
15.561800
 30
0.0
 10
20.512600
 20
15.561800
 30
0.0
  0
LWPOLYLINE
  5
2a5
100
AcDbEntity
  8
0
 62
1
100
AcDbPolyline
 90
4
 70
1
 10
23.052600
 20
15.161800
 30
0.0
 10
22.262600
 20
15.161800
 30
0.0
 10
22.262600
 20
15.561800
 30
0.0
 10
23.052600
 20
15.561800
 30
0.0
  0
LWPOLYLINE
  5
2a6
100
AcDbEntity
  8
0
 62
1
100
AcDbPolyline
 90
4
 70
1
 10
20.512600
 20
15.961800
 30
0.0
 10
19.722600
 20
15.961800
 30
0.0
 10
19.722600
 20
16.361800
 30
0.0
 10
20.512600
 20
16.361800
 30
0.0
  0
LWPOLYLINE
  5
2a7
100
AcDbEntity
  8
0
 62
1
100
AcDbPolyline
 90
4
 70
1
 10
23.052600
 20
15.961800
 30
0.0
 10
22.262600
 20
15.961800
 30
0.0
 10
22.262600
 20
16.361800
 30
0.0
 10
23.052600
 20
16.361800
 30
0.0
  0
LWPOLYLINE
  5
2a8
100
AcDbEntity
  8
0
 62
1
100
AcDbPolyline
 90
4
 70
1
 10
20.512600
 20
16.761800
 30
0.0
 10
19.722600
 20
16.761800
 30
0.0
 10
19.722600
 20
17.161800
 30
0.0
 10
20.512600
 20
17.161800
 30
0.0
  0
LWPOLYLINE
  5
2a9
100
AcDbEntity
  8
0
 62
1
100
AcDbPolyline
 90
4
 70
1
 10
23.052600
 20
16.761800
 30
0.0
 10
22.262600
 20
16.761800
 30
0.0
 10
22.262600
 20
17.161800
 30
0.0
 10
23.052600
 20
17.161800
 30
0.0
  0
LWPOLYLINE
  5
2aa
100
AcDbEntity
  8
0
 62
1
100
AcDbPolyline
 90
4
 70
1
 10
20.512600
 20
17.561800
 30
0.0
 10
19.722600
 20
17.561800
 30
0.0
 10
19.722600
 20
17.961800
 30
0.0
 10
20.512600
 20
17.961800
 30
0.0
  0
LWPOLYLINE
  5
2ab
100
AcDbEntity
  8
0
 62
1
100
AcDbPolyline
 90
4
 70
1
 10
23.052600
 20
17.561800
 30
0.0
 10
22.262600
 20
17.561800
 30
0.0
 10
22.262600
 20
17.961800
 30
0.0
 10
23.052600
 20
17.961800
 30
0.0
  0
LWPOLYLINE
  5
2ac
100
AcDbEntity
  8
0
 62
1
100
AcDbPolyline
 90
4
 70
1
 10
20.512600
 20
18.361800
 30
0.0
 10
19.722600
 20
18.361800
 30
0.0
 10
19.722600
 20
18.761800
 30
0.0
 10
20.512600
 20
18.761800
 30
0.0
  0
LWPOLYLINE
  5
2ad
100
AcDbEntity
  8
0
 62
1
100
AcDbPolyline
 90
4
 70
1
 10
23.052600
 20
18.361800
 30
0.0
 10
22.262600
 20
18.361800
 30
0.0
 10
22.262600
 20
18.761800
 30
0.0
 10
23.052600
 20
18.761800
 30
0.0
  0
LWPOLYLINE
  5
2ae
100
AcDbEntity
  8
0
 62
1
100
AcDbPolyline
 90
4
 70
1
 10
22.187600
 20
11.486800
 30
0.0
 10
20.587600
 20
11.486800
 30
0.0
 10
20.587600
 20
12.136800
 30
0.0
 10
22.187600
 20
12.136800
 30
0.0
  0
LWPOLYLINE
  5
2af
100
AcDbEntity
  8
0
 62
1
100
AcDbPolyline
 90
4
 70
1
 10
22.187600
 20
19.386800
 30
0.0
 10
20.587600
 20
19.386800
 30
0.0
 10
20.587600
 20
20.036800
 30
0.0
 10
22.187600
 20
20.036800
 30
0.0
  0
LWPOLYLINE
  5
2b0
100
AcDbEntity
  8
0
 62
2
100
AcDbPolyline
 90
4
 70
1
 10
132.892000
 20
0.026200
 30
0.0
 10
0.050000
 20
0.026200
 30
0.0
 10
0.050000
 20
90.856600
 30
0.0
 10
132.892000
 20
90.856600
 30
0.0
  0
ENDSEC
  0
SECTION
  2
OBJECTS
  0
DICTIONARY
  5
C
330
0
100
AcDbDictionary
  3
ACAD_GROUP
350
D
  3
ACAD_MLINESTYLE
350
17
  0
DICTIONARY
  5
D
330
C
100
AcDbDictionary
  0
DICTIONARY
  5
1A
330
C
100
AcDbDictionary
  0
DICTIONARY
  5
17
330
C
100
AcDbDictionary
  3
STANDARD
350
18
  0
DICTIONARY
  5
19
330
C
100
AcDbDictionary
  0
ENDSEC
  0
EOF
