%TF.GenerationSoftware,KiCad,Pcbnew,(7.0.0-0)*%
%TF.CreationDate,2023-04-03T17:09:53+02:00*%
%TF.ProjectId,omniscope,6f6d6e69-7363-46f7-9065-2e6b69636164,rev?*%
%TF.SameCoordinates,Original*%
%TF.FileFunction,Legend,Top*%
%TF.FilePolarity,Positive*%
%FSLAX46Y46*%
G04 Gerber Fmt 4.6, Leading zero omitted, Abs format (unit mm)*
G04 Created by KiCad (PCBNEW (7.0.0-0)) date 2023-04-03 17:09:53*
%MOMM*%
%LPD*%
G01*
G04 APERTURE LIST*
%ADD10C,0.150000*%
%ADD11C,0.120000*%
G04 APERTURE END LIST*
D10*
%TO.C,J7*%
X118263494Y-35565100D02*
X117758418Y-36070176D01*
X117758418Y-36070176D02*
X117623731Y-36137520D01*
X117623731Y-36137520D02*
X117489044Y-36137520D01*
X117489044Y-36137520D02*
X117354357Y-36070176D01*
X117354357Y-36070176D02*
X117287014Y-36002833D01*
X118532869Y-35834474D02*
X119004273Y-36305879D01*
X119004273Y-36305879D02*
X117994121Y-36709940D01*
%TO.C,J5*%
X80538494Y-73340100D02*
X80033418Y-73845176D01*
X80033418Y-73845176D02*
X79898731Y-73912520D01*
X79898731Y-73912520D02*
X79764044Y-73912520D01*
X79764044Y-73912520D02*
X79629357Y-73845176D01*
X79629357Y-73845176D02*
X79562014Y-73777833D01*
X81211930Y-74013535D02*
X80875212Y-73676818D01*
X80875212Y-73676818D02*
X80504823Y-73979863D01*
X80504823Y-73979863D02*
X80572166Y-73979863D01*
X80572166Y-73979863D02*
X80673182Y-74013535D01*
X80673182Y-74013535D02*
X80841540Y-74181894D01*
X80841540Y-74181894D02*
X80875212Y-74282909D01*
X80875212Y-74282909D02*
X80875212Y-74350253D01*
X80875212Y-74350253D02*
X80841540Y-74451268D01*
X80841540Y-74451268D02*
X80673182Y-74619627D01*
X80673182Y-74619627D02*
X80572166Y-74653298D01*
X80572166Y-74653298D02*
X80504823Y-74653298D01*
X80504823Y-74653298D02*
X80403808Y-74619627D01*
X80403808Y-74619627D02*
X80235449Y-74451268D01*
X80235449Y-74451268D02*
X80201777Y-74350253D01*
X80201777Y-74350253D02*
X80201777Y-74282909D01*
%TO.C,J4*%
X61501075Y-73202519D02*
X60995999Y-73707595D01*
X60995999Y-73707595D02*
X60861312Y-73774939D01*
X60861312Y-73774939D02*
X60726625Y-73774939D01*
X60726625Y-73774939D02*
X60591938Y-73707595D01*
X60591938Y-73707595D02*
X60524595Y-73640252D01*
X61905137Y-74077985D02*
X61433732Y-74549389D01*
X62006152Y-73640252D02*
X61332717Y-73976969D01*
X61332717Y-73976969D02*
X61770450Y-74414702D01*
%TO.C,J6*%
X99400913Y-92177681D02*
X98895837Y-92682757D01*
X98895837Y-92682757D02*
X98761150Y-92750101D01*
X98761150Y-92750101D02*
X98626463Y-92750101D01*
X98626463Y-92750101D02*
X98491776Y-92682757D01*
X98491776Y-92682757D02*
X98424433Y-92615414D01*
X100040677Y-92817444D02*
X99905990Y-92682757D01*
X99905990Y-92682757D02*
X99804975Y-92649086D01*
X99804975Y-92649086D02*
X99737631Y-92649086D01*
X99737631Y-92649086D02*
X99569272Y-92682757D01*
X99569272Y-92682757D02*
X99400914Y-92783773D01*
X99400914Y-92783773D02*
X99131540Y-93053147D01*
X99131540Y-93053147D02*
X99097868Y-93154162D01*
X99097868Y-93154162D02*
X99097868Y-93221505D01*
X99097868Y-93221505D02*
X99131540Y-93322521D01*
X99131540Y-93322521D02*
X99266227Y-93457208D01*
X99266227Y-93457208D02*
X99367242Y-93490879D01*
X99367242Y-93490879D02*
X99434585Y-93490879D01*
X99434585Y-93490879D02*
X99535601Y-93457208D01*
X99535601Y-93457208D02*
X99703959Y-93288849D01*
X99703959Y-93288849D02*
X99737631Y-93187834D01*
X99737631Y-93187834D02*
X99737631Y-93120490D01*
X99737631Y-93120490D02*
X99703959Y-93019475D01*
X99703959Y-93019475D02*
X99569272Y-92884788D01*
X99569272Y-92884788D02*
X99468257Y-92851116D01*
X99468257Y-92851116D02*
X99400914Y-92851116D01*
X99400914Y-92851116D02*
X99299898Y-92884788D01*
%TO.C,J4*%
X61426075Y-35377519D02*
X60920999Y-35882595D01*
X60920999Y-35882595D02*
X60786312Y-35949939D01*
X60786312Y-35949939D02*
X60651625Y-35949939D01*
X60651625Y-35949939D02*
X60516938Y-35882595D01*
X60516938Y-35882595D02*
X60449595Y-35815252D01*
X61830137Y-36252985D02*
X61358732Y-36724389D01*
X61931152Y-35815252D02*
X61257717Y-36151969D01*
X61257717Y-36151969D02*
X61695450Y-36589702D01*
%TO.C,J8*%
X42554862Y-92123732D02*
X42049786Y-92628808D01*
X42049786Y-92628808D02*
X41915099Y-92696152D01*
X41915099Y-92696152D02*
X41780412Y-92696152D01*
X41780412Y-92696152D02*
X41645725Y-92628808D01*
X41645725Y-92628808D02*
X41578382Y-92561465D01*
X42689550Y-92864511D02*
X42655878Y-92763495D01*
X42655878Y-92763495D02*
X42655878Y-92696152D01*
X42655878Y-92696152D02*
X42689550Y-92595137D01*
X42689550Y-92595137D02*
X42723221Y-92561465D01*
X42723221Y-92561465D02*
X42824237Y-92527793D01*
X42824237Y-92527793D02*
X42891580Y-92527793D01*
X42891580Y-92527793D02*
X42992595Y-92561465D01*
X42992595Y-92561465D02*
X43127282Y-92696152D01*
X43127282Y-92696152D02*
X43160954Y-92797167D01*
X43160954Y-92797167D02*
X43160954Y-92864511D01*
X43160954Y-92864511D02*
X43127282Y-92965526D01*
X43127282Y-92965526D02*
X43093611Y-92999198D01*
X43093611Y-92999198D02*
X42992595Y-93032869D01*
X42992595Y-93032869D02*
X42925252Y-93032869D01*
X42925252Y-93032869D02*
X42824237Y-92999198D01*
X42824237Y-92999198D02*
X42689550Y-92864511D01*
X42689550Y-92864511D02*
X42588534Y-92830839D01*
X42588534Y-92830839D02*
X42521191Y-92830839D01*
X42521191Y-92830839D02*
X42420176Y-92864511D01*
X42420176Y-92864511D02*
X42285489Y-92999198D01*
X42285489Y-92999198D02*
X42251817Y-93100213D01*
X42251817Y-93100213D02*
X42251817Y-93167556D01*
X42251817Y-93167556D02*
X42285489Y-93268572D01*
X42285489Y-93268572D02*
X42420176Y-93403259D01*
X42420176Y-93403259D02*
X42521191Y-93436930D01*
X42521191Y-93436930D02*
X42588534Y-93436930D01*
X42588534Y-93436930D02*
X42689550Y-93403259D01*
X42689550Y-93403259D02*
X42824237Y-93268572D01*
X42824237Y-93268572D02*
X42857908Y-93167556D01*
X42857908Y-93167556D02*
X42857908Y-93100213D01*
X42857908Y-93100213D02*
X42824237Y-92999198D01*
%TO.C,J7*%
X118375913Y-92327681D02*
X117870837Y-92832757D01*
X117870837Y-92832757D02*
X117736150Y-92900101D01*
X117736150Y-92900101D02*
X117601463Y-92900101D01*
X117601463Y-92900101D02*
X117466776Y-92832757D01*
X117466776Y-92832757D02*
X117399433Y-92765414D01*
X118645288Y-92597055D02*
X119116692Y-93068460D01*
X119116692Y-93068460D02*
X118106540Y-93472521D01*
%TO.C,J4*%
X61538494Y-92140100D02*
X61033418Y-92645176D01*
X61033418Y-92645176D02*
X60898731Y-92712520D01*
X60898731Y-92712520D02*
X60764044Y-92712520D01*
X60764044Y-92712520D02*
X60629357Y-92645176D01*
X60629357Y-92645176D02*
X60562014Y-92577833D01*
X61942556Y-93015566D02*
X61471151Y-93486970D01*
X62043571Y-92577833D02*
X61370136Y-92914550D01*
X61370136Y-92914550D02*
X61807869Y-93352283D01*
%TO.C,J5*%
X80463494Y-35515100D02*
X79958418Y-36020176D01*
X79958418Y-36020176D02*
X79823731Y-36087520D01*
X79823731Y-36087520D02*
X79689044Y-36087520D01*
X79689044Y-36087520D02*
X79554357Y-36020176D01*
X79554357Y-36020176D02*
X79487014Y-35952833D01*
X81136930Y-36188535D02*
X80800212Y-35851818D01*
X80800212Y-35851818D02*
X80429823Y-36154863D01*
X80429823Y-36154863D02*
X80497166Y-36154863D01*
X80497166Y-36154863D02*
X80598182Y-36188535D01*
X80598182Y-36188535D02*
X80766540Y-36356894D01*
X80766540Y-36356894D02*
X80800212Y-36457909D01*
X80800212Y-36457909D02*
X80800212Y-36525253D01*
X80800212Y-36525253D02*
X80766540Y-36626268D01*
X80766540Y-36626268D02*
X80598182Y-36794627D01*
X80598182Y-36794627D02*
X80497166Y-36828298D01*
X80497166Y-36828298D02*
X80429823Y-36828298D01*
X80429823Y-36828298D02*
X80328808Y-36794627D01*
X80328808Y-36794627D02*
X80160449Y-36626268D01*
X80160449Y-36626268D02*
X80126777Y-36525253D01*
X80126777Y-36525253D02*
X80126777Y-36457909D01*
%TO.C,J6*%
X99238494Y-54240100D02*
X98733418Y-54745176D01*
X98733418Y-54745176D02*
X98598731Y-54812520D01*
X98598731Y-54812520D02*
X98464044Y-54812520D01*
X98464044Y-54812520D02*
X98329357Y-54745176D01*
X98329357Y-54745176D02*
X98262014Y-54677833D01*
X99878258Y-54879863D02*
X99743571Y-54745176D01*
X99743571Y-54745176D02*
X99642556Y-54711505D01*
X99642556Y-54711505D02*
X99575212Y-54711505D01*
X99575212Y-54711505D02*
X99406853Y-54745176D01*
X99406853Y-54745176D02*
X99238495Y-54846192D01*
X99238495Y-54846192D02*
X98969121Y-55115566D01*
X98969121Y-55115566D02*
X98935449Y-55216581D01*
X98935449Y-55216581D02*
X98935449Y-55283924D01*
X98935449Y-55283924D02*
X98969121Y-55384940D01*
X98969121Y-55384940D02*
X99103808Y-55519627D01*
X99103808Y-55519627D02*
X99204823Y-55553298D01*
X99204823Y-55553298D02*
X99272166Y-55553298D01*
X99272166Y-55553298D02*
X99373182Y-55519627D01*
X99373182Y-55519627D02*
X99541540Y-55351268D01*
X99541540Y-55351268D02*
X99575212Y-55250253D01*
X99575212Y-55250253D02*
X99575212Y-55182909D01*
X99575212Y-55182909D02*
X99541540Y-55081894D01*
X99541540Y-55081894D02*
X99406853Y-54947207D01*
X99406853Y-54947207D02*
X99305838Y-54913535D01*
X99305838Y-54913535D02*
X99238495Y-54913535D01*
X99238495Y-54913535D02*
X99137479Y-54947207D01*
%TO.C,J5*%
X80413494Y-54340100D02*
X79908418Y-54845176D01*
X79908418Y-54845176D02*
X79773731Y-54912520D01*
X79773731Y-54912520D02*
X79639044Y-54912520D01*
X79639044Y-54912520D02*
X79504357Y-54845176D01*
X79504357Y-54845176D02*
X79437014Y-54777833D01*
X81086930Y-55013535D02*
X80750212Y-54676818D01*
X80750212Y-54676818D02*
X80379823Y-54979863D01*
X80379823Y-54979863D02*
X80447166Y-54979863D01*
X80447166Y-54979863D02*
X80548182Y-55013535D01*
X80548182Y-55013535D02*
X80716540Y-55181894D01*
X80716540Y-55181894D02*
X80750212Y-55282909D01*
X80750212Y-55282909D02*
X80750212Y-55350253D01*
X80750212Y-55350253D02*
X80716540Y-55451268D01*
X80716540Y-55451268D02*
X80548182Y-55619627D01*
X80548182Y-55619627D02*
X80447166Y-55653298D01*
X80447166Y-55653298D02*
X80379823Y-55653298D01*
X80379823Y-55653298D02*
X80278808Y-55619627D01*
X80278808Y-55619627D02*
X80110449Y-55451268D01*
X80110449Y-55451268D02*
X80076777Y-55350253D01*
X80076777Y-55350253D02*
X80076777Y-55282909D01*
%TO.C,J1*%
X23730597Y-73172997D02*
X23225521Y-73678073D01*
X23225521Y-73678073D02*
X23090834Y-73745417D01*
X23090834Y-73745417D02*
X22956147Y-73745417D01*
X22956147Y-73745417D02*
X22821460Y-73678073D01*
X22821460Y-73678073D02*
X22754117Y-73610730D01*
X23730598Y-74587211D02*
X23326537Y-74183150D01*
X23528567Y-74385180D02*
X24235674Y-73678073D01*
X24235674Y-73678073D02*
X24067315Y-73711745D01*
X24067315Y-73711745D02*
X23932628Y-73711745D01*
X23932628Y-73711745D02*
X23831613Y-73678073D01*
%TO.C,J5*%
X80575913Y-92277681D02*
X80070837Y-92782757D01*
X80070837Y-92782757D02*
X79936150Y-92850101D01*
X79936150Y-92850101D02*
X79801463Y-92850101D01*
X79801463Y-92850101D02*
X79666776Y-92782757D01*
X79666776Y-92782757D02*
X79599433Y-92715414D01*
X81249349Y-92951116D02*
X80912631Y-92614399D01*
X80912631Y-92614399D02*
X80542242Y-92917444D01*
X80542242Y-92917444D02*
X80609585Y-92917444D01*
X80609585Y-92917444D02*
X80710601Y-92951116D01*
X80710601Y-92951116D02*
X80878959Y-93119475D01*
X80878959Y-93119475D02*
X80912631Y-93220490D01*
X80912631Y-93220490D02*
X80912631Y-93287834D01*
X80912631Y-93287834D02*
X80878959Y-93388849D01*
X80878959Y-93388849D02*
X80710601Y-93557208D01*
X80710601Y-93557208D02*
X80609585Y-93590879D01*
X80609585Y-93590879D02*
X80542242Y-93590879D01*
X80542242Y-93590879D02*
X80441227Y-93557208D01*
X80441227Y-93557208D02*
X80272868Y-93388849D01*
X80272868Y-93388849D02*
X80239196Y-93287834D01*
X80239196Y-93287834D02*
X80239196Y-93220490D01*
%TO.C,J6*%
X99363494Y-73240100D02*
X98858418Y-73745176D01*
X98858418Y-73745176D02*
X98723731Y-73812520D01*
X98723731Y-73812520D02*
X98589044Y-73812520D01*
X98589044Y-73812520D02*
X98454357Y-73745176D01*
X98454357Y-73745176D02*
X98387014Y-73677833D01*
X100003258Y-73879863D02*
X99868571Y-73745176D01*
X99868571Y-73745176D02*
X99767556Y-73711505D01*
X99767556Y-73711505D02*
X99700212Y-73711505D01*
X99700212Y-73711505D02*
X99531853Y-73745176D01*
X99531853Y-73745176D02*
X99363495Y-73846192D01*
X99363495Y-73846192D02*
X99094121Y-74115566D01*
X99094121Y-74115566D02*
X99060449Y-74216581D01*
X99060449Y-74216581D02*
X99060449Y-74283924D01*
X99060449Y-74283924D02*
X99094121Y-74384940D01*
X99094121Y-74384940D02*
X99228808Y-74519627D01*
X99228808Y-74519627D02*
X99329823Y-74553298D01*
X99329823Y-74553298D02*
X99397166Y-74553298D01*
X99397166Y-74553298D02*
X99498182Y-74519627D01*
X99498182Y-74519627D02*
X99666540Y-74351268D01*
X99666540Y-74351268D02*
X99700212Y-74250253D01*
X99700212Y-74250253D02*
X99700212Y-74182909D01*
X99700212Y-74182909D02*
X99666540Y-74081894D01*
X99666540Y-74081894D02*
X99531853Y-73947207D01*
X99531853Y-73947207D02*
X99430838Y-73913535D01*
X99430838Y-73913535D02*
X99363495Y-73913535D01*
X99363495Y-73913535D02*
X99262479Y-73947207D01*
%TO.C,J8*%
X42442443Y-35361151D02*
X41937367Y-35866227D01*
X41937367Y-35866227D02*
X41802680Y-35933571D01*
X41802680Y-35933571D02*
X41667993Y-35933571D01*
X41667993Y-35933571D02*
X41533306Y-35866227D01*
X41533306Y-35866227D02*
X41465963Y-35798884D01*
X42577131Y-36101930D02*
X42543459Y-36000914D01*
X42543459Y-36000914D02*
X42543459Y-35933571D01*
X42543459Y-35933571D02*
X42577131Y-35832556D01*
X42577131Y-35832556D02*
X42610802Y-35798884D01*
X42610802Y-35798884D02*
X42711818Y-35765212D01*
X42711818Y-35765212D02*
X42779161Y-35765212D01*
X42779161Y-35765212D02*
X42880176Y-35798884D01*
X42880176Y-35798884D02*
X43014863Y-35933571D01*
X43014863Y-35933571D02*
X43048535Y-36034586D01*
X43048535Y-36034586D02*
X43048535Y-36101930D01*
X43048535Y-36101930D02*
X43014863Y-36202945D01*
X43014863Y-36202945D02*
X42981192Y-36236617D01*
X42981192Y-36236617D02*
X42880176Y-36270288D01*
X42880176Y-36270288D02*
X42812833Y-36270288D01*
X42812833Y-36270288D02*
X42711818Y-36236617D01*
X42711818Y-36236617D02*
X42577131Y-36101930D01*
X42577131Y-36101930D02*
X42476115Y-36068258D01*
X42476115Y-36068258D02*
X42408772Y-36068258D01*
X42408772Y-36068258D02*
X42307757Y-36101930D01*
X42307757Y-36101930D02*
X42173070Y-36236617D01*
X42173070Y-36236617D02*
X42139398Y-36337632D01*
X42139398Y-36337632D02*
X42139398Y-36404975D01*
X42139398Y-36404975D02*
X42173070Y-36505991D01*
X42173070Y-36505991D02*
X42307757Y-36640678D01*
X42307757Y-36640678D02*
X42408772Y-36674349D01*
X42408772Y-36674349D02*
X42476115Y-36674349D01*
X42476115Y-36674349D02*
X42577131Y-36640678D01*
X42577131Y-36640678D02*
X42711818Y-36505991D01*
X42711818Y-36505991D02*
X42745489Y-36404975D01*
X42745489Y-36404975D02*
X42745489Y-36337632D01*
X42745489Y-36337632D02*
X42711818Y-36236617D01*
%TO.C,J6*%
X99288494Y-35415100D02*
X98783418Y-35920176D01*
X98783418Y-35920176D02*
X98648731Y-35987520D01*
X98648731Y-35987520D02*
X98514044Y-35987520D01*
X98514044Y-35987520D02*
X98379357Y-35920176D01*
X98379357Y-35920176D02*
X98312014Y-35852833D01*
X99928258Y-36054863D02*
X99793571Y-35920176D01*
X99793571Y-35920176D02*
X99692556Y-35886505D01*
X99692556Y-35886505D02*
X99625212Y-35886505D01*
X99625212Y-35886505D02*
X99456853Y-35920176D01*
X99456853Y-35920176D02*
X99288495Y-36021192D01*
X99288495Y-36021192D02*
X99019121Y-36290566D01*
X99019121Y-36290566D02*
X98985449Y-36391581D01*
X98985449Y-36391581D02*
X98985449Y-36458924D01*
X98985449Y-36458924D02*
X99019121Y-36559940D01*
X99019121Y-36559940D02*
X99153808Y-36694627D01*
X99153808Y-36694627D02*
X99254823Y-36728298D01*
X99254823Y-36728298D02*
X99322166Y-36728298D01*
X99322166Y-36728298D02*
X99423182Y-36694627D01*
X99423182Y-36694627D02*
X99591540Y-36526268D01*
X99591540Y-36526268D02*
X99625212Y-36425253D01*
X99625212Y-36425253D02*
X99625212Y-36357909D01*
X99625212Y-36357909D02*
X99591540Y-36256894D01*
X99591540Y-36256894D02*
X99456853Y-36122207D01*
X99456853Y-36122207D02*
X99355838Y-36088535D01*
X99355838Y-36088535D02*
X99288495Y-36088535D01*
X99288495Y-36088535D02*
X99187479Y-36122207D01*
%TO.C,J7*%
X118338494Y-73390100D02*
X117833418Y-73895176D01*
X117833418Y-73895176D02*
X117698731Y-73962520D01*
X117698731Y-73962520D02*
X117564044Y-73962520D01*
X117564044Y-73962520D02*
X117429357Y-73895176D01*
X117429357Y-73895176D02*
X117362014Y-73827833D01*
X118607869Y-73659474D02*
X119079273Y-74130879D01*
X119079273Y-74130879D02*
X118069121Y-74534940D01*
%TO.C,J1*%
X23605597Y-54172997D02*
X23100521Y-54678073D01*
X23100521Y-54678073D02*
X22965834Y-54745417D01*
X22965834Y-54745417D02*
X22831147Y-54745417D01*
X22831147Y-54745417D02*
X22696460Y-54678073D01*
X22696460Y-54678073D02*
X22629117Y-54610730D01*
X23605598Y-55587211D02*
X23201537Y-55183150D01*
X23403567Y-55385180D02*
X24110674Y-54678073D01*
X24110674Y-54678073D02*
X23942315Y-54711745D01*
X23942315Y-54711745D02*
X23807628Y-54711745D01*
X23807628Y-54711745D02*
X23706613Y-54678073D01*
%TO.C,J8*%
X42392443Y-54186151D02*
X41887367Y-54691227D01*
X41887367Y-54691227D02*
X41752680Y-54758571D01*
X41752680Y-54758571D02*
X41617993Y-54758571D01*
X41617993Y-54758571D02*
X41483306Y-54691227D01*
X41483306Y-54691227D02*
X41415963Y-54623884D01*
X42527131Y-54926930D02*
X42493459Y-54825914D01*
X42493459Y-54825914D02*
X42493459Y-54758571D01*
X42493459Y-54758571D02*
X42527131Y-54657556D01*
X42527131Y-54657556D02*
X42560802Y-54623884D01*
X42560802Y-54623884D02*
X42661818Y-54590212D01*
X42661818Y-54590212D02*
X42729161Y-54590212D01*
X42729161Y-54590212D02*
X42830176Y-54623884D01*
X42830176Y-54623884D02*
X42964863Y-54758571D01*
X42964863Y-54758571D02*
X42998535Y-54859586D01*
X42998535Y-54859586D02*
X42998535Y-54926930D01*
X42998535Y-54926930D02*
X42964863Y-55027945D01*
X42964863Y-55027945D02*
X42931192Y-55061617D01*
X42931192Y-55061617D02*
X42830176Y-55095288D01*
X42830176Y-55095288D02*
X42762833Y-55095288D01*
X42762833Y-55095288D02*
X42661818Y-55061617D01*
X42661818Y-55061617D02*
X42527131Y-54926930D01*
X42527131Y-54926930D02*
X42426115Y-54893258D01*
X42426115Y-54893258D02*
X42358772Y-54893258D01*
X42358772Y-54893258D02*
X42257757Y-54926930D01*
X42257757Y-54926930D02*
X42123070Y-55061617D01*
X42123070Y-55061617D02*
X42089398Y-55162632D01*
X42089398Y-55162632D02*
X42089398Y-55229975D01*
X42089398Y-55229975D02*
X42123070Y-55330991D01*
X42123070Y-55330991D02*
X42257757Y-55465678D01*
X42257757Y-55465678D02*
X42358772Y-55499349D01*
X42358772Y-55499349D02*
X42426115Y-55499349D01*
X42426115Y-55499349D02*
X42527131Y-55465678D01*
X42527131Y-55465678D02*
X42661818Y-55330991D01*
X42661818Y-55330991D02*
X42695489Y-55229975D01*
X42695489Y-55229975D02*
X42695489Y-55162632D01*
X42695489Y-55162632D02*
X42661818Y-55061617D01*
%TO.C,J4*%
X61376075Y-54202519D02*
X60870999Y-54707595D01*
X60870999Y-54707595D02*
X60736312Y-54774939D01*
X60736312Y-54774939D02*
X60601625Y-54774939D01*
X60601625Y-54774939D02*
X60466938Y-54707595D01*
X60466938Y-54707595D02*
X60399595Y-54640252D01*
X61780137Y-55077985D02*
X61308732Y-55549389D01*
X61881152Y-54640252D02*
X61207717Y-54976969D01*
X61207717Y-54976969D02*
X61645450Y-55414702D01*
%TO.C,J7*%
X118213494Y-54390100D02*
X117708418Y-54895176D01*
X117708418Y-54895176D02*
X117573731Y-54962520D01*
X117573731Y-54962520D02*
X117439044Y-54962520D01*
X117439044Y-54962520D02*
X117304357Y-54895176D01*
X117304357Y-54895176D02*
X117237014Y-54827833D01*
X118482869Y-54659474D02*
X118954273Y-55130879D01*
X118954273Y-55130879D02*
X117944121Y-55534940D01*
%TO.C,J8*%
X42517443Y-73186151D02*
X42012367Y-73691227D01*
X42012367Y-73691227D02*
X41877680Y-73758571D01*
X41877680Y-73758571D02*
X41742993Y-73758571D01*
X41742993Y-73758571D02*
X41608306Y-73691227D01*
X41608306Y-73691227D02*
X41540963Y-73623884D01*
X42652131Y-73926930D02*
X42618459Y-73825914D01*
X42618459Y-73825914D02*
X42618459Y-73758571D01*
X42618459Y-73758571D02*
X42652131Y-73657556D01*
X42652131Y-73657556D02*
X42685802Y-73623884D01*
X42685802Y-73623884D02*
X42786818Y-73590212D01*
X42786818Y-73590212D02*
X42854161Y-73590212D01*
X42854161Y-73590212D02*
X42955176Y-73623884D01*
X42955176Y-73623884D02*
X43089863Y-73758571D01*
X43089863Y-73758571D02*
X43123535Y-73859586D01*
X43123535Y-73859586D02*
X43123535Y-73926930D01*
X43123535Y-73926930D02*
X43089863Y-74027945D01*
X43089863Y-74027945D02*
X43056192Y-74061617D01*
X43056192Y-74061617D02*
X42955176Y-74095288D01*
X42955176Y-74095288D02*
X42887833Y-74095288D01*
X42887833Y-74095288D02*
X42786818Y-74061617D01*
X42786818Y-74061617D02*
X42652131Y-73926930D01*
X42652131Y-73926930D02*
X42551115Y-73893258D01*
X42551115Y-73893258D02*
X42483772Y-73893258D01*
X42483772Y-73893258D02*
X42382757Y-73926930D01*
X42382757Y-73926930D02*
X42248070Y-74061617D01*
X42248070Y-74061617D02*
X42214398Y-74162632D01*
X42214398Y-74162632D02*
X42214398Y-74229975D01*
X42214398Y-74229975D02*
X42248070Y-74330991D01*
X42248070Y-74330991D02*
X42382757Y-74465678D01*
X42382757Y-74465678D02*
X42483772Y-74499349D01*
X42483772Y-74499349D02*
X42551115Y-74499349D01*
X42551115Y-74499349D02*
X42652131Y-74465678D01*
X42652131Y-74465678D02*
X42786818Y-74330991D01*
X42786818Y-74330991D02*
X42820489Y-74229975D01*
X42820489Y-74229975D02*
X42820489Y-74162632D01*
X42820489Y-74162632D02*
X42786818Y-74061617D01*
%TO.C,J1*%
X23655597Y-35347997D02*
X23150521Y-35853073D01*
X23150521Y-35853073D02*
X23015834Y-35920417D01*
X23015834Y-35920417D02*
X22881147Y-35920417D01*
X22881147Y-35920417D02*
X22746460Y-35853073D01*
X22746460Y-35853073D02*
X22679117Y-35785730D01*
X23655598Y-36762211D02*
X23251537Y-36358150D01*
X23453567Y-36560180D02*
X24160674Y-35853073D01*
X24160674Y-35853073D02*
X23992315Y-35886745D01*
X23992315Y-35886745D02*
X23857628Y-35886745D01*
X23857628Y-35886745D02*
X23756613Y-35853073D01*
X23768016Y-92110578D02*
X23262940Y-92615654D01*
X23262940Y-92615654D02*
X23128253Y-92682998D01*
X23128253Y-92682998D02*
X22993566Y-92682998D01*
X22993566Y-92682998D02*
X22858879Y-92615654D01*
X22858879Y-92615654D02*
X22791536Y-92548311D01*
X23768017Y-93524792D02*
X23363956Y-93120731D01*
X23565986Y-93322761D02*
X24273093Y-92615654D01*
X24273093Y-92615654D02*
X24104734Y-92649326D01*
X24104734Y-92649326D02*
X23970047Y-92649326D01*
X23970047Y-92649326D02*
X23869032Y-92615654D01*
D11*
%TO.C,J7*%
X119699427Y-36481477D02*
X118758975Y-35541025D01*
X120639879Y-35541025D02*
X119699427Y-36481477D01*
X121537905Y-34642999D02*
X134152690Y-22028214D01*
X121537905Y-34642999D02*
X119657001Y-32762095D01*
X134152690Y-22028214D02*
X132271786Y-20147310D01*
X119657001Y-32762095D02*
X132271786Y-20147310D01*
%TO.C,J5*%
X81974427Y-74256477D02*
X81033975Y-73316025D01*
X82914879Y-73316025D02*
X81974427Y-74256477D01*
X83812905Y-72417999D02*
X96427690Y-59803214D01*
X83812905Y-72417999D02*
X81932001Y-70537095D01*
X96427690Y-59803214D02*
X94546786Y-57922310D01*
X81932001Y-70537095D02*
X94546786Y-57922310D01*
%TO.C,J4*%
X62937008Y-74118896D02*
X61996556Y-73178444D01*
X63877460Y-73178444D02*
X62937008Y-74118896D01*
X64775486Y-72280418D02*
X77390271Y-59665633D01*
X64775486Y-72280418D02*
X62894582Y-70399514D01*
X77390271Y-59665633D02*
X75509367Y-57784729D01*
X62894582Y-70399514D02*
X75509367Y-57784729D01*
%TO.C,J6*%
X100836846Y-93094058D02*
X99896394Y-92153606D01*
X101777298Y-92153606D02*
X100836846Y-93094058D01*
X102675324Y-91255580D02*
X115290109Y-78640795D01*
X102675324Y-91255580D02*
X100794420Y-89374676D01*
X115290109Y-78640795D02*
X113409205Y-76759891D01*
X100794420Y-89374676D02*
X113409205Y-76759891D01*
%TO.C,J4*%
X62862008Y-36293896D02*
X61921556Y-35353444D01*
X63802460Y-35353444D02*
X62862008Y-36293896D01*
X64700486Y-34455418D02*
X77315271Y-21840633D01*
X64700486Y-34455418D02*
X62819582Y-32574514D01*
X77315271Y-21840633D02*
X75434367Y-19959729D01*
X62819582Y-32574514D02*
X75434367Y-19959729D01*
%TO.C,J8*%
X43990795Y-93040109D02*
X43050343Y-92099657D01*
X44931247Y-92099657D02*
X43990795Y-93040109D01*
X45829273Y-91201631D02*
X58444058Y-78586846D01*
X45829273Y-91201631D02*
X43948369Y-89320727D01*
X58444058Y-78586846D02*
X56563154Y-76705942D01*
X43948369Y-89320727D02*
X56563154Y-76705942D01*
%TO.C,J7*%
X119811846Y-93244058D02*
X118871394Y-92303606D01*
X120752298Y-92303606D02*
X119811846Y-93244058D01*
X121650324Y-91405580D02*
X134265109Y-78790795D01*
X121650324Y-91405580D02*
X119769420Y-89524676D01*
X134265109Y-78790795D02*
X132384205Y-76909891D01*
X119769420Y-89524676D02*
X132384205Y-76909891D01*
%TO.C,J4*%
X62974427Y-93056477D02*
X62033975Y-92116025D01*
X63914879Y-92116025D02*
X62974427Y-93056477D01*
X64812905Y-91217999D02*
X77427690Y-78603214D01*
X64812905Y-91217999D02*
X62932001Y-89337095D01*
X77427690Y-78603214D02*
X75546786Y-76722310D01*
X62932001Y-89337095D02*
X75546786Y-76722310D01*
%TO.C,J5*%
X81899427Y-36431477D02*
X80958975Y-35491025D01*
X82839879Y-35491025D02*
X81899427Y-36431477D01*
X83737905Y-34592999D02*
X96352690Y-21978214D01*
X83737905Y-34592999D02*
X81857001Y-32712095D01*
X96352690Y-21978214D02*
X94471786Y-20097310D01*
X81857001Y-32712095D02*
X94471786Y-20097310D01*
%TO.C,J6*%
X100674427Y-55156477D02*
X99733975Y-54216025D01*
X101614879Y-54216025D02*
X100674427Y-55156477D01*
X102512905Y-53317999D02*
X115127690Y-40703214D01*
X102512905Y-53317999D02*
X100632001Y-51437095D01*
X115127690Y-40703214D02*
X113246786Y-38822310D01*
X100632001Y-51437095D02*
X113246786Y-38822310D01*
%TO.C,J5*%
X81849427Y-55256477D02*
X80908975Y-54316025D01*
X82789879Y-54316025D02*
X81849427Y-55256477D01*
X83687905Y-53417999D02*
X96302690Y-40803214D01*
X83687905Y-53417999D02*
X81807001Y-51537095D01*
X96302690Y-40803214D02*
X94421786Y-38922310D01*
X81807001Y-51537095D02*
X94421786Y-38922310D01*
%TO.C,J1*%
X25166530Y-74089374D02*
X24226078Y-73148922D01*
X26106982Y-73148922D02*
X25166530Y-74089374D01*
X27005008Y-72250896D02*
X39619793Y-59636111D01*
X27005008Y-72250896D02*
X25124104Y-70369992D01*
X39619793Y-59636111D02*
X37738889Y-57755207D01*
X25124104Y-70369992D02*
X37738889Y-57755207D01*
%TO.C,J5*%
X82011846Y-93194058D02*
X81071394Y-92253606D01*
X82952298Y-92253606D02*
X82011846Y-93194058D01*
X83850324Y-91355580D02*
X96465109Y-78740795D01*
X83850324Y-91355580D02*
X81969420Y-89474676D01*
X96465109Y-78740795D02*
X94584205Y-76859891D01*
X81969420Y-89474676D02*
X94584205Y-76859891D01*
%TO.C,J6*%
X100799427Y-74156477D02*
X99858975Y-73216025D01*
X101739879Y-73216025D02*
X100799427Y-74156477D01*
X102637905Y-72317999D02*
X115252690Y-59703214D01*
X102637905Y-72317999D02*
X100757001Y-70437095D01*
X115252690Y-59703214D02*
X113371786Y-57822310D01*
X100757001Y-70437095D02*
X113371786Y-57822310D01*
%TO.C,J8*%
X43878376Y-36277528D02*
X42937924Y-35337076D01*
X44818828Y-35337076D02*
X43878376Y-36277528D01*
X45716854Y-34439050D02*
X58331639Y-21824265D01*
X45716854Y-34439050D02*
X43835950Y-32558146D01*
X58331639Y-21824265D02*
X56450735Y-19943361D01*
X43835950Y-32558146D02*
X56450735Y-19943361D01*
%TO.C,J6*%
X100724427Y-36331477D02*
X99783975Y-35391025D01*
X101664879Y-35391025D02*
X100724427Y-36331477D01*
X102562905Y-34492999D02*
X115177690Y-21878214D01*
X102562905Y-34492999D02*
X100682001Y-32612095D01*
X115177690Y-21878214D02*
X113296786Y-19997310D01*
X100682001Y-32612095D02*
X113296786Y-19997310D01*
%TO.C,J7*%
X119774427Y-74306477D02*
X118833975Y-73366025D01*
X120714879Y-73366025D02*
X119774427Y-74306477D01*
X121612905Y-72467999D02*
X134227690Y-59853214D01*
X121612905Y-72467999D02*
X119732001Y-70587095D01*
X134227690Y-59853214D02*
X132346786Y-57972310D01*
X119732001Y-70587095D02*
X132346786Y-57972310D01*
%TO.C,J1*%
X25041530Y-55089374D02*
X24101078Y-54148922D01*
X25981982Y-54148922D02*
X25041530Y-55089374D01*
X26880008Y-53250896D02*
X39494793Y-40636111D01*
X26880008Y-53250896D02*
X24999104Y-51369992D01*
X39494793Y-40636111D02*
X37613889Y-38755207D01*
X24999104Y-51369992D02*
X37613889Y-38755207D01*
%TO.C,J8*%
X43828376Y-55102528D02*
X42887924Y-54162076D01*
X44768828Y-54162076D02*
X43828376Y-55102528D01*
X45666854Y-53264050D02*
X58281639Y-40649265D01*
X45666854Y-53264050D02*
X43785950Y-51383146D01*
X58281639Y-40649265D02*
X56400735Y-38768361D01*
X43785950Y-51383146D02*
X56400735Y-38768361D01*
%TO.C,J4*%
X62812008Y-55118896D02*
X61871556Y-54178444D01*
X63752460Y-54178444D02*
X62812008Y-55118896D01*
X64650486Y-53280418D02*
X77265271Y-40665633D01*
X64650486Y-53280418D02*
X62769582Y-51399514D01*
X77265271Y-40665633D02*
X75384367Y-38784729D01*
X62769582Y-51399514D02*
X75384367Y-38784729D01*
%TO.C,J7*%
X119649427Y-55306477D02*
X118708975Y-54366025D01*
X120589879Y-54366025D02*
X119649427Y-55306477D01*
X121487905Y-53467999D02*
X134102690Y-40853214D01*
X121487905Y-53467999D02*
X119607001Y-51587095D01*
X134102690Y-40853214D02*
X132221786Y-38972310D01*
X119607001Y-51587095D02*
X132221786Y-38972310D01*
%TO.C,J8*%
X43953376Y-74102528D02*
X43012924Y-73162076D01*
X44893828Y-73162076D02*
X43953376Y-74102528D01*
X45791854Y-72264050D02*
X58406639Y-59649265D01*
X45791854Y-72264050D02*
X43910950Y-70383146D01*
X58406639Y-59649265D02*
X56525735Y-57768361D01*
X43910950Y-70383146D02*
X56525735Y-57768361D01*
%TO.C,J1*%
X25091530Y-36264374D02*
X24151078Y-35323922D01*
X26031982Y-35323922D02*
X25091530Y-36264374D01*
X26930008Y-34425896D02*
X39544793Y-21811111D01*
X26930008Y-34425896D02*
X25049104Y-32544992D01*
X39544793Y-21811111D02*
X37663889Y-19930207D01*
X25049104Y-32544992D02*
X37663889Y-19930207D01*
X25203949Y-93026955D02*
X24263497Y-92086503D01*
X26144401Y-92086503D02*
X25203949Y-93026955D01*
X27042427Y-91188477D02*
X39657212Y-78573692D01*
X27042427Y-91188477D02*
X25161523Y-89307573D01*
X39657212Y-78573692D02*
X37776308Y-76692788D01*
X25161523Y-89307573D02*
X37776308Y-76692788D01*
%TD*%
M02*
